solid OpenSCAD_Model
  facet normal -0.831419 -0.555646 0
    outer loop
      vertex 49.2929 43.2929 0
      vertex 49.0761 43.6173 1.45
      vertex 49.0761 43.6173 0
    endloop
  endfacet
  facet normal -0.831419 -0.555646 0
    outer loop
      vertex 49.0761 43.6173 1.45
      vertex 49.2929 43.2929 0
      vertex 49.2929 43.2929 1.45
    endloop
  endfacet
  facet normal 0.831182 0.556 0
    outer loop
      vertex 113.924 94.3827 1.45
      vertex 113.707 94.7071 0
      vertex 113.707 94.7071 1.45
    endloop
  endfacet
  facet normal 0.831182 0.556 0
    outer loop
      vertex 113.707 94.7071 0
      vertex 113.924 94.3827 1.45
      vertex 113.924 94.3827 0
    endloop
  endfacet
  facet normal 0 1 -0
    outer loop
      vertex 113 95 0
      vertex 50 95 1.45
      vertex 113 95 1.45
    endloop
  endfacet
  facet normal 0 1 0
    outer loop
      vertex 50 95 1.45
      vertex 113 95 0
      vertex 50 95 0
    endloop
  endfacet
  facet normal 0.55612 0.831102 -0
    outer loop
      vertex 113.707 94.7071 0
      vertex 113.383 94.9239 1.45
      vertex 113.707 94.7071 1.45
    endloop
  endfacet
  facet normal 0.55612 0.831102 0
    outer loop
      vertex 113.383 94.9239 1.45
      vertex 113.707 94.7071 0
      vertex 113.383 94.9239 0
    endloop
  endfacet
  facet normal 1 -0 0
    outer loop
      vertex 114 44 1.45
      vertex 114 94 0
      vertex 114 94 1.45
    endloop
  endfacet
  facet normal 1 0 0
    outer loop
      vertex 114 94 0
      vertex 114 44 1.45
      vertex 114 44 0
    endloop
  endfacet
  facet normal -0.195032 0.980797 0
    outer loop
      vertex 50 95 0
      vertex 49.6173 94.9239 1.45
      vertex 50 95 1.45
    endloop
  endfacet
  facet normal -0.195032 0.980797 0
    outer loop
      vertex 49.6173 94.9239 1.45
      vertex 50 95 0
      vertex 49.6173 94.9239 0
    endloop
  endfacet
  facet normal 0.194885 0.980826 -0
    outer loop
      vertex 113.383 94.9239 0
      vertex 113 95 1.45
      vertex 113.383 94.9239 1.45
    endloop
  endfacet
  facet normal 0.194885 0.980826 0
    outer loop
      vertex 113 95 1.45
      vertex 113.383 94.9239 0
      vertex 113 95 0
    endloop
  endfacet
  facet normal -0.980797 -0.195032 0
    outer loop
      vertex 49.0761 43.6173 0
      vertex 49 44 1.45
      vertex 49 44 0
    endloop
  endfacet
  facet normal -0.980797 -0.195032 0
    outer loop
      vertex 49 44 1.45
      vertex 49.0761 43.6173 0
      vertex 49.0761 43.6173 1.45
    endloop
  endfacet
  facet normal 0 -1 0
    outer loop
      vertex 50 43 0
      vertex 113 43 1.45
      vertex 50 43 1.45
    endloop
  endfacet
  facet normal 0 -1 -0
    outer loop
      vertex 113 43 1.45
      vertex 50 43 0
      vertex 113 43 0
    endloop
  endfacet
  facet normal 0.831182 -0.556 0
    outer loop
      vertex 113.707 43.2929 1.45
      vertex 113.924 43.6173 0
      vertex 113.924 43.6173 1.45
    endloop
  endfacet
  facet normal 0.831182 -0.556 0
    outer loop
      vertex 113.924 43.6173 0
      vertex 113.707 43.2929 1.45
      vertex 113.707 43.2929 0
    endloop
  endfacet
  facet normal 0.194885 -0.980826 0
    outer loop
      vertex 113 43 0
      vertex 113.383 43.0761 1.45
      vertex 113 43 1.45
    endloop
  endfacet
  facet normal 0.194885 -0.980826 0
    outer loop
      vertex 113.383 43.0761 1.45
      vertex 113 43 0
      vertex 113.383 43.0761 0
    endloop
  endfacet
  facet normal 0 0 -1
    outer loop
      vertex 53.1807 78.9453 0
      vertex 53.2002 80.1504 0
      vertex 53.2002 78.8496 0
    endloop
  endfacet
  facet normal 0 0 -1
    outer loop
      vertex 53.1807 78.9453 0
      vertex 53.1807 80.0547 0
      vertex 53.2002 80.1504 0
    endloop
  endfacet
  facet normal 0 0 -1
    outer loop
      vertex 53.127 79.0264 0
      vertex 53.1807 80.0547 0
      vertex 53.1807 78.9453 0
    endloop
  endfacet
  facet normal 0 0 -1
    outer loop
      vertex 53.127 79.0264 0
      vertex 53.127 79.9736 0
      vertex 53.1807 80.0547 0
    endloop
  endfacet
  facet normal 0 0 -1
    outer loop
      vertex 53.0459 79.0811 0
      vertex 53.127 79.9736 0
      vertex 53.127 79.0264 0
    endloop
  endfacet
  facet normal 0 0 -1
    outer loop
      vertex 53.0459 79.0811 0
      vertex 53.0459 79.9189 0
      vertex 53.127 79.9736 0
    endloop
  endfacet
  facet normal 0 0 -1
    outer loop
      vertex 52.9502 79.0996 0
      vertex 53.0459 79.9189 0
      vertex 53.0459 79.0811 0
    endloop
  endfacet
  facet normal 0 0 -1
    outer loop
      vertex 52.9502 79.0996 0
      vertex 52.9502 79.9004 0
      vertex 53.0459 79.9189 0
    endloop
  endfacet
  facet normal 0 0 -1
    outer loop
      vertex 52.0498 79.0996 0
      vertex 52.9502 79.9004 0
      vertex 52.9502 79.0996 0
    endloop
  endfacet
  facet normal 0 0 -1
    outer loop
      vertex 52.0498 79.0996 0
      vertex 52.0498 79.9004 0
      vertex 52.9502 79.9004 0
    endloop
  endfacet
  facet normal 0 0 -1
    outer loop
      vertex 51.9541 79.0811 0
      vertex 52.0498 79.9004 0
      vertex 52.0498 79.0996 0
    endloop
  endfacet
  facet normal 0 0 -1
    outer loop
      vertex 51.9541 79.0811 0
      vertex 51.9541 79.9189 0
      vertex 52.0498 79.9004 0
    endloop
  endfacet
  facet normal 0 0 -1
    outer loop
      vertex 51.873 79.0264 0
      vertex 51.9541 79.9189 0
      vertex 51.9541 79.0811 0
    endloop
  endfacet
  facet normal 0 0 -1
    outer loop
      vertex 51.873 79.0264 0
      vertex 51.873 79.9736 0
      vertex 51.9541 79.9189 0
    endloop
  endfacet
  facet normal 0 0 -1
    outer loop
      vertex 51.8193 78.9453 0
      vertex 51.873 79.9736 0
      vertex 51.873 79.0264 0
    endloop
  endfacet
  facet normal 0 0 -1
    outer loop
      vertex 51.8193 78.9453 0
      vertex 51.8193 80.0547 0
      vertex 51.873 79.9736 0
    endloop
  endfacet
  facet normal 0 0 -1
    outer loop
      vertex 51.7998 78.8496 0
      vertex 51.8193 80.0547 0
      vertex 51.8193 78.9453 0
    endloop
  endfacet
  facet normal -0 0 -1
    outer loop
      vertex 51.8193 80.0547 0
      vertex 51.7998 78.8496 0
      vertex 51.7998 80.1504 0
    endloop
  endfacet
  facet normal 0 0 -1
    outer loop
      vertex 113 95 0
      vertex 53.1807 78.0547 0
      vertex 53.2002 78.1504 0
    endloop
  endfacet
  facet normal 0 0 -1
    outer loop
      vertex 53.5459 53.5811 0
      vertex 53.127 77.9736 0
      vertex 53.1807 78.0547 0
    endloop
  endfacet
  facet normal 0 0 -1
    outer loop
      vertex 53.5459 53.5811 0
      vertex 53.0459 77.9189 0
      vertex 53.127 77.9736 0
    endloop
  endfacet
  facet normal 0 0 -1
    outer loop
      vertex 53.4502 53.5996 0
      vertex 52.9502 77.9004 0
      vertex 53.0459 77.9189 0
    endloop
  endfacet
  facet normal 0 0 -1
    outer loop
      vertex 52.5498 53.5996 0
      vertex 52.9502 77.9004 0
      vertex 53.4502 53.5996 0
    endloop
  endfacet
  facet normal 0 0 -1
    outer loop
      vertex 52.0498 77.9004 0
      vertex 52.5498 53.5996 0
      vertex 52.4541 53.5811 0
    endloop
  endfacet
  facet normal 0 0 -1
    outer loop
      vertex 51.9541 77.9189 0
      vertex 52.4541 53.5811 0
      vertex 52.373 53.5264 0
    endloop
  endfacet
  facet normal 0 0 -1
    outer loop
      vertex 51.873 77.9736 0
      vertex 52.373 53.5264 0
      vertex 52.3193 53.4453 0
    endloop
  endfacet
  facet normal 0 0 -1
    outer loop
      vertex 49 44 0
      vertex 52.3193 53.4453 0
      vertex 52.2998 53.3496 0
    endloop
  endfacet
  facet normal 0 0 -1
    outer loop
      vertex 52.5498 53.5996 0
      vertex 52.0498 77.9004 0
      vertex 52.9502 77.9004 0
    endloop
  endfacet
  facet normal 0 0 -1
    outer loop
      vertex 53.6807 51.4453 0
      vertex 53.7002 52.6504 0
      vertex 53.7002 51.3496 0
    endloop
  endfacet
  facet normal 0 0 -1
    outer loop
      vertex 53.6807 51.4453 0
      vertex 53.6807 52.5547 0
      vertex 53.7002 52.6504 0
    endloop
  endfacet
  facet normal 0 0 -1
    outer loop
      vertex 53.627 51.5264 0
      vertex 53.6807 52.5547 0
      vertex 53.6807 51.4453 0
    endloop
  endfacet
  facet normal 0 0 -1
    outer loop
      vertex 53.627 51.5264 0
      vertex 53.627 52.4736 0
      vertex 53.6807 52.5547 0
    endloop
  endfacet
  facet normal 0 0 -1
    outer loop
      vertex 53.5459 51.5811 0
      vertex 53.627 52.4736 0
      vertex 53.627 51.5264 0
    endloop
  endfacet
  facet normal 0 0 -1
    outer loop
      vertex 53.5459 51.5811 0
      vertex 53.5459 52.4189 0
      vertex 53.627 52.4736 0
    endloop
  endfacet
  facet normal 0 0 -1
    outer loop
      vertex 53.4502 51.5996 0
      vertex 53.5459 52.4189 0
      vertex 53.5459 51.5811 0
    endloop
  endfacet
  facet normal 0 0 -1
    outer loop
      vertex 53.4502 51.5996 0
      vertex 53.4502 52.4004 0
      vertex 53.5459 52.4189 0
    endloop
  endfacet
  facet normal 0 0 -1
    outer loop
      vertex 52.5498 51.5996 0
      vertex 53.4502 52.4004 0
      vertex 53.4502 51.5996 0
    endloop
  endfacet
  facet normal 0 0 -1
    outer loop
      vertex 52.5498 51.5996 0
      vertex 52.5498 52.4004 0
      vertex 53.4502 52.4004 0
    endloop
  endfacet
  facet normal 0 0 -1
    outer loop
      vertex 52.4541 51.5811 0
      vertex 52.5498 52.4004 0
      vertex 52.5498 51.5996 0
    endloop
  endfacet
  facet normal 0 0 -1
    outer loop
      vertex 52.4541 51.5811 0
      vertex 52.4541 52.4189 0
      vertex 52.5498 52.4004 0
    endloop
  endfacet
  facet normal 0 0 -1
    outer loop
      vertex 52.373 51.5264 0
      vertex 52.4541 52.4189 0
      vertex 52.4541 51.5811 0
    endloop
  endfacet
  facet normal 0 0 -1
    outer loop
      vertex 52.373 51.5264 0
      vertex 52.373 52.4736 0
      vertex 52.4541 52.4189 0
    endloop
  endfacet
  facet normal 0 0 -1
    outer loop
      vertex 52.3193 51.4453 0
      vertex 52.373 52.4736 0
      vertex 52.373 51.5264 0
    endloop
  endfacet
  facet normal 0 0 -1
    outer loop
      vertex 52.3193 51.4453 0
      vertex 52.3193 52.5547 0
      vertex 52.373 52.4736 0
    endloop
  endfacet
  facet normal 0 0 -1
    outer loop
      vertex 52.2998 51.3496 0
      vertex 52.3193 52.5547 0
      vertex 52.3193 51.4453 0
    endloop
  endfacet
  facet normal -0 0 -1
    outer loop
      vertex 52.3193 52.5547 0
      vertex 52.2998 51.3496 0
      vertex 52.2998 52.6504 0
    endloop
  endfacet
  facet normal 0 0 -1
    outer loop
      vertex 113 43 0
      vertex 114 44 0
      vertex 113.924 43.6173 0
    endloop
  endfacet
  facet normal -0 0 -1
    outer loop
      vertex 114 44 0
      vertex 113 43 0
      vertex 114 94 0
    endloop
  endfacet
  facet normal 0 0 -1
    outer loop
      vertex 113 43 0
      vertex 113.924 43.6173 0
      vertex 113.707 43.2929 0
    endloop
  endfacet
  facet normal 0 0 -1
    outer loop
      vertex 113 95 0
      vertex 114 94 0
      vertex 113 43 0
    endloop
  endfacet
  facet normal 0 0 -1
    outer loop
      vertex 113 43 0
      vertex 113.707 43.2929 0
      vertex 113.383 43.0761 0
    endloop
  endfacet
  facet normal 0 0 -1
    outer loop
      vertex 114 94 0
      vertex 113 95 0
      vertex 113.924 94.3827 0
    endloop
  endfacet
  facet normal 0 0 -1
    outer loop
      vertex 113.924 94.3827 0
      vertex 113 95 0
      vertex 113.707 94.7071 0
    endloop
  endfacet
  facet normal 0 0 -1
    outer loop
      vertex 113.707 94.7071 0
      vertex 113 95 0
      vertex 113.383 94.9239 0
    endloop
  endfacet
  facet normal 0 0 -1
    outer loop
      vertex 53.7002 51.3496 0
      vertex 113 43 0
      vertex 53.7002 50.6504 0
    endloop
  endfacet
  facet normal 0 0 -1
    outer loop
      vertex 113 43 0
      vertex 53.6807 50.5547 0
      vertex 53.7002 50.6504 0
    endloop
  endfacet
  facet normal 0 0 -1
    outer loop
      vertex 113 43 0
      vertex 53.627 50.4736 0
      vertex 53.6807 50.5547 0
    endloop
  endfacet
  facet normal 0 0 -1
    outer loop
      vertex 50 43 0
      vertex 53.627 50.4736 0
      vertex 113 43 0
    endloop
  endfacet
  facet normal 0 0 -1
    outer loop
      vertex 53.627 50.4736 0
      vertex 50 43 0
      vertex 53.5459 50.4189 0
    endloop
  endfacet
  facet normal 0 0 -1
    outer loop
      vertex 53.5459 50.4189 0
      vertex 50 43 0
      vertex 53.4502 50.4004 0
    endloop
  endfacet
  facet normal 0 0 -1
    outer loop
      vertex 49 44 0
      vertex 52.2998 51.3496 0
      vertex 52.2998 50.6504 0
    endloop
  endfacet
  facet normal -0 0 -1
    outer loop
      vertex 52.2998 51.3496 0
      vertex 49 44 0
      vertex 52.2998 52.6504 0
    endloop
  endfacet
  facet normal -0 0 -1
    outer loop
      vertex 52.2998 52.6504 0
      vertex 49 44 0
      vertex 52.2998 53.3496 0
    endloop
  endfacet
  facet normal 0 0 -1
    outer loop
      vertex 52.4541 53.5811 0
      vertex 51.9541 77.9189 0
      vertex 52.0498 77.9004 0
    endloop
  endfacet
  facet normal 0 0 -1
    outer loop
      vertex 52.373 53.5264 0
      vertex 51.873 77.9736 0
      vertex 51.9541 77.9189 0
    endloop
  endfacet
  facet normal 0 0 -1
    outer loop
      vertex 52.3193 53.4453 0
      vertex 51.8193 78.0547 0
      vertex 51.873 77.9736 0
    endloop
  endfacet
  facet normal -0 0 -1
    outer loop
      vertex 52.3193 53.4453 0
      vertex 49 44 0
      vertex 51.8193 78.0547 0
    endloop
  endfacet
  facet normal 0 0 -1
    outer loop
      vertex 49 94 0
      vertex 51.7998 78.8496 0
      vertex 51.7998 78.1504 0
    endloop
  endfacet
  facet normal 0 0 -1
    outer loop
      vertex 51.7998 78.8496 0
      vertex 49 94 0
      vertex 51.7998 80.1504 0
    endloop
  endfacet
  facet normal -0 0 -1
    outer loop
      vertex 51.8193 78.0547 0
      vertex 49 44 0
      vertex 51.7998 78.1504 0
    endloop
  endfacet
  facet normal -0 0 -1
    outer loop
      vertex 52.3193 50.5547 0
      vertex 49 44 0
      vertex 52.2998 50.6504 0
    endloop
  endfacet
  facet normal -0 0 -1
    outer loop
      vertex 52.373 50.4736 0
      vertex 49 44 0
      vertex 52.3193 50.5547 0
    endloop
  endfacet
  facet normal -0 0 -1
    outer loop
      vertex 52.4541 50.4189 0
      vertex 49 44 0
      vertex 52.373 50.4736 0
    endloop
  endfacet
  facet normal -0 0 -1
    outer loop
      vertex 52.5498 50.4004 0
      vertex 49 44 0
      vertex 52.4541 50.4189 0
    endloop
  endfacet
  facet normal 0 0 -1
    outer loop
      vertex 49 44 0
      vertex 52.5498 50.4004 0
      vertex 50 43 0
    endloop
  endfacet
  facet normal -0 0 -1
    outer loop
      vertex 53.4502 50.4004 0
      vertex 50 43 0
      vertex 52.5498 50.4004 0
    endloop
  endfacet
  facet normal 0 0 -1
    outer loop
      vertex 53.7002 52.6504 0
      vertex 113 43 0
      vertex 53.7002 51.3496 0
    endloop
  endfacet
  facet normal 0 0 -1
    outer loop
      vertex 53.7002 53.3496 0
      vertex 113 43 0
      vertex 53.7002 52.6504 0
    endloop
  endfacet
  facet normal 0 0 -1
    outer loop
      vertex 53.6807 53.4453 0
      vertex 113 43 0
      vertex 53.7002 53.3496 0
    endloop
  endfacet
  facet normal 0 0 -1
    outer loop
      vertex 53.1807 78.0547 0
      vertex 113 43 0
      vertex 53.6807 53.4453 0
    endloop
  endfacet
  facet normal 0 0 -1
    outer loop
      vertex 53.1807 78.0547 0
      vertex 53.6807 53.4453 0
      vertex 53.627 53.5264 0
    endloop
  endfacet
  facet normal 0 0 -1
    outer loop
      vertex 53.1807 78.0547 0
      vertex 53.627 53.5264 0
      vertex 53.5459 53.5811 0
    endloop
  endfacet
  facet normal 0 0 -1
    outer loop
      vertex 53.0459 77.9189 0
      vertex 53.5459 53.5811 0
      vertex 53.4502 53.5996 0
    endloop
  endfacet
  facet normal 0 0 -1
    outer loop
      vertex 53.1807 78.0547 0
      vertex 113 95 0
      vertex 113 43 0
    endloop
  endfacet
  facet normal 0 0 -1
    outer loop
      vertex 53.2002 78.8496 0
      vertex 113 95 0
      vertex 53.2002 78.1504 0
    endloop
  endfacet
  facet normal 0 0 -1
    outer loop
      vertex 53.2002 80.1504 0
      vertex 113 95 0
      vertex 53.2002 78.8496 0
    endloop
  endfacet
  facet normal 0 0 -1
    outer loop
      vertex 53.2002 80.8496 0
      vertex 113 95 0
      vertex 53.2002 80.1504 0
    endloop
  endfacet
  facet normal 0 0 -1
    outer loop
      vertex 53.1807 80.9453 0
      vertex 113 95 0
      vertex 53.2002 80.8496 0
    endloop
  endfacet
  facet normal 0 0 -1
    outer loop
      vertex 50 95 0
      vertex 53.1807 80.9453 0
      vertex 53.127 81.0264 0
    endloop
  endfacet
  facet normal 0 0 -1
    outer loop
      vertex 50 95 0
      vertex 53.127 81.0264 0
      vertex 53.0459 81.0811 0
    endloop
  endfacet
  facet normal 0 0 -1
    outer loop
      vertex 49 94 0
      vertex 53.0459 81.0811 0
      vertex 52.9502 81.0996 0
    endloop
  endfacet
  facet normal 0 0 -1
    outer loop
      vertex 49 94 0
      vertex 52.9502 81.0996 0
      vertex 52.0498 81.0996 0
    endloop
  endfacet
  facet normal 0 0 -1
    outer loop
      vertex 49 94 0
      vertex 52.0498 81.0996 0
      vertex 51.9541 81.0811 0
    endloop
  endfacet
  facet normal 0 0 -1
    outer loop
      vertex 53.1807 80.9453 0
      vertex 50 95 0
      vertex 113 95 0
    endloop
  endfacet
  facet normal 0 0 -1
    outer loop
      vertex 49 94 0
      vertex 51.9541 81.0811 0
      vertex 51.873 81.0264 0
    endloop
  endfacet
  facet normal 0 0 -1
    outer loop
      vertex 49 94 0
      vertex 51.873 81.0264 0
      vertex 51.8193 80.9453 0
    endloop
  endfacet
  facet normal 0 0 -1
    outer loop
      vertex 49 94 0
      vertex 51.8193 80.9453 0
      vertex 51.7998 80.8496 0
    endloop
  endfacet
  facet normal 0 0 -1
    outer loop
      vertex 49 94 0
      vertex 51.7998 78.1504 0
      vertex 49 44 0
    endloop
  endfacet
  facet normal 0 0 -1
    outer loop
      vertex 49 44 0
      vertex 50 43 0
      vertex 49.6173 43.0761 0
    endloop
  endfacet
  facet normal 0 0 -1
    outer loop
      vertex 51.7998 80.1504 0
      vertex 49 94 0
      vertex 51.7998 80.8496 0
    endloop
  endfacet
  facet normal 0 0 -1
    outer loop
      vertex 49 44 0
      vertex 49.6173 43.0761 0
      vertex 49.2929 43.2929 0
    endloop
  endfacet
  facet normal 0 0 -1
    outer loop
      vertex 53.0459 81.0811 0
      vertex 49 94 0
      vertex 50 95 0
    endloop
  endfacet
  facet normal 0 0 -1
    outer loop
      vertex 49 44 0
      vertex 49.2929 43.2929 0
      vertex 49.0761 43.6173 0
    endloop
  endfacet
  facet normal 0 0 -1
    outer loop
      vertex 50 95 0
      vertex 49 94 0
      vertex 49.6173 94.9239 0
    endloop
  endfacet
  facet normal 0 0 -1
    outer loop
      vertex 49.6173 94.9239 0
      vertex 49 94 0
      vertex 49.2929 94.7071 0
    endloop
  endfacet
  facet normal 0 0 -1
    outer loop
      vertex 49.2929 94.7071 0
      vertex 49 94 0
      vertex 49.0761 94.3827 0
    endloop
  endfacet
  facet normal 0.980846 -0.194785 0
    outer loop
      vertex 113.924 43.6173 1.45
      vertex 114 44 0
      vertex 114 44 1.45
    endloop
  endfacet
  facet normal 0.980846 -0.194785 0
    outer loop
      vertex 114 44 0
      vertex 113.924 43.6173 1.45
      vertex 113.924 43.6173 0
    endloop
  endfacet
  facet normal -0.555646 0.831419 0
    outer loop
      vertex 49.6173 94.9239 0
      vertex 49.2929 94.7071 1.45
      vertex 49.6173 94.9239 1.45
    endloop
  endfacet
  facet normal -0.555646 0.831419 0
    outer loop
      vertex 49.2929 94.7071 1.45
      vertex 49.6173 94.9239 0
      vertex 49.2929 94.7071 0
    endloop
  endfacet
  facet normal -0.831419 0.555646 0
    outer loop
      vertex 49.0761 94.3827 0
      vertex 49.2929 94.7071 1.45
      vertex 49.2929 94.7071 0
    endloop
  endfacet
  facet normal -0.831419 0.555646 0
    outer loop
      vertex 49.2929 94.7071 1.45
      vertex 49.0761 94.3827 0
      vertex 49.0761 94.3827 1.45
    endloop
  endfacet
  facet normal -1 0 0
    outer loop
      vertex 49 44 0
      vertex 49 94 1.45
      vertex 49 94 0
    endloop
  endfacet
  facet normal -1 -0 0
    outer loop
      vertex 49 94 1.45
      vertex 49 44 0
      vertex 49 44 1.45
    endloop
  endfacet
  facet normal -0.195032 -0.980797 0
    outer loop
      vertex 49.6173 43.0761 0
      vertex 50 43 1.45
      vertex 49.6173 43.0761 1.45
    endloop
  endfacet
  facet normal -0.195032 -0.980797 -0
    outer loop
      vertex 50 43 1.45
      vertex 49.6173 43.0761 0
      vertex 50 43 0
    endloop
  endfacet
  facet normal -0.555646 -0.831419 0
    outer loop
      vertex 49.2929 43.2929 0
      vertex 49.6173 43.0761 1.45
      vertex 49.2929 43.2929 1.45
    endloop
  endfacet
  facet normal -0.555646 -0.831419 -0
    outer loop
      vertex 49.6173 43.0761 1.45
      vertex 49.2929 43.2929 0
      vertex 49.6173 43.0761 0
    endloop
  endfacet
  facet normal 0.55612 -0.831102 0
    outer loop
      vertex 113.383 43.0761 0
      vertex 113.707 43.2929 1.45
      vertex 113.383 43.0761 1.45
    endloop
  endfacet
  facet normal 0.55612 -0.831102 0
    outer loop
      vertex 113.707 43.2929 1.45
      vertex 113.383 43.0761 0
      vertex 113.707 43.2929 0
    endloop
  endfacet
  facet normal -0.980797 0.195032 0
    outer loop
      vertex 49 94 0
      vertex 49.0761 94.3827 1.45
      vertex 49.0761 94.3827 0
    endloop
  endfacet
  facet normal -0.980797 0.195032 0
    outer loop
      vertex 49.0761 94.3827 1.45
      vertex 49 94 0
      vertex 49 94 1.45
    endloop
  endfacet
  facet normal 0.980846 0.194785 0
    outer loop
      vertex 114 94 1.45
      vertex 113.924 94.3827 0
      vertex 113.924 94.3827 1.45
    endloop
  endfacet
  facet normal 0.980846 0.194785 0
    outer loop
      vertex 113.924 94.3827 0
      vertex 114 94 1.45
      vertex 114 94 0
    endloop
  endfacet
  facet normal -0 0 1
    outer loop
      vertex 50 95 1.45
      vertex 113 94 1.45
      vertex 113 95 1.45
    endloop
  endfacet
  facet normal 0 0 1
    outer loop
      vertex 50 95 1.45
      vertex 50 94 1.45
      vertex 113 94 1.45
    endloop
  endfacet
  facet normal -0 0 1
    outer loop
      vertex 49.6173 94.9239 1.45
      vertex 50 94 1.45
      vertex 50 95 1.45
    endloop
  endfacet
  facet normal 0 0 1
    outer loop
      vertex 50 94 1.45
      vertex 49 94 1.45
      vertex 50 44 1.45
    endloop
  endfacet
  facet normal -0 0 1
    outer loop
      vertex 49.2929 94.7071 1.45
      vertex 50 94 1.45
      vertex 49.6173 94.9239 1.45
    endloop
  endfacet
  facet normal 0 0 1
    outer loop
      vertex 49 44 1.45
      vertex 50 44 1.45
      vertex 49 94 1.45
    endloop
  endfacet
  facet normal -0 0 1
    outer loop
      vertex 49.0761 94.3827 1.45
      vertex 50 94 1.45
      vertex 49.2929 94.7071 1.45
    endloop
  endfacet
  facet normal 0 -0 1
    outer loop
      vertex 49.0761 43.6173 1.45
      vertex 50 44 1.45
      vertex 49 44 1.45
    endloop
  endfacet
  facet normal 0 0 1
    outer loop
      vertex 50 94 1.45
      vertex 49.0761 94.3827 1.45
      vertex 49 94 1.45
    endloop
  endfacet
  facet normal 0 0 1
    outer loop
      vertex 50 44 1.45
      vertex 49.6173 43.0761 1.45
      vertex 50 43 1.45
    endloop
  endfacet
  facet normal 0 0 1
    outer loop
      vertex 50 44 1.45
      vertex 49.2929 43.2929 1.45
      vertex 49.6173 43.0761 1.45
    endloop
  endfacet
  facet normal 0 0 1
    outer loop
      vertex 50 44 1.45
      vertex 49.0761 43.6173 1.45
      vertex 49.2929 43.2929 1.45
    endloop
  endfacet
  facet normal 0 0 1
    outer loop
      vertex 113 94 1.45
      vertex 114 94 1.45
      vertex 113.924 94.3827 1.45
    endloop
  endfacet
  facet normal 0 0 1
    outer loop
      vertex 114 94 1.45
      vertex 113 94 1.45
      vertex 114 44 1.45
    endloop
  endfacet
  facet normal 0 0 1
    outer loop
      vertex 113 94 1.45
      vertex 113.924 94.3827 1.45
      vertex 113.707 94.7071 1.45
    endloop
  endfacet
  facet normal 0 0 1
    outer loop
      vertex 113 44 1.45
      vertex 114 44 1.45
      vertex 113 94 1.45
    endloop
  endfacet
  facet normal 0 0 1
    outer loop
      vertex 113 94 1.45
      vertex 113.707 94.7071 1.45
      vertex 113.383 94.9239 1.45
    endloop
  endfacet
  facet normal 0 0 1
    outer loop
      vertex 114 44 1.45
      vertex 113 44 1.45
      vertex 113.924 43.6173 1.45
    endloop
  endfacet
  facet normal 0 0 1
    outer loop
      vertex 113 94 1.45
      vertex 113.383 94.9239 1.45
      vertex 113 95 1.45
    endloop
  endfacet
  facet normal 0 0 1
    outer loop
      vertex 113.924 43.6173 1.45
      vertex 113 44 1.45
      vertex 113.707 43.2929 1.45
    endloop
  endfacet
  facet normal 0 0 1
    outer loop
      vertex 113.707 43.2929 1.45
      vertex 113 44 1.45
      vertex 113.383 43.0761 1.45
    endloop
  endfacet
  facet normal 0 0 1
    outer loop
      vertex 113 44 1.45
      vertex 113 43 1.45
      vertex 113.383 43.0761 1.45
    endloop
  endfacet
  facet normal -0 0 1
    outer loop
      vertex 50 44 1.45
      vertex 113 43 1.45
      vertex 113 44 1.45
    endloop
  endfacet
  facet normal 0 0 1
    outer loop
      vertex 113 43 1.45
      vertex 50 44 1.45
      vertex 50 43 1.45
    endloop
  endfacet
  facet normal -0 0 1
    outer loop
      vertex 53.1807 80.0547 0.15
      vertex 53.2002 78.8496 0.15
      vertex 53.2002 80.1504 0.15
    endloop
  endfacet
  facet normal 0 0 1
    outer loop
      vertex 53.1807 80.0547 0.15
      vertex 53.1807 78.9453 0.15
      vertex 53.2002 78.8496 0.15
    endloop
  endfacet
  facet normal -0 0 1
    outer loop
      vertex 53.127 79.9736 0.15
      vertex 53.1807 78.9453 0.15
      vertex 53.1807 80.0547 0.15
    endloop
  endfacet
  facet normal 0 0 1
    outer loop
      vertex 53.127 79.9736 0.15
      vertex 53.127 79.0264 0.15
      vertex 53.1807 78.9453 0.15
    endloop
  endfacet
  facet normal -0 0 1
    outer loop
      vertex 53.0459 79.9189 0.15
      vertex 53.127 79.0264 0.15
      vertex 53.127 79.9736 0.15
    endloop
  endfacet
  facet normal 0 0 1
    outer loop
      vertex 53.0459 79.9189 0.15
      vertex 53.0459 79.0811 0.15
      vertex 53.127 79.0264 0.15
    endloop
  endfacet
  facet normal -0 0 1
    outer loop
      vertex 52.9502 79.9004 0.15
      vertex 53.0459 79.0811 0.15
      vertex 53.0459 79.9189 0.15
    endloop
  endfacet
  facet normal 0 0 1
    outer loop
      vertex 52.9502 79.9004 0.15
      vertex 52.9502 79.0996 0.15
      vertex 53.0459 79.0811 0.15
    endloop
  endfacet
  facet normal -0 0 1
    outer loop
      vertex 52.0498 79.9004 0.15
      vertex 52.9502 79.0996 0.15
      vertex 52.9502 79.9004 0.15
    endloop
  endfacet
  facet normal 0 0 1
    outer loop
      vertex 52.0498 79.9004 0.15
      vertex 52.0498 79.0996 0.15
      vertex 52.9502 79.0996 0.15
    endloop
  endfacet
  facet normal 0 0 1
    outer loop
      vertex 51.9541 79.9189 0.15
      vertex 52.0498 79.0996 0.15
      vertex 52.0498 79.9004 0.15
    endloop
  endfacet
  facet normal 0 0 1
    outer loop
      vertex 51.9541 79.9189 0.15
      vertex 51.9541 79.0811 0.15
      vertex 52.0498 79.0996 0.15
    endloop
  endfacet
  facet normal 0 0 1
    outer loop
      vertex 51.873 79.9736 0.15
      vertex 51.9541 79.0811 0.15
      vertex 51.9541 79.9189 0.15
    endloop
  endfacet
  facet normal 0 0 1
    outer loop
      vertex 51.873 79.9736 0.15
      vertex 51.873 79.0264 0.15
      vertex 51.9541 79.0811 0.15
    endloop
  endfacet
  facet normal 0 0 1
    outer loop
      vertex 51.8193 80.0547 0.15
      vertex 51.873 79.0264 0.15
      vertex 51.873 79.9736 0.15
    endloop
  endfacet
  facet normal 0 0 1
    outer loop
      vertex 51.8193 80.0547 0.15
      vertex 51.8193 78.9453 0.15
      vertex 51.873 79.0264 0.15
    endloop
  endfacet
  facet normal 0 0 1
    outer loop
      vertex 51.7998 80.1504 0.15
      vertex 51.8193 78.9453 0.15
      vertex 51.8193 80.0547 0.15
    endloop
  endfacet
  facet normal 0 0 1
    outer loop
      vertex 51.8193 78.9453 0.15
      vertex 51.7998 80.1504 0.15
      vertex 51.7998 78.8496 0.15
    endloop
  endfacet
  facet normal -0 0 1
    outer loop
      vertex 53.6807 52.5547 0.15
      vertex 53.7002 51.3496 0.15
      vertex 53.7002 52.6504 0.15
    endloop
  endfacet
  facet normal 0 0 1
    outer loop
      vertex 53.6807 52.5547 0.15
      vertex 53.6807 51.4453 0.15
      vertex 53.7002 51.3496 0.15
    endloop
  endfacet
  facet normal -0 0 1
    outer loop
      vertex 53.627 52.4736 0.15
      vertex 53.6807 51.4453 0.15
      vertex 53.6807 52.5547 0.15
    endloop
  endfacet
  facet normal 0 0 1
    outer loop
      vertex 53.627 52.4736 0.15
      vertex 53.627 51.5264 0.15
      vertex 53.6807 51.4453 0.15
    endloop
  endfacet
  facet normal -0 0 1
    outer loop
      vertex 53.5459 52.4189 0.15
      vertex 53.627 51.5264 0.15
      vertex 53.627 52.4736 0.15
    endloop
  endfacet
  facet normal 0 0 1
    outer loop
      vertex 53.5459 52.4189 0.15
      vertex 53.5459 51.5811 0.15
      vertex 53.627 51.5264 0.15
    endloop
  endfacet
  facet normal -0 0 1
    outer loop
      vertex 53.4502 52.4004 0.15
      vertex 53.5459 51.5811 0.15
      vertex 53.5459 52.4189 0.15
    endloop
  endfacet
  facet normal 0 0 1
    outer loop
      vertex 53.4502 52.4004 0.15
      vertex 53.4502 51.5996 0.15
      vertex 53.5459 51.5811 0.15
    endloop
  endfacet
  facet normal -0 0 1
    outer loop
      vertex 52.5498 52.4004 0.15
      vertex 53.4502 51.5996 0.15
      vertex 53.4502 52.4004 0.15
    endloop
  endfacet
  facet normal 0 0 1
    outer loop
      vertex 52.5498 52.4004 0.15
      vertex 52.5498 51.5996 0.15
      vertex 53.4502 51.5996 0.15
    endloop
  endfacet
  facet normal 0 0 1
    outer loop
      vertex 52.4541 52.4189 0.15
      vertex 52.5498 51.5996 0.15
      vertex 52.5498 52.4004 0.15
    endloop
  endfacet
  facet normal 0 0 1
    outer loop
      vertex 52.4541 52.4189 0.15
      vertex 52.4541 51.5811 0.15
      vertex 52.5498 51.5996 0.15
    endloop
  endfacet
  facet normal 0 0 1
    outer loop
      vertex 52.373 52.4736 0.15
      vertex 52.4541 51.5811 0.15
      vertex 52.4541 52.4189 0.15
    endloop
  endfacet
  facet normal 0 0 1
    outer loop
      vertex 52.373 52.4736 0.15
      vertex 52.373 51.5264 0.15
      vertex 52.4541 51.5811 0.15
    endloop
  endfacet
  facet normal 0 0 1
    outer loop
      vertex 52.3193 52.5547 0.15
      vertex 52.373 51.5264 0.15
      vertex 52.373 52.4736 0.15
    endloop
  endfacet
  facet normal 0 0 1
    outer loop
      vertex 52.3193 52.5547 0.15
      vertex 52.3193 51.4453 0.15
      vertex 52.373 51.5264 0.15
    endloop
  endfacet
  facet normal 0 0 1
    outer loop
      vertex 52.2998 52.6504 0.15
      vertex 52.3193 51.4453 0.15
      vertex 52.3193 52.5547 0.15
    endloop
  endfacet
  facet normal 0 0 1
    outer loop
      vertex 52.3193 51.4453 0.15
      vertex 52.2998 52.6504 0.15
      vertex 52.2998 51.3496 0.15
    endloop
  endfacet
  facet normal -0 0 1
    outer loop
      vertex 53.1807 78.0547 0.15
      vertex 113 44 0.15
      vertex 113 94 0.15
    endloop
  endfacet
  facet normal 0 0 1
    outer loop
      vertex 113 44 0.15
      vertex 53.6807 53.4453 0.15
      vertex 53.7002 53.3496 0.15
    endloop
  endfacet
  facet normal 0 0 1
    outer loop
      vertex 113 44 0.15
      vertex 53.1807 78.0547 0.15
      vertex 53.6807 53.4453 0.15
    endloop
  endfacet
  facet normal 0 0 1
    outer loop
      vertex 53.6807 53.4453 0.15
      vertex 53.1807 78.0547 0.15
      vertex 53.627 53.5264 0.15
    endloop
  endfacet
  facet normal -0 0 1
    outer loop
      vertex 53.127 77.9736 0.15
      vertex 53.627 53.5264 0.15
      vertex 53.1807 78.0547 0.15
    endloop
  endfacet
  facet normal 0 0 1
    outer loop
      vertex 53.2002 80.1504 0.15
      vertex 113 94 0.15
      vertex 53.2002 80.8496 0.15
    endloop
  endfacet
  facet normal 0 0 1
    outer loop
      vertex 113 94 0.15
      vertex 53.1807 80.9453 0.15
      vertex 53.2002 80.8496 0.15
    endloop
  endfacet
  facet normal -0 0 1
    outer loop
      vertex 50 94 0.15
      vertex 53.1807 80.9453 0.15
      vertex 113 94 0.15
    endloop
  endfacet
  facet normal 0 0 1
    outer loop
      vertex 53.1807 80.9453 0.15
      vertex 50 94 0.15
      vertex 53.127 81.0264 0.15
    endloop
  endfacet
  facet normal 0 0 1
    outer loop
      vertex 53.127 81.0264 0.15
      vertex 50 94 0.15
      vertex 53.0459 81.0811 0.15
    endloop
  endfacet
  facet normal 0 0 1
    outer loop
      vertex 53.0459 81.0811 0.15
      vertex 50 94 0.15
      vertex 52.9502 81.0996 0.15
    endloop
  endfacet
  facet normal 0 0 1
    outer loop
      vertex 52.9502 81.0996 0.15
      vertex 50 94 0.15
      vertex 52.0498 81.0996 0.15
    endloop
  endfacet
  facet normal 0 0 1
    outer loop
      vertex 50 94 0.15
      vertex 51.7998 80.1504 0.15
      vertex 51.7998 80.8496 0.15
    endloop
  endfacet
  facet normal 0 0 1
    outer loop
      vertex 51.7998 80.1504 0.15
      vertex 50 94 0.15
      vertex 51.7998 78.8496 0.15
    endloop
  endfacet
  facet normal 0 0 1
    outer loop
      vertex 51.7998 78.8496 0.15
      vertex 50 94 0.15
      vertex 51.7998 78.1504 0.15
    endloop
  endfacet
  facet normal 0 0 1
    outer loop
      vertex 51.8193 80.9453 0.15
      vertex 50 94 0.15
      vertex 51.7998 80.8496 0.15
    endloop
  endfacet
  facet normal 0 0 1
    outer loop
      vertex 51.873 81.0264 0.15
      vertex 50 94 0.15
      vertex 51.8193 80.9453 0.15
    endloop
  endfacet
  facet normal 0 0 1
    outer loop
      vertex 51.9541 81.0811 0.15
      vertex 50 94 0.15
      vertex 51.873 81.0264 0.15
    endloop
  endfacet
  facet normal 0 0 1
    outer loop
      vertex 52.0498 81.0996 0.15
      vertex 50 94 0.15
      vertex 51.9541 81.0811 0.15
    endloop
  endfacet
  facet normal -0 0 1
    outer loop
      vertex 53.7002 52.6504 0.15
      vertex 113 44 0.15
      vertex 53.7002 53.3496 0.15
    endloop
  endfacet
  facet normal -0 0 1
    outer loop
      vertex 53.7002 51.3496 0.15
      vertex 113 44 0.15
      vertex 53.7002 52.6504 0.15
    endloop
  endfacet
  facet normal -0 0 1
    outer loop
      vertex 53.7002 50.6504 0.15
      vertex 113 44 0.15
      vertex 53.7002 51.3496 0.15
    endloop
  endfacet
  facet normal -0 0 1
    outer loop
      vertex 53.6807 50.5547 0.15
      vertex 113 44 0.15
      vertex 53.7002 50.6504 0.15
    endloop
  endfacet
  facet normal -0 0 1
    outer loop
      vertex 53.627 50.4736 0.15
      vertex 113 44 0.15
      vertex 53.6807 50.5547 0.15
    endloop
  endfacet
  facet normal 0 0 1
    outer loop
      vertex 50 44 0.15
      vertex 53.627 50.4736 0.15
      vertex 53.5459 50.4189 0.15
    endloop
  endfacet
  facet normal 0 0 1
    outer loop
      vertex 50 44 0.15
      vertex 53.5459 50.4189 0.15
      vertex 53.4502 50.4004 0.15
    endloop
  endfacet
  facet normal 0 0 1
    outer loop
      vertex 50 44 0.15
      vertex 53.4502 50.4004 0.15
      vertex 52.5498 50.4004 0.15
    endloop
  endfacet
  facet normal 0 0 1
    outer loop
      vertex 51.8193 78.0547 0.15
      vertex 52.3193 53.4453 0.15
      vertex 51.873 77.9736 0.15
    endloop
  endfacet
  facet normal 0 0 1
    outer loop
      vertex 52.3193 53.4453 0.15
      vertex 51.8193 78.0547 0.15
      vertex 52.2998 53.3496 0.15
    endloop
  endfacet
  facet normal 0 0 1
    outer loop
      vertex 50 44 0.15
      vertex 52.2998 53.3496 0.15
      vertex 51.8193 78.0547 0.15
    endloop
  endfacet
  facet normal 0 0 1
    outer loop
      vertex 50 44 0.15
      vertex 51.8193 78.0547 0.15
      vertex 51.7998 78.1504 0.15
    endloop
  endfacet
  facet normal 0 0 1
    outer loop
      vertex 50 44 0.15
      vertex 51.7998 78.1504 0.15
      vertex 50 94 0.15
    endloop
  endfacet
  facet normal 0 0 1
    outer loop
      vertex 53.627 50.4736 0.15
      vertex 50 44 0.15
      vertex 113 44 0.15
    endloop
  endfacet
  facet normal 0 0 1
    outer loop
      vertex 52.4541 50.4189 0.15
      vertex 50 44 0.15
      vertex 52.5498 50.4004 0.15
    endloop
  endfacet
  facet normal 0 0 1
    outer loop
      vertex 52.373 50.4736 0.15
      vertex 50 44 0.15
      vertex 52.4541 50.4189 0.15
    endloop
  endfacet
  facet normal 0 0 1
    outer loop
      vertex 52.3193 50.5547 0.15
      vertex 50 44 0.15
      vertex 52.373 50.4736 0.15
    endloop
  endfacet
  facet normal 0 0 1
    outer loop
      vertex 52.2998 50.6504 0.15
      vertex 50 44 0.15
      vertex 52.3193 50.5547 0.15
    endloop
  endfacet
  facet normal 0 0 1
    outer loop
      vertex 52.2998 53.3496 0.15
      vertex 50 44 0.15
      vertex 52.2998 50.6504 0.15
    endloop
  endfacet
  facet normal 0 0 1
    outer loop
      vertex 53.2002 78.8496 0.15
      vertex 113 94 0.15
      vertex 53.2002 80.1504 0.15
    endloop
  endfacet
  facet normal 0 0 1
    outer loop
      vertex 53.2002 78.1504 0.15
      vertex 113 94 0.15
      vertex 53.2002 78.8496 0.15
    endloop
  endfacet
  facet normal 0 0 1
    outer loop
      vertex 53.1807 78.0547 0.15
      vertex 113 94 0.15
      vertex 53.2002 78.1504 0.15
    endloop
  endfacet
  facet normal 0 0 1
    outer loop
      vertex 53.627 53.5264 0.15
      vertex 53.127 77.9736 0.15
      vertex 53.5459 53.5811 0.15
    endloop
  endfacet
  facet normal -0 0 1
    outer loop
      vertex 53.0459 77.9189 0.15
      vertex 53.5459 53.5811 0.15
      vertex 53.127 77.9736 0.15
    endloop
  endfacet
  facet normal 0 0 1
    outer loop
      vertex 53.5459 53.5811 0.15
      vertex 53.0459 77.9189 0.15
      vertex 53.4502 53.5996 0.15
    endloop
  endfacet
  facet normal -0 0 1
    outer loop
      vertex 52.9502 77.9004 0.15
      vertex 53.4502 53.5996 0.15
      vertex 53.0459 77.9189 0.15
    endloop
  endfacet
  facet normal 0 0 1
    outer loop
      vertex 52.9502 77.9004 0.15
      vertex 52.5498 53.5996 0.15
      vertex 53.4502 53.5996 0.15
    endloop
  endfacet
  facet normal -0 0 1
    outer loop
      vertex 52.0498 77.9004 0.15
      vertex 52.5498 53.5996 0.15
      vertex 52.9502 77.9004 0.15
    endloop
  endfacet
  facet normal 0 0 1
    outer loop
      vertex 52.5498 53.5996 0.15
      vertex 52.0498 77.9004 0.15
      vertex 52.4541 53.5811 0.15
    endloop
  endfacet
  facet normal 0 0 1
    outer loop
      vertex 51.9541 77.9189 0.15
      vertex 52.4541 53.5811 0.15
      vertex 52.0498 77.9004 0.15
    endloop
  endfacet
  facet normal 0 0 1
    outer loop
      vertex 52.4541 53.5811 0.15
      vertex 51.9541 77.9189 0.15
      vertex 52.373 53.5264 0.15
    endloop
  endfacet
  facet normal 0 0 0
    outer loop
      vertex 52.2998 53.3496 0.15
      vertex 52.2998 51.3496 0.15
      vertex 52.2998 52.6504 0.15
    endloop
  endfacet
  facet normal 0 0 0
    outer loop
      vertex 52.2998 53.3496 0.15
      vertex 52.2998 50.6504 0.15
      vertex 52.2998 51.3496 0.15
    endloop
  endfacet
  facet normal 0 0 1
    outer loop
      vertex 52.373 53.5264 0.15
      vertex 51.873 77.9736 0.15
      vertex 52.3193 53.4453 0.15
    endloop
  endfacet
  facet normal 0 0 1
    outer loop
      vertex 51.873 77.9736 0.15
      vertex 52.373 53.5264 0.15
      vertex 51.9541 77.9189 0.15
    endloop
  endfacet
  facet normal -1 0 0
    outer loop
      vertex 113 44 0.15
      vertex 113 94 1.45
      vertex 113 94 0.15
    endloop
  endfacet
  facet normal -1 -0 0
    outer loop
      vertex 113 94 1.45
      vertex 113 44 0.15
      vertex 113 44 1.45
    endloop
  endfacet
  facet normal 0 -1 0
    outer loop
      vertex 50 94 0.15
      vertex 113 94 1.45
      vertex 50 94 1.45
    endloop
  endfacet
  facet normal 0 -1 -0
    outer loop
      vertex 113 94 1.45
      vertex 50 94 0.15
      vertex 113 94 0.15
    endloop
  endfacet
  facet normal 1 -0 0
    outer loop
      vertex 50 44 1.45
      vertex 50 94 0.15
      vertex 50 94 1.45
    endloop
  endfacet
  facet normal 1 0 0
    outer loop
      vertex 50 94 0.15
      vertex 50 44 1.45
      vertex 50 44 0.15
    endloop
  endfacet
  facet normal 0 1 -0
    outer loop
      vertex 113 44 0.15
      vertex 50 44 1.45
      vertex 113 44 1.45
    endloop
  endfacet
  facet normal 0 1 0
    outer loop
      vertex 50 44 1.45
      vertex 113 44 0.15
      vertex 50 44 0.15
    endloop
  endfacet
  facet normal -0.559174 -0.82905 0
    outer loop
      vertex 53.5459 51.5811 0
      vertex 53.627 51.5264 0.15
      vertex 53.5459 51.5811 0.15
    endloop
  endfacet
  facet normal -0.559174 -0.82905 -0
    outer loop
      vertex 53.627 51.5264 0.15
      vertex 53.5459 51.5811 0
      vertex 53.627 51.5264 0
    endloop
  endfacet
  facet normal -0.833786 -0.552088 0
    outer loop
      vertex 53.6807 51.4453 0
      vertex 53.627 51.5264 0.15
      vertex 53.627 51.5264 0
    endloop
  endfacet
  facet normal -0.833786 -0.552088 0
    outer loop
      vertex 53.627 51.5264 0.15
      vertex 53.6807 51.4453 0
      vertex 53.6807 51.4453 0.15
    endloop
  endfacet
  facet normal -0.979865 -0.199659 0
    outer loop
      vertex 53.7002 51.3496 0
      vertex 53.6807 51.4453 0.15
      vertex 53.6807 51.4453 0
    endloop
  endfacet
  facet normal -0.979865 -0.199659 0
    outer loop
      vertex 53.6807 51.4453 0.15
      vertex 53.7002 51.3496 0
      vertex 53.7002 51.3496 0.15
    endloop
  endfacet
  facet normal -1 0 0
    outer loop
      vertex 53.7002 50.6504 0
      vertex 53.7002 51.3496 0.15
      vertex 53.7002 51.3496 0
    endloop
  endfacet
  facet normal -1 -0 0
    outer loop
      vertex 53.7002 51.3496 0.15
      vertex 53.7002 50.6504 0
      vertex 53.7002 50.6504 0.15
    endloop
  endfacet
  facet normal -0.979865 0.199659 0
    outer loop
      vertex 53.6807 50.5547 0
      vertex 53.7002 50.6504 0.15
      vertex 53.7002 50.6504 0
    endloop
  endfacet
  facet normal -0.979865 0.199659 0
    outer loop
      vertex 53.7002 50.6504 0.15
      vertex 53.6807 50.5547 0
      vertex 53.6807 50.5547 0.15
    endloop
  endfacet
  facet normal -0.833786 0.552088 0
    outer loop
      vertex 53.627 50.4736 0
      vertex 53.6807 50.5547 0.15
      vertex 53.6807 50.5547 0
    endloop
  endfacet
  facet normal -0.833786 0.552088 0
    outer loop
      vertex 53.6807 50.5547 0.15
      vertex 53.627 50.4736 0
      vertex 53.627 50.4736 0.15
    endloop
  endfacet
  facet normal -0.559174 0.82905 0
    outer loop
      vertex 53.627 50.4736 0
      vertex 53.5459 50.4189 0.15
      vertex 53.627 50.4736 0.15
    endloop
  endfacet
  facet normal -0.559174 0.82905 0
    outer loop
      vertex 53.5459 50.4189 0.15
      vertex 53.627 50.4736 0
      vertex 53.5459 50.4189 0
    endloop
  endfacet
  facet normal -0.189799 0.981823 0
    outer loop
      vertex 53.5459 50.4189 0
      vertex 53.4502 50.4004 0.15
      vertex 53.5459 50.4189 0.15
    endloop
  endfacet
  facet normal -0.189799 0.981823 0
    outer loop
      vertex 53.4502 50.4004 0.15
      vertex 53.5459 50.4189 0
      vertex 53.4502 50.4004 0
    endloop
  endfacet
  facet normal 0 1 -0
    outer loop
      vertex 53.4502 50.4004 0
      vertex 52.5498 50.4004 0.15
      vertex 53.4502 50.4004 0.15
    endloop
  endfacet
  facet normal 0 1 0
    outer loop
      vertex 52.5498 50.4004 0.15
      vertex 53.4502 50.4004 0
      vertex 52.5498 50.4004 0
    endloop
  endfacet
  facet normal 0.189799 0.981823 -0
    outer loop
      vertex 52.5498 50.4004 0
      vertex 52.4541 50.4189 0.15
      vertex 52.5498 50.4004 0.15
    endloop
  endfacet
  facet normal 0.189799 0.981823 0
    outer loop
      vertex 52.4541 50.4189 0.15
      vertex 52.5498 50.4004 0
      vertex 52.4541 50.4189 0
    endloop
  endfacet
  facet normal 0.559174 0.82905 -0
    outer loop
      vertex 52.4541 50.4189 0
      vertex 52.373 50.4736 0.15
      vertex 52.4541 50.4189 0.15
    endloop
  endfacet
  facet normal 0.559174 0.82905 0
    outer loop
      vertex 52.373 50.4736 0.15
      vertex 52.4541 50.4189 0
      vertex 52.373 50.4736 0
    endloop
  endfacet
  facet normal 0.833786 0.552088 0
    outer loop
      vertex 52.373 50.4736 0.15
      vertex 52.3193 50.5547 0
      vertex 52.3193 50.5547 0.15
    endloop
  endfacet
  facet normal 0.833786 0.552088 0
    outer loop
      vertex 52.3193 50.5547 0
      vertex 52.373 50.4736 0.15
      vertex 52.373 50.4736 0
    endloop
  endfacet
  facet normal 0.979865 0.199659 0
    outer loop
      vertex 52.3193 50.5547 0.15
      vertex 52.2998 50.6504 0
      vertex 52.2998 50.6504 0.15
    endloop
  endfacet
  facet normal 0.979865 0.199659 0
    outer loop
      vertex 52.2998 50.6504 0
      vertex 52.3193 50.5547 0.15
      vertex 52.3193 50.5547 0
    endloop
  endfacet
  facet normal 1 -0 0
    outer loop
      vertex 52.2998 50.6504 0.15
      vertex 52.2998 51.3496 0
      vertex 52.2998 51.3496 0.15
    endloop
  endfacet
  facet normal 1 0 0
    outer loop
      vertex 52.2998 51.3496 0
      vertex 52.2998 50.6504 0.15
      vertex 52.2998 50.6504 0
    endloop
  endfacet
  facet normal 0.979865 -0.199659 0
    outer loop
      vertex 52.2998 51.3496 0.15
      vertex 52.3193 51.4453 0
      vertex 52.3193 51.4453 0.15
    endloop
  endfacet
  facet normal 0.979865 -0.199659 0
    outer loop
      vertex 52.3193 51.4453 0
      vertex 52.2998 51.3496 0.15
      vertex 52.2998 51.3496 0
    endloop
  endfacet
  facet normal 0.833786 -0.552088 0
    outer loop
      vertex 52.3193 51.4453 0.15
      vertex 52.373 51.5264 0
      vertex 52.373 51.5264 0.15
    endloop
  endfacet
  facet normal 0.833786 -0.552088 0
    outer loop
      vertex 52.373 51.5264 0
      vertex 52.3193 51.4453 0.15
      vertex 52.3193 51.4453 0
    endloop
  endfacet
  facet normal 0.559174 -0.82905 0
    outer loop
      vertex 52.373 51.5264 0
      vertex 52.4541 51.5811 0.15
      vertex 52.373 51.5264 0.15
    endloop
  endfacet
  facet normal 0.559174 -0.82905 0
    outer loop
      vertex 52.4541 51.5811 0.15
      vertex 52.373 51.5264 0
      vertex 52.4541 51.5811 0
    endloop
  endfacet
  facet normal 0.189799 -0.981823 0
    outer loop
      vertex 52.4541 51.5811 0
      vertex 52.5498 51.5996 0.15
      vertex 52.4541 51.5811 0.15
    endloop
  endfacet
  facet normal 0.189799 -0.981823 0
    outer loop
      vertex 52.5498 51.5996 0.15
      vertex 52.4541 51.5811 0
      vertex 52.5498 51.5996 0
    endloop
  endfacet
  facet normal 0 -1 0
    outer loop
      vertex 52.5498 51.5996 0
      vertex 53.4502 51.5996 0.15
      vertex 52.5498 51.5996 0.15
    endloop
  endfacet
  facet normal 0 -1 -0
    outer loop
      vertex 53.4502 51.5996 0.15
      vertex 52.5498 51.5996 0
      vertex 53.4502 51.5996 0
    endloop
  endfacet
  facet normal -0.189799 -0.981823 0
    outer loop
      vertex 53.4502 51.5996 0
      vertex 53.5459 51.5811 0.15
      vertex 53.4502 51.5996 0.15
    endloop
  endfacet
  facet normal -0.189799 -0.981823 -0
    outer loop
      vertex 53.5459 51.5811 0.15
      vertex 53.4502 51.5996 0
      vertex 53.5459 51.5811 0
    endloop
  endfacet
  facet normal -0.559174 -0.82905 0
    outer loop
      vertex 53.5459 53.5811 0
      vertex 53.627 53.5264 0.15
      vertex 53.5459 53.5811 0.15
    endloop
  endfacet
  facet normal -0.559174 -0.82905 -0
    outer loop
      vertex 53.627 53.5264 0.15
      vertex 53.5459 53.5811 0
      vertex 53.627 53.5264 0
    endloop
  endfacet
  facet normal -0.833786 -0.552088 0
    outer loop
      vertex 53.6807 53.4453 0
      vertex 53.627 53.5264 0.15
      vertex 53.627 53.5264 0
    endloop
  endfacet
  facet normal -0.833786 -0.552088 0
    outer loop
      vertex 53.627 53.5264 0.15
      vertex 53.6807 53.4453 0
      vertex 53.6807 53.4453 0.15
    endloop
  endfacet
  facet normal -0.979865 -0.199659 0
    outer loop
      vertex 53.7002 53.3496 0
      vertex 53.6807 53.4453 0.15
      vertex 53.6807 53.4453 0
    endloop
  endfacet
  facet normal -0.979865 -0.199659 0
    outer loop
      vertex 53.6807 53.4453 0.15
      vertex 53.7002 53.3496 0
      vertex 53.7002 53.3496 0.15
    endloop
  endfacet
  facet normal -1 0 0
    outer loop
      vertex 53.7002 52.6504 0
      vertex 53.7002 53.3496 0.15
      vertex 53.7002 53.3496 0
    endloop
  endfacet
  facet normal -1 -0 0
    outer loop
      vertex 53.7002 53.3496 0.15
      vertex 53.7002 52.6504 0
      vertex 53.7002 52.6504 0.15
    endloop
  endfacet
  facet normal -0.979865 0.199659 0
    outer loop
      vertex 53.6807 52.5547 0
      vertex 53.7002 52.6504 0.15
      vertex 53.7002 52.6504 0
    endloop
  endfacet
  facet normal -0.979865 0.199659 0
    outer loop
      vertex 53.7002 52.6504 0.15
      vertex 53.6807 52.5547 0
      vertex 53.6807 52.5547 0.15
    endloop
  endfacet
  facet normal -0.833786 0.552088 0
    outer loop
      vertex 53.627 52.4736 0
      vertex 53.6807 52.5547 0.15
      vertex 53.6807 52.5547 0
    endloop
  endfacet
  facet normal -0.833786 0.552088 0
    outer loop
      vertex 53.6807 52.5547 0.15
      vertex 53.627 52.4736 0
      vertex 53.627 52.4736 0.15
    endloop
  endfacet
  facet normal -0.559174 0.82905 0
    outer loop
      vertex 53.627 52.4736 0
      vertex 53.5459 52.4189 0.15
      vertex 53.627 52.4736 0.15
    endloop
  endfacet
  facet normal -0.559174 0.82905 0
    outer loop
      vertex 53.5459 52.4189 0.15
      vertex 53.627 52.4736 0
      vertex 53.5459 52.4189 0
    endloop
  endfacet
  facet normal -0.189799 0.981823 0
    outer loop
      vertex 53.5459 52.4189 0
      vertex 53.4502 52.4004 0.15
      vertex 53.5459 52.4189 0.15
    endloop
  endfacet
  facet normal -0.189799 0.981823 0
    outer loop
      vertex 53.4502 52.4004 0.15
      vertex 53.5459 52.4189 0
      vertex 53.4502 52.4004 0
    endloop
  endfacet
  facet normal 0 1 -0
    outer loop
      vertex 53.4502 52.4004 0
      vertex 52.5498 52.4004 0.15
      vertex 53.4502 52.4004 0.15
    endloop
  endfacet
  facet normal 0 1 0
    outer loop
      vertex 52.5498 52.4004 0.15
      vertex 53.4502 52.4004 0
      vertex 52.5498 52.4004 0
    endloop
  endfacet
  facet normal 0.189799 0.981823 -0
    outer loop
      vertex 52.5498 52.4004 0
      vertex 52.4541 52.4189 0.15
      vertex 52.5498 52.4004 0.15
    endloop
  endfacet
  facet normal 0.189799 0.981823 0
    outer loop
      vertex 52.4541 52.4189 0.15
      vertex 52.5498 52.4004 0
      vertex 52.4541 52.4189 0
    endloop
  endfacet
  facet normal 0.559174 0.82905 -0
    outer loop
      vertex 52.4541 52.4189 0
      vertex 52.373 52.4736 0.15
      vertex 52.4541 52.4189 0.15
    endloop
  endfacet
  facet normal 0.559174 0.82905 0
    outer loop
      vertex 52.373 52.4736 0.15
      vertex 52.4541 52.4189 0
      vertex 52.373 52.4736 0
    endloop
  endfacet
  facet normal 0.833786 0.552088 0
    outer loop
      vertex 52.373 52.4736 0.15
      vertex 52.3193 52.5547 0
      vertex 52.3193 52.5547 0.15
    endloop
  endfacet
  facet normal 0.833786 0.552088 0
    outer loop
      vertex 52.3193 52.5547 0
      vertex 52.373 52.4736 0.15
      vertex 52.373 52.4736 0
    endloop
  endfacet
  facet normal 0.979865 0.199659 0
    outer loop
      vertex 52.3193 52.5547 0.15
      vertex 52.2998 52.6504 0
      vertex 52.2998 52.6504 0.15
    endloop
  endfacet
  facet normal 0.979865 0.199659 0
    outer loop
      vertex 52.2998 52.6504 0
      vertex 52.3193 52.5547 0.15
      vertex 52.3193 52.5547 0
    endloop
  endfacet
  facet normal 1 -0 0
    outer loop
      vertex 52.2998 52.6504 0.15
      vertex 52.2998 53.3496 0
      vertex 52.2998 53.3496 0.15
    endloop
  endfacet
  facet normal 1 0 0
    outer loop
      vertex 52.2998 53.3496 0
      vertex 52.2998 52.6504 0.15
      vertex 52.2998 52.6504 0
    endloop
  endfacet
  facet normal 0.979865 -0.199659 0
    outer loop
      vertex 52.2998 53.3496 0.15
      vertex 52.3193 53.4453 0
      vertex 52.3193 53.4453 0.15
    endloop
  endfacet
  facet normal 0.979865 -0.199659 0
    outer loop
      vertex 52.3193 53.4453 0
      vertex 52.2998 53.3496 0.15
      vertex 52.2998 53.3496 0
    endloop
  endfacet
  facet normal 0.833786 -0.552088 0
    outer loop
      vertex 52.3193 53.4453 0.15
      vertex 52.373 53.5264 0
      vertex 52.373 53.5264 0.15
    endloop
  endfacet
  facet normal 0.833786 -0.552088 0
    outer loop
      vertex 52.373 53.5264 0
      vertex 52.3193 53.4453 0.15
      vertex 52.3193 53.4453 0
    endloop
  endfacet
  facet normal 0.559174 -0.82905 0
    outer loop
      vertex 52.373 53.5264 0
      vertex 52.4541 53.5811 0.15
      vertex 52.373 53.5264 0.15
    endloop
  endfacet
  facet normal 0.559174 -0.82905 0
    outer loop
      vertex 52.4541 53.5811 0.15
      vertex 52.373 53.5264 0
      vertex 52.4541 53.5811 0
    endloop
  endfacet
  facet normal 0.189799 -0.981823 0
    outer loop
      vertex 52.4541 53.5811 0
      vertex 52.5498 53.5996 0.15
      vertex 52.4541 53.5811 0.15
    endloop
  endfacet
  facet normal 0.189799 -0.981823 0
    outer loop
      vertex 52.5498 53.5996 0.15
      vertex 52.4541 53.5811 0
      vertex 52.5498 53.5996 0
    endloop
  endfacet
  facet normal 0 -1 0
    outer loop
      vertex 52.5498 53.5996 0
      vertex 53.4502 53.5996 0.15
      vertex 52.5498 53.5996 0.15
    endloop
  endfacet
  facet normal 0 -1 -0
    outer loop
      vertex 53.4502 53.5996 0.15
      vertex 52.5498 53.5996 0
      vertex 53.4502 53.5996 0
    endloop
  endfacet
  facet normal -0.189799 -0.981823 0
    outer loop
      vertex 53.4502 53.5996 0
      vertex 53.5459 53.5811 0.15
      vertex 53.4502 53.5996 0.15
    endloop
  endfacet
  facet normal -0.189799 -0.981823 -0
    outer loop
      vertex 53.5459 53.5811 0.15
      vertex 53.4502 53.5996 0
      vertex 53.5459 53.5811 0
    endloop
  endfacet
  facet normal -0.559174 -0.82905 0
    outer loop
      vertex 53.0459 79.0811 0
      vertex 53.127 79.0264 0.15
      vertex 53.0459 79.0811 0.15
    endloop
  endfacet
  facet normal -0.559174 -0.82905 -0
    outer loop
      vertex 53.127 79.0264 0.15
      vertex 53.0459 79.0811 0
      vertex 53.127 79.0264 0
    endloop
  endfacet
  facet normal -0.833786 -0.552088 0
    outer loop
      vertex 53.1807 78.9453 0
      vertex 53.127 79.0264 0.15
      vertex 53.127 79.0264 0
    endloop
  endfacet
  facet normal -0.833786 -0.552088 0
    outer loop
      vertex 53.127 79.0264 0.15
      vertex 53.1807 78.9453 0
      vertex 53.1807 78.9453 0.15
    endloop
  endfacet
  facet normal -0.979865 -0.199659 0
    outer loop
      vertex 53.2002 78.8496 0
      vertex 53.1807 78.9453 0.15
      vertex 53.1807 78.9453 0
    endloop
  endfacet
  facet normal -0.979865 -0.199659 0
    outer loop
      vertex 53.1807 78.9453 0.15
      vertex 53.2002 78.8496 0
      vertex 53.2002 78.8496 0.15
    endloop
  endfacet
  facet normal -1 0 0
    outer loop
      vertex 53.2002 78.1504 0
      vertex 53.2002 78.8496 0.15
      vertex 53.2002 78.8496 0
    endloop
  endfacet
  facet normal -1 -0 0
    outer loop
      vertex 53.2002 78.8496 0.15
      vertex 53.2002 78.1504 0
      vertex 53.2002 78.1504 0.15
    endloop
  endfacet
  facet normal -0.979865 0.199659 0
    outer loop
      vertex 53.1807 78.0547 0
      vertex 53.2002 78.1504 0.15
      vertex 53.2002 78.1504 0
    endloop
  endfacet
  facet normal -0.979865 0.199659 0
    outer loop
      vertex 53.2002 78.1504 0.15
      vertex 53.1807 78.0547 0
      vertex 53.1807 78.0547 0.15
    endloop
  endfacet
  facet normal -0.833786 0.552088 0
    outer loop
      vertex 53.127 77.9736 0
      vertex 53.1807 78.0547 0.15
      vertex 53.1807 78.0547 0
    endloop
  endfacet
  facet normal -0.833786 0.552088 0
    outer loop
      vertex 53.1807 78.0547 0.15
      vertex 53.127 77.9736 0
      vertex 53.127 77.9736 0.15
    endloop
  endfacet
  facet normal -0.559174 0.82905 0
    outer loop
      vertex 53.127 77.9736 0
      vertex 53.0459 77.9189 0.15
      vertex 53.127 77.9736 0.15
    endloop
  endfacet
  facet normal -0.559174 0.82905 0
    outer loop
      vertex 53.0459 77.9189 0.15
      vertex 53.127 77.9736 0
      vertex 53.0459 77.9189 0
    endloop
  endfacet
  facet normal -0.189799 0.981823 0
    outer loop
      vertex 53.0459 77.9189 0
      vertex 52.9502 77.9004 0.15
      vertex 53.0459 77.9189 0.15
    endloop
  endfacet
  facet normal -0.189799 0.981823 0
    outer loop
      vertex 52.9502 77.9004 0.15
      vertex 53.0459 77.9189 0
      vertex 52.9502 77.9004 0
    endloop
  endfacet
  facet normal 0 1 -0
    outer loop
      vertex 52.9502 77.9004 0
      vertex 52.0498 77.9004 0.15
      vertex 52.9502 77.9004 0.15
    endloop
  endfacet
  facet normal 0 1 0
    outer loop
      vertex 52.0498 77.9004 0.15
      vertex 52.9502 77.9004 0
      vertex 52.0498 77.9004 0
    endloop
  endfacet
  facet normal 0.189799 0.981823 -0
    outer loop
      vertex 52.0498 77.9004 0
      vertex 51.9541 77.9189 0.15
      vertex 52.0498 77.9004 0.15
    endloop
  endfacet
  facet normal 0.189799 0.981823 0
    outer loop
      vertex 51.9541 77.9189 0.15
      vertex 52.0498 77.9004 0
      vertex 51.9541 77.9189 0
    endloop
  endfacet
  facet normal 0.559174 0.82905 -0
    outer loop
      vertex 51.9541 77.9189 0
      vertex 51.873 77.9736 0.15
      vertex 51.9541 77.9189 0.15
    endloop
  endfacet
  facet normal 0.559174 0.82905 0
    outer loop
      vertex 51.873 77.9736 0.15
      vertex 51.9541 77.9189 0
      vertex 51.873 77.9736 0
    endloop
  endfacet
  facet normal 0.833786 0.552088 0
    outer loop
      vertex 51.873 77.9736 0.15
      vertex 51.8193 78.0547 0
      vertex 51.8193 78.0547 0.15
    endloop
  endfacet
  facet normal 0.833786 0.552088 0
    outer loop
      vertex 51.8193 78.0547 0
      vertex 51.873 77.9736 0.15
      vertex 51.873 77.9736 0
    endloop
  endfacet
  facet normal 0.979865 0.199659 0
    outer loop
      vertex 51.8193 78.0547 0.15
      vertex 51.7998 78.1504 0
      vertex 51.7998 78.1504 0.15
    endloop
  endfacet
  facet normal 0.979865 0.199659 0
    outer loop
      vertex 51.7998 78.1504 0
      vertex 51.8193 78.0547 0.15
      vertex 51.8193 78.0547 0
    endloop
  endfacet
  facet normal 1 -0 0
    outer loop
      vertex 51.7998 78.1504 0.15
      vertex 51.7998 78.8496 0
      vertex 51.7998 78.8496 0.15
    endloop
  endfacet
  facet normal 1 0 0
    outer loop
      vertex 51.7998 78.8496 0
      vertex 51.7998 78.1504 0.15
      vertex 51.7998 78.1504 0
    endloop
  endfacet
  facet normal 0.979865 -0.199659 0
    outer loop
      vertex 51.7998 78.8496 0.15
      vertex 51.8193 78.9453 0
      vertex 51.8193 78.9453 0.15
    endloop
  endfacet
  facet normal 0.979865 -0.199659 0
    outer loop
      vertex 51.8193 78.9453 0
      vertex 51.7998 78.8496 0.15
      vertex 51.7998 78.8496 0
    endloop
  endfacet
  facet normal 0.833786 -0.552088 0
    outer loop
      vertex 51.8193 78.9453 0.15
      vertex 51.873 79.0264 0
      vertex 51.873 79.0264 0.15
    endloop
  endfacet
  facet normal 0.833786 -0.552088 0
    outer loop
      vertex 51.873 79.0264 0
      vertex 51.8193 78.9453 0.15
      vertex 51.8193 78.9453 0
    endloop
  endfacet
  facet normal 0.559174 -0.82905 0
    outer loop
      vertex 51.873 79.0264 0
      vertex 51.9541 79.0811 0.15
      vertex 51.873 79.0264 0.15
    endloop
  endfacet
  facet normal 0.559174 -0.82905 0
    outer loop
      vertex 51.9541 79.0811 0.15
      vertex 51.873 79.0264 0
      vertex 51.9541 79.0811 0
    endloop
  endfacet
  facet normal 0.189799 -0.981823 0
    outer loop
      vertex 51.9541 79.0811 0
      vertex 52.0498 79.0996 0.15
      vertex 51.9541 79.0811 0.15
    endloop
  endfacet
  facet normal 0.189799 -0.981823 0
    outer loop
      vertex 52.0498 79.0996 0.15
      vertex 51.9541 79.0811 0
      vertex 52.0498 79.0996 0
    endloop
  endfacet
  facet normal 0 -1 0
    outer loop
      vertex 52.0498 79.0996 0
      vertex 52.9502 79.0996 0.15
      vertex 52.0498 79.0996 0.15
    endloop
  endfacet
  facet normal 0 -1 -0
    outer loop
      vertex 52.9502 79.0996 0.15
      vertex 52.0498 79.0996 0
      vertex 52.9502 79.0996 0
    endloop
  endfacet
  facet normal -0.189799 -0.981823 0
    outer loop
      vertex 52.9502 79.0996 0
      vertex 53.0459 79.0811 0.15
      vertex 52.9502 79.0996 0.15
    endloop
  endfacet
  facet normal -0.189799 -0.981823 -0
    outer loop
      vertex 53.0459 79.0811 0.15
      vertex 52.9502 79.0996 0
      vertex 53.0459 79.0811 0
    endloop
  endfacet
  facet normal -0.559174 -0.82905 0
    outer loop
      vertex 53.0459 81.0811 0
      vertex 53.127 81.0264 0.15
      vertex 53.0459 81.0811 0.15
    endloop
  endfacet
  facet normal -0.559174 -0.82905 -0
    outer loop
      vertex 53.127 81.0264 0.15
      vertex 53.0459 81.0811 0
      vertex 53.127 81.0264 0
    endloop
  endfacet
  facet normal -0.833786 -0.552088 0
    outer loop
      vertex 53.1807 80.9453 0
      vertex 53.127 81.0264 0.15
      vertex 53.127 81.0264 0
    endloop
  endfacet
  facet normal -0.833786 -0.552088 0
    outer loop
      vertex 53.127 81.0264 0.15
      vertex 53.1807 80.9453 0
      vertex 53.1807 80.9453 0.15
    endloop
  endfacet
  facet normal -0.979865 -0.199659 0
    outer loop
      vertex 53.2002 80.8496 0
      vertex 53.1807 80.9453 0.15
      vertex 53.1807 80.9453 0
    endloop
  endfacet
  facet normal -0.979865 -0.199659 0
    outer loop
      vertex 53.1807 80.9453 0.15
      vertex 53.2002 80.8496 0
      vertex 53.2002 80.8496 0.15
    endloop
  endfacet
  facet normal -1 0 0
    outer loop
      vertex 53.2002 80.1504 0
      vertex 53.2002 80.8496 0.15
      vertex 53.2002 80.8496 0
    endloop
  endfacet
  facet normal -1 -0 0
    outer loop
      vertex 53.2002 80.8496 0.15
      vertex 53.2002 80.1504 0
      vertex 53.2002 80.1504 0.15
    endloop
  endfacet
  facet normal -0.979865 0.199659 0
    outer loop
      vertex 53.1807 80.0547 0
      vertex 53.2002 80.1504 0.15
      vertex 53.2002 80.1504 0
    endloop
  endfacet
  facet normal -0.979865 0.199659 0
    outer loop
      vertex 53.2002 80.1504 0.15
      vertex 53.1807 80.0547 0
      vertex 53.1807 80.0547 0.15
    endloop
  endfacet
  facet normal -0.833786 0.552088 0
    outer loop
      vertex 53.127 79.9736 0
      vertex 53.1807 80.0547 0.15
      vertex 53.1807 80.0547 0
    endloop
  endfacet
  facet normal -0.833786 0.552088 0
    outer loop
      vertex 53.1807 80.0547 0.15
      vertex 53.127 79.9736 0
      vertex 53.127 79.9736 0.15
    endloop
  endfacet
  facet normal -0.559174 0.82905 0
    outer loop
      vertex 53.127 79.9736 0
      vertex 53.0459 79.9189 0.15
      vertex 53.127 79.9736 0.15
    endloop
  endfacet
  facet normal -0.559174 0.82905 0
    outer loop
      vertex 53.0459 79.9189 0.15
      vertex 53.127 79.9736 0
      vertex 53.0459 79.9189 0
    endloop
  endfacet
  facet normal -0.189799 0.981823 0
    outer loop
      vertex 53.0459 79.9189 0
      vertex 52.9502 79.9004 0.15
      vertex 53.0459 79.9189 0.15
    endloop
  endfacet
  facet normal -0.189799 0.981823 0
    outer loop
      vertex 52.9502 79.9004 0.15
      vertex 53.0459 79.9189 0
      vertex 52.9502 79.9004 0
    endloop
  endfacet
  facet normal 0 1 -0
    outer loop
      vertex 52.9502 79.9004 0
      vertex 52.0498 79.9004 0.15
      vertex 52.9502 79.9004 0.15
    endloop
  endfacet
  facet normal 0 1 0
    outer loop
      vertex 52.0498 79.9004 0.15
      vertex 52.9502 79.9004 0
      vertex 52.0498 79.9004 0
    endloop
  endfacet
  facet normal 0.189799 0.981823 -0
    outer loop
      vertex 52.0498 79.9004 0
      vertex 51.9541 79.9189 0.15
      vertex 52.0498 79.9004 0.15
    endloop
  endfacet
  facet normal 0.189799 0.981823 0
    outer loop
      vertex 51.9541 79.9189 0.15
      vertex 52.0498 79.9004 0
      vertex 51.9541 79.9189 0
    endloop
  endfacet
  facet normal 0.559174 0.82905 -0
    outer loop
      vertex 51.9541 79.9189 0
      vertex 51.873 79.9736 0.15
      vertex 51.9541 79.9189 0.15
    endloop
  endfacet
  facet normal 0.559174 0.82905 0
    outer loop
      vertex 51.873 79.9736 0.15
      vertex 51.9541 79.9189 0
      vertex 51.873 79.9736 0
    endloop
  endfacet
  facet normal 0.833786 0.552088 0
    outer loop
      vertex 51.873 79.9736 0.15
      vertex 51.8193 80.0547 0
      vertex 51.8193 80.0547 0.15
    endloop
  endfacet
  facet normal 0.833786 0.552088 0
    outer loop
      vertex 51.8193 80.0547 0
      vertex 51.873 79.9736 0.15
      vertex 51.873 79.9736 0
    endloop
  endfacet
  facet normal 0.979865 0.199659 0
    outer loop
      vertex 51.8193 80.0547 0.15
      vertex 51.7998 80.1504 0
      vertex 51.7998 80.1504 0.15
    endloop
  endfacet
  facet normal 0.979865 0.199659 0
    outer loop
      vertex 51.7998 80.1504 0
      vertex 51.8193 80.0547 0.15
      vertex 51.8193 80.0547 0
    endloop
  endfacet
  facet normal 1 -0 0
    outer loop
      vertex 51.7998 80.1504 0.15
      vertex 51.7998 80.8496 0
      vertex 51.7998 80.8496 0.15
    endloop
  endfacet
  facet normal 1 0 0
    outer loop
      vertex 51.7998 80.8496 0
      vertex 51.7998 80.1504 0.15
      vertex 51.7998 80.1504 0
    endloop
  endfacet
  facet normal 0.979865 -0.199659 0
    outer loop
      vertex 51.7998 80.8496 0.15
      vertex 51.8193 80.9453 0
      vertex 51.8193 80.9453 0.15
    endloop
  endfacet
  facet normal 0.979865 -0.199659 0
    outer loop
      vertex 51.8193 80.9453 0
      vertex 51.7998 80.8496 0.15
      vertex 51.7998 80.8496 0
    endloop
  endfacet
  facet normal 0.833786 -0.552088 0
    outer loop
      vertex 51.8193 80.9453 0.15
      vertex 51.873 81.0264 0
      vertex 51.873 81.0264 0.15
    endloop
  endfacet
  facet normal 0.833786 -0.552088 0
    outer loop
      vertex 51.873 81.0264 0
      vertex 51.8193 80.9453 0.15
      vertex 51.8193 80.9453 0
    endloop
  endfacet
  facet normal 0.559174 -0.82905 0
    outer loop
      vertex 51.873 81.0264 0
      vertex 51.9541 81.0811 0.15
      vertex 51.873 81.0264 0.15
    endloop
  endfacet
  facet normal 0.559174 -0.82905 0
    outer loop
      vertex 51.9541 81.0811 0.15
      vertex 51.873 81.0264 0
      vertex 51.9541 81.0811 0
    endloop
  endfacet
  facet normal 0.189799 -0.981823 0
    outer loop
      vertex 51.9541 81.0811 0
      vertex 52.0498 81.0996 0.15
      vertex 51.9541 81.0811 0.15
    endloop
  endfacet
  facet normal 0.189799 -0.981823 0
    outer loop
      vertex 52.0498 81.0996 0.15
      vertex 51.9541 81.0811 0
      vertex 52.0498 81.0996 0
    endloop
  endfacet
  facet normal 0 -1 0
    outer loop
      vertex 52.0498 81.0996 0
      vertex 52.9502 81.0996 0.15
      vertex 52.0498 81.0996 0.15
    endloop
  endfacet
  facet normal 0 -1 -0
    outer loop
      vertex 52.9502 81.0996 0.15
      vertex 52.0498 81.0996 0
      vertex 52.9502 81.0996 0
    endloop
  endfacet
  facet normal -0.189799 -0.981823 0
    outer loop
      vertex 52.9502 81.0996 0
      vertex 53.0459 81.0811 0.15
      vertex 52.9502 81.0996 0.15
    endloop
  endfacet
  facet normal -0.189799 -0.981823 -0
    outer loop
      vertex 53.0459 81.0811 0.15
      vertex 52.9502 81.0996 0
      vertex 53.0459 81.0811 0
    endloop
  endfacet
endsolid OpenSCAD_Model
