  0
SECTION
  2
HEADER
  9
$ANGBASE
  50
0.0
  9
$ANGDIR
  70
1
  9
$MEASUREMENT
  70
1
  0
ENDSEC
  0
SECTION
  2
TABLES
  0
TABLE
  2
LTYPE
  70
4
  0
LTYPE
  5
40F
  2
CONTINUOUS
  70
0
  3
Solid line
  72
65
  73
0
  40
0.0
  0
LTYPE
  5
410
  2
DASHDOT
 70
0
  3
Dash Dot ____ _ ____ _
 72
65
 73
4
 40
2.0
 49
1.25
 49
-0.25
 49
0.25
 49
-0.25
  0
LTYPE
  5
411
  2
DASHED
 70
0
  3
Dashed __ __ __ __ __
 72
65
 73
2
 40
0.75
 49
0.5
 49
-0.25
  0
LTYPE
  5
43B
  2
DOTTED
 70
0
  3
Dotted .  .  .  .
 72
65
 73
2
 40
0.2
 49
0.0
 49
-0.2
  0
ENDTAB
  0
TABLE
  2
STYLE
  70
4
  0
STYLE
  2
KICAD
  70
0
  40
0
  41
1
  42
1
  50
0
  71
0
  3
isocp.shx
  0
STYLE
  2
KICADB
  70
0
  40
0
  41
1
  42
1
  50
0
  71
0
  3
isocp.shx
  0
STYLE
  2
KICADI
  70
0
  40
0
  41
1
  42
1
  50
15
  71
0
  3
isocp.shx
  0
STYLE
  2
KICADBI
  70
0
  40
0
  41
1
  42
1
  50
15
  71
0
  3
isocp.shx
  0
ENDTAB
  0
TABLE
  2
LAYER
  70
1
  0
LAYER
  2
BLACK
  70
0
  62
7
  6
CONTINUOUS
  0
ENDTAB
  0
ENDSEC
  0
SECTION
  2
ENTITIES
0
LINE
8
BLACK
6
CONTINUOUS
10
53.0456709999999987
20
-79.9190299999999922
11
53.126776999999997
21
-79.9732229999999902
0
LINE
8
BLACK
6
CONTINUOUS
10
53.126776999999997
20
-79.9732229999999902
11
53.180969999999995
21
-80.0543289999999956
0
LINE
8
BLACK
6
CONTINUOUS
10
53.180969999999995
20
-80.0543289999999956
11
53.1999999999999957
21
-80.1499999999999915
0
LINE
8
BLACK
6
CONTINUOUS
10
53.1999999999999957
20
-80.1499999999999915
11
53.1999999999999957
21
-80.8499999999999943
0
LINE
8
BLACK
6
CONTINUOUS
10
53.1999999999999957
20
-80.8499999999999943
11
53.180969999999995
21
-80.9456709999999902
0
LINE
8
BLACK
6
CONTINUOUS
10
53.180969999999995
20
-80.9456709999999902
11
53.126776999999997
21
-81.0267769999999956
0
LINE
8
BLACK
6
CONTINUOUS
10
53.126776999999997
20
-81.0267769999999956
11
53.0456709999999987
21
-81.0809699999999935
0
LINE
8
BLACK
6
CONTINUOUS
10
53.0456709999999987
20
-81.0809699999999935
11
52.9499999999999957
21
-81.0999999999999943
0
LINE
8
BLACK
6
CONTINUOUS
10
52.9499999999999957
20
-81.0999999999999943
11
52.0499999999999972
21
-81.0999999999999943
0
LINE
8
BLACK
6
CONTINUOUS
10
52.0499999999999972
20
-81.0999999999999943
11
51.9543289999999942
21
-81.0809699999999935
0
LINE
8
BLACK
6
CONTINUOUS
10
51.9543289999999942
20
-81.0809699999999935
11
51.8732229999999959
21
-81.0267769999999956
0
LINE
8
BLACK
6
CONTINUOUS
10
51.8732229999999959
20
-81.0267769999999956
11
51.8190299999999979
21
-80.9456709999999902
0
LINE
8
BLACK
6
CONTINUOUS
10
51.8190299999999979
20
-80.9456709999999902
11
51.7999999999999972
21
-80.8499999999999943
0
LINE
8
BLACK
6
CONTINUOUS
10
51.7999999999999972
20
-80.8499999999999943
11
51.7999999999999972
21
-80.1499999999999915
0
LINE
8
BLACK
6
CONTINUOUS
10
51.7999999999999972
20
-80.1499999999999915
11
51.8190299999999979
21
-80.0543289999999956
0
LINE
8
BLACK
6
CONTINUOUS
10
51.8190299999999979
20
-80.0543289999999956
11
51.8732229999999959
21
-79.9732229999999902
0
LINE
8
BLACK
6
CONTINUOUS
10
51.8732229999999959
20
-79.9732229999999902
11
51.9543289999999942
21
-79.9190299999999922
0
LINE
8
BLACK
6
CONTINUOUS
10
51.9543289999999942
20
-79.9190299999999922
11
52.0499999999999972
21
-79.8999999999999915
0
LINE
8
BLACK
6
CONTINUOUS
10
52.0499999999999972
20
-79.8999999999999915
11
52.9499999999999957
21
-79.8999999999999915
0
LINE
8
BLACK
6
CONTINUOUS
10
52.9499999999999957
20
-79.8999999999999915
11
53.0456709999999987
21
-79.9190299999999922
0
LINE
8
BLACK
6
CONTINUOUS
10
53.0456709999999987
20
-77.9190299999999922
11
53.126776999999997
21
-77.9732229999999902
0
LINE
8
BLACK
6
CONTINUOUS
10
53.126776999999997
20
-77.9732229999999902
11
53.180969999999995
21
-78.0543289999999956
0
LINE
8
BLACK
6
CONTINUOUS
10
53.180969999999995
20
-78.0543289999999956
11
53.1999999999999957
21
-78.1499999999999915
0
LINE
8
BLACK
6
CONTINUOUS
10
53.1999999999999957
20
-78.1499999999999915
11
53.1999999999999957
21
-78.8499999999999943
0
LINE
8
BLACK
6
CONTINUOUS
10
53.1999999999999957
20
-78.8499999999999943
11
53.180969999999995
21
-78.9456709999999902
0
LINE
8
BLACK
6
CONTINUOUS
10
53.180969999999995
20
-78.9456709999999902
11
53.126776999999997
21
-79.0267769999999956
0
LINE
8
BLACK
6
CONTINUOUS
10
53.126776999999997
20
-79.0267769999999956
11
53.0456709999999987
21
-79.0809699999999935
0
LINE
8
BLACK
6
CONTINUOUS
10
53.0456709999999987
20
-79.0809699999999935
11
52.9499999999999957
21
-79.0999999999999943
0
LINE
8
BLACK
6
CONTINUOUS
10
52.9499999999999957
20
-79.0999999999999943
11
52.0499999999999972
21
-79.0999999999999943
0
LINE
8
BLACK
6
CONTINUOUS
10
52.0499999999999972
20
-79.0999999999999943
11
51.9543289999999942
21
-79.0809699999999935
0
LINE
8
BLACK
6
CONTINUOUS
10
51.9543289999999942
20
-79.0809699999999935
11
51.8732229999999959
21
-79.0267769999999956
0
LINE
8
BLACK
6
CONTINUOUS
10
51.8732229999999959
20
-79.0267769999999956
11
51.8190299999999979
21
-78.9456709999999902
0
LINE
8
BLACK
6
CONTINUOUS
10
51.8190299999999979
20
-78.9456709999999902
11
51.7999999999999972
21
-78.8499999999999943
0
LINE
8
BLACK
6
CONTINUOUS
10
51.7999999999999972
20
-78.8499999999999943
11
51.7999999999999972
21
-78.1499999999999915
0
LINE
8
BLACK
6
CONTINUOUS
10
51.7999999999999972
20
-78.1499999999999915
11
51.8190299999999979
21
-78.0543289999999956
0
LINE
8
BLACK
6
CONTINUOUS
10
51.8190299999999979
20
-78.0543289999999956
11
51.8732229999999959
21
-77.9732229999999902
0
LINE
8
BLACK
6
CONTINUOUS
10
51.8732229999999959
20
-77.9732229999999902
11
51.9543289999999942
21
-77.9190299999999922
0
LINE
8
BLACK
6
CONTINUOUS
10
51.9543289999999942
20
-77.9190299999999922
11
52.0499999999999972
21
-77.8999999999999915
0
LINE
8
BLACK
6
CONTINUOUS
10
52.0499999999999972
20
-77.8999999999999915
11
52.9499999999999957
21
-77.8999999999999915
0
LINE
8
BLACK
6
CONTINUOUS
10
52.9499999999999957
20
-77.8999999999999915
11
53.0456709999999987
21
-77.9190299999999922
0
LINE
8
BLACK
6
CONTINUOUS
10
53.5456709999999987
20
-52.4190299999999993
11
53.626776999999997
21
-52.4732229999999973
0
LINE
8
BLACK
6
CONTINUOUS
10
53.626776999999997
20
-52.4732229999999973
11
53.680969999999995
21
-52.5543289999999956
0
LINE
8
BLACK
6
CONTINUOUS
10
53.680969999999995
20
-52.5543289999999956
11
53.6999999999999957
21
-52.6499999999999986
0
LINE
8
BLACK
6
CONTINUOUS
10
53.6999999999999957
20
-52.6499999999999986
11
53.6999999999999957
21
-53.3499999999999943
0
LINE
8
BLACK
6
CONTINUOUS
10
53.6999999999999957
20
-53.3499999999999943
11
53.680969999999995
21
-53.4456709999999973
0
LINE
8
BLACK
6
CONTINUOUS
10
53.680969999999995
20
-53.4456709999999973
11
53.626776999999997
21
-53.5267769999999956
0
LINE
8
BLACK
6
CONTINUOUS
10
53.626776999999997
20
-53.5267769999999956
11
53.5456709999999987
21
-53.5809700000000007
0
LINE
8
BLACK
6
CONTINUOUS
10
53.5456709999999987
20
-53.5809700000000007
11
53.4499999999999957
21
-53.5999999999999943
0
LINE
8
BLACK
6
CONTINUOUS
10
53.4499999999999957
20
-53.5999999999999943
11
52.5499999999999972
21
-53.5999999999999943
0
LINE
8
BLACK
6
CONTINUOUS
10
52.5499999999999972
20
-53.5999999999999943
11
52.4543289999999942
21
-53.5809700000000007
0
LINE
8
BLACK
6
CONTINUOUS
10
52.4543289999999942
20
-53.5809700000000007
11
52.3732229999999959
21
-53.5267769999999956
0
LINE
8
BLACK
6
CONTINUOUS
10
52.3732229999999959
20
-53.5267769999999956
11
52.3190299999999979
21
-53.4456709999999973
0
LINE
8
BLACK
6
CONTINUOUS
10
52.3190299999999979
20
-53.4456709999999973
11
52.2999999999999972
21
-53.3499999999999943
0
LINE
8
BLACK
6
CONTINUOUS
10
52.2999999999999972
20
-53.3499999999999943
11
52.2999999999999972
21
-52.6499999999999986
0
LINE
8
BLACK
6
CONTINUOUS
10
52.2999999999999972
20
-52.6499999999999986
11
52.3190299999999979
21
-52.5543289999999956
0
LINE
8
BLACK
6
CONTINUOUS
10
52.3190299999999979
20
-52.5543289999999956
11
52.3732229999999959
21
-52.4732229999999973
0
LINE
8
BLACK
6
CONTINUOUS
10
52.3732229999999959
20
-52.4732229999999973
11
52.4543289999999942
21
-52.4190299999999993
0
LINE
8
BLACK
6
CONTINUOUS
10
52.4543289999999942
20
-52.4190299999999993
11
52.5499999999999972
21
-52.3999999999999986
0
LINE
8
BLACK
6
CONTINUOUS
10
52.5499999999999972
20
-52.3999999999999986
11
53.4499999999999957
21
-52.3999999999999986
0
LINE
8
BLACK
6
CONTINUOUS
10
53.4499999999999957
20
-52.3999999999999986
11
53.5456709999999987
21
-52.4190299999999993
0
LINE
8
BLACK
6
CONTINUOUS
10
53.5456709999999987
20
-50.4190299999999993
11
53.626776999999997
21
-50.4732229999999973
0
LINE
8
BLACK
6
CONTINUOUS
10
53.626776999999997
20
-50.4732229999999973
11
53.680969999999995
21
-50.5543289999999956
0
LINE
8
BLACK
6
CONTINUOUS
10
53.680969999999995
20
-50.5543289999999956
11
53.6999999999999957
21
-50.6499999999999986
0
LINE
8
BLACK
6
CONTINUOUS
10
53.6999999999999957
20
-50.6499999999999986
11
53.6999999999999957
21
-51.3499999999999943
0
LINE
8
BLACK
6
CONTINUOUS
10
53.6999999999999957
20
-51.3499999999999943
11
53.680969999999995
21
-51.4456709999999973
0
LINE
8
BLACK
6
CONTINUOUS
10
53.680969999999995
20
-51.4456709999999973
11
53.626776999999997
21
-51.5267769999999956
0
LINE
8
BLACK
6
CONTINUOUS
10
53.626776999999997
20
-51.5267769999999956
11
53.5456709999999987
21
-51.5809700000000007
0
LINE
8
BLACK
6
CONTINUOUS
10
53.5456709999999987
20
-51.5809700000000007
11
53.4499999999999957
21
-51.5999999999999943
0
LINE
8
BLACK
6
CONTINUOUS
10
53.4499999999999957
20
-51.5999999999999943
11
52.5499999999999972
21
-51.5999999999999943
0
LINE
8
BLACK
6
CONTINUOUS
10
52.5499999999999972
20
-51.5999999999999943
11
52.4543289999999942
21
-51.5809700000000007
0
LINE
8
BLACK
6
CONTINUOUS
10
52.4543289999999942
20
-51.5809700000000007
11
52.3732229999999959
21
-51.5267769999999956
0
LINE
8
BLACK
6
CONTINUOUS
10
52.3732229999999959
20
-51.5267769999999956
11
52.3190299999999979
21
-51.4456709999999973
0
LINE
8
BLACK
6
CONTINUOUS
10
52.3190299999999979
20
-51.4456709999999973
11
52.2999999999999972
21
-51.3499999999999943
0
LINE
8
BLACK
6
CONTINUOUS
10
52.2999999999999972
20
-51.3499999999999943
11
52.2999999999999972
21
-50.6499999999999986
0
LINE
8
BLACK
6
CONTINUOUS
10
52.2999999999999972
20
-50.6499999999999986
11
52.3190299999999979
21
-50.5543289999999956
0
LINE
8
BLACK
6
CONTINUOUS
10
52.3190299999999979
20
-50.5543289999999956
11
52.3732229999999959
21
-50.4732229999999973
0
LINE
8
BLACK
6
CONTINUOUS
10
52.3732229999999959
20
-50.4732229999999973
11
52.4543289999999942
21
-50.4190299999999993
0
LINE
8
BLACK
6
CONTINUOUS
10
52.4543289999999942
20
-50.4190299999999993
11
52.5499999999999972
21
-50.3999999999999986
0
LINE
8
BLACK
6
CONTINUOUS
10
52.5499999999999972
20
-50.3999999999999986
11
53.4499999999999957
21
-50.3999999999999986
0
LINE
8
BLACK
6
CONTINUOUS
10
53.4499999999999957
20
-50.3999999999999986
11
53.5456709999999987
21
-50.4190299999999993
  0
ENDSEC
  0
EOF
