G04 #@! TF.GenerationSoftware,KiCad,Pcbnew,9.0.1+1*
G04 #@! TF.CreationDate,2025-05-09T02:32:34+00:00*
G04 #@! TF.ProjectId,stencil,7374656e-6369-46c2-9e6b-696361645f70,rev?*
G04 #@! TF.SameCoordinates,Original*
G04 #@! TF.FileFunction,Paste,Top*
G04 #@! TF.FilePolarity,Positive*
%FSLAX46Y46*%
G04 Gerber Fmt 4.6, Leading zero omitted, Abs format (unit mm)*
G04 Created by KiCad (PCBNEW 9.0.1+1) date 2025-05-09 02:32:34*
%MOMM*%
%LPD*%
G01*
G04 APERTURE LIST*
G04 Aperture macros list*
%AMRoundRect*
0 Rectangle with rounded corners*
0 $1 Rounding radius*
0 $2 $3 $4 $5 $6 $7 $8 $9 X,Y pos of 4 corners*
0 Add a 4 corners polygon primitive as box body*
4,1,4,$2,$3,$4,$5,$6,$7,$8,$9,$2,$3,0*
0 Add four circle primitives for the rounded corners*
1,1,$1+$1,$2,$3*
1,1,$1+$1,$4,$5*
1,1,$1+$1,$6,$7*
1,1,$1+$1,$8,$9*
0 Add four rect primitives between the rounded corners*
20,1,$1+$1,$2,$3,$4,$5,0*
20,1,$1+$1,$4,$5,$6,$7,0*
20,1,$1+$1,$6,$7,$8,$9,0*
20,1,$1+$1,$8,$9,$2,$3,0*%
G04 Aperture macros list end*
%ADD10C,0.500000*%
%ADD11C,1.000000*%
%ADD12C,1.050000*%
%ADD13RoundRect,0.250000X0.450000X-0.350000X0.450000X0.350000X-0.450000X0.350000X-0.450000X-0.350000X0*%
G04 APERTURE END LIST*
D10*
X143000000Y-69500000D02*
G75*
G02*
X143500000Y-70000000I0J-500000D01*
G01*
X20000000Y-105700000D02*
G75*
G02*
X19500000Y-105200000I0J500000D01*
G01*
D11*
X23250000Y-39625000D02*
G75*
G02*
X22250000Y-39625000I-500000J0D01*
G01*
X22250000Y-39625000D02*
G75*
G02*
X23250000Y-39625000I500000J0D01*
G01*
D10*
X57700000Y-131000000D02*
X68100000Y-131000000D01*
X130100000Y-7000000D02*
G75*
G02*
X130600000Y-7500000I0J-500000D01*
G01*
X32900000Y-131000000D02*
G75*
G02*
X32400000Y-130500000I0J500000D01*
G01*
X19500000Y-8000000D02*
G75*
G02*
X20500000Y-7000000I1000000J0D01*
G01*
X105800000Y-130500000D02*
G75*
G02*
X105300000Y-131000000I-500000J0D01*
G01*
X56200000Y-130500000D02*
G75*
G02*
X55700000Y-131000000I-500000J0D01*
G01*
X132100000Y-131000000D02*
X142500000Y-131000000D01*
D11*
X52625000Y-10250000D02*
G75*
G02*
X51625000Y-10250000I-500000J0D01*
G01*
X51625000Y-10250000D02*
G75*
G02*
X52625000Y-10250000I500000J0D01*
G01*
D10*
X20000000Y-118100000D02*
G75*
G02*
X19500000Y-117600000I0J500000D01*
G01*
X19500000Y-82400000D02*
G75*
G02*
X20000000Y-81900000I500000J0D01*
G01*
X19500000Y-45200000D02*
X19500000Y-55600000D01*
X31400000Y-130500000D02*
G75*
G02*
X30900000Y-131000000I-500000J0D01*
G01*
D11*
X23250000Y-98375000D02*
G75*
G02*
X22250000Y-98375000I-500000J0D01*
G01*
X22250000Y-98375000D02*
G75*
G02*
X23250000Y-98375000I500000J0D01*
G01*
D12*
X23275000Y-10250000D02*
G75*
G02*
X22225000Y-10250000I-525000J0D01*
G01*
X22225000Y-10250000D02*
G75*
G02*
X23275000Y-10250000I525000J0D01*
G01*
D10*
X143500000Y-45200000D02*
X143500000Y-55600000D01*
X143500000Y-55600000D02*
G75*
G02*
X143000000Y-56100000I-500000J0D01*
G01*
X93400000Y-130500000D02*
G75*
G02*
X92900000Y-131000000I-500000J0D01*
G01*
X32400000Y-7500000D02*
G75*
G02*
X32900000Y-7000000I500000J0D01*
G01*
X81000000Y-130500000D02*
G75*
G02*
X80500000Y-131000000I-500000J0D01*
G01*
X20500000Y-131000000D02*
G75*
G02*
X19500000Y-130000000I0J1000000D01*
G01*
D12*
X140775000Y-127750000D02*
G75*
G02*
X139725000Y-127750000I-525000J0D01*
G01*
X139725000Y-127750000D02*
G75*
G02*
X140775000Y-127750000I525000J0D01*
G01*
D10*
X19500000Y-8000000D02*
X19500000Y-18400000D01*
D12*
X23275000Y-127750000D02*
G75*
G02*
X22225000Y-127750000I-525000J0D01*
G01*
X22225000Y-127750000D02*
G75*
G02*
X23275000Y-127750000I525000J0D01*
G01*
D11*
X82000000Y-127750000D02*
G75*
G02*
X81000000Y-127750000I-500000J0D01*
G01*
X81000000Y-127750000D02*
G75*
G02*
X82000000Y-127750000I500000J0D01*
G01*
D10*
X20000000Y-56100000D02*
G75*
G02*
X19500000Y-55600000I0J500000D01*
G01*
X119700000Y-131000000D02*
X130100000Y-131000000D01*
X82500000Y-131000000D02*
X92900000Y-131000000D01*
X19500000Y-107200000D02*
G75*
G02*
X20000000Y-106700000I500000J0D01*
G01*
X19500000Y-70000000D02*
X19500000Y-80400000D01*
X20000000Y-18900000D02*
G75*
G02*
X19500000Y-18400000I0J500000D01*
G01*
X143500000Y-130000000D02*
G75*
G02*
X142500000Y-131000000I-1000000J0D01*
G01*
X94900000Y-131000000D02*
G75*
G02*
X94400000Y-130500000I0J500000D01*
G01*
X143500000Y-32800000D02*
X143500000Y-43200000D01*
X143500000Y-30800000D02*
G75*
G02*
X143000000Y-31300000I-500000J0D01*
G01*
D11*
X111375000Y-127750000D02*
G75*
G02*
X110375000Y-127750000I-500000J0D01*
G01*
X110375000Y-127750000D02*
G75*
G02*
X111375000Y-127750000I500000J0D01*
G01*
D10*
X32900000Y-131000000D02*
X43300000Y-131000000D01*
X57700000Y-131000000D02*
G75*
G02*
X57200000Y-130500000I0J500000D01*
G01*
X69600000Y-7500000D02*
G75*
G02*
X70100000Y-7000000I500000J0D01*
G01*
X143500000Y-82400000D02*
X143500000Y-92800000D01*
X143000000Y-106700000D02*
G75*
G02*
X143500000Y-107200000I0J-500000D01*
G01*
X143500000Y-80400000D02*
G75*
G02*
X143000000Y-80900000I-500000J0D01*
G01*
X82500000Y-7000000D02*
X92900000Y-7000000D01*
X45300000Y-131000000D02*
G75*
G02*
X44800000Y-130500000I0J500000D01*
G01*
X70100000Y-7000000D02*
X80500000Y-7000000D01*
X82000000Y-7500000D02*
G75*
G02*
X82500000Y-7000000I500000J0D01*
G01*
X70100000Y-131000000D02*
G75*
G02*
X69600000Y-130500000I0J500000D01*
G01*
X143500000Y-70000000D02*
X143500000Y-80400000D01*
X43300000Y-7000000D02*
G75*
G02*
X43800000Y-7500000I0J-500000D01*
G01*
X19500000Y-119600000D02*
G75*
G02*
X20000000Y-119100000I500000J0D01*
G01*
X32900000Y-7000000D02*
X43300000Y-7000000D01*
X118200000Y-130500000D02*
G75*
G02*
X117700000Y-131000000I-500000J0D01*
G01*
D12*
X140775000Y-10250000D02*
G75*
G02*
X139725000Y-10250000I-525000J0D01*
G01*
X139725000Y-10250000D02*
G75*
G02*
X140775000Y-10250000I525000J0D01*
G01*
D10*
X82500000Y-131000000D02*
G75*
G02*
X82000000Y-130500000I0J500000D01*
G01*
D11*
X140750000Y-98375000D02*
G75*
G02*
X139750000Y-98375000I-500000J0D01*
G01*
X139750000Y-98375000D02*
G75*
G02*
X140750000Y-98375000I500000J0D01*
G01*
D10*
X143500000Y-8000000D02*
X143500000Y-18400000D01*
X107300000Y-131000000D02*
G75*
G02*
X106800000Y-130500000I0J500000D01*
G01*
D11*
X140750000Y-39625000D02*
G75*
G02*
X139750000Y-39625000I-500000J0D01*
G01*
X139750000Y-39625000D02*
G75*
G02*
X140750000Y-39625000I500000J0D01*
G01*
D10*
X19500000Y-20400000D02*
G75*
G02*
X20000000Y-19900000I500000J0D01*
G01*
X19500000Y-32800000D02*
X19500000Y-43200000D01*
X143500000Y-119600000D02*
X143500000Y-130000000D01*
X107300000Y-7000000D02*
X117700000Y-7000000D01*
X45300000Y-131000000D02*
X55700000Y-131000000D01*
X143500000Y-43200000D02*
G75*
G02*
X143000000Y-43700000I-500000J0D01*
G01*
X19500000Y-45200000D02*
G75*
G02*
X20000000Y-44700000I500000J0D01*
G01*
X143500000Y-92800000D02*
G75*
G02*
X143000000Y-93300000I-500000J0D01*
G01*
X94400000Y-7500000D02*
G75*
G02*
X94900000Y-7000000I500000J0D01*
G01*
X94900000Y-131000000D02*
X105300000Y-131000000D01*
X143500000Y-117600000D02*
G75*
G02*
X143000000Y-118100000I-500000J0D01*
G01*
X20000000Y-31300000D02*
G75*
G02*
X19500000Y-30800000I0J500000D01*
G01*
X143500000Y-105200000D02*
G75*
G02*
X143000000Y-105700000I-500000J0D01*
G01*
X20000000Y-68500000D02*
G75*
G02*
X19500000Y-68000000I0J500000D01*
G01*
X130600000Y-130500000D02*
G75*
G02*
X130100000Y-131000000I-500000J0D01*
G01*
X68100000Y-7000000D02*
G75*
G02*
X68600000Y-7500000I0J-500000D01*
G01*
D11*
X23250000Y-69000000D02*
G75*
G02*
X22250000Y-69000000I-500000J0D01*
G01*
X22250000Y-69000000D02*
G75*
G02*
X23250000Y-69000000I500000J0D01*
G01*
D10*
X132100000Y-7000000D02*
X142500000Y-7000000D01*
X19500000Y-119600000D02*
X19500000Y-130000000D01*
X20000000Y-93300000D02*
G75*
G02*
X19500000Y-92800000I0J500000D01*
G01*
X19500000Y-32800000D02*
G75*
G02*
X20000000Y-32300000I500000J0D01*
G01*
D11*
X111375000Y-10250000D02*
G75*
G02*
X110375000Y-10250000I-500000J0D01*
G01*
X110375000Y-10250000D02*
G75*
G02*
X111375000Y-10250000I500000J0D01*
G01*
D10*
X143000000Y-19900000D02*
G75*
G02*
X143500000Y-20400000I0J-500000D01*
G01*
X19500000Y-70000000D02*
G75*
G02*
X20000000Y-69500000I500000J0D01*
G01*
X143000000Y-119100000D02*
G75*
G02*
X143500000Y-119600000I0J-500000D01*
G01*
X20000000Y-80900000D02*
G75*
G02*
X19500000Y-80400000I0J500000D01*
G01*
X94900000Y-7000000D02*
X105300000Y-7000000D01*
D11*
X82000000Y-10250000D02*
G75*
G02*
X81000000Y-10250000I-500000J0D01*
G01*
X81000000Y-10250000D02*
G75*
G02*
X82000000Y-10250000I500000J0D01*
G01*
D10*
X143500000Y-18400000D02*
G75*
G02*
X143000000Y-18900000I-500000J0D01*
G01*
X43800000Y-130500000D02*
G75*
G02*
X43300000Y-131000000I-500000J0D01*
G01*
X55700000Y-7000000D02*
G75*
G02*
X56200000Y-7500000I0J-500000D01*
G01*
X143000000Y-44700000D02*
G75*
G02*
X143500000Y-45200000I0J-500000D01*
G01*
X57700000Y-7000000D02*
X68100000Y-7000000D01*
X92900000Y-7000000D02*
G75*
G02*
X93400000Y-7500000I0J-500000D01*
G01*
X20500000Y-131000000D02*
X30900000Y-131000000D01*
X143500000Y-20400000D02*
X143500000Y-30800000D01*
X30900000Y-7000000D02*
G75*
G02*
X31400000Y-7500000I0J-500000D01*
G01*
X19500000Y-94800000D02*
G75*
G02*
X20000000Y-94300000I500000J0D01*
G01*
X19500000Y-20400000D02*
X19500000Y-30800000D01*
X45300000Y-7000000D02*
X55700000Y-7000000D01*
X143500000Y-94800000D02*
X143500000Y-105200000D01*
X80500000Y-7000000D02*
G75*
G02*
X81000000Y-7500000I0J-500000D01*
G01*
X143500000Y-107200000D02*
X143500000Y-117600000D01*
X20000000Y-43700000D02*
G75*
G02*
X19500000Y-43200000I0J500000D01*
G01*
X143500000Y-57600000D02*
X143500000Y-68000000D01*
X142500000Y-7000000D02*
G75*
G02*
X143500000Y-8000000I0J-1000000D01*
G01*
X105300000Y-7000000D02*
G75*
G02*
X105800000Y-7500000I0J-500000D01*
G01*
X19500000Y-82400000D02*
X19500000Y-92800000D01*
X19500000Y-94800000D02*
X19500000Y-105200000D01*
X19500000Y-107200000D02*
X19500000Y-117600000D01*
X119200000Y-7500000D02*
G75*
G02*
X119700000Y-7000000I500000J0D01*
G01*
X143500000Y-68000000D02*
G75*
G02*
X143000000Y-68500000I-500000J0D01*
G01*
X143000000Y-81900000D02*
G75*
G02*
X143500000Y-82400000I0J-500000D01*
G01*
X19500000Y-57600000D02*
X19500000Y-68000000D01*
X132100000Y-131000000D02*
G75*
G02*
X131600000Y-130500000I0J500000D01*
G01*
X44800000Y-7500000D02*
G75*
G02*
X45300000Y-7000000I500000J0D01*
G01*
D11*
X52625000Y-127750000D02*
G75*
G02*
X51625000Y-127750000I-500000J0D01*
G01*
X51625000Y-127750000D02*
G75*
G02*
X52625000Y-127750000I500000J0D01*
G01*
D10*
X131600000Y-7500000D02*
G75*
G02*
X132100000Y-7000000I500000J0D01*
G01*
X117700000Y-7000000D02*
G75*
G02*
X118200000Y-7500000I0J-500000D01*
G01*
X119700000Y-131000000D02*
G75*
G02*
X119200000Y-130500000I0J500000D01*
G01*
X107300000Y-131000000D02*
X117700000Y-131000000D01*
X143000000Y-32300000D02*
G75*
G02*
X143500000Y-32800000I0J-500000D01*
G01*
D11*
X140750000Y-69000000D02*
G75*
G02*
X139750000Y-69000000I-500000J0D01*
G01*
X139750000Y-69000000D02*
G75*
G02*
X140750000Y-69000000I500000J0D01*
G01*
D10*
X57200000Y-7500000D02*
G75*
G02*
X57700000Y-7000000I500000J0D01*
G01*
X70100000Y-131000000D02*
X80500000Y-131000000D01*
X143000000Y-57100000D02*
G75*
G02*
X143500000Y-57600000I0J-500000D01*
G01*
X106800000Y-7500000D02*
G75*
G02*
X107300000Y-7000000I500000J0D01*
G01*
X19500000Y-57600000D02*
G75*
G02*
X20000000Y-57100000I500000J0D01*
G01*
X143000000Y-94300000D02*
G75*
G02*
X143500000Y-94800000I0J-500000D01*
G01*
X68600000Y-130500000D02*
G75*
G02*
X68100000Y-131000000I-500000J0D01*
G01*
X20500000Y-7000000D02*
X30900000Y-7000000D01*
X119700000Y-7000000D02*
X130100000Y-7000000D01*
D13*
G04 #@! TO.C,R2*
X53000000Y-53000000D03*
X53000000Y-51000000D03*
G04 #@! TD*
G04 #@! TO.C,R1*
X52500000Y-80500000D03*
X52500000Y-78500000D03*
G04 #@! TD*
M02*
