M48
; DRILL file {KiCad 9.0.1+1} date 2025-05-09T02:31:07+0000
; FORMAT={-:-/ absolute / metric / decimal}
; #@! TF.CreationDate,2025-05-09T02:31:07+00:00
; #@! TF.GenerationSoftware,Kicad,Pcbnew,9.0.1+1
; #@! TF.FileFunction,MixedPlating,1,2
FMAT,2
METRIC
; #@! TA.AperFunction,Plated,PTH,ViaDrill
T1C0.300
; #@! TA.AperFunction,Plated,PTH,ComponentDrill
T2C0.800
; #@! TA.AperFunction,Plated,PTH,ComponentDrill
T3C1.000
; #@! TA.AperFunction,Plated,PTH,ComponentDrill
T4C1.100
%
G90
G05
T1
X52.5Y-82.0
X53.0Y-49.5
T2
X60.5Y-79.005
X60.5Y-81.545
X63.0Y-51.505
X63.0Y-54.045
X94.5Y-62.0
X94.5Y-67.0
X101.5Y-75.0
X101.5Y-80.0
T3
X58.0Y-58.84
X58.0Y-61.38
X58.0Y-63.92
X58.0Y-66.46
X58.0Y-69.0
X58.0Y-71.54
X58.0Y-74.08
X63.08Y-57.57
X63.08Y-60.11
X63.08Y-62.65
X63.08Y-65.19
X63.08Y-67.73
X63.08Y-70.27
X63.08Y-72.81
X63.08Y-75.35
X109.0Y-61.385
X109.0Y-63.925
X109.0Y-66.465
X109.0Y-69.005
X109.0Y-71.545
X109.0Y-74.085
X109.0Y-76.625
T4
X69.146Y-80.822
X69.19Y-51.5
X69.229Y-57.19
X69.229Y-64.81
X69.266Y-67.708
X69.266Y-75.328
X76.766Y-80.822
X76.81Y-51.5
X80.38Y-51.5
X80.456Y-80.822
X88.0Y-51.5
X88.0Y-57.19
X88.0Y-64.81
X88.0Y-67.69
X88.0Y-75.31
X88.076Y-80.822
M30
