%TF.GenerationSoftware,KiCad,Pcbnew,9.0.1+1*%
%TF.CreationDate,2025-05-09T02:31:12+00:00*%
%TF.ProjectId,modulo_puente_h,6d6f6475-6c6f-45f7-9075-656e74655f68,rev?*%
%TF.SameCoordinates,Original*%
%TF.FileFunction,Plated,1,2,PTH,Drill*%
%TF.FilePolarity,Positive*%
%FSLAX46Y46*%
G04 Gerber Fmt 4.6, Leading zero omitted, Abs format (unit mm)*
G04 Created by KiCad (PCBNEW 9.0.1+1) date 2025-05-09 02:31:12*
%MOMM*%
%LPD*%
G01*
G04 APERTURE LIST*
%TA.AperFunction,ViaDrill*%
%ADD10C,0.300000*%
%TD*%
%TA.AperFunction,ComponentDrill*%
%ADD11C,0.800000*%
%TD*%
%TA.AperFunction,ComponentDrill*%
%ADD12C,1.000000*%
%TD*%
%TA.AperFunction,ComponentDrill*%
%ADD13C,1.100000*%
%TD*%
G04 APERTURE END LIST*
D10*
X52500000Y-82000000D03*
X53000000Y-49500000D03*
D11*
%TO.C,M1*%
X60500000Y-79005000D03*
X60500000Y-81545000D03*
%TO.C,M2*%
X63000000Y-51505000D03*
X63000000Y-54045000D03*
%TO.C,C2*%
X94500000Y-62000000D03*
X94500000Y-67000000D03*
%TO.C,C1*%
X101500000Y-75000000D03*
X101500000Y-80000000D03*
D12*
%TO.C,U1*%
X58000000Y-58840000D03*
X58000000Y-61380000D03*
X58000000Y-63920000D03*
X58000000Y-66460000D03*
X58000000Y-69000000D03*
X58000000Y-71540000D03*
X58000000Y-74080000D03*
X63080000Y-57570000D03*
X63080000Y-60110000D03*
X63080000Y-62650000D03*
X63080000Y-65190000D03*
X63080000Y-67730000D03*
X63080000Y-70270000D03*
X63080000Y-72810000D03*
X63080000Y-75350000D03*
%TO.C,J1*%
X109000000Y-61385000D03*
X109000000Y-63925000D03*
X109000000Y-66465000D03*
X109000000Y-69005000D03*
X109000000Y-71545000D03*
X109000000Y-74085000D03*
X109000000Y-76625000D03*
D13*
%TO.C,D3*%
X69145680Y-80822322D03*
%TO.C,D8*%
X69190000Y-51500000D03*
%TO.C,D6*%
X69228682Y-57190000D03*
X69228682Y-64810000D03*
%TO.C,D1*%
X69266401Y-67708161D03*
X69266401Y-75328161D03*
%TO.C,D3*%
X76765680Y-80822322D03*
%TO.C,D8*%
X76810000Y-51500000D03*
%TO.C,D7*%
X80380000Y-51500000D03*
%TO.C,D4*%
X80455680Y-80822322D03*
%TO.C,D7*%
X88000000Y-51500000D03*
%TO.C,D5*%
X88000000Y-57190000D03*
X88000000Y-64810000D03*
%TO.C,D2*%
X88000000Y-67690000D03*
X88000000Y-75310000D03*
%TO.C,D4*%
X88075680Y-80822322D03*
M02*
