M48
; DRILL file {KiCad 9.0.1+1} date 2025-05-09T02:37:22+0000
; FORMAT={-:-/ absolute / metric / decimal}
; #@! TF.CreationDate,2025-05-09T02:37:22+00:00
; #@! TF.GenerationSoftware,Kicad,Pcbnew,9.0.1+1
; #@! TF.FileFunction,MixedPlating,1,2
FMAT,2
METRIC
; #@! TA.AperFunction,Plated,PTH,ComponentDrill
T1C0.800
; #@! TA.AperFunction,Plated,PTH,ComponentDrill
T2C1.000
; #@! TA.AperFunction,NonPlated,NPTH,ComponentDrill
T3C1.000
; #@! TA.AperFunction,NonPlated,NPTH,ComponentDrill
T4C2.500
%
G90
G05
T1
X64.76Y-72.5
X64.76Y-80.12
X67.3Y-72.5
X67.3Y-80.12
X69.84Y-72.5
X69.84Y-80.12
X72.38Y-72.5
X72.38Y-80.12
X74.92Y-72.5
X74.92Y-80.12
X77.46Y-72.5
X77.46Y-80.12
X80.0Y-72.5
X80.0Y-80.12
X117.0Y-77.25
X117.0Y-79.75
T2
X57.34Y-59.65
X57.34Y-65.15
X59.88Y-59.65
X59.88Y-65.15
X73.34Y-59.65
X73.34Y-65.15
X75.88Y-59.65
X75.88Y-65.15
X89.34Y-59.65
X89.34Y-65.15
X89.705Y-80.5
X91.88Y-59.65
X91.88Y-65.15
X92.245Y-80.5
X94.785Y-80.5
X97.325Y-80.5
X99.865Y-80.5
X102.405Y-80.5
X104.945Y-80.5
X105.34Y-59.65
X105.34Y-65.15
X107.485Y-80.5
X107.88Y-59.65
X107.88Y-65.15
X121.34Y-59.65
X121.34Y-65.15
X123.88Y-59.65
X123.88Y-65.15
X137.34Y-59.65
X137.34Y-65.15
X139.88Y-59.65
X139.88Y-65.15
T3
X56.16Y-67.05
X72.16Y-67.05
X88.16Y-67.05
X104.16Y-67.05
X120.16Y-67.05
X136.16Y-67.05
T4
X56.71Y-62.4
X60.51Y-62.4
X72.71Y-62.4
X76.51Y-62.4
X88.71Y-62.4
X92.51Y-62.4
X104.71Y-62.4
X108.51Y-62.4
X120.71Y-62.4
X124.51Y-62.4
X136.71Y-62.4
X140.51Y-62.4
M30
