%TF.GenerationSoftware,KiCad,Pcbnew,9.0.1+1*%
%TF.CreationDate,2025-05-09T02:37:28+00:00*%
%TF.ProjectId,modulo_sensor,6d6f6475-6c6f-45f7-9365-6e736f722e6b,rev?*%
%TF.SameCoordinates,Original*%
%TF.FileFunction,Plated,1,2,PTH,Drill*%
%TF.FilePolarity,Positive*%
%FSLAX46Y46*%
G04 Gerber Fmt 4.6, Leading zero omitted, Abs format (unit mm)*
G04 Created by KiCad (PCBNEW 9.0.1+1) date 2025-05-09 02:37:28*
%MOMM*%
%LPD*%
G01*
G04 APERTURE LIST*
%TA.AperFunction,ComponentDrill*%
%ADD10C,0.800000*%
%TD*%
%TA.AperFunction,ComponentDrill*%
%ADD11C,1.000000*%
%TD*%
G04 APERTURE END LIST*
D10*
%TO.C,U1*%
X64760000Y-72500000D03*
X64760000Y-80120000D03*
X67300000Y-72500000D03*
X67300000Y-80120000D03*
X69840000Y-72500000D03*
X69840000Y-80120000D03*
X72380000Y-72500000D03*
X72380000Y-80120000D03*
X74920000Y-72500000D03*
X74920000Y-80120000D03*
X77460000Y-72500000D03*
X77460000Y-80120000D03*
X80000000Y-72500000D03*
X80000000Y-80120000D03*
%TO.C,C1*%
X117000000Y-77250000D03*
X117000000Y-79750000D03*
D11*
%TO.C,Sensor1*%
X57339983Y-59650000D03*
X57339983Y-65150000D03*
X59879983Y-59650000D03*
X59879983Y-65150000D03*
%TO.C,Sensor2*%
X73339983Y-59650000D03*
X73339983Y-65150000D03*
X75879983Y-59650000D03*
X75879983Y-65150000D03*
%TO.C,Sensor3*%
X89339983Y-59650000D03*
X89339983Y-65150000D03*
%TO.C,J1*%
X89704983Y-80500000D03*
%TO.C,Sensor3*%
X91879983Y-59650000D03*
X91879983Y-65150000D03*
%TO.C,J1*%
X92244983Y-80500000D03*
X94784983Y-80500000D03*
X97324983Y-80500000D03*
X99864983Y-80500000D03*
X102404983Y-80500000D03*
X104944983Y-80500000D03*
%TO.C,Sensor4*%
X105339983Y-59650000D03*
X105339983Y-65150000D03*
%TO.C,J1*%
X107484983Y-80500000D03*
%TO.C,Sensor4*%
X107879983Y-59650000D03*
X107879983Y-65150000D03*
%TO.C,Sensor5*%
X121339983Y-59650000D03*
X121339983Y-65150000D03*
X123879983Y-59650000D03*
X123879983Y-65150000D03*
%TO.C,Sensor6*%
X137339983Y-59650000D03*
X137339983Y-65150000D03*
X139879983Y-59650000D03*
X139879983Y-65150000D03*
M02*
