%TF.GenerationSoftware,KiCad,Pcbnew,9.0.1+1*%
%TF.CreationDate,2025-05-09T02:37:28+00:00*%
%TF.ProjectId,modulo_sensor,6d6f6475-6c6f-45f7-9365-6e736f722e6b,rev?*%
%TF.SameCoordinates,Original*%
%TF.FileFunction,Drillmap*%
%TF.FilePolarity,Positive*%
%FSLAX45Y45*%
G04 Gerber Fmt 4.5, Leading zero omitted, Abs format (unit mm)*
G04 Created by KiCad (PCBNEW 9.0.1+1) date 2025-05-09 02:37:28*
%MOMM*%
%LPD*%
G01*
G04 APERTURE LIST*
%ADD10C,0.050000*%
%ADD11C,0.100000*%
%ADD12C,0.200000*%
%ADD13C,0.250000*%
G04 APERTURE END LIST*
D10*
X5360998Y-5634000D02*
X14360998Y-5634000D01*
X14360998Y-8334000D01*
X5360998Y-8334000D01*
X5360998Y-5634000D01*
D11*
X8550000Y-8000000D02*
G75*
G02*
X8250000Y-8000000I-150000J0D01*
G01*
X8250000Y-8000000D02*
G75*
G02*
X8550000Y-8000000I150000J0D01*
G01*
X11450000Y-8000000D02*
G75*
G02*
X11150000Y-8000000I-150000J0D01*
G01*
X11150000Y-8000000D02*
G75*
G02*
X11450000Y-8000000I150000J0D01*
G01*
D12*
D11*
X5565998Y-6655000D02*
X5665998Y-6755000D01*
X5665998Y-6655000D02*
X5565998Y-6755000D01*
X7165998Y-6655000D02*
X7265998Y-6755000D01*
X7265998Y-6655000D02*
X7165998Y-6755000D01*
X8765998Y-6655000D02*
X8865998Y-6755000D01*
X8865998Y-6655000D02*
X8765998Y-6755000D01*
X10365998Y-6655000D02*
X10465998Y-6755000D01*
X10465998Y-6655000D02*
X10365998Y-6755000D01*
X11965998Y-6655000D02*
X12065998Y-6755000D01*
X12065998Y-6655000D02*
X11965998Y-6755000D01*
X13565998Y-6655000D02*
X13665998Y-6755000D01*
X13665998Y-6655000D02*
X13565998Y-6755000D01*
D13*
X5795998Y-6240000D02*
G75*
G02*
X5545998Y-6240000I-125000J0D01*
G01*
X5545998Y-6240000D02*
G75*
G02*
X5795998Y-6240000I125000J0D01*
G01*
X6175998Y-6240000D02*
G75*
G02*
X5925998Y-6240000I-125000J0D01*
G01*
X5925998Y-6240000D02*
G75*
G02*
X6175998Y-6240000I125000J0D01*
G01*
X7395998Y-6240000D02*
G75*
G02*
X7145998Y-6240000I-125000J0D01*
G01*
X7145998Y-6240000D02*
G75*
G02*
X7395998Y-6240000I125000J0D01*
G01*
X7775998Y-6240000D02*
G75*
G02*
X7525998Y-6240000I-125000J0D01*
G01*
X7525998Y-6240000D02*
G75*
G02*
X7775998Y-6240000I125000J0D01*
G01*
X8995998Y-6240000D02*
G75*
G02*
X8745998Y-6240000I-125000J0D01*
G01*
X8745998Y-6240000D02*
G75*
G02*
X8995998Y-6240000I125000J0D01*
G01*
X9375998Y-6240000D02*
G75*
G02*
X9125998Y-6240000I-125000J0D01*
G01*
X9125998Y-6240000D02*
G75*
G02*
X9375998Y-6240000I125000J0D01*
G01*
X10595998Y-6240000D02*
G75*
G02*
X10345998Y-6240000I-125000J0D01*
G01*
X10345998Y-6240000D02*
G75*
G02*
X10595998Y-6240000I125000J0D01*
G01*
X10975998Y-6240000D02*
G75*
G02*
X10725998Y-6240000I-125000J0D01*
G01*
X10725998Y-6240000D02*
G75*
G02*
X10975998Y-6240000I125000J0D01*
G01*
X12195998Y-6240000D02*
G75*
G02*
X11945998Y-6240000I-125000J0D01*
G01*
X11945998Y-6240000D02*
G75*
G02*
X12195998Y-6240000I125000J0D01*
G01*
X12575998Y-6240000D02*
G75*
G02*
X12325998Y-6240000I-125000J0D01*
G01*
X12325998Y-6240000D02*
G75*
G02*
X12575998Y-6240000I125000J0D01*
G01*
X13795998Y-6240000D02*
G75*
G02*
X13545998Y-6240000I-125000J0D01*
G01*
X13545998Y-6240000D02*
G75*
G02*
X13795998Y-6240000I125000J0D01*
G01*
X14175998Y-6240000D02*
G75*
G02*
X13925998Y-6240000I-125000J0D01*
G01*
X13925998Y-6240000D02*
G75*
G02*
X14175998Y-6240000I125000J0D01*
G01*
D12*
X5619275Y-8647984D02*
X5619275Y-8447984D01*
X5619275Y-8447984D02*
X5666894Y-8447984D01*
X5666894Y-8447984D02*
X5695466Y-8457508D01*
X5695466Y-8457508D02*
X5714513Y-8476555D01*
X5714513Y-8476555D02*
X5724037Y-8495603D01*
X5724037Y-8495603D02*
X5733561Y-8533698D01*
X5733561Y-8533698D02*
X5733561Y-8562270D01*
X5733561Y-8562270D02*
X5724037Y-8600365D01*
X5724037Y-8600365D02*
X5714513Y-8619412D01*
X5714513Y-8619412D02*
X5695466Y-8638460D01*
X5695466Y-8638460D02*
X5666894Y-8647984D01*
X5666894Y-8647984D02*
X5619275Y-8647984D01*
X5819275Y-8647984D02*
X5819275Y-8514650D01*
X5819275Y-8552746D02*
X5828799Y-8533698D01*
X5828799Y-8533698D02*
X5838323Y-8524174D01*
X5838323Y-8524174D02*
X5857370Y-8514650D01*
X5857370Y-8514650D02*
X5876418Y-8514650D01*
X5943085Y-8647984D02*
X5943085Y-8514650D01*
X5943085Y-8447984D02*
X5933561Y-8457508D01*
X5933561Y-8457508D02*
X5943085Y-8467031D01*
X5943085Y-8467031D02*
X5952608Y-8457508D01*
X5952608Y-8457508D02*
X5943085Y-8447984D01*
X5943085Y-8447984D02*
X5943085Y-8467031D01*
X6066894Y-8647984D02*
X6047846Y-8638460D01*
X6047846Y-8638460D02*
X6038323Y-8619412D01*
X6038323Y-8619412D02*
X6038323Y-8447984D01*
X6171656Y-8647984D02*
X6152608Y-8638460D01*
X6152608Y-8638460D02*
X6143085Y-8619412D01*
X6143085Y-8619412D02*
X6143085Y-8447984D01*
X6400227Y-8647984D02*
X6400227Y-8447984D01*
X6400227Y-8447984D02*
X6466894Y-8590841D01*
X6466894Y-8590841D02*
X6533561Y-8447984D01*
X6533561Y-8447984D02*
X6533561Y-8647984D01*
X6714513Y-8647984D02*
X6714513Y-8543222D01*
X6714513Y-8543222D02*
X6704989Y-8524174D01*
X6704989Y-8524174D02*
X6685942Y-8514650D01*
X6685942Y-8514650D02*
X6647846Y-8514650D01*
X6647846Y-8514650D02*
X6628799Y-8524174D01*
X6714513Y-8638460D02*
X6695466Y-8647984D01*
X6695466Y-8647984D02*
X6647846Y-8647984D01*
X6647846Y-8647984D02*
X6628799Y-8638460D01*
X6628799Y-8638460D02*
X6619275Y-8619412D01*
X6619275Y-8619412D02*
X6619275Y-8600365D01*
X6619275Y-8600365D02*
X6628799Y-8581317D01*
X6628799Y-8581317D02*
X6647846Y-8571793D01*
X6647846Y-8571793D02*
X6695466Y-8571793D01*
X6695466Y-8571793D02*
X6714513Y-8562270D01*
X6809751Y-8514650D02*
X6809751Y-8714650D01*
X6809751Y-8524174D02*
X6828799Y-8514650D01*
X6828799Y-8514650D02*
X6866894Y-8514650D01*
X6866894Y-8514650D02*
X6885942Y-8524174D01*
X6885942Y-8524174D02*
X6895466Y-8533698D01*
X6895466Y-8533698D02*
X6904989Y-8552746D01*
X6904989Y-8552746D02*
X6904989Y-8609889D01*
X6904989Y-8609889D02*
X6895466Y-8628936D01*
X6895466Y-8628936D02*
X6885942Y-8638460D01*
X6885942Y-8638460D02*
X6866894Y-8647984D01*
X6866894Y-8647984D02*
X6828799Y-8647984D01*
X6828799Y-8647984D02*
X6809751Y-8638460D01*
X6990704Y-8628936D02*
X7000227Y-8638460D01*
X7000227Y-8638460D02*
X6990704Y-8647984D01*
X6990704Y-8647984D02*
X6981180Y-8638460D01*
X6981180Y-8638460D02*
X6990704Y-8628936D01*
X6990704Y-8628936D02*
X6990704Y-8647984D01*
X6990704Y-8524174D02*
X7000227Y-8533698D01*
X7000227Y-8533698D02*
X6990704Y-8543222D01*
X6990704Y-8543222D02*
X6981180Y-8533698D01*
X6981180Y-8533698D02*
X6990704Y-8524174D01*
X6990704Y-8524174D02*
X6990704Y-8543222D01*
D11*
X5258498Y-8926500D02*
X5358498Y-9026500D01*
X5358498Y-8926500D02*
X5258498Y-9026500D01*
D12*
X5724037Y-9067984D02*
X5609751Y-9067984D01*
X5666894Y-9067984D02*
X5666894Y-8867984D01*
X5666894Y-8867984D02*
X5647846Y-8896555D01*
X5647846Y-8896555D02*
X5628799Y-8915603D01*
X5628799Y-8915603D02*
X5609751Y-8925127D01*
X5809751Y-9048936D02*
X5819275Y-9058460D01*
X5819275Y-9058460D02*
X5809751Y-9067984D01*
X5809751Y-9067984D02*
X5800227Y-9058460D01*
X5800227Y-9058460D02*
X5809751Y-9048936D01*
X5809751Y-9048936D02*
X5809751Y-9067984D01*
X5943085Y-8867984D02*
X5962132Y-8867984D01*
X5962132Y-8867984D02*
X5981180Y-8877508D01*
X5981180Y-8877508D02*
X5990704Y-8887031D01*
X5990704Y-8887031D02*
X6000227Y-8906079D01*
X6000227Y-8906079D02*
X6009751Y-8944174D01*
X6009751Y-8944174D02*
X6009751Y-8991793D01*
X6009751Y-8991793D02*
X6000227Y-9029889D01*
X6000227Y-9029889D02*
X5990704Y-9048936D01*
X5990704Y-9048936D02*
X5981180Y-9058460D01*
X5981180Y-9058460D02*
X5962132Y-9067984D01*
X5962132Y-9067984D02*
X5943085Y-9067984D01*
X5943085Y-9067984D02*
X5924037Y-9058460D01*
X5924037Y-9058460D02*
X5914513Y-9048936D01*
X5914513Y-9048936D02*
X5904989Y-9029889D01*
X5904989Y-9029889D02*
X5895466Y-8991793D01*
X5895466Y-8991793D02*
X5895466Y-8944174D01*
X5895466Y-8944174D02*
X5904989Y-8906079D01*
X5904989Y-8906079D02*
X5914513Y-8887031D01*
X5914513Y-8887031D02*
X5924037Y-8877508D01*
X5924037Y-8877508D02*
X5943085Y-8867984D01*
X6133561Y-8867984D02*
X6152608Y-8867984D01*
X6152608Y-8867984D02*
X6171656Y-8877508D01*
X6171656Y-8877508D02*
X6181180Y-8887031D01*
X6181180Y-8887031D02*
X6190704Y-8906079D01*
X6190704Y-8906079D02*
X6200227Y-8944174D01*
X6200227Y-8944174D02*
X6200227Y-8991793D01*
X6200227Y-8991793D02*
X6190704Y-9029889D01*
X6190704Y-9029889D02*
X6181180Y-9048936D01*
X6181180Y-9048936D02*
X6171656Y-9058460D01*
X6171656Y-9058460D02*
X6152608Y-9067984D01*
X6152608Y-9067984D02*
X6133561Y-9067984D01*
X6133561Y-9067984D02*
X6114513Y-9058460D01*
X6114513Y-9058460D02*
X6104989Y-9048936D01*
X6104989Y-9048936D02*
X6095466Y-9029889D01*
X6095466Y-9029889D02*
X6085942Y-8991793D01*
X6085942Y-8991793D02*
X6085942Y-8944174D01*
X6085942Y-8944174D02*
X6095466Y-8906079D01*
X6095466Y-8906079D02*
X6104989Y-8887031D01*
X6104989Y-8887031D02*
X6114513Y-8877508D01*
X6114513Y-8877508D02*
X6133561Y-8867984D01*
X6324037Y-8867984D02*
X6343085Y-8867984D01*
X6343085Y-8867984D02*
X6362132Y-8877508D01*
X6362132Y-8877508D02*
X6371656Y-8887031D01*
X6371656Y-8887031D02*
X6381180Y-8906079D01*
X6381180Y-8906079D02*
X6390704Y-8944174D01*
X6390704Y-8944174D02*
X6390704Y-8991793D01*
X6390704Y-8991793D02*
X6381180Y-9029889D01*
X6381180Y-9029889D02*
X6371656Y-9048936D01*
X6371656Y-9048936D02*
X6362132Y-9058460D01*
X6362132Y-9058460D02*
X6343085Y-9067984D01*
X6343085Y-9067984D02*
X6324037Y-9067984D01*
X6324037Y-9067984D02*
X6304989Y-9058460D01*
X6304989Y-9058460D02*
X6295466Y-9048936D01*
X6295466Y-9048936D02*
X6285942Y-9029889D01*
X6285942Y-9029889D02*
X6276418Y-8991793D01*
X6276418Y-8991793D02*
X6276418Y-8944174D01*
X6276418Y-8944174D02*
X6285942Y-8906079D01*
X6285942Y-8906079D02*
X6295466Y-8887031D01*
X6295466Y-8887031D02*
X6304989Y-8877508D01*
X6304989Y-8877508D02*
X6324037Y-8867984D01*
X6476418Y-9067984D02*
X6476418Y-8934650D01*
X6476418Y-8953698D02*
X6485942Y-8944174D01*
X6485942Y-8944174D02*
X6504989Y-8934650D01*
X6504989Y-8934650D02*
X6533561Y-8934650D01*
X6533561Y-8934650D02*
X6552608Y-8944174D01*
X6552608Y-8944174D02*
X6562132Y-8963222D01*
X6562132Y-8963222D02*
X6562132Y-9067984D01*
X6562132Y-8963222D02*
X6571656Y-8944174D01*
X6571656Y-8944174D02*
X6590704Y-8934650D01*
X6590704Y-8934650D02*
X6619275Y-8934650D01*
X6619275Y-8934650D02*
X6638323Y-8944174D01*
X6638323Y-8944174D02*
X6647847Y-8963222D01*
X6647847Y-8963222D02*
X6647847Y-9067984D01*
X6743085Y-9067984D02*
X6743085Y-8934650D01*
X6743085Y-8953698D02*
X6752608Y-8944174D01*
X6752608Y-8944174D02*
X6771656Y-8934650D01*
X6771656Y-8934650D02*
X6800228Y-8934650D01*
X6800228Y-8934650D02*
X6819275Y-8944174D01*
X6819275Y-8944174D02*
X6828799Y-8963222D01*
X6828799Y-8963222D02*
X6828799Y-9067984D01*
X6828799Y-8963222D02*
X6838323Y-8944174D01*
X6838323Y-8944174D02*
X6857370Y-8934650D01*
X6857370Y-8934650D02*
X6885942Y-8934650D01*
X6885942Y-8934650D02*
X6904989Y-8944174D01*
X6904989Y-8944174D02*
X6914513Y-8963222D01*
X6914513Y-8963222D02*
X6914513Y-9067984D01*
X7304989Y-8858460D02*
X7133561Y-9115603D01*
X7562132Y-8867984D02*
X7581180Y-8867984D01*
X7581180Y-8867984D02*
X7600228Y-8877508D01*
X7600228Y-8877508D02*
X7609751Y-8887031D01*
X7609751Y-8887031D02*
X7619275Y-8906079D01*
X7619275Y-8906079D02*
X7628799Y-8944174D01*
X7628799Y-8944174D02*
X7628799Y-8991793D01*
X7628799Y-8991793D02*
X7619275Y-9029889D01*
X7619275Y-9029889D02*
X7609751Y-9048936D01*
X7609751Y-9048936D02*
X7600228Y-9058460D01*
X7600228Y-9058460D02*
X7581180Y-9067984D01*
X7581180Y-9067984D02*
X7562132Y-9067984D01*
X7562132Y-9067984D02*
X7543085Y-9058460D01*
X7543085Y-9058460D02*
X7533561Y-9048936D01*
X7533561Y-9048936D02*
X7524037Y-9029889D01*
X7524037Y-9029889D02*
X7514513Y-8991793D01*
X7514513Y-8991793D02*
X7514513Y-8944174D01*
X7514513Y-8944174D02*
X7524037Y-8906079D01*
X7524037Y-8906079D02*
X7533561Y-8887031D01*
X7533561Y-8887031D02*
X7543085Y-8877508D01*
X7543085Y-8877508D02*
X7562132Y-8867984D01*
X7714513Y-9048936D02*
X7724037Y-9058460D01*
X7724037Y-9058460D02*
X7714513Y-9067984D01*
X7714513Y-9067984D02*
X7704990Y-9058460D01*
X7704990Y-9058460D02*
X7714513Y-9048936D01*
X7714513Y-9048936D02*
X7714513Y-9067984D01*
X7847847Y-8867984D02*
X7866894Y-8867984D01*
X7866894Y-8867984D02*
X7885942Y-8877508D01*
X7885942Y-8877508D02*
X7895466Y-8887031D01*
X7895466Y-8887031D02*
X7904990Y-8906079D01*
X7904990Y-8906079D02*
X7914513Y-8944174D01*
X7914513Y-8944174D02*
X7914513Y-8991793D01*
X7914513Y-8991793D02*
X7904990Y-9029889D01*
X7904990Y-9029889D02*
X7895466Y-9048936D01*
X7895466Y-9048936D02*
X7885942Y-9058460D01*
X7885942Y-9058460D02*
X7866894Y-9067984D01*
X7866894Y-9067984D02*
X7847847Y-9067984D01*
X7847847Y-9067984D02*
X7828799Y-9058460D01*
X7828799Y-9058460D02*
X7819275Y-9048936D01*
X7819275Y-9048936D02*
X7809751Y-9029889D01*
X7809751Y-9029889D02*
X7800228Y-8991793D01*
X7800228Y-8991793D02*
X7800228Y-8944174D01*
X7800228Y-8944174D02*
X7809751Y-8906079D01*
X7809751Y-8906079D02*
X7819275Y-8887031D01*
X7819275Y-8887031D02*
X7828799Y-8877508D01*
X7828799Y-8877508D02*
X7847847Y-8867984D01*
X7981180Y-8867984D02*
X8104990Y-8867984D01*
X8104990Y-8867984D02*
X8038323Y-8944174D01*
X8038323Y-8944174D02*
X8066894Y-8944174D01*
X8066894Y-8944174D02*
X8085942Y-8953698D01*
X8085942Y-8953698D02*
X8095466Y-8963222D01*
X8095466Y-8963222D02*
X8104990Y-8982270D01*
X8104990Y-8982270D02*
X8104990Y-9029889D01*
X8104990Y-9029889D02*
X8095466Y-9048936D01*
X8095466Y-9048936D02*
X8085942Y-9058460D01*
X8085942Y-9058460D02*
X8066894Y-9067984D01*
X8066894Y-9067984D02*
X8009751Y-9067984D01*
X8009751Y-9067984D02*
X7990704Y-9058460D01*
X7990704Y-9058460D02*
X7981180Y-9048936D01*
X8200228Y-9067984D02*
X8238323Y-9067984D01*
X8238323Y-9067984D02*
X8257371Y-9058460D01*
X8257371Y-9058460D02*
X8266894Y-9048936D01*
X8266894Y-9048936D02*
X8285942Y-9020365D01*
X8285942Y-9020365D02*
X8295466Y-8982270D01*
X8295466Y-8982270D02*
X8295466Y-8906079D01*
X8295466Y-8906079D02*
X8285942Y-8887031D01*
X8285942Y-8887031D02*
X8276418Y-8877508D01*
X8276418Y-8877508D02*
X8257371Y-8867984D01*
X8257371Y-8867984D02*
X8219275Y-8867984D01*
X8219275Y-8867984D02*
X8200228Y-8877508D01*
X8200228Y-8877508D02*
X8190704Y-8887031D01*
X8190704Y-8887031D02*
X8181180Y-8906079D01*
X8181180Y-8906079D02*
X8181180Y-8953698D01*
X8181180Y-8953698D02*
X8190704Y-8972746D01*
X8190704Y-8972746D02*
X8200228Y-8982270D01*
X8200228Y-8982270D02*
X8219275Y-8991793D01*
X8219275Y-8991793D02*
X8257371Y-8991793D01*
X8257371Y-8991793D02*
X8276418Y-8982270D01*
X8276418Y-8982270D02*
X8285942Y-8972746D01*
X8285942Y-8972746D02*
X8295466Y-8953698D01*
X8466894Y-8934650D02*
X8466894Y-9067984D01*
X8419275Y-8858460D02*
X8371656Y-9001317D01*
X8371656Y-9001317D02*
X8495466Y-9001317D01*
X8562133Y-8867984D02*
X8562133Y-8906079D01*
X8638323Y-8867984D02*
X8638323Y-8906079D01*
X8933561Y-9144174D02*
X8924037Y-9134650D01*
X8924037Y-9134650D02*
X8904990Y-9106079D01*
X8904990Y-9106079D02*
X8895466Y-9087031D01*
X8895466Y-9087031D02*
X8885942Y-9058460D01*
X8885942Y-9058460D02*
X8876418Y-9010841D01*
X8876418Y-9010841D02*
X8876418Y-8972746D01*
X8876418Y-8972746D02*
X8885942Y-8925127D01*
X8885942Y-8925127D02*
X8895466Y-8896555D01*
X8895466Y-8896555D02*
X8904990Y-8877508D01*
X8904990Y-8877508D02*
X8924037Y-8848936D01*
X8924037Y-8848936D02*
X8933561Y-8839412D01*
X9095466Y-8867984D02*
X9057371Y-8867984D01*
X9057371Y-8867984D02*
X9038323Y-8877508D01*
X9038323Y-8877508D02*
X9028799Y-8887031D01*
X9028799Y-8887031D02*
X9009752Y-8915603D01*
X9009752Y-8915603D02*
X9000228Y-8953698D01*
X9000228Y-8953698D02*
X9000228Y-9029889D01*
X9000228Y-9029889D02*
X9009752Y-9048936D01*
X9009752Y-9048936D02*
X9019275Y-9058460D01*
X9019275Y-9058460D02*
X9038323Y-9067984D01*
X9038323Y-9067984D02*
X9076418Y-9067984D01*
X9076418Y-9067984D02*
X9095466Y-9058460D01*
X9095466Y-9058460D02*
X9104990Y-9048936D01*
X9104990Y-9048936D02*
X9114514Y-9029889D01*
X9114514Y-9029889D02*
X9114514Y-8982270D01*
X9114514Y-8982270D02*
X9104990Y-8963222D01*
X9104990Y-8963222D02*
X9095466Y-8953698D01*
X9095466Y-8953698D02*
X9076418Y-8944174D01*
X9076418Y-8944174D02*
X9038323Y-8944174D01*
X9038323Y-8944174D02*
X9019275Y-8953698D01*
X9019275Y-8953698D02*
X9009752Y-8963222D01*
X9009752Y-8963222D02*
X9000228Y-8982270D01*
X9352609Y-9067984D02*
X9352609Y-8867984D01*
X9438323Y-9067984D02*
X9438323Y-8963222D01*
X9438323Y-8963222D02*
X9428799Y-8944174D01*
X9428799Y-8944174D02*
X9409752Y-8934650D01*
X9409752Y-8934650D02*
X9381180Y-8934650D01*
X9381180Y-8934650D02*
X9362133Y-8944174D01*
X9362133Y-8944174D02*
X9352609Y-8953698D01*
X9562133Y-9067984D02*
X9543085Y-9058460D01*
X9543085Y-9058460D02*
X9533561Y-9048936D01*
X9533561Y-9048936D02*
X9524037Y-9029889D01*
X9524037Y-9029889D02*
X9524037Y-8972746D01*
X9524037Y-8972746D02*
X9533561Y-8953698D01*
X9533561Y-8953698D02*
X9543085Y-8944174D01*
X9543085Y-8944174D02*
X9562133Y-8934650D01*
X9562133Y-8934650D02*
X9590704Y-8934650D01*
X9590704Y-8934650D02*
X9609752Y-8944174D01*
X9609752Y-8944174D02*
X9619276Y-8953698D01*
X9619276Y-8953698D02*
X9628799Y-8972746D01*
X9628799Y-8972746D02*
X9628799Y-9029889D01*
X9628799Y-9029889D02*
X9619276Y-9048936D01*
X9619276Y-9048936D02*
X9609752Y-9058460D01*
X9609752Y-9058460D02*
X9590704Y-9067984D01*
X9590704Y-9067984D02*
X9562133Y-9067984D01*
X9743085Y-9067984D02*
X9724037Y-9058460D01*
X9724037Y-9058460D02*
X9714514Y-9039412D01*
X9714514Y-9039412D02*
X9714514Y-8867984D01*
X9895466Y-9058460D02*
X9876418Y-9067984D01*
X9876418Y-9067984D02*
X9838323Y-9067984D01*
X9838323Y-9067984D02*
X9819276Y-9058460D01*
X9819276Y-9058460D02*
X9809752Y-9039412D01*
X9809752Y-9039412D02*
X9809752Y-8963222D01*
X9809752Y-8963222D02*
X9819276Y-8944174D01*
X9819276Y-8944174D02*
X9838323Y-8934650D01*
X9838323Y-8934650D02*
X9876418Y-8934650D01*
X9876418Y-8934650D02*
X9895466Y-8944174D01*
X9895466Y-8944174D02*
X9904990Y-8963222D01*
X9904990Y-8963222D02*
X9904990Y-8982270D01*
X9904990Y-8982270D02*
X9809752Y-9001317D01*
X9981180Y-9058460D02*
X10000228Y-9067984D01*
X10000228Y-9067984D02*
X10038323Y-9067984D01*
X10038323Y-9067984D02*
X10057371Y-9058460D01*
X10057371Y-9058460D02*
X10066895Y-9039412D01*
X10066895Y-9039412D02*
X10066895Y-9029889D01*
X10066895Y-9029889D02*
X10057371Y-9010841D01*
X10057371Y-9010841D02*
X10038323Y-9001317D01*
X10038323Y-9001317D02*
X10009752Y-9001317D01*
X10009752Y-9001317D02*
X9990704Y-8991793D01*
X9990704Y-8991793D02*
X9981180Y-8972746D01*
X9981180Y-8972746D02*
X9981180Y-8963222D01*
X9981180Y-8963222D02*
X9990704Y-8944174D01*
X9990704Y-8944174D02*
X10009752Y-8934650D01*
X10009752Y-8934650D02*
X10038323Y-8934650D01*
X10038323Y-8934650D02*
X10057371Y-8944174D01*
X10133561Y-9144174D02*
X10143085Y-9134650D01*
X10143085Y-9134650D02*
X10162133Y-9106079D01*
X10162133Y-9106079D02*
X10171657Y-9087031D01*
X10171657Y-9087031D02*
X10181180Y-9058460D01*
X10181180Y-9058460D02*
X10190704Y-9010841D01*
X10190704Y-9010841D02*
X10190704Y-8972746D01*
X10190704Y-8972746D02*
X10181180Y-8925127D01*
X10181180Y-8925127D02*
X10171657Y-8896555D01*
X10171657Y-8896555D02*
X10162133Y-8877508D01*
X10162133Y-8877508D02*
X10143085Y-8848936D01*
X10143085Y-8848936D02*
X10133561Y-8839412D01*
X10495466Y-9144174D02*
X10485942Y-9134650D01*
X10485942Y-9134650D02*
X10466895Y-9106079D01*
X10466895Y-9106079D02*
X10457371Y-9087031D01*
X10457371Y-9087031D02*
X10447847Y-9058460D01*
X10447847Y-9058460D02*
X10438323Y-9010841D01*
X10438323Y-9010841D02*
X10438323Y-8972746D01*
X10438323Y-8972746D02*
X10447847Y-8925127D01*
X10447847Y-8925127D02*
X10457371Y-8896555D01*
X10457371Y-8896555D02*
X10466895Y-8877508D01*
X10466895Y-8877508D02*
X10485942Y-8848936D01*
X10485942Y-8848936D02*
X10495466Y-8839412D01*
X10571657Y-8934650D02*
X10571657Y-9067984D01*
X10571657Y-8953698D02*
X10581180Y-8944174D01*
X10581180Y-8944174D02*
X10600228Y-8934650D01*
X10600228Y-8934650D02*
X10628799Y-8934650D01*
X10628799Y-8934650D02*
X10647847Y-8944174D01*
X10647847Y-8944174D02*
X10657371Y-8963222D01*
X10657371Y-8963222D02*
X10657371Y-9067984D01*
X10781180Y-9067984D02*
X10762133Y-9058460D01*
X10762133Y-9058460D02*
X10752609Y-9048936D01*
X10752609Y-9048936D02*
X10743085Y-9029889D01*
X10743085Y-9029889D02*
X10743085Y-8972746D01*
X10743085Y-8972746D02*
X10752609Y-8953698D01*
X10752609Y-8953698D02*
X10762133Y-8944174D01*
X10762133Y-8944174D02*
X10781180Y-8934650D01*
X10781180Y-8934650D02*
X10809752Y-8934650D01*
X10809752Y-8934650D02*
X10828799Y-8944174D01*
X10828799Y-8944174D02*
X10838323Y-8953698D01*
X10838323Y-8953698D02*
X10847847Y-8972746D01*
X10847847Y-8972746D02*
X10847847Y-9029889D01*
X10847847Y-9029889D02*
X10838323Y-9048936D01*
X10838323Y-9048936D02*
X10828799Y-9058460D01*
X10828799Y-9058460D02*
X10809752Y-9067984D01*
X10809752Y-9067984D02*
X10781180Y-9067984D01*
X10904990Y-8934650D02*
X10981180Y-8934650D01*
X10933561Y-8867984D02*
X10933561Y-9039412D01*
X10933561Y-9039412D02*
X10943085Y-9058460D01*
X10943085Y-9058460D02*
X10962133Y-9067984D01*
X10962133Y-9067984D02*
X10981180Y-9067984D01*
X11200228Y-8934650D02*
X11200228Y-9134650D01*
X11200228Y-8944174D02*
X11219276Y-8934650D01*
X11219276Y-8934650D02*
X11257371Y-8934650D01*
X11257371Y-8934650D02*
X11276418Y-8944174D01*
X11276418Y-8944174D02*
X11285942Y-8953698D01*
X11285942Y-8953698D02*
X11295466Y-8972746D01*
X11295466Y-8972746D02*
X11295466Y-9029889D01*
X11295466Y-9029889D02*
X11285942Y-9048936D01*
X11285942Y-9048936D02*
X11276418Y-9058460D01*
X11276418Y-9058460D02*
X11257371Y-9067984D01*
X11257371Y-9067984D02*
X11219276Y-9067984D01*
X11219276Y-9067984D02*
X11200228Y-9058460D01*
X11409752Y-9067984D02*
X11390704Y-9058460D01*
X11390704Y-9058460D02*
X11381180Y-9039412D01*
X11381180Y-9039412D02*
X11381180Y-8867984D01*
X11571657Y-9067984D02*
X11571657Y-8963222D01*
X11571657Y-8963222D02*
X11562133Y-8944174D01*
X11562133Y-8944174D02*
X11543085Y-8934650D01*
X11543085Y-8934650D02*
X11504990Y-8934650D01*
X11504990Y-8934650D02*
X11485942Y-8944174D01*
X11571657Y-9058460D02*
X11552609Y-9067984D01*
X11552609Y-9067984D02*
X11504990Y-9067984D01*
X11504990Y-9067984D02*
X11485942Y-9058460D01*
X11485942Y-9058460D02*
X11476418Y-9039412D01*
X11476418Y-9039412D02*
X11476418Y-9020365D01*
X11476418Y-9020365D02*
X11485942Y-9001317D01*
X11485942Y-9001317D02*
X11504990Y-8991793D01*
X11504990Y-8991793D02*
X11552609Y-8991793D01*
X11552609Y-8991793D02*
X11571657Y-8982270D01*
X11638323Y-8934650D02*
X11714514Y-8934650D01*
X11666895Y-8867984D02*
X11666895Y-9039412D01*
X11666895Y-9039412D02*
X11676418Y-9058460D01*
X11676418Y-9058460D02*
X11695466Y-9067984D01*
X11695466Y-9067984D02*
X11714514Y-9067984D01*
X11857371Y-9058460D02*
X11838323Y-9067984D01*
X11838323Y-9067984D02*
X11800228Y-9067984D01*
X11800228Y-9067984D02*
X11781180Y-9058460D01*
X11781180Y-9058460D02*
X11771657Y-9039412D01*
X11771657Y-9039412D02*
X11771657Y-8963222D01*
X11771657Y-8963222D02*
X11781180Y-8944174D01*
X11781180Y-8944174D02*
X11800228Y-8934650D01*
X11800228Y-8934650D02*
X11838323Y-8934650D01*
X11838323Y-8934650D02*
X11857371Y-8944174D01*
X11857371Y-8944174D02*
X11866895Y-8963222D01*
X11866895Y-8963222D02*
X11866895Y-8982270D01*
X11866895Y-8982270D02*
X11771657Y-9001317D01*
X12038323Y-9067984D02*
X12038323Y-8867984D01*
X12038323Y-9058460D02*
X12019276Y-9067984D01*
X12019276Y-9067984D02*
X11981180Y-9067984D01*
X11981180Y-9067984D02*
X11962133Y-9058460D01*
X11962133Y-9058460D02*
X11952609Y-9048936D01*
X11952609Y-9048936D02*
X11943085Y-9029889D01*
X11943085Y-9029889D02*
X11943085Y-8972746D01*
X11943085Y-8972746D02*
X11952609Y-8953698D01*
X11952609Y-8953698D02*
X11962133Y-8944174D01*
X11962133Y-8944174D02*
X11981180Y-8934650D01*
X11981180Y-8934650D02*
X12019276Y-8934650D01*
X12019276Y-8934650D02*
X12038323Y-8944174D01*
X12114514Y-9144174D02*
X12124038Y-9134650D01*
X12124038Y-9134650D02*
X12143085Y-9106079D01*
X12143085Y-9106079D02*
X12152609Y-9087031D01*
X12152609Y-9087031D02*
X12162133Y-9058460D01*
X12162133Y-9058460D02*
X12171657Y-9010841D01*
X12171657Y-9010841D02*
X12171657Y-8972746D01*
X12171657Y-8972746D02*
X12162133Y-8925127D01*
X12162133Y-8925127D02*
X12152609Y-8896555D01*
X12152609Y-8896555D02*
X12143085Y-8877508D01*
X12143085Y-8877508D02*
X12124038Y-8848936D01*
X12124038Y-8848936D02*
X12114514Y-8839412D01*
X5358498Y-9240500D02*
G75*
G02*
X5158498Y-9240500I-100000J0D01*
G01*
X5158498Y-9240500D02*
G75*
G02*
X5358498Y-9240500I100000J0D01*
G01*
X5609751Y-9151031D02*
X5619275Y-9141508D01*
X5619275Y-9141508D02*
X5638323Y-9131984D01*
X5638323Y-9131984D02*
X5685942Y-9131984D01*
X5685942Y-9131984D02*
X5704989Y-9141508D01*
X5704989Y-9141508D02*
X5714513Y-9151031D01*
X5714513Y-9151031D02*
X5724037Y-9170079D01*
X5724037Y-9170079D02*
X5724037Y-9189127D01*
X5724037Y-9189127D02*
X5714513Y-9217698D01*
X5714513Y-9217698D02*
X5600227Y-9331984D01*
X5600227Y-9331984D02*
X5724037Y-9331984D01*
X5809751Y-9312936D02*
X5819275Y-9322460D01*
X5819275Y-9322460D02*
X5809751Y-9331984D01*
X5809751Y-9331984D02*
X5800227Y-9322460D01*
X5800227Y-9322460D02*
X5809751Y-9312936D01*
X5809751Y-9312936D02*
X5809751Y-9331984D01*
X6000227Y-9131984D02*
X5904989Y-9131984D01*
X5904989Y-9131984D02*
X5895466Y-9227222D01*
X5895466Y-9227222D02*
X5904989Y-9217698D01*
X5904989Y-9217698D02*
X5924037Y-9208174D01*
X5924037Y-9208174D02*
X5971656Y-9208174D01*
X5971656Y-9208174D02*
X5990704Y-9217698D01*
X5990704Y-9217698D02*
X6000227Y-9227222D01*
X6000227Y-9227222D02*
X6009751Y-9246270D01*
X6009751Y-9246270D02*
X6009751Y-9293889D01*
X6009751Y-9293889D02*
X6000227Y-9312936D01*
X6000227Y-9312936D02*
X5990704Y-9322460D01*
X5990704Y-9322460D02*
X5971656Y-9331984D01*
X5971656Y-9331984D02*
X5924037Y-9331984D01*
X5924037Y-9331984D02*
X5904989Y-9322460D01*
X5904989Y-9322460D02*
X5895466Y-9312936D01*
X6133561Y-9131984D02*
X6152608Y-9131984D01*
X6152608Y-9131984D02*
X6171656Y-9141508D01*
X6171656Y-9141508D02*
X6181180Y-9151031D01*
X6181180Y-9151031D02*
X6190704Y-9170079D01*
X6190704Y-9170079D02*
X6200227Y-9208174D01*
X6200227Y-9208174D02*
X6200227Y-9255793D01*
X6200227Y-9255793D02*
X6190704Y-9293889D01*
X6190704Y-9293889D02*
X6181180Y-9312936D01*
X6181180Y-9312936D02*
X6171656Y-9322460D01*
X6171656Y-9322460D02*
X6152608Y-9331984D01*
X6152608Y-9331984D02*
X6133561Y-9331984D01*
X6133561Y-9331984D02*
X6114513Y-9322460D01*
X6114513Y-9322460D02*
X6104989Y-9312936D01*
X6104989Y-9312936D02*
X6095466Y-9293889D01*
X6095466Y-9293889D02*
X6085942Y-9255793D01*
X6085942Y-9255793D02*
X6085942Y-9208174D01*
X6085942Y-9208174D02*
X6095466Y-9170079D01*
X6095466Y-9170079D02*
X6104989Y-9151031D01*
X6104989Y-9151031D02*
X6114513Y-9141508D01*
X6114513Y-9141508D02*
X6133561Y-9131984D01*
X6324037Y-9131984D02*
X6343085Y-9131984D01*
X6343085Y-9131984D02*
X6362132Y-9141508D01*
X6362132Y-9141508D02*
X6371656Y-9151031D01*
X6371656Y-9151031D02*
X6381180Y-9170079D01*
X6381180Y-9170079D02*
X6390704Y-9208174D01*
X6390704Y-9208174D02*
X6390704Y-9255793D01*
X6390704Y-9255793D02*
X6381180Y-9293889D01*
X6381180Y-9293889D02*
X6371656Y-9312936D01*
X6371656Y-9312936D02*
X6362132Y-9322460D01*
X6362132Y-9322460D02*
X6343085Y-9331984D01*
X6343085Y-9331984D02*
X6324037Y-9331984D01*
X6324037Y-9331984D02*
X6304989Y-9322460D01*
X6304989Y-9322460D02*
X6295466Y-9312936D01*
X6295466Y-9312936D02*
X6285942Y-9293889D01*
X6285942Y-9293889D02*
X6276418Y-9255793D01*
X6276418Y-9255793D02*
X6276418Y-9208174D01*
X6276418Y-9208174D02*
X6285942Y-9170079D01*
X6285942Y-9170079D02*
X6295466Y-9151031D01*
X6295466Y-9151031D02*
X6304989Y-9141508D01*
X6304989Y-9141508D02*
X6324037Y-9131984D01*
X6476418Y-9331984D02*
X6476418Y-9198650D01*
X6476418Y-9217698D02*
X6485942Y-9208174D01*
X6485942Y-9208174D02*
X6504989Y-9198650D01*
X6504989Y-9198650D02*
X6533561Y-9198650D01*
X6533561Y-9198650D02*
X6552608Y-9208174D01*
X6552608Y-9208174D02*
X6562132Y-9227222D01*
X6562132Y-9227222D02*
X6562132Y-9331984D01*
X6562132Y-9227222D02*
X6571656Y-9208174D01*
X6571656Y-9208174D02*
X6590704Y-9198650D01*
X6590704Y-9198650D02*
X6619275Y-9198650D01*
X6619275Y-9198650D02*
X6638323Y-9208174D01*
X6638323Y-9208174D02*
X6647847Y-9227222D01*
X6647847Y-9227222D02*
X6647847Y-9331984D01*
X6743085Y-9331984D02*
X6743085Y-9198650D01*
X6743085Y-9217698D02*
X6752608Y-9208174D01*
X6752608Y-9208174D02*
X6771656Y-9198650D01*
X6771656Y-9198650D02*
X6800228Y-9198650D01*
X6800228Y-9198650D02*
X6819275Y-9208174D01*
X6819275Y-9208174D02*
X6828799Y-9227222D01*
X6828799Y-9227222D02*
X6828799Y-9331984D01*
X6828799Y-9227222D02*
X6838323Y-9208174D01*
X6838323Y-9208174D02*
X6857370Y-9198650D01*
X6857370Y-9198650D02*
X6885942Y-9198650D01*
X6885942Y-9198650D02*
X6904989Y-9208174D01*
X6904989Y-9208174D02*
X6914513Y-9227222D01*
X6914513Y-9227222D02*
X6914513Y-9331984D01*
X7304989Y-9122460D02*
X7133561Y-9379603D01*
X7562132Y-9131984D02*
X7581180Y-9131984D01*
X7581180Y-9131984D02*
X7600228Y-9141508D01*
X7600228Y-9141508D02*
X7609751Y-9151031D01*
X7609751Y-9151031D02*
X7619275Y-9170079D01*
X7619275Y-9170079D02*
X7628799Y-9208174D01*
X7628799Y-9208174D02*
X7628799Y-9255793D01*
X7628799Y-9255793D02*
X7619275Y-9293889D01*
X7619275Y-9293889D02*
X7609751Y-9312936D01*
X7609751Y-9312936D02*
X7600228Y-9322460D01*
X7600228Y-9322460D02*
X7581180Y-9331984D01*
X7581180Y-9331984D02*
X7562132Y-9331984D01*
X7562132Y-9331984D02*
X7543085Y-9322460D01*
X7543085Y-9322460D02*
X7533561Y-9312936D01*
X7533561Y-9312936D02*
X7524037Y-9293889D01*
X7524037Y-9293889D02*
X7514513Y-9255793D01*
X7514513Y-9255793D02*
X7514513Y-9208174D01*
X7514513Y-9208174D02*
X7524037Y-9170079D01*
X7524037Y-9170079D02*
X7533561Y-9151031D01*
X7533561Y-9151031D02*
X7543085Y-9141508D01*
X7543085Y-9141508D02*
X7562132Y-9131984D01*
X7714513Y-9312936D02*
X7724037Y-9322460D01*
X7724037Y-9322460D02*
X7714513Y-9331984D01*
X7714513Y-9331984D02*
X7704990Y-9322460D01*
X7704990Y-9322460D02*
X7714513Y-9312936D01*
X7714513Y-9312936D02*
X7714513Y-9331984D01*
X7847847Y-9131984D02*
X7866894Y-9131984D01*
X7866894Y-9131984D02*
X7885942Y-9141508D01*
X7885942Y-9141508D02*
X7895466Y-9151031D01*
X7895466Y-9151031D02*
X7904990Y-9170079D01*
X7904990Y-9170079D02*
X7914513Y-9208174D01*
X7914513Y-9208174D02*
X7914513Y-9255793D01*
X7914513Y-9255793D02*
X7904990Y-9293889D01*
X7904990Y-9293889D02*
X7895466Y-9312936D01*
X7895466Y-9312936D02*
X7885942Y-9322460D01*
X7885942Y-9322460D02*
X7866894Y-9331984D01*
X7866894Y-9331984D02*
X7847847Y-9331984D01*
X7847847Y-9331984D02*
X7828799Y-9322460D01*
X7828799Y-9322460D02*
X7819275Y-9312936D01*
X7819275Y-9312936D02*
X7809751Y-9293889D01*
X7809751Y-9293889D02*
X7800228Y-9255793D01*
X7800228Y-9255793D02*
X7800228Y-9208174D01*
X7800228Y-9208174D02*
X7809751Y-9170079D01*
X7809751Y-9170079D02*
X7819275Y-9151031D01*
X7819275Y-9151031D02*
X7828799Y-9141508D01*
X7828799Y-9141508D02*
X7847847Y-9131984D01*
X8009751Y-9331984D02*
X8047847Y-9331984D01*
X8047847Y-9331984D02*
X8066894Y-9322460D01*
X8066894Y-9322460D02*
X8076418Y-9312936D01*
X8076418Y-9312936D02*
X8095466Y-9284365D01*
X8095466Y-9284365D02*
X8104990Y-9246270D01*
X8104990Y-9246270D02*
X8104990Y-9170079D01*
X8104990Y-9170079D02*
X8095466Y-9151031D01*
X8095466Y-9151031D02*
X8085942Y-9141508D01*
X8085942Y-9141508D02*
X8066894Y-9131984D01*
X8066894Y-9131984D02*
X8028799Y-9131984D01*
X8028799Y-9131984D02*
X8009751Y-9141508D01*
X8009751Y-9141508D02*
X8000228Y-9151031D01*
X8000228Y-9151031D02*
X7990704Y-9170079D01*
X7990704Y-9170079D02*
X7990704Y-9217698D01*
X7990704Y-9217698D02*
X8000228Y-9236746D01*
X8000228Y-9236746D02*
X8009751Y-9246270D01*
X8009751Y-9246270D02*
X8028799Y-9255793D01*
X8028799Y-9255793D02*
X8066894Y-9255793D01*
X8066894Y-9255793D02*
X8085942Y-9246270D01*
X8085942Y-9246270D02*
X8095466Y-9236746D01*
X8095466Y-9236746D02*
X8104990Y-9217698D01*
X8219275Y-9217698D02*
X8200228Y-9208174D01*
X8200228Y-9208174D02*
X8190704Y-9198650D01*
X8190704Y-9198650D02*
X8181180Y-9179603D01*
X8181180Y-9179603D02*
X8181180Y-9170079D01*
X8181180Y-9170079D02*
X8190704Y-9151031D01*
X8190704Y-9151031D02*
X8200228Y-9141508D01*
X8200228Y-9141508D02*
X8219275Y-9131984D01*
X8219275Y-9131984D02*
X8257371Y-9131984D01*
X8257371Y-9131984D02*
X8276418Y-9141508D01*
X8276418Y-9141508D02*
X8285942Y-9151031D01*
X8285942Y-9151031D02*
X8295466Y-9170079D01*
X8295466Y-9170079D02*
X8295466Y-9179603D01*
X8295466Y-9179603D02*
X8285942Y-9198650D01*
X8285942Y-9198650D02*
X8276418Y-9208174D01*
X8276418Y-9208174D02*
X8257371Y-9217698D01*
X8257371Y-9217698D02*
X8219275Y-9217698D01*
X8219275Y-9217698D02*
X8200228Y-9227222D01*
X8200228Y-9227222D02*
X8190704Y-9236746D01*
X8190704Y-9236746D02*
X8181180Y-9255793D01*
X8181180Y-9255793D02*
X8181180Y-9293889D01*
X8181180Y-9293889D02*
X8190704Y-9312936D01*
X8190704Y-9312936D02*
X8200228Y-9322460D01*
X8200228Y-9322460D02*
X8219275Y-9331984D01*
X8219275Y-9331984D02*
X8257371Y-9331984D01*
X8257371Y-9331984D02*
X8276418Y-9322460D01*
X8276418Y-9322460D02*
X8285942Y-9312936D01*
X8285942Y-9312936D02*
X8295466Y-9293889D01*
X8295466Y-9293889D02*
X8295466Y-9255793D01*
X8295466Y-9255793D02*
X8285942Y-9236746D01*
X8285942Y-9236746D02*
X8276418Y-9227222D01*
X8276418Y-9227222D02*
X8257371Y-9217698D01*
X8466894Y-9198650D02*
X8466894Y-9331984D01*
X8419275Y-9122460D02*
X8371656Y-9265317D01*
X8371656Y-9265317D02*
X8495466Y-9265317D01*
X8562133Y-9131984D02*
X8562133Y-9170079D01*
X8638323Y-9131984D02*
X8638323Y-9170079D01*
X8933561Y-9408174D02*
X8924037Y-9398650D01*
X8924037Y-9398650D02*
X8904990Y-9370079D01*
X8904990Y-9370079D02*
X8895466Y-9351031D01*
X8895466Y-9351031D02*
X8885942Y-9322460D01*
X8885942Y-9322460D02*
X8876418Y-9274841D01*
X8876418Y-9274841D02*
X8876418Y-9236746D01*
X8876418Y-9236746D02*
X8885942Y-9189127D01*
X8885942Y-9189127D02*
X8895466Y-9160555D01*
X8895466Y-9160555D02*
X8904990Y-9141508D01*
X8904990Y-9141508D02*
X8924037Y-9112936D01*
X8924037Y-9112936D02*
X8933561Y-9103412D01*
X9114514Y-9331984D02*
X9000228Y-9331984D01*
X9057371Y-9331984D02*
X9057371Y-9131984D01*
X9057371Y-9131984D02*
X9038323Y-9160555D01*
X9038323Y-9160555D02*
X9019275Y-9179603D01*
X9019275Y-9179603D02*
X9000228Y-9189127D01*
X9190704Y-9151031D02*
X9200228Y-9141508D01*
X9200228Y-9141508D02*
X9219275Y-9131984D01*
X9219275Y-9131984D02*
X9266895Y-9131984D01*
X9266895Y-9131984D02*
X9285942Y-9141508D01*
X9285942Y-9141508D02*
X9295466Y-9151031D01*
X9295466Y-9151031D02*
X9304990Y-9170079D01*
X9304990Y-9170079D02*
X9304990Y-9189127D01*
X9304990Y-9189127D02*
X9295466Y-9217698D01*
X9295466Y-9217698D02*
X9181180Y-9331984D01*
X9181180Y-9331984D02*
X9304990Y-9331984D01*
X9543085Y-9331984D02*
X9543085Y-9131984D01*
X9628799Y-9331984D02*
X9628799Y-9227222D01*
X9628799Y-9227222D02*
X9619276Y-9208174D01*
X9619276Y-9208174D02*
X9600228Y-9198650D01*
X9600228Y-9198650D02*
X9571656Y-9198650D01*
X9571656Y-9198650D02*
X9552609Y-9208174D01*
X9552609Y-9208174D02*
X9543085Y-9217698D01*
X9752609Y-9331984D02*
X9733561Y-9322460D01*
X9733561Y-9322460D02*
X9724037Y-9312936D01*
X9724037Y-9312936D02*
X9714514Y-9293889D01*
X9714514Y-9293889D02*
X9714514Y-9236746D01*
X9714514Y-9236746D02*
X9724037Y-9217698D01*
X9724037Y-9217698D02*
X9733561Y-9208174D01*
X9733561Y-9208174D02*
X9752609Y-9198650D01*
X9752609Y-9198650D02*
X9781180Y-9198650D01*
X9781180Y-9198650D02*
X9800228Y-9208174D01*
X9800228Y-9208174D02*
X9809752Y-9217698D01*
X9809752Y-9217698D02*
X9819276Y-9236746D01*
X9819276Y-9236746D02*
X9819276Y-9293889D01*
X9819276Y-9293889D02*
X9809752Y-9312936D01*
X9809752Y-9312936D02*
X9800228Y-9322460D01*
X9800228Y-9322460D02*
X9781180Y-9331984D01*
X9781180Y-9331984D02*
X9752609Y-9331984D01*
X9933561Y-9331984D02*
X9914514Y-9322460D01*
X9914514Y-9322460D02*
X9904990Y-9303412D01*
X9904990Y-9303412D02*
X9904990Y-9131984D01*
X10085942Y-9322460D02*
X10066895Y-9331984D01*
X10066895Y-9331984D02*
X10028799Y-9331984D01*
X10028799Y-9331984D02*
X10009752Y-9322460D01*
X10009752Y-9322460D02*
X10000228Y-9303412D01*
X10000228Y-9303412D02*
X10000228Y-9227222D01*
X10000228Y-9227222D02*
X10009752Y-9208174D01*
X10009752Y-9208174D02*
X10028799Y-9198650D01*
X10028799Y-9198650D02*
X10066895Y-9198650D01*
X10066895Y-9198650D02*
X10085942Y-9208174D01*
X10085942Y-9208174D02*
X10095466Y-9227222D01*
X10095466Y-9227222D02*
X10095466Y-9246270D01*
X10095466Y-9246270D02*
X10000228Y-9265317D01*
X10171657Y-9322460D02*
X10190704Y-9331984D01*
X10190704Y-9331984D02*
X10228799Y-9331984D01*
X10228799Y-9331984D02*
X10247847Y-9322460D01*
X10247847Y-9322460D02*
X10257371Y-9303412D01*
X10257371Y-9303412D02*
X10257371Y-9293889D01*
X10257371Y-9293889D02*
X10247847Y-9274841D01*
X10247847Y-9274841D02*
X10228799Y-9265317D01*
X10228799Y-9265317D02*
X10200228Y-9265317D01*
X10200228Y-9265317D02*
X10181180Y-9255793D01*
X10181180Y-9255793D02*
X10171657Y-9236746D01*
X10171657Y-9236746D02*
X10171657Y-9227222D01*
X10171657Y-9227222D02*
X10181180Y-9208174D01*
X10181180Y-9208174D02*
X10200228Y-9198650D01*
X10200228Y-9198650D02*
X10228799Y-9198650D01*
X10228799Y-9198650D02*
X10247847Y-9208174D01*
X10324038Y-9408174D02*
X10333561Y-9398650D01*
X10333561Y-9398650D02*
X10352609Y-9370079D01*
X10352609Y-9370079D02*
X10362133Y-9351031D01*
X10362133Y-9351031D02*
X10371657Y-9322460D01*
X10371657Y-9322460D02*
X10381180Y-9274841D01*
X10381180Y-9274841D02*
X10381180Y-9236746D01*
X10381180Y-9236746D02*
X10371657Y-9189127D01*
X10371657Y-9189127D02*
X10362133Y-9160555D01*
X10362133Y-9160555D02*
X10352609Y-9141508D01*
X10352609Y-9141508D02*
X10333561Y-9112936D01*
X10333561Y-9112936D02*
X10324038Y-9103412D01*
X10685942Y-9408174D02*
X10676418Y-9398650D01*
X10676418Y-9398650D02*
X10657371Y-9370079D01*
X10657371Y-9370079D02*
X10647847Y-9351031D01*
X10647847Y-9351031D02*
X10638323Y-9322460D01*
X10638323Y-9322460D02*
X10628799Y-9274841D01*
X10628799Y-9274841D02*
X10628799Y-9236746D01*
X10628799Y-9236746D02*
X10638323Y-9189127D01*
X10638323Y-9189127D02*
X10647847Y-9160555D01*
X10647847Y-9160555D02*
X10657371Y-9141508D01*
X10657371Y-9141508D02*
X10676418Y-9112936D01*
X10676418Y-9112936D02*
X10685942Y-9103412D01*
X10762133Y-9198650D02*
X10762133Y-9331984D01*
X10762133Y-9217698D02*
X10771657Y-9208174D01*
X10771657Y-9208174D02*
X10790704Y-9198650D01*
X10790704Y-9198650D02*
X10819276Y-9198650D01*
X10819276Y-9198650D02*
X10838323Y-9208174D01*
X10838323Y-9208174D02*
X10847847Y-9227222D01*
X10847847Y-9227222D02*
X10847847Y-9331984D01*
X10971657Y-9331984D02*
X10952609Y-9322460D01*
X10952609Y-9322460D02*
X10943085Y-9312936D01*
X10943085Y-9312936D02*
X10933561Y-9293889D01*
X10933561Y-9293889D02*
X10933561Y-9236746D01*
X10933561Y-9236746D02*
X10943085Y-9217698D01*
X10943085Y-9217698D02*
X10952609Y-9208174D01*
X10952609Y-9208174D02*
X10971657Y-9198650D01*
X10971657Y-9198650D02*
X11000228Y-9198650D01*
X11000228Y-9198650D02*
X11019276Y-9208174D01*
X11019276Y-9208174D02*
X11028799Y-9217698D01*
X11028799Y-9217698D02*
X11038323Y-9236746D01*
X11038323Y-9236746D02*
X11038323Y-9293889D01*
X11038323Y-9293889D02*
X11028799Y-9312936D01*
X11028799Y-9312936D02*
X11019276Y-9322460D01*
X11019276Y-9322460D02*
X11000228Y-9331984D01*
X11000228Y-9331984D02*
X10971657Y-9331984D01*
X11095466Y-9198650D02*
X11171657Y-9198650D01*
X11124038Y-9131984D02*
X11124038Y-9303412D01*
X11124038Y-9303412D02*
X11133561Y-9322460D01*
X11133561Y-9322460D02*
X11152609Y-9331984D01*
X11152609Y-9331984D02*
X11171657Y-9331984D01*
X11390704Y-9198650D02*
X11390704Y-9398650D01*
X11390704Y-9208174D02*
X11409752Y-9198650D01*
X11409752Y-9198650D02*
X11447847Y-9198650D01*
X11447847Y-9198650D02*
X11466895Y-9208174D01*
X11466895Y-9208174D02*
X11476418Y-9217698D01*
X11476418Y-9217698D02*
X11485942Y-9236746D01*
X11485942Y-9236746D02*
X11485942Y-9293889D01*
X11485942Y-9293889D02*
X11476418Y-9312936D01*
X11476418Y-9312936D02*
X11466895Y-9322460D01*
X11466895Y-9322460D02*
X11447847Y-9331984D01*
X11447847Y-9331984D02*
X11409752Y-9331984D01*
X11409752Y-9331984D02*
X11390704Y-9322460D01*
X11600228Y-9331984D02*
X11581180Y-9322460D01*
X11581180Y-9322460D02*
X11571657Y-9303412D01*
X11571657Y-9303412D02*
X11571657Y-9131984D01*
X11762133Y-9331984D02*
X11762133Y-9227222D01*
X11762133Y-9227222D02*
X11752609Y-9208174D01*
X11752609Y-9208174D02*
X11733561Y-9198650D01*
X11733561Y-9198650D02*
X11695466Y-9198650D01*
X11695466Y-9198650D02*
X11676418Y-9208174D01*
X11762133Y-9322460D02*
X11743085Y-9331984D01*
X11743085Y-9331984D02*
X11695466Y-9331984D01*
X11695466Y-9331984D02*
X11676418Y-9322460D01*
X11676418Y-9322460D02*
X11666895Y-9303412D01*
X11666895Y-9303412D02*
X11666895Y-9284365D01*
X11666895Y-9284365D02*
X11676418Y-9265317D01*
X11676418Y-9265317D02*
X11695466Y-9255793D01*
X11695466Y-9255793D02*
X11743085Y-9255793D01*
X11743085Y-9255793D02*
X11762133Y-9246270D01*
X11828799Y-9198650D02*
X11904990Y-9198650D01*
X11857371Y-9131984D02*
X11857371Y-9303412D01*
X11857371Y-9303412D02*
X11866895Y-9322460D01*
X11866895Y-9322460D02*
X11885942Y-9331984D01*
X11885942Y-9331984D02*
X11904990Y-9331984D01*
X12047847Y-9322460D02*
X12028799Y-9331984D01*
X12028799Y-9331984D02*
X11990704Y-9331984D01*
X11990704Y-9331984D02*
X11971657Y-9322460D01*
X11971657Y-9322460D02*
X11962133Y-9303412D01*
X11962133Y-9303412D02*
X11962133Y-9227222D01*
X11962133Y-9227222D02*
X11971657Y-9208174D01*
X11971657Y-9208174D02*
X11990704Y-9198650D01*
X11990704Y-9198650D02*
X12028799Y-9198650D01*
X12028799Y-9198650D02*
X12047847Y-9208174D01*
X12047847Y-9208174D02*
X12057371Y-9227222D01*
X12057371Y-9227222D02*
X12057371Y-9246270D01*
X12057371Y-9246270D02*
X11962133Y-9265317D01*
X12228799Y-9331984D02*
X12228799Y-9131984D01*
X12228799Y-9322460D02*
X12209752Y-9331984D01*
X12209752Y-9331984D02*
X12171657Y-9331984D01*
X12171657Y-9331984D02*
X12152609Y-9322460D01*
X12152609Y-9322460D02*
X12143085Y-9312936D01*
X12143085Y-9312936D02*
X12133561Y-9293889D01*
X12133561Y-9293889D02*
X12133561Y-9236746D01*
X12133561Y-9236746D02*
X12143085Y-9217698D01*
X12143085Y-9217698D02*
X12152609Y-9208174D01*
X12152609Y-9208174D02*
X12171657Y-9198650D01*
X12171657Y-9198650D02*
X12209752Y-9198650D01*
X12209752Y-9198650D02*
X12228799Y-9208174D01*
X12304990Y-9408174D02*
X12314514Y-9398650D01*
X12314514Y-9398650D02*
X12333561Y-9370079D01*
X12333561Y-9370079D02*
X12343085Y-9351031D01*
X12343085Y-9351031D02*
X12352609Y-9322460D01*
X12352609Y-9322460D02*
X12362133Y-9274841D01*
X12362133Y-9274841D02*
X12362133Y-9236746D01*
X12362133Y-9236746D02*
X12352609Y-9189127D01*
X12352609Y-9189127D02*
X12343085Y-9160555D01*
X12343085Y-9160555D02*
X12333561Y-9141508D01*
X12333561Y-9141508D02*
X12314514Y-9112936D01*
X12314514Y-9112936D02*
X12304990Y-9103412D01*
M02*
