G04 #@! TF.GenerationSoftware,KiCad,Pcbnew,9.0.1+1*
G04 #@! TF.CreationDate,2025-05-09T02:39:02+00:00*
G04 #@! TF.ProjectId,stencil,7374656e-6369-46c2-9e6b-696361645f70,rev?*
G04 #@! TF.SameCoordinates,Original*
G04 #@! TF.FileFunction,Paste,Bot*
G04 #@! TF.FilePolarity,Positive*
%FSLAX46Y46*%
G04 Gerber Fmt 4.6, Leading zero omitted, Abs format (unit mm)*
G04 Created by KiCad (PCBNEW 9.0.1+1) date 2025-05-09 02:39:02*
%MOMM*%
%LPD*%
G01*
G04 APERTURE LIST*
G04 Aperture macros list*
%AMRoundRect*
0 Rectangle with rounded corners*
0 $1 Rounding radius*
0 $2 $3 $4 $5 $6 $7 $8 $9 X,Y pos of 4 corners*
0 Add a 4 corners polygon primitive as box body*
4,1,4,$2,$3,$4,$5,$6,$7,$8,$9,$2,$3,0*
0 Add four circle primitives for the rounded corners*
1,1,$1+$1,$2,$3*
1,1,$1+$1,$4,$5*
1,1,$1+$1,$6,$7*
1,1,$1+$1,$8,$9*
0 Add four rect primitives between the rounded corners*
20,1,$1+$1,$2,$3,$4,$5,0*
20,1,$1+$1,$4,$5,$6,$7,0*
20,1,$1+$1,$6,$7,$8,$9,0*
20,1,$1+$1,$8,$9,$2,$3,0*%
G04 Aperture macros list end*
%ADD10C,0.500000*%
%ADD11C,1.000000*%
%ADD12C,1.050000*%
%ADD13RoundRect,0.250000X-0.350000X-0.450000X0.350000X-0.450000X0.350000X0.450000X-0.350000X0.450000X0*%
%ADD14RoundRect,0.250000X0.350000X0.450000X-0.350000X0.450000X-0.350000X-0.450000X0.350000X-0.450000X0*%
G04 APERTURE END LIST*
D10*
X85209983Y-7840000D02*
G75*
G02*
X85710000Y-8340000I17J-500000D01*
G01*
X112009983Y-131840000D02*
X122409983Y-131840000D01*
X48509983Y-131340000D02*
G75*
G02*
X48009983Y-131839983I-499983J0D01*
G01*
X37609983Y-131840000D02*
X48009983Y-131840000D01*
D11*
X157859983Y-40465000D02*
G75*
G02*
X156859983Y-40465000I-500000J0D01*
G01*
X156859983Y-40465000D02*
G75*
G02*
X157859983Y-40465000I500000J0D01*
G01*
D10*
X124409983Y-7840000D02*
X134809983Y-7840000D01*
X36609983Y-8840000D02*
G75*
G02*
X37609983Y-7839983I1000017J0D01*
G01*
D11*
X128484983Y-11090000D02*
G75*
G02*
X127484983Y-11090000I-500000J0D01*
G01*
X127484983Y-11090000D02*
G75*
G02*
X128484983Y-11090000I500000J0D01*
G01*
D10*
X122409983Y-7840000D02*
G75*
G02*
X122910000Y-8340000I17J-500000D01*
G01*
X136809983Y-131840000D02*
G75*
G02*
X136310000Y-131340000I17J500000D01*
G01*
D11*
X99109983Y-128590000D02*
G75*
G02*
X98109983Y-128590000I-500000J0D01*
G01*
X98109983Y-128590000D02*
G75*
G02*
X99109983Y-128590000I500000J0D01*
G01*
D10*
X99609983Y-131840000D02*
G75*
G02*
X99110000Y-131340000I17J500000D01*
G01*
D11*
X40359983Y-69840000D02*
G75*
G02*
X39359983Y-69840000I-500000J0D01*
G01*
X39359983Y-69840000D02*
G75*
G02*
X40359983Y-69840000I500000J0D01*
G01*
D10*
X98109983Y-131340000D02*
G75*
G02*
X97609983Y-131839983I-499983J0D01*
G01*
X62409983Y-7840000D02*
X72809983Y-7840000D01*
X99609983Y-7840000D02*
X110009983Y-7840000D01*
X73309983Y-131340000D02*
G75*
G02*
X72809983Y-131839983I-499983J0D01*
G01*
X97609983Y-7840000D02*
G75*
G02*
X98110000Y-8340000I17J-500000D01*
G01*
X37109983Y-56940000D02*
G75*
G02*
X36610000Y-56440000I17J500000D01*
G01*
X159609983Y-7840000D02*
G75*
G02*
X160610000Y-8840000I17J-1000000D01*
G01*
X87209983Y-131840000D02*
X97609983Y-131840000D01*
X60909983Y-131340000D02*
G75*
G02*
X60409983Y-131839983I-499983J0D01*
G01*
X36609983Y-21240000D02*
X36609983Y-31640000D01*
D11*
X128484983Y-128590000D02*
G75*
G02*
X127484983Y-128590000I-500000J0D01*
G01*
X127484983Y-128590000D02*
G75*
G02*
X128484983Y-128590000I500000J0D01*
G01*
D10*
X36609983Y-70840000D02*
X36609983Y-81240000D01*
X36609983Y-46040000D02*
X36609983Y-56440000D01*
X160609983Y-108040000D02*
X160609983Y-118440000D01*
X112009983Y-7840000D02*
X122409983Y-7840000D01*
X36609983Y-83240000D02*
X36609983Y-93640000D01*
X37109983Y-81740000D02*
G75*
G02*
X36610000Y-81240000I17J500000D01*
G01*
X160109983Y-57940000D02*
G75*
G02*
X160610000Y-58440000I17J-500000D01*
G01*
X50009983Y-131840000D02*
X60409983Y-131840000D01*
X62409983Y-131840000D02*
X72809983Y-131840000D01*
X37609983Y-7840000D02*
X48009983Y-7840000D01*
X160609983Y-83240000D02*
X160609983Y-93640000D01*
X160609983Y-106040000D02*
G75*
G02*
X160109983Y-106539983I-499983J0D01*
G01*
X87209983Y-7840000D02*
X97609983Y-7840000D01*
X36609983Y-33640000D02*
G75*
G02*
X37109983Y-33139983I500017J0D01*
G01*
X160609983Y-81240000D02*
G75*
G02*
X160109983Y-81739983I-499983J0D01*
G01*
X160609983Y-33640000D02*
X160609983Y-44040000D01*
X160109983Y-82740000D02*
G75*
G02*
X160610000Y-83240000I17J-500000D01*
G01*
X160609983Y-130840000D02*
G75*
G02*
X159609983Y-131839983I-999983J0D01*
G01*
X160109983Y-20740000D02*
G75*
G02*
X160610000Y-21240000I17J-500000D01*
G01*
X160609983Y-56440000D02*
G75*
G02*
X160109983Y-56939983I-499983J0D01*
G01*
X36609983Y-58440000D02*
X36609983Y-68840000D01*
X160109983Y-33140000D02*
G75*
G02*
X160610000Y-33640000I17J-500000D01*
G01*
X134809983Y-7840000D02*
G75*
G02*
X135310000Y-8340000I17J-500000D01*
G01*
X37109983Y-69340000D02*
G75*
G02*
X36610000Y-68840000I17J500000D01*
G01*
X86709983Y-8340000D02*
G75*
G02*
X87209983Y-7839983I500017J0D01*
G01*
X49509983Y-8340000D02*
G75*
G02*
X50009983Y-7839983I500017J0D01*
G01*
D11*
X99109983Y-11090000D02*
G75*
G02*
X98109983Y-11090000I-500000J0D01*
G01*
X98109983Y-11090000D02*
G75*
G02*
X99109983Y-11090000I500000J0D01*
G01*
D10*
X36609983Y-120440000D02*
X36609983Y-130840000D01*
X37109983Y-32140000D02*
G75*
G02*
X36610000Y-31640000I17J500000D01*
G01*
X85709983Y-131340000D02*
G75*
G02*
X85209983Y-131839983I-499983J0D01*
G01*
X111509983Y-8340000D02*
G75*
G02*
X112009983Y-7839983I500017J0D01*
G01*
X136809983Y-7840000D02*
X147209983Y-7840000D01*
X122909983Y-131340000D02*
G75*
G02*
X122409983Y-131839983I-499983J0D01*
G01*
X50009983Y-131840000D02*
G75*
G02*
X49510000Y-131340000I17J500000D01*
G01*
X36609983Y-108040000D02*
G75*
G02*
X37109983Y-107539983I500017J0D01*
G01*
X160609983Y-93640000D02*
G75*
G02*
X160109983Y-94139983I-499983J0D01*
G01*
X160109983Y-107540000D02*
G75*
G02*
X160610000Y-108040000I17J-500000D01*
G01*
X160609983Y-68840000D02*
G75*
G02*
X160109983Y-69339983I-499983J0D01*
G01*
X36609983Y-70840000D02*
G75*
G02*
X37109983Y-70339983I500017J0D01*
G01*
D11*
X157859983Y-99215000D02*
G75*
G02*
X156859983Y-99215000I-500000J0D01*
G01*
X156859983Y-99215000D02*
G75*
G02*
X157859983Y-99215000I500000J0D01*
G01*
D10*
X74309983Y-8340000D02*
G75*
G02*
X74809983Y-7839983I500017J0D01*
G01*
X160109983Y-95140000D02*
G75*
G02*
X160610000Y-95640000I17J-500000D01*
G01*
X60409983Y-7840000D02*
G75*
G02*
X60910000Y-8340000I17J-500000D01*
G01*
X36609983Y-95640000D02*
G75*
G02*
X37109983Y-95139983I500017J0D01*
G01*
X124409983Y-131840000D02*
G75*
G02*
X123910000Y-131340000I17J500000D01*
G01*
X160609983Y-46040000D02*
X160609983Y-56440000D01*
X36609983Y-33640000D02*
X36609983Y-44040000D01*
X74809983Y-7840000D02*
X85209983Y-7840000D01*
X74809983Y-131840000D02*
X85209983Y-131840000D01*
X37109983Y-106540000D02*
G75*
G02*
X36610000Y-106040000I17J500000D01*
G01*
X149209983Y-7840000D02*
X159609983Y-7840000D01*
X36609983Y-108040000D02*
X36609983Y-118440000D01*
X110509983Y-131340000D02*
G75*
G02*
X110009983Y-131839983I-499983J0D01*
G01*
X160109983Y-119940000D02*
G75*
G02*
X160610000Y-120440000I17J-500000D01*
G01*
D12*
X157884983Y-128590000D02*
G75*
G02*
X156834983Y-128590000I-525000J0D01*
G01*
X156834983Y-128590000D02*
G75*
G02*
X157884983Y-128590000I525000J0D01*
G01*
D10*
X36609983Y-83240000D02*
G75*
G02*
X37109983Y-82739983I500017J0D01*
G01*
X160609983Y-118440000D02*
G75*
G02*
X160109983Y-118939983I-499983J0D01*
G01*
X62409983Y-131840000D02*
G75*
G02*
X61910000Y-131340000I17J500000D01*
G01*
X37109983Y-94140000D02*
G75*
G02*
X36610000Y-93640000I17J500000D01*
G01*
X160609983Y-31640000D02*
G75*
G02*
X160109983Y-32139983I-499983J0D01*
G01*
D11*
X40359983Y-40465000D02*
G75*
G02*
X39359983Y-40465000I-500000J0D01*
G01*
X39359983Y-40465000D02*
G75*
G02*
X40359983Y-40465000I500000J0D01*
G01*
D10*
X48009983Y-7840000D02*
G75*
G02*
X48510000Y-8340000I17J-500000D01*
G01*
X160609983Y-70840000D02*
X160609983Y-81240000D01*
X61909983Y-8340000D02*
G75*
G02*
X62409983Y-7839983I500017J0D01*
G01*
X36609983Y-21240000D02*
G75*
G02*
X37109983Y-20739983I500017J0D01*
G01*
X160609983Y-19240000D02*
G75*
G02*
X160109983Y-19739983I-499983J0D01*
G01*
X136809983Y-131840000D02*
X147209983Y-131840000D01*
X50009983Y-7840000D02*
X60409983Y-7840000D01*
D11*
X40359983Y-99215000D02*
G75*
G02*
X39359983Y-99215000I-500000J0D01*
G01*
X39359983Y-99215000D02*
G75*
G02*
X40359983Y-99215000I500000J0D01*
G01*
X69734983Y-128590000D02*
G75*
G02*
X68734983Y-128590000I-500000J0D01*
G01*
X68734983Y-128590000D02*
G75*
G02*
X69734983Y-128590000I500000J0D01*
G01*
D10*
X160609983Y-95640000D02*
X160609983Y-106040000D01*
X160109983Y-70340000D02*
G75*
G02*
X160610000Y-70840000I17J-500000D01*
G01*
X136309983Y-8340000D02*
G75*
G02*
X136809983Y-7839983I500017J0D01*
G01*
D11*
X157859983Y-69840000D02*
G75*
G02*
X156859983Y-69840000I-500000J0D01*
G01*
X156859983Y-69840000D02*
G75*
G02*
X157859983Y-69840000I500000J0D01*
G01*
D10*
X110009983Y-7840000D02*
G75*
G02*
X110510000Y-8340000I17J-500000D01*
G01*
X160609983Y-44040000D02*
G75*
G02*
X160109983Y-44539983I-499983J0D01*
G01*
D12*
X40384983Y-128590000D02*
G75*
G02*
X39334983Y-128590000I-525000J0D01*
G01*
X39334983Y-128590000D02*
G75*
G02*
X40384983Y-128590000I525000J0D01*
G01*
D10*
X124409983Y-131840000D02*
X134809983Y-131840000D01*
X149209983Y-131840000D02*
X159609983Y-131840000D01*
D12*
X157884983Y-11090000D02*
G75*
G02*
X156834983Y-11090000I-525000J0D01*
G01*
X156834983Y-11090000D02*
G75*
G02*
X157884983Y-11090000I525000J0D01*
G01*
D10*
X72809983Y-7840000D02*
G75*
G02*
X73310000Y-8340000I17J-500000D01*
G01*
X36609983Y-58440000D02*
G75*
G02*
X37109983Y-57939983I500017J0D01*
G01*
X160609983Y-58440000D02*
X160609983Y-68840000D01*
X112009983Y-131840000D02*
G75*
G02*
X111510000Y-131340000I17J500000D01*
G01*
X36609983Y-46040000D02*
G75*
G02*
X37109983Y-45539983I500017J0D01*
G01*
X74809983Y-131840000D02*
G75*
G02*
X74310000Y-131340000I17J500000D01*
G01*
X36609983Y-8840000D02*
X36609983Y-19240000D01*
X37109983Y-44540000D02*
G75*
G02*
X36610000Y-44040000I17J500000D01*
G01*
X135309983Y-131340000D02*
G75*
G02*
X134809983Y-131839983I-499983J0D01*
G01*
X160609983Y-8840000D02*
X160609983Y-19240000D01*
X36609983Y-120440000D02*
G75*
G02*
X37109983Y-119939983I500017J0D01*
G01*
X149209983Y-131840000D02*
G75*
G02*
X148710000Y-131340000I17J500000D01*
G01*
X160609983Y-120440000D02*
X160609983Y-130840000D01*
X87209983Y-131840000D02*
G75*
G02*
X86710000Y-131340000I17J500000D01*
G01*
D12*
X40384983Y-11090000D02*
G75*
G02*
X39334983Y-11090000I-525000J0D01*
G01*
X39334983Y-11090000D02*
G75*
G02*
X40384983Y-11090000I525000J0D01*
G01*
D10*
X147709983Y-131340000D02*
G75*
G02*
X147209983Y-131839983I-499983J0D01*
G01*
X37109983Y-118940000D02*
G75*
G02*
X36610000Y-118440000I17J500000D01*
G01*
X123909983Y-8340000D02*
G75*
G02*
X124409983Y-7839983I500017J0D01*
G01*
X148709983Y-8340000D02*
G75*
G02*
X149209983Y-7839983I500017J0D01*
G01*
X99109983Y-8340000D02*
G75*
G02*
X99609983Y-7839983I500017J0D01*
G01*
X160609983Y-21240000D02*
X160609983Y-31640000D01*
X37109983Y-19740000D02*
G75*
G02*
X36610000Y-19240000I17J500000D01*
G01*
X160109983Y-45540000D02*
G75*
G02*
X160610000Y-46040000I17J-500000D01*
G01*
X36609983Y-95640000D02*
X36609983Y-106040000D01*
X99609983Y-131840000D02*
X110009983Y-131840000D01*
X147209983Y-7840000D02*
G75*
G02*
X147710000Y-8340000I17J-500000D01*
G01*
X37609983Y-131840000D02*
G75*
G02*
X36610000Y-130840000I17J1000000D01*
G01*
D11*
X69734983Y-11090000D02*
G75*
G02*
X68734983Y-11090000I-500000J0D01*
G01*
X68734983Y-11090000D02*
G75*
G02*
X69734983Y-11090000I500000J0D01*
G01*
D13*
G04 #@! TO.C,R8*
X111609983Y-66000000D03*
X113609983Y-66000000D03*
G04 #@! TD*
G04 #@! TO.C,R7*
X111609983Y-60000000D03*
X113609983Y-60000000D03*
G04 #@! TD*
G04 #@! TO.C,R6*
X95609983Y-66000000D03*
X97609983Y-66000000D03*
G04 #@! TD*
G04 #@! TO.C,R3*
X79609983Y-60000000D03*
X81609983Y-60000000D03*
G04 #@! TD*
G04 #@! TO.C,R10*
X127609983Y-66000000D03*
X129609983Y-66000000D03*
G04 #@! TD*
G04 #@! TO.C,R2*
X63000000Y-66000000D03*
X65000000Y-66000000D03*
G04 #@! TD*
G04 #@! TO.C,R5*
X95609983Y-60000000D03*
X97609983Y-60000000D03*
G04 #@! TD*
G04 #@! TO.C,R4*
X79609983Y-66000000D03*
X81609983Y-66000000D03*
G04 #@! TD*
G04 #@! TO.C,R1*
X63000000Y-60000000D03*
X65000000Y-60000000D03*
G04 #@! TD*
G04 #@! TO.C,R9*
X127609983Y-60000000D03*
X129609983Y-60000000D03*
G04 #@! TD*
D14*
G04 #@! TO.C,R12*
X134000000Y-66000000D03*
X132000000Y-66000000D03*
G04 #@! TD*
G04 #@! TO.C,R11*
X134000000Y-60000000D03*
X132000000Y-60000000D03*
G04 #@! TD*
M02*
