  0
SECTION
  2
HEADER
  9
$ANGBASE
  50
0.0
  9
$ANGDIR
  70
1
  9
$MEASUREMENT
  70
1
  0
ENDSEC
  0
SECTION
  2
TABLES
  0
TABLE
  2
LTYPE
  70
4
  0
LTYPE
  5
40F
  2
CONTINUOUS
  70
0
  3
Solid line
  72
65
  73
0
  40
0.0
  0
LTYPE
  5
410
  2
DASHDOT
 70
0
  3
Dash Dot ____ _ ____ _
 72
65
 73
4
 40
2.0
 49
1.25
 49
-0.25
 49
0.25
 49
-0.25
  0
LTYPE
  5
411
  2
DASHED
 70
0
  3
Dashed __ __ __ __ __
 72
65
 73
2
 40
0.75
 49
0.5
 49
-0.25
  0
LTYPE
  5
43B
  2
DOTTED
 70
0
  3
Dotted .  .  .  .
 72
65
 73
2
 40
0.2
 49
0.0
 49
-0.2
  0
ENDTAB
  0
TABLE
  2
STYLE
  70
4
  0
STYLE
  2
KICAD
  70
0
  40
0
  41
1
  42
1
  50
0
  71
0
  3
isocp.shx
  0
STYLE
  2
KICADB
  70
0
  40
0
  41
1
  42
1
  50
0
  71
0
  3
isocp.shx
  0
STYLE
  2
KICADI
  70
0
  40
0
  41
1
  42
1
  50
15
  71
0
  3
isocp.shx
  0
STYLE
  2
KICADBI
  70
0
  40
0
  41
1
  42
1
  50
15
  71
0
  3
isocp.shx
  0
ENDTAB
  0
TABLE
  2
LAYER
  70
1
  0
LAYER
  2
BLACK
  70
0
  62
7
  6
CONTINUOUS
  0
ENDTAB
  0
ENDSEC
  0
SECTION
  2
ENTITIES
0
LINE
8
BLACK
6
CONTINUOUS
10
63.4456709999999973
20
-65.3190299999999979
11
63.5267769999999956
21
-65.3732229999999959
0
LINE
8
BLACK
6
CONTINUOUS
10
63.5267769999999956
20
-65.3732229999999959
11
63.5809700000000007
21
-65.4543290000000013
0
LINE
8
BLACK
6
CONTINUOUS
10
63.5809700000000007
20
-65.4543290000000013
11
63.5999999999999943
21
-65.5499999999999972
0
LINE
8
BLACK
6
CONTINUOUS
10
63.5999999999999943
20
-65.5499999999999972
11
63.5999999999999943
21
-66.4500000000000028
0
LINE
8
BLACK
6
CONTINUOUS
10
63.5999999999999943
20
-66.4500000000000028
11
63.5809700000000007
21
-66.5456709999999987
0
LINE
8
BLACK
6
CONTINUOUS
10
63.5809700000000007
20
-66.5456709999999987
11
63.5267769999999956
21
-66.6267769999999899
0
LINE
8
BLACK
6
CONTINUOUS
10
63.5267769999999956
20
-66.6267769999999899
11
63.4456709999999973
21
-66.6809700000000021
0
LINE
8
BLACK
6
CONTINUOUS
10
63.4456709999999973
20
-66.6809700000000021
11
63.3499999999999943
21
-66.7000000000000028
0
LINE
8
BLACK
6
CONTINUOUS
10
63.3499999999999943
20
-66.7000000000000028
11
62.6499999999999986
21
-66.7000000000000028
0
LINE
8
BLACK
6
CONTINUOUS
10
62.6499999999999986
20
-66.7000000000000028
11
62.5543289999999956
21
-66.6809700000000021
0
LINE
8
BLACK
6
CONTINUOUS
10
62.5543289999999956
20
-66.6809700000000021
11
62.4732229999999973
21
-66.6267769999999899
0
LINE
8
BLACK
6
CONTINUOUS
10
62.4732229999999973
20
-66.6267769999999899
11
62.4190299999999993
21
-66.5456709999999987
0
LINE
8
BLACK
6
CONTINUOUS
10
62.4190299999999993
20
-66.5456709999999987
11
62.3999999999999986
21
-66.4500000000000028
0
LINE
8
BLACK
6
CONTINUOUS
10
62.3999999999999986
20
-66.4500000000000028
11
62.3999999999999986
21
-65.5499999999999972
0
LINE
8
BLACK
6
CONTINUOUS
10
62.3999999999999986
20
-65.5499999999999972
11
62.4190299999999993
21
-65.4543290000000013
0
LINE
8
BLACK
6
CONTINUOUS
10
62.4190299999999993
20
-65.4543290000000013
11
62.4732229999999973
21
-65.3732229999999959
0
LINE
8
BLACK
6
CONTINUOUS
10
62.4732229999999973
20
-65.3732229999999959
11
62.5543289999999956
21
-65.3190299999999979
0
LINE
8
BLACK
6
CONTINUOUS
10
62.5543289999999956
20
-65.3190299999999979
11
62.6499999999999986
21
-65.2999999999999972
0
LINE
8
BLACK
6
CONTINUOUS
10
62.6499999999999986
20
-65.2999999999999972
11
63.3499999999999943
21
-65.2999999999999972
0
LINE
8
BLACK
6
CONTINUOUS
10
63.3499999999999943
20
-65.2999999999999972
11
63.4456709999999973
21
-65.3190299999999979
0
LINE
8
BLACK
6
CONTINUOUS
10
65.4456709999999902
20
-65.3190299999999979
11
65.5267769999999956
21
-65.3732229999999959
0
LINE
8
BLACK
6
CONTINUOUS
10
65.5267769999999956
20
-65.3732229999999959
11
65.5809699999999935
21
-65.4543290000000013
0
LINE
8
BLACK
6
CONTINUOUS
10
65.5809699999999935
20
-65.4543290000000013
11
65.5999999999999943
21
-65.5499999999999972
0
LINE
8
BLACK
6
CONTINUOUS
10
65.5999999999999943
20
-65.5499999999999972
11
65.5999999999999943
21
-66.4500000000000028
0
LINE
8
BLACK
6
CONTINUOUS
10
65.5999999999999943
20
-66.4500000000000028
11
65.5809699999999935
21
-66.5456709999999987
0
LINE
8
BLACK
6
CONTINUOUS
10
65.5809699999999935
20
-66.5456709999999987
11
65.5267769999999956
21
-66.6267769999999899
0
LINE
8
BLACK
6
CONTINUOUS
10
65.5267769999999956
20
-66.6267769999999899
11
65.4456709999999902
21
-66.6809700000000021
0
LINE
8
BLACK
6
CONTINUOUS
10
65.4456709999999902
20
-66.6809700000000021
11
65.3499999999999943
21
-66.7000000000000028
0
LINE
8
BLACK
6
CONTINUOUS
10
65.3499999999999943
20
-66.7000000000000028
11
64.6499999999999915
21
-66.7000000000000028
0
LINE
8
BLACK
6
CONTINUOUS
10
64.6499999999999915
20
-66.7000000000000028
11
64.5543289999999956
21
-66.6809700000000021
0
LINE
8
BLACK
6
CONTINUOUS
10
64.5543289999999956
20
-66.6809700000000021
11
64.4732229999999902
21
-66.6267769999999899
0
LINE
8
BLACK
6
CONTINUOUS
10
64.4732229999999902
20
-66.6267769999999899
11
64.4190299999999922
21
-66.5456709999999987
0
LINE
8
BLACK
6
CONTINUOUS
10
64.4190299999999922
20
-66.5456709999999987
11
64.3999999999999915
21
-66.4500000000000028
0
LINE
8
BLACK
6
CONTINUOUS
10
64.3999999999999915
20
-66.4500000000000028
11
64.3999999999999915
21
-65.5499999999999972
0
LINE
8
BLACK
6
CONTINUOUS
10
64.3999999999999915
20
-65.5499999999999972
11
64.4190299999999922
21
-65.4543290000000013
0
LINE
8
BLACK
6
CONTINUOUS
10
64.4190299999999922
20
-65.4543290000000013
11
64.4732229999999902
21
-65.3732229999999959
0
LINE
8
BLACK
6
CONTINUOUS
10
64.4732229999999902
20
-65.3732229999999959
11
64.5543289999999956
21
-65.3190299999999979
0
LINE
8
BLACK
6
CONTINUOUS
10
64.5543289999999956
20
-65.3190299999999979
11
64.6499999999999915
21
-65.2999999999999972
0
LINE
8
BLACK
6
CONTINUOUS
10
64.6499999999999915
20
-65.2999999999999972
11
65.3499999999999943
21
-65.2999999999999972
0
LINE
8
BLACK
6
CONTINUOUS
10
65.3499999999999943
20
-65.2999999999999972
11
65.4456709999999902
21
-65.3190299999999979
0
LINE
8
BLACK
6
CONTINUOUS
10
80.0556539999999899
20
-65.3190299999999979
11
80.1367599999999953
21
-65.3732229999999959
0
LINE
8
BLACK
6
CONTINUOUS
10
80.1367599999999953
20
-65.3732229999999959
11
80.1909529999999933
21
-65.4543290000000013
0
LINE
8
BLACK
6
CONTINUOUS
10
80.1909529999999933
20
-65.4543290000000013
11
80.209982999999994
21
-65.5499999999999972
0
LINE
8
BLACK
6
CONTINUOUS
10
80.209982999999994
20
-65.5499999999999972
11
80.209982999999994
21
-66.4500000000000028
0
LINE
8
BLACK
6
CONTINUOUS
10
80.209982999999994
20
-66.4500000000000028
11
80.1909529999999933
21
-66.5456709999999987
0
LINE
8
BLACK
6
CONTINUOUS
10
80.1909529999999933
20
-66.5456709999999987
11
80.1367599999999953
21
-66.6267769999999899
0
LINE
8
BLACK
6
CONTINUOUS
10
80.1367599999999953
20
-66.6267769999999899
11
80.0556539999999899
21
-66.6809700000000021
0
LINE
8
BLACK
6
CONTINUOUS
10
80.0556539999999899
20
-66.6809700000000021
11
79.959982999999994
21
-66.7000000000000028
0
LINE
8
BLACK
6
CONTINUOUS
10
79.959982999999994
20
-66.7000000000000028
11
79.2599829999999912
21
-66.7000000000000028
0
LINE
8
BLACK
6
CONTINUOUS
10
79.2599829999999912
20
-66.7000000000000028
11
79.1643119999999954
21
-66.6809700000000021
0
LINE
8
BLACK
6
CONTINUOUS
10
79.1643119999999954
20
-66.6809700000000021
11
79.0832059999999899
21
-66.6267769999999899
0
LINE
8
BLACK
6
CONTINUOUS
10
79.0832059999999899
20
-66.6267769999999899
11
79.029012999999992
21
-66.5456709999999987
0
LINE
8
BLACK
6
CONTINUOUS
10
79.029012999999992
20
-66.5456709999999987
11
79.0099829999999912
21
-66.4500000000000028
0
LINE
8
BLACK
6
CONTINUOUS
10
79.0099829999999912
20
-66.4500000000000028
11
79.0099829999999912
21
-65.5499999999999972
0
LINE
8
BLACK
6
CONTINUOUS
10
79.0099829999999912
20
-65.5499999999999972
11
79.029012999999992
21
-65.4543290000000013
0
LINE
8
BLACK
6
CONTINUOUS
10
79.029012999999992
20
-65.4543290000000013
11
79.0832059999999899
21
-65.3732229999999959
0
LINE
8
BLACK
6
CONTINUOUS
10
79.0832059999999899
20
-65.3732229999999959
11
79.1643119999999954
21
-65.3190299999999979
0
LINE
8
BLACK
6
CONTINUOUS
10
79.1643119999999954
20
-65.3190299999999979
11
79.2599829999999912
21
-65.2999999999999972
0
LINE
8
BLACK
6
CONTINUOUS
10
79.2599829999999912
20
-65.2999999999999972
11
79.959982999999994
21
-65.2999999999999972
0
LINE
8
BLACK
6
CONTINUOUS
10
79.959982999999994
20
-65.2999999999999972
11
80.0556539999999899
21
-65.3190299999999979
0
LINE
8
BLACK
6
CONTINUOUS
10
82.0556539999999899
20
-65.3190299999999979
11
82.1367599999999953
21
-65.3732229999999959
0
LINE
8
BLACK
6
CONTINUOUS
10
82.1367599999999953
20
-65.3732229999999959
11
82.1909529999999933
21
-65.4543290000000013
0
LINE
8
BLACK
6
CONTINUOUS
10
82.1909529999999933
20
-65.4543290000000013
11
82.209982999999994
21
-65.5499999999999972
0
LINE
8
BLACK
6
CONTINUOUS
10
82.209982999999994
20
-65.5499999999999972
11
82.209982999999994
21
-66.4500000000000028
0
LINE
8
BLACK
6
CONTINUOUS
10
82.209982999999994
20
-66.4500000000000028
11
82.1909529999999933
21
-66.5456709999999987
0
LINE
8
BLACK
6
CONTINUOUS
10
82.1909529999999933
20
-66.5456709999999987
11
82.1367599999999953
21
-66.6267769999999899
0
LINE
8
BLACK
6
CONTINUOUS
10
82.1367599999999953
20
-66.6267769999999899
11
82.0556539999999899
21
-66.6809700000000021
0
LINE
8
BLACK
6
CONTINUOUS
10
82.0556539999999899
20
-66.6809700000000021
11
81.959982999999994
21
-66.7000000000000028
0
LINE
8
BLACK
6
CONTINUOUS
10
81.959982999999994
20
-66.7000000000000028
11
81.2599829999999912
21
-66.7000000000000028
0
LINE
8
BLACK
6
CONTINUOUS
10
81.2599829999999912
20
-66.7000000000000028
11
81.1643119999999954
21
-66.6809700000000021
0
LINE
8
BLACK
6
CONTINUOUS
10
81.1643119999999954
20
-66.6809700000000021
11
81.0832059999999899
21
-66.6267769999999899
0
LINE
8
BLACK
6
CONTINUOUS
10
81.0832059999999899
20
-66.6267769999999899
11
81.029012999999992
21
-66.5456709999999987
0
LINE
8
BLACK
6
CONTINUOUS
10
81.029012999999992
20
-66.5456709999999987
11
81.0099829999999912
21
-66.4500000000000028
0
LINE
8
BLACK
6
CONTINUOUS
10
81.0099829999999912
20
-66.4500000000000028
11
81.0099829999999912
21
-65.5499999999999972
0
LINE
8
BLACK
6
CONTINUOUS
10
81.0099829999999912
20
-65.5499999999999972
11
81.029012999999992
21
-65.4543290000000013
0
LINE
8
BLACK
6
CONTINUOUS
10
81.029012999999992
20
-65.4543290000000013
11
81.0832059999999899
21
-65.3732229999999959
0
LINE
8
BLACK
6
CONTINUOUS
10
81.0832059999999899
20
-65.3732229999999959
11
81.1643119999999954
21
-65.3190299999999979
0
LINE
8
BLACK
6
CONTINUOUS
10
81.1643119999999954
20
-65.3190299999999979
11
81.2599829999999912
21
-65.2999999999999972
0
LINE
8
BLACK
6
CONTINUOUS
10
81.2599829999999912
20
-65.2999999999999972
11
81.959982999999994
21
-65.2999999999999972
0
LINE
8
BLACK
6
CONTINUOUS
10
81.959982999999994
20
-65.2999999999999972
11
82.0556539999999899
21
-65.3190299999999979
0
LINE
8
BLACK
6
CONTINUOUS
10
96.0556539999999899
20
-65.3190299999999979
11
96.1367599999999953
21
-65.3732229999999959
0
LINE
8
BLACK
6
CONTINUOUS
10
96.1367599999999953
20
-65.3732229999999959
11
96.1909529999999933
21
-65.4543290000000013
0
LINE
8
BLACK
6
CONTINUOUS
10
96.1909529999999933
20
-65.4543290000000013
11
96.209982999999994
21
-65.5499999999999972
0
LINE
8
BLACK
6
CONTINUOUS
10
96.209982999999994
20
-65.5499999999999972
11
96.209982999999994
21
-66.4500000000000028
0
LINE
8
BLACK
6
CONTINUOUS
10
96.209982999999994
20
-66.4500000000000028
11
96.1909529999999933
21
-66.5456709999999987
0
LINE
8
BLACK
6
CONTINUOUS
10
96.1909529999999933
20
-66.5456709999999987
11
96.1367599999999953
21
-66.6267769999999899
0
LINE
8
BLACK
6
CONTINUOUS
10
96.1367599999999953
20
-66.6267769999999899
11
96.0556539999999899
21
-66.6809700000000021
0
LINE
8
BLACK
6
CONTINUOUS
10
96.0556539999999899
20
-66.6809700000000021
11
95.959982999999994
21
-66.7000000000000028
0
LINE
8
BLACK
6
CONTINUOUS
10
95.959982999999994
20
-66.7000000000000028
11
95.2599829999999912
21
-66.7000000000000028
0
LINE
8
BLACK
6
CONTINUOUS
10
95.2599829999999912
20
-66.7000000000000028
11
95.1643119999999954
21
-66.6809700000000021
0
LINE
8
BLACK
6
CONTINUOUS
10
95.1643119999999954
20
-66.6809700000000021
11
95.0832059999999899
21
-66.6267769999999899
0
LINE
8
BLACK
6
CONTINUOUS
10
95.0832059999999899
20
-66.6267769999999899
11
95.029012999999992
21
-66.5456709999999987
0
LINE
8
BLACK
6
CONTINUOUS
10
95.029012999999992
20
-66.5456709999999987
11
95.0099829999999912
21
-66.4500000000000028
0
LINE
8
BLACK
6
CONTINUOUS
10
95.0099829999999912
20
-66.4500000000000028
11
95.0099829999999912
21
-65.5499999999999972
0
LINE
8
BLACK
6
CONTINUOUS
10
95.0099829999999912
20
-65.5499999999999972
11
95.029012999999992
21
-65.4543290000000013
0
LINE
8
BLACK
6
CONTINUOUS
10
95.029012999999992
20
-65.4543290000000013
11
95.0832059999999899
21
-65.3732229999999959
0
LINE
8
BLACK
6
CONTINUOUS
10
95.0832059999999899
20
-65.3732229999999959
11
95.1643119999999954
21
-65.3190299999999979
0
LINE
8
BLACK
6
CONTINUOUS
10
95.1643119999999954
20
-65.3190299999999979
11
95.2599829999999912
21
-65.2999999999999972
0
LINE
8
BLACK
6
CONTINUOUS
10
95.2599829999999912
20
-65.2999999999999972
11
95.959982999999994
21
-65.2999999999999972
0
LINE
8
BLACK
6
CONTINUOUS
10
95.959982999999994
20
-65.2999999999999972
11
96.0556539999999899
21
-65.3190299999999979
0
LINE
8
BLACK
6
CONTINUOUS
10
98.0556539999999899
20
-65.3190299999999979
11
98.1367599999999953
21
-65.3732229999999959
0
LINE
8
BLACK
6
CONTINUOUS
10
98.1367599999999953
20
-65.3732229999999959
11
98.1909529999999933
21
-65.4543290000000013
0
LINE
8
BLACK
6
CONTINUOUS
10
98.1909529999999933
20
-65.4543290000000013
11
98.209982999999994
21
-65.5499999999999972
0
LINE
8
BLACK
6
CONTINUOUS
10
98.209982999999994
20
-65.5499999999999972
11
98.209982999999994
21
-66.4500000000000028
0
LINE
8
BLACK
6
CONTINUOUS
10
98.209982999999994
20
-66.4500000000000028
11
98.1909529999999933
21
-66.5456709999999987
0
LINE
8
BLACK
6
CONTINUOUS
10
98.1909529999999933
20
-66.5456709999999987
11
98.1367599999999953
21
-66.6267769999999899
0
LINE
8
BLACK
6
CONTINUOUS
10
98.1367599999999953
20
-66.6267769999999899
11
98.0556539999999899
21
-66.6809700000000021
0
LINE
8
BLACK
6
CONTINUOUS
10
98.0556539999999899
20
-66.6809700000000021
11
97.959982999999994
21
-66.7000000000000028
0
LINE
8
BLACK
6
CONTINUOUS
10
97.959982999999994
20
-66.7000000000000028
11
97.2599829999999912
21
-66.7000000000000028
0
LINE
8
BLACK
6
CONTINUOUS
10
97.2599829999999912
20
-66.7000000000000028
11
97.1643119999999954
21
-66.6809700000000021
0
LINE
8
BLACK
6
CONTINUOUS
10
97.1643119999999954
20
-66.6809700000000021
11
97.0832059999999899
21
-66.6267769999999899
0
LINE
8
BLACK
6
CONTINUOUS
10
97.0832059999999899
20
-66.6267769999999899
11
97.029012999999992
21
-66.5456709999999987
0
LINE
8
BLACK
6
CONTINUOUS
10
97.029012999999992
20
-66.5456709999999987
11
97.0099829999999912
21
-66.4500000000000028
0
LINE
8
BLACK
6
CONTINUOUS
10
97.0099829999999912
20
-66.4500000000000028
11
97.0099829999999912
21
-65.5499999999999972
0
LINE
8
BLACK
6
CONTINUOUS
10
97.0099829999999912
20
-65.5499999999999972
11
97.029012999999992
21
-65.4543290000000013
0
LINE
8
BLACK
6
CONTINUOUS
10
97.029012999999992
20
-65.4543290000000013
11
97.0832059999999899
21
-65.3732229999999959
0
LINE
8
BLACK
6
CONTINUOUS
10
97.0832059999999899
20
-65.3732229999999959
11
97.1643119999999954
21
-65.3190299999999979
0
LINE
8
BLACK
6
CONTINUOUS
10
97.1643119999999954
20
-65.3190299999999979
11
97.2599829999999912
21
-65.2999999999999972
0
LINE
8
BLACK
6
CONTINUOUS
10
97.2599829999999912
20
-65.2999999999999972
11
97.959982999999994
21
-65.2999999999999972
0
LINE
8
BLACK
6
CONTINUOUS
10
97.959982999999994
20
-65.2999999999999972
11
98.0556539999999899
21
-65.3190299999999979
0
LINE
8
BLACK
6
CONTINUOUS
10
112.0556539999999899
20
-65.3190299999999979
11
112.1367599999999953
21
-65.3732229999999959
0
LINE
8
BLACK
6
CONTINUOUS
10
112.1367599999999953
20
-65.3732229999999959
11
112.1909529999999933
21
-65.4543290000000013
0
LINE
8
BLACK
6
CONTINUOUS
10
112.1909529999999933
20
-65.4543290000000013
11
112.209982999999994
21
-65.5499999999999972
0
LINE
8
BLACK
6
CONTINUOUS
10
112.209982999999994
20
-65.5499999999999972
11
112.209982999999994
21
-66.4500000000000028
0
LINE
8
BLACK
6
CONTINUOUS
10
112.209982999999994
20
-66.4500000000000028
11
112.1909529999999933
21
-66.5456709999999987
0
LINE
8
BLACK
6
CONTINUOUS
10
112.1909529999999933
20
-66.5456709999999987
11
112.1367599999999953
21
-66.6267769999999899
0
LINE
8
BLACK
6
CONTINUOUS
10
112.1367599999999953
20
-66.6267769999999899
11
112.0556539999999899
21
-66.6809700000000021
0
LINE
8
BLACK
6
CONTINUOUS
10
112.0556539999999899
20
-66.6809700000000021
11
111.959982999999994
21
-66.7000000000000028
0
LINE
8
BLACK
6
CONTINUOUS
10
111.959982999999994
20
-66.7000000000000028
11
111.2599829999999912
21
-66.7000000000000028
0
LINE
8
BLACK
6
CONTINUOUS
10
111.2599829999999912
20
-66.7000000000000028
11
111.1643119999999954
21
-66.6809700000000021
0
LINE
8
BLACK
6
CONTINUOUS
10
111.1643119999999954
20
-66.6809700000000021
11
111.0832059999999899
21
-66.6267769999999899
0
LINE
8
BLACK
6
CONTINUOUS
10
111.0832059999999899
20
-66.6267769999999899
11
111.029012999999992
21
-66.5456709999999987
0
LINE
8
BLACK
6
CONTINUOUS
10
111.029012999999992
20
-66.5456709999999987
11
111.0099829999999912
21
-66.4500000000000028
0
LINE
8
BLACK
6
CONTINUOUS
10
111.0099829999999912
20
-66.4500000000000028
11
111.0099829999999912
21
-65.5499999999999972
0
LINE
8
BLACK
6
CONTINUOUS
10
111.0099829999999912
20
-65.5499999999999972
11
111.029012999999992
21
-65.4543290000000013
0
LINE
8
BLACK
6
CONTINUOUS
10
111.029012999999992
20
-65.4543290000000013
11
111.0832059999999899
21
-65.3732229999999959
0
LINE
8
BLACK
6
CONTINUOUS
10
111.0832059999999899
20
-65.3732229999999959
11
111.1643119999999954
21
-65.3190299999999979
0
LINE
8
BLACK
6
CONTINUOUS
10
111.1643119999999954
20
-65.3190299999999979
11
111.2599829999999912
21
-65.2999999999999972
0
LINE
8
BLACK
6
CONTINUOUS
10
111.2599829999999912
20
-65.2999999999999972
11
111.959982999999994
21
-65.2999999999999972
0
LINE
8
BLACK
6
CONTINUOUS
10
111.959982999999994
20
-65.2999999999999972
11
112.0556539999999899
21
-65.3190299999999979
0
LINE
8
BLACK
6
CONTINUOUS
10
114.0556539999999899
20
-65.3190299999999979
11
114.1367599999999953
21
-65.3732229999999959
0
LINE
8
BLACK
6
CONTINUOUS
10
114.1367599999999953
20
-65.3732229999999959
11
114.1909529999999933
21
-65.4543290000000013
0
LINE
8
BLACK
6
CONTINUOUS
10
114.1909529999999933
20
-65.4543290000000013
11
114.209982999999994
21
-65.5499999999999972
0
LINE
8
BLACK
6
CONTINUOUS
10
114.209982999999994
20
-65.5499999999999972
11
114.209982999999994
21
-66.4500000000000028
0
LINE
8
BLACK
6
CONTINUOUS
10
114.209982999999994
20
-66.4500000000000028
11
114.1909529999999933
21
-66.5456709999999987
0
LINE
8
BLACK
6
CONTINUOUS
10
114.1909529999999933
20
-66.5456709999999987
11
114.1367599999999953
21
-66.6267769999999899
0
LINE
8
BLACK
6
CONTINUOUS
10
114.1367599999999953
20
-66.6267769999999899
11
114.0556539999999899
21
-66.6809700000000021
0
LINE
8
BLACK
6
CONTINUOUS
10
114.0556539999999899
20
-66.6809700000000021
11
113.959982999999994
21
-66.7000000000000028
0
LINE
8
BLACK
6
CONTINUOUS
10
113.959982999999994
20
-66.7000000000000028
11
113.2599829999999912
21
-66.7000000000000028
0
LINE
8
BLACK
6
CONTINUOUS
10
113.2599829999999912
20
-66.7000000000000028
11
113.1643119999999954
21
-66.6809700000000021
0
LINE
8
BLACK
6
CONTINUOUS
10
113.1643119999999954
20
-66.6809700000000021
11
113.0832059999999899
21
-66.6267769999999899
0
LINE
8
BLACK
6
CONTINUOUS
10
113.0832059999999899
20
-66.6267769999999899
11
113.029012999999992
21
-66.5456709999999987
0
LINE
8
BLACK
6
CONTINUOUS
10
113.029012999999992
20
-66.5456709999999987
11
113.0099829999999912
21
-66.4500000000000028
0
LINE
8
BLACK
6
CONTINUOUS
10
113.0099829999999912
20
-66.4500000000000028
11
113.0099829999999912
21
-65.5499999999999972
0
LINE
8
BLACK
6
CONTINUOUS
10
113.0099829999999912
20
-65.5499999999999972
11
113.029012999999992
21
-65.4543290000000013
0
LINE
8
BLACK
6
CONTINUOUS
10
113.029012999999992
20
-65.4543290000000013
11
113.0832059999999899
21
-65.3732229999999959
0
LINE
8
BLACK
6
CONTINUOUS
10
113.0832059999999899
20
-65.3732229999999959
11
113.1643119999999954
21
-65.3190299999999979
0
LINE
8
BLACK
6
CONTINUOUS
10
113.1643119999999954
20
-65.3190299999999979
11
113.2599829999999912
21
-65.2999999999999972
0
LINE
8
BLACK
6
CONTINUOUS
10
113.2599829999999912
20
-65.2999999999999972
11
113.959982999999994
21
-65.2999999999999972
0
LINE
8
BLACK
6
CONTINUOUS
10
113.959982999999994
20
-65.2999999999999972
11
114.0556539999999899
21
-65.3190299999999979
0
LINE
8
BLACK
6
CONTINUOUS
10
128.0556540000000041
20
-65.3190299999999979
11
128.1367599999999811
21
-65.3732229999999959
0
LINE
8
BLACK
6
CONTINUOUS
10
128.1367599999999811
20
-65.3732229999999959
11
128.1909530000000075
21
-65.4543290000000013
0
LINE
8
BLACK
6
CONTINUOUS
10
128.1909530000000075
20
-65.4543290000000013
11
128.209982999999994
21
-65.5499999999999972
0
LINE
8
BLACK
6
CONTINUOUS
10
128.209982999999994
20
-65.5499999999999972
11
128.209982999999994
21
-66.4500000000000028
0
LINE
8
BLACK
6
CONTINUOUS
10
128.209982999999994
20
-66.4500000000000028
11
128.1909530000000075
21
-66.5456709999999987
0
LINE
8
BLACK
6
CONTINUOUS
10
128.1909530000000075
20
-66.5456709999999987
11
128.1367599999999811
21
-66.6267769999999899
0
LINE
8
BLACK
6
CONTINUOUS
10
128.1367599999999811
20
-66.6267769999999899
11
128.0556540000000041
21
-66.6809700000000021
0
LINE
8
BLACK
6
CONTINUOUS
10
128.0556540000000041
20
-66.6809700000000021
11
127.959982999999994
21
-66.7000000000000028
0
LINE
8
BLACK
6
CONTINUOUS
10
127.959982999999994
20
-66.7000000000000028
11
127.2599829999999912
21
-66.7000000000000028
0
LINE
8
BLACK
6
CONTINUOUS
10
127.2599829999999912
20
-66.7000000000000028
11
127.1643119999999954
21
-66.6809700000000021
0
LINE
8
BLACK
6
CONTINUOUS
10
127.1643119999999954
20
-66.6809700000000021
11
127.0832059999999899
21
-66.6267769999999899
0
LINE
8
BLACK
6
CONTINUOUS
10
127.0832059999999899
20
-66.6267769999999899
11
127.029012999999992
21
-66.5456709999999987
0
LINE
8
BLACK
6
CONTINUOUS
10
127.029012999999992
20
-66.5456709999999987
11
127.0099829999999912
21
-66.4500000000000028
0
LINE
8
BLACK
6
CONTINUOUS
10
127.0099829999999912
20
-66.4500000000000028
11
127.0099829999999912
21
-65.5499999999999972
0
LINE
8
BLACK
6
CONTINUOUS
10
127.0099829999999912
20
-65.5499999999999972
11
127.029012999999992
21
-65.4543290000000013
0
LINE
8
BLACK
6
CONTINUOUS
10
127.029012999999992
20
-65.4543290000000013
11
127.0832059999999899
21
-65.3732229999999959
0
LINE
8
BLACK
6
CONTINUOUS
10
127.0832059999999899
20
-65.3732229999999959
11
127.1643119999999954
21
-65.3190299999999979
0
LINE
8
BLACK
6
CONTINUOUS
10
127.1643119999999954
20
-65.3190299999999979
11
127.2599829999999912
21
-65.2999999999999972
0
LINE
8
BLACK
6
CONTINUOUS
10
127.2599829999999912
20
-65.2999999999999972
11
127.959982999999994
21
-65.2999999999999972
0
LINE
8
BLACK
6
CONTINUOUS
10
127.959982999999994
20
-65.2999999999999972
11
128.0556540000000041
21
-65.3190299999999979
0
LINE
8
BLACK
6
CONTINUOUS
10
130.0556540000000041
20
-65.3190299999999979
11
130.1367599999999811
21
-65.3732229999999959
0
LINE
8
BLACK
6
CONTINUOUS
10
130.1367599999999811
20
-65.3732229999999959
11
130.1909530000000075
21
-65.4543290000000013
0
LINE
8
BLACK
6
CONTINUOUS
10
130.1909530000000075
20
-65.4543290000000013
11
130.209982999999994
21
-65.5499999999999972
0
LINE
8
BLACK
6
CONTINUOUS
10
130.209982999999994
20
-65.5499999999999972
11
130.209982999999994
21
-66.4500000000000028
0
LINE
8
BLACK
6
CONTINUOUS
10
130.209982999999994
20
-66.4500000000000028
11
130.1909530000000075
21
-66.5456709999999987
0
LINE
8
BLACK
6
CONTINUOUS
10
130.1909530000000075
20
-66.5456709999999987
11
130.1367599999999811
21
-66.6267769999999899
0
LINE
8
BLACK
6
CONTINUOUS
10
130.1367599999999811
20
-66.6267769999999899
11
130.0556540000000041
21
-66.6809700000000021
0
LINE
8
BLACK
6
CONTINUOUS
10
130.0556540000000041
20
-66.6809700000000021
11
129.959982999999994
21
-66.7000000000000028
0
LINE
8
BLACK
6
CONTINUOUS
10
129.959982999999994
20
-66.7000000000000028
11
129.2599830000000054
21
-66.7000000000000028
0
LINE
8
BLACK
6
CONTINUOUS
10
129.2599830000000054
20
-66.7000000000000028
11
129.1643119999999954
21
-66.6809700000000021
0
LINE
8
BLACK
6
CONTINUOUS
10
129.1643119999999954
20
-66.6809700000000021
11
129.0832059999999899
21
-66.6267769999999899
0
LINE
8
BLACK
6
CONTINUOUS
10
129.0832059999999899
20
-66.6267769999999899
11
129.029012999999992
21
-66.5456709999999987
0
LINE
8
BLACK
6
CONTINUOUS
10
129.029012999999992
20
-66.5456709999999987
11
129.0099830000000054
21
-66.4500000000000028
0
LINE
8
BLACK
6
CONTINUOUS
10
129.0099830000000054
20
-66.4500000000000028
11
129.0099830000000054
21
-65.5499999999999972
0
LINE
8
BLACK
6
CONTINUOUS
10
129.0099830000000054
20
-65.5499999999999972
11
129.029012999999992
21
-65.4543290000000013
0
LINE
8
BLACK
6
CONTINUOUS
10
129.029012999999992
20
-65.4543290000000013
11
129.0832059999999899
21
-65.3732229999999959
0
LINE
8
BLACK
6
CONTINUOUS
10
129.0832059999999899
20
-65.3732229999999959
11
129.1643119999999954
21
-65.3190299999999979
0
LINE
8
BLACK
6
CONTINUOUS
10
129.1643119999999954
20
-65.3190299999999979
11
129.2599830000000054
21
-65.2999999999999972
0
LINE
8
BLACK
6
CONTINUOUS
10
129.2599830000000054
20
-65.2999999999999972
11
129.959982999999994
21
-65.2999999999999972
0
LINE
8
BLACK
6
CONTINUOUS
10
129.959982999999994
20
-65.2999999999999972
11
130.0556540000000041
21
-65.3190299999999979
0
LINE
8
BLACK
6
CONTINUOUS
10
132.4456710000000044
20
-65.3190299999999979
11
132.5267769999999814
21
-65.3732229999999959
0
LINE
8
BLACK
6
CONTINUOUS
10
132.5267769999999814
20
-65.3732229999999959
11
132.5809700000000078
21
-65.4543290000000013
0
LINE
8
BLACK
6
CONTINUOUS
10
132.5809700000000078
20
-65.4543290000000013
11
132.5999999999999943
21
-65.5499999999999972
0
LINE
8
BLACK
6
CONTINUOUS
10
132.5999999999999943
20
-65.5499999999999972
11
132.5999999999999943
21
-66.4500000000000028
0
LINE
8
BLACK
6
CONTINUOUS
10
132.5999999999999943
20
-66.4500000000000028
11
132.5809700000000078
21
-66.5456709999999987
0
LINE
8
BLACK
6
CONTINUOUS
10
132.5809700000000078
20
-66.5456709999999987
11
132.5267769999999814
21
-66.6267769999999899
0
LINE
8
BLACK
6
CONTINUOUS
10
132.5267769999999814
20
-66.6267769999999899
11
132.4456710000000044
21
-66.6809700000000021
0
LINE
8
BLACK
6
CONTINUOUS
10
132.4456710000000044
20
-66.6809700000000021
11
132.3499999999999943
21
-66.7000000000000028
0
LINE
8
BLACK
6
CONTINUOUS
10
132.3499999999999943
20
-66.7000000000000028
11
131.6500000000000057
21
-66.7000000000000028
0
LINE
8
BLACK
6
CONTINUOUS
10
131.6500000000000057
20
-66.7000000000000028
11
131.5543289999999956
21
-66.6809700000000021
0
LINE
8
BLACK
6
CONTINUOUS
10
131.5543289999999956
20
-66.6809700000000021
11
131.4732229999999902
21
-66.6267769999999899
0
LINE
8
BLACK
6
CONTINUOUS
10
131.4732229999999902
20
-66.6267769999999899
11
131.4190299999999922
21
-66.5456709999999987
0
LINE
8
BLACK
6
CONTINUOUS
10
131.4190299999999922
20
-66.5456709999999987
11
131.4000000000000057
21
-66.4500000000000028
0
LINE
8
BLACK
6
CONTINUOUS
10
131.4000000000000057
20
-66.4500000000000028
11
131.4000000000000057
21
-65.5499999999999972
0
LINE
8
BLACK
6
CONTINUOUS
10
131.4000000000000057
20
-65.5499999999999972
11
131.4190299999999922
21
-65.4543290000000013
0
LINE
8
BLACK
6
CONTINUOUS
10
131.4190299999999922
20
-65.4543290000000013
11
131.4732229999999902
21
-65.3732229999999959
0
LINE
8
BLACK
6
CONTINUOUS
10
131.4732229999999902
20
-65.3732229999999959
11
131.5543289999999956
21
-65.3190299999999979
0
LINE
8
BLACK
6
CONTINUOUS
10
131.5543289999999956
20
-65.3190299999999979
11
131.6500000000000057
21
-65.2999999999999972
0
LINE
8
BLACK
6
CONTINUOUS
10
131.6500000000000057
20
-65.2999999999999972
11
132.3499999999999943
21
-65.2999999999999972
0
LINE
8
BLACK
6
CONTINUOUS
10
132.3499999999999943
20
-65.2999999999999972
11
132.4456710000000044
21
-65.3190299999999979
0
LINE
8
BLACK
6
CONTINUOUS
10
134.4456710000000044
20
-65.3190299999999979
11
134.5267769999999814
21
-65.3732229999999959
0
LINE
8
BLACK
6
CONTINUOUS
10
134.5267769999999814
20
-65.3732229999999959
11
134.5809700000000078
21
-65.4543290000000013
0
LINE
8
BLACK
6
CONTINUOUS
10
134.5809700000000078
20
-65.4543290000000013
11
134.5999999999999943
21
-65.5499999999999972
0
LINE
8
BLACK
6
CONTINUOUS
10
134.5999999999999943
20
-65.5499999999999972
11
134.5999999999999943
21
-66.4500000000000028
0
LINE
8
BLACK
6
CONTINUOUS
10
134.5999999999999943
20
-66.4500000000000028
11
134.5809700000000078
21
-66.5456709999999987
0
LINE
8
BLACK
6
CONTINUOUS
10
134.5809700000000078
20
-66.5456709999999987
11
134.5267769999999814
21
-66.6267769999999899
0
LINE
8
BLACK
6
CONTINUOUS
10
134.5267769999999814
20
-66.6267769999999899
11
134.4456710000000044
21
-66.6809700000000021
0
LINE
8
BLACK
6
CONTINUOUS
10
134.4456710000000044
20
-66.6809700000000021
11
134.3499999999999943
21
-66.7000000000000028
0
LINE
8
BLACK
6
CONTINUOUS
10
134.3499999999999943
20
-66.7000000000000028
11
133.6500000000000057
21
-66.7000000000000028
0
LINE
8
BLACK
6
CONTINUOUS
10
133.6500000000000057
20
-66.7000000000000028
11
133.5543289999999956
21
-66.6809700000000021
0
LINE
8
BLACK
6
CONTINUOUS
10
133.5543289999999956
20
-66.6809700000000021
11
133.4732229999999902
21
-66.6267769999999899
0
LINE
8
BLACK
6
CONTINUOUS
10
133.4732229999999902
20
-66.6267769999999899
11
133.4190299999999922
21
-66.5456709999999987
0
LINE
8
BLACK
6
CONTINUOUS
10
133.4190299999999922
20
-66.5456709999999987
11
133.4000000000000057
21
-66.4500000000000028
0
LINE
8
BLACK
6
CONTINUOUS
10
133.4000000000000057
20
-66.4500000000000028
11
133.4000000000000057
21
-65.5499999999999972
0
LINE
8
BLACK
6
CONTINUOUS
10
133.4000000000000057
20
-65.5499999999999972
11
133.4190299999999922
21
-65.4543290000000013
0
LINE
8
BLACK
6
CONTINUOUS
10
133.4190299999999922
20
-65.4543290000000013
11
133.4732229999999902
21
-65.3732229999999959
0
LINE
8
BLACK
6
CONTINUOUS
10
133.4732229999999902
20
-65.3732229999999959
11
133.5543289999999956
21
-65.3190299999999979
0
LINE
8
BLACK
6
CONTINUOUS
10
133.5543289999999956
20
-65.3190299999999979
11
133.6500000000000057
21
-65.2999999999999972
0
LINE
8
BLACK
6
CONTINUOUS
10
133.6500000000000057
20
-65.2999999999999972
11
134.3499999999999943
21
-65.2999999999999972
0
LINE
8
BLACK
6
CONTINUOUS
10
134.3499999999999943
20
-65.2999999999999972
11
134.4456710000000044
21
-65.3190299999999979
0
LINE
8
BLACK
6
CONTINUOUS
10
63.4456709999999973
20
-59.3190299999999979
11
63.5267769999999956
21
-59.3732229999999959
0
LINE
8
BLACK
6
CONTINUOUS
10
63.5267769999999956
20
-59.3732229999999959
11
63.5809700000000007
21
-59.4543289999999942
0
LINE
8
BLACK
6
CONTINUOUS
10
63.5809700000000007
20
-59.4543289999999942
11
63.5999999999999943
21
-59.5499999999999972
0
LINE
8
BLACK
6
CONTINUOUS
10
63.5999999999999943
20
-59.5499999999999972
11
63.5999999999999943
21
-60.4499999999999957
0
LINE
8
BLACK
6
CONTINUOUS
10
63.5999999999999943
20
-60.4499999999999957
11
63.5809700000000007
21
-60.5456709999999987
0
LINE
8
BLACK
6
CONTINUOUS
10
63.5809700000000007
20
-60.5456709999999987
11
63.5267769999999956
21
-60.626776999999997
0
LINE
8
BLACK
6
CONTINUOUS
10
63.5267769999999956
20
-60.626776999999997
11
63.4456709999999973
21
-60.680969999999995
0
LINE
8
BLACK
6
CONTINUOUS
10
63.4456709999999973
20
-60.680969999999995
11
63.3499999999999943
21
-60.6999999999999957
0
LINE
8
BLACK
6
CONTINUOUS
10
63.3499999999999943
20
-60.6999999999999957
11
62.6499999999999986
21
-60.6999999999999957
0
LINE
8
BLACK
6
CONTINUOUS
10
62.6499999999999986
20
-60.6999999999999957
11
62.5543289999999956
21
-60.680969999999995
0
LINE
8
BLACK
6
CONTINUOUS
10
62.5543289999999956
20
-60.680969999999995
11
62.4732229999999973
21
-60.626776999999997
0
LINE
8
BLACK
6
CONTINUOUS
10
62.4732229999999973
20
-60.626776999999997
11
62.4190299999999993
21
-60.5456709999999987
0
LINE
8
BLACK
6
CONTINUOUS
10
62.4190299999999993
20
-60.5456709999999987
11
62.3999999999999986
21
-60.4499999999999957
0
LINE
8
BLACK
6
CONTINUOUS
10
62.3999999999999986
20
-60.4499999999999957
11
62.3999999999999986
21
-59.5499999999999972
0
LINE
8
BLACK
6
CONTINUOUS
10
62.3999999999999986
20
-59.5499999999999972
11
62.4190299999999993
21
-59.4543289999999942
0
LINE
8
BLACK
6
CONTINUOUS
10
62.4190299999999993
20
-59.4543289999999942
11
62.4732229999999973
21
-59.3732229999999959
0
LINE
8
BLACK
6
CONTINUOUS
10
62.4732229999999973
20
-59.3732229999999959
11
62.5543289999999956
21
-59.3190299999999979
0
LINE
8
BLACK
6
CONTINUOUS
10
62.5543289999999956
20
-59.3190299999999979
11
62.6499999999999986
21
-59.2999999999999972
0
LINE
8
BLACK
6
CONTINUOUS
10
62.6499999999999986
20
-59.2999999999999972
11
63.3499999999999943
21
-59.2999999999999972
0
LINE
8
BLACK
6
CONTINUOUS
10
63.3499999999999943
20
-59.2999999999999972
11
63.4456709999999973
21
-59.3190299999999979
0
LINE
8
BLACK
6
CONTINUOUS
10
65.4456709999999902
20
-59.3190299999999979
11
65.5267769999999956
21
-59.3732229999999959
0
LINE
8
BLACK
6
CONTINUOUS
10
65.5267769999999956
20
-59.3732229999999959
11
65.5809699999999935
21
-59.4543289999999942
0
LINE
8
BLACK
6
CONTINUOUS
10
65.5809699999999935
20
-59.4543289999999942
11
65.5999999999999943
21
-59.5499999999999972
0
LINE
8
BLACK
6
CONTINUOUS
10
65.5999999999999943
20
-59.5499999999999972
11
65.5999999999999943
21
-60.4499999999999957
0
LINE
8
BLACK
6
CONTINUOUS
10
65.5999999999999943
20
-60.4499999999999957
11
65.5809699999999935
21
-60.5456709999999987
0
LINE
8
BLACK
6
CONTINUOUS
10
65.5809699999999935
20
-60.5456709999999987
11
65.5267769999999956
21
-60.626776999999997
0
LINE
8
BLACK
6
CONTINUOUS
10
65.5267769999999956
20
-60.626776999999997
11
65.4456709999999902
21
-60.680969999999995
0
LINE
8
BLACK
6
CONTINUOUS
10
65.4456709999999902
20
-60.680969999999995
11
65.3499999999999943
21
-60.6999999999999957
0
LINE
8
BLACK
6
CONTINUOUS
10
65.3499999999999943
20
-60.6999999999999957
11
64.6499999999999915
21
-60.6999999999999957
0
LINE
8
BLACK
6
CONTINUOUS
10
64.6499999999999915
20
-60.6999999999999957
11
64.5543289999999956
21
-60.680969999999995
0
LINE
8
BLACK
6
CONTINUOUS
10
64.5543289999999956
20
-60.680969999999995
11
64.4732229999999902
21
-60.626776999999997
0
LINE
8
BLACK
6
CONTINUOUS
10
64.4732229999999902
20
-60.626776999999997
11
64.4190299999999922
21
-60.5456709999999987
0
LINE
8
BLACK
6
CONTINUOUS
10
64.4190299999999922
20
-60.5456709999999987
11
64.3999999999999915
21
-60.4499999999999957
0
LINE
8
BLACK
6
CONTINUOUS
10
64.3999999999999915
20
-60.4499999999999957
11
64.3999999999999915
21
-59.5499999999999972
0
LINE
8
BLACK
6
CONTINUOUS
10
64.3999999999999915
20
-59.5499999999999972
11
64.4190299999999922
21
-59.4543289999999942
0
LINE
8
BLACK
6
CONTINUOUS
10
64.4190299999999922
20
-59.4543289999999942
11
64.4732229999999902
21
-59.3732229999999959
0
LINE
8
BLACK
6
CONTINUOUS
10
64.4732229999999902
20
-59.3732229999999959
11
64.5543289999999956
21
-59.3190299999999979
0
LINE
8
BLACK
6
CONTINUOUS
10
64.5543289999999956
20
-59.3190299999999979
11
64.6499999999999915
21
-59.2999999999999972
0
LINE
8
BLACK
6
CONTINUOUS
10
64.6499999999999915
20
-59.2999999999999972
11
65.3499999999999943
21
-59.2999999999999972
0
LINE
8
BLACK
6
CONTINUOUS
10
65.3499999999999943
20
-59.2999999999999972
11
65.4456709999999902
21
-59.3190299999999979
0
LINE
8
BLACK
6
CONTINUOUS
10
80.0556539999999899
20
-59.3190299999999979
11
80.1367599999999953
21
-59.3732229999999959
0
LINE
8
BLACK
6
CONTINUOUS
10
80.1367599999999953
20
-59.3732229999999959
11
80.1909529999999933
21
-59.4543289999999942
0
LINE
8
BLACK
6
CONTINUOUS
10
80.1909529999999933
20
-59.4543289999999942
11
80.209982999999994
21
-59.5499999999999972
0
LINE
8
BLACK
6
CONTINUOUS
10
80.209982999999994
20
-59.5499999999999972
11
80.209982999999994
21
-60.4499999999999957
0
LINE
8
BLACK
6
CONTINUOUS
10
80.209982999999994
20
-60.4499999999999957
11
80.1909529999999933
21
-60.5456709999999987
0
LINE
8
BLACK
6
CONTINUOUS
10
80.1909529999999933
20
-60.5456709999999987
11
80.1367599999999953
21
-60.626776999999997
0
LINE
8
BLACK
6
CONTINUOUS
10
80.1367599999999953
20
-60.626776999999997
11
80.0556539999999899
21
-60.680969999999995
0
LINE
8
BLACK
6
CONTINUOUS
10
80.0556539999999899
20
-60.680969999999995
11
79.959982999999994
21
-60.6999999999999957
0
LINE
8
BLACK
6
CONTINUOUS
10
79.959982999999994
20
-60.6999999999999957
11
79.2599829999999912
21
-60.6999999999999957
0
LINE
8
BLACK
6
CONTINUOUS
10
79.2599829999999912
20
-60.6999999999999957
11
79.1643119999999954
21
-60.680969999999995
0
LINE
8
BLACK
6
CONTINUOUS
10
79.1643119999999954
20
-60.680969999999995
11
79.0832059999999899
21
-60.626776999999997
0
LINE
8
BLACK
6
CONTINUOUS
10
79.0832059999999899
20
-60.626776999999997
11
79.029012999999992
21
-60.5456709999999987
0
LINE
8
BLACK
6
CONTINUOUS
10
79.029012999999992
20
-60.5456709999999987
11
79.0099829999999912
21
-60.4499999999999957
0
LINE
8
BLACK
6
CONTINUOUS
10
79.0099829999999912
20
-60.4499999999999957
11
79.0099829999999912
21
-59.5499999999999972
0
LINE
8
BLACK
6
CONTINUOUS
10
79.0099829999999912
20
-59.5499999999999972
11
79.029012999999992
21
-59.4543289999999942
0
LINE
8
BLACK
6
CONTINUOUS
10
79.029012999999992
20
-59.4543289999999942
11
79.0832059999999899
21
-59.3732229999999959
0
LINE
8
BLACK
6
CONTINUOUS
10
79.0832059999999899
20
-59.3732229999999959
11
79.1643119999999954
21
-59.3190299999999979
0
LINE
8
BLACK
6
CONTINUOUS
10
79.1643119999999954
20
-59.3190299999999979
11
79.2599829999999912
21
-59.2999999999999972
0
LINE
8
BLACK
6
CONTINUOUS
10
79.2599829999999912
20
-59.2999999999999972
11
79.959982999999994
21
-59.2999999999999972
0
LINE
8
BLACK
6
CONTINUOUS
10
79.959982999999994
20
-59.2999999999999972
11
80.0556539999999899
21
-59.3190299999999979
0
LINE
8
BLACK
6
CONTINUOUS
10
82.0556539999999899
20
-59.3190299999999979
11
82.1367599999999953
21
-59.3732229999999959
0
LINE
8
BLACK
6
CONTINUOUS
10
82.1367599999999953
20
-59.3732229999999959
11
82.1909529999999933
21
-59.4543289999999942
0
LINE
8
BLACK
6
CONTINUOUS
10
82.1909529999999933
20
-59.4543289999999942
11
82.209982999999994
21
-59.5499999999999972
0
LINE
8
BLACK
6
CONTINUOUS
10
82.209982999999994
20
-59.5499999999999972
11
82.209982999999994
21
-60.4499999999999957
0
LINE
8
BLACK
6
CONTINUOUS
10
82.209982999999994
20
-60.4499999999999957
11
82.1909529999999933
21
-60.5456709999999987
0
LINE
8
BLACK
6
CONTINUOUS
10
82.1909529999999933
20
-60.5456709999999987
11
82.1367599999999953
21
-60.626776999999997
0
LINE
8
BLACK
6
CONTINUOUS
10
82.1367599999999953
20
-60.626776999999997
11
82.0556539999999899
21
-60.680969999999995
0
LINE
8
BLACK
6
CONTINUOUS
10
82.0556539999999899
20
-60.680969999999995
11
81.959982999999994
21
-60.6999999999999957
0
LINE
8
BLACK
6
CONTINUOUS
10
81.959982999999994
20
-60.6999999999999957
11
81.2599829999999912
21
-60.6999999999999957
0
LINE
8
BLACK
6
CONTINUOUS
10
81.2599829999999912
20
-60.6999999999999957
11
81.1643119999999954
21
-60.680969999999995
0
LINE
8
BLACK
6
CONTINUOUS
10
81.1643119999999954
20
-60.680969999999995
11
81.0832059999999899
21
-60.626776999999997
0
LINE
8
BLACK
6
CONTINUOUS
10
81.0832059999999899
20
-60.626776999999997
11
81.029012999999992
21
-60.5456709999999987
0
LINE
8
BLACK
6
CONTINUOUS
10
81.029012999999992
20
-60.5456709999999987
11
81.0099829999999912
21
-60.4499999999999957
0
LINE
8
BLACK
6
CONTINUOUS
10
81.0099829999999912
20
-60.4499999999999957
11
81.0099829999999912
21
-59.5499999999999972
0
LINE
8
BLACK
6
CONTINUOUS
10
81.0099829999999912
20
-59.5499999999999972
11
81.029012999999992
21
-59.4543289999999942
0
LINE
8
BLACK
6
CONTINUOUS
10
81.029012999999992
20
-59.4543289999999942
11
81.0832059999999899
21
-59.3732229999999959
0
LINE
8
BLACK
6
CONTINUOUS
10
81.0832059999999899
20
-59.3732229999999959
11
81.1643119999999954
21
-59.3190299999999979
0
LINE
8
BLACK
6
CONTINUOUS
10
81.1643119999999954
20
-59.3190299999999979
11
81.2599829999999912
21
-59.2999999999999972
0
LINE
8
BLACK
6
CONTINUOUS
10
81.2599829999999912
20
-59.2999999999999972
11
81.959982999999994
21
-59.2999999999999972
0
LINE
8
BLACK
6
CONTINUOUS
10
81.959982999999994
20
-59.2999999999999972
11
82.0556539999999899
21
-59.3190299999999979
0
LINE
8
BLACK
6
CONTINUOUS
10
96.0556539999999899
20
-59.3190299999999979
11
96.1367599999999953
21
-59.3732229999999959
0
LINE
8
BLACK
6
CONTINUOUS
10
96.1367599999999953
20
-59.3732229999999959
11
96.1909529999999933
21
-59.4543289999999942
0
LINE
8
BLACK
6
CONTINUOUS
10
96.1909529999999933
20
-59.4543289999999942
11
96.209982999999994
21
-59.5499999999999972
0
LINE
8
BLACK
6
CONTINUOUS
10
96.209982999999994
20
-59.5499999999999972
11
96.209982999999994
21
-60.4499999999999957
0
LINE
8
BLACK
6
CONTINUOUS
10
96.209982999999994
20
-60.4499999999999957
11
96.1909529999999933
21
-60.5456709999999987
0
LINE
8
BLACK
6
CONTINUOUS
10
96.1909529999999933
20
-60.5456709999999987
11
96.1367599999999953
21
-60.626776999999997
0
LINE
8
BLACK
6
CONTINUOUS
10
96.1367599999999953
20
-60.626776999999997
11
96.0556539999999899
21
-60.680969999999995
0
LINE
8
BLACK
6
CONTINUOUS
10
96.0556539999999899
20
-60.680969999999995
11
95.959982999999994
21
-60.6999999999999957
0
LINE
8
BLACK
6
CONTINUOUS
10
95.959982999999994
20
-60.6999999999999957
11
95.2599829999999912
21
-60.6999999999999957
0
LINE
8
BLACK
6
CONTINUOUS
10
95.2599829999999912
20
-60.6999999999999957
11
95.1643119999999954
21
-60.680969999999995
0
LINE
8
BLACK
6
CONTINUOUS
10
95.1643119999999954
20
-60.680969999999995
11
95.0832059999999899
21
-60.626776999999997
0
LINE
8
BLACK
6
CONTINUOUS
10
95.0832059999999899
20
-60.626776999999997
11
95.029012999999992
21
-60.5456709999999987
0
LINE
8
BLACK
6
CONTINUOUS
10
95.029012999999992
20
-60.5456709999999987
11
95.0099829999999912
21
-60.4499999999999957
0
LINE
8
BLACK
6
CONTINUOUS
10
95.0099829999999912
20
-60.4499999999999957
11
95.0099829999999912
21
-59.5499999999999972
0
LINE
8
BLACK
6
CONTINUOUS
10
95.0099829999999912
20
-59.5499999999999972
11
95.029012999999992
21
-59.4543289999999942
0
LINE
8
BLACK
6
CONTINUOUS
10
95.029012999999992
20
-59.4543289999999942
11
95.0832059999999899
21
-59.3732229999999959
0
LINE
8
BLACK
6
CONTINUOUS
10
95.0832059999999899
20
-59.3732229999999959
11
95.1643119999999954
21
-59.3190299999999979
0
LINE
8
BLACK
6
CONTINUOUS
10
95.1643119999999954
20
-59.3190299999999979
11
95.2599829999999912
21
-59.2999999999999972
0
LINE
8
BLACK
6
CONTINUOUS
10
95.2599829999999912
20
-59.2999999999999972
11
95.959982999999994
21
-59.2999999999999972
0
LINE
8
BLACK
6
CONTINUOUS
10
95.959982999999994
20
-59.2999999999999972
11
96.0556539999999899
21
-59.3190299999999979
0
LINE
8
BLACK
6
CONTINUOUS
10
98.0556539999999899
20
-59.3190299999999979
11
98.1367599999999953
21
-59.3732229999999959
0
LINE
8
BLACK
6
CONTINUOUS
10
98.1367599999999953
20
-59.3732229999999959
11
98.1909529999999933
21
-59.4543289999999942
0
LINE
8
BLACK
6
CONTINUOUS
10
98.1909529999999933
20
-59.4543289999999942
11
98.209982999999994
21
-59.5499999999999972
0
LINE
8
BLACK
6
CONTINUOUS
10
98.209982999999994
20
-59.5499999999999972
11
98.209982999999994
21
-60.4499999999999957
0
LINE
8
BLACK
6
CONTINUOUS
10
98.209982999999994
20
-60.4499999999999957
11
98.1909529999999933
21
-60.5456709999999987
0
LINE
8
BLACK
6
CONTINUOUS
10
98.1909529999999933
20
-60.5456709999999987
11
98.1367599999999953
21
-60.626776999999997
0
LINE
8
BLACK
6
CONTINUOUS
10
98.1367599999999953
20
-60.626776999999997
11
98.0556539999999899
21
-60.680969999999995
0
LINE
8
BLACK
6
CONTINUOUS
10
98.0556539999999899
20
-60.680969999999995
11
97.959982999999994
21
-60.6999999999999957
0
LINE
8
BLACK
6
CONTINUOUS
10
97.959982999999994
20
-60.6999999999999957
11
97.2599829999999912
21
-60.6999999999999957
0
LINE
8
BLACK
6
CONTINUOUS
10
97.2599829999999912
20
-60.6999999999999957
11
97.1643119999999954
21
-60.680969999999995
0
LINE
8
BLACK
6
CONTINUOUS
10
97.1643119999999954
20
-60.680969999999995
11
97.0832059999999899
21
-60.626776999999997
0
LINE
8
BLACK
6
CONTINUOUS
10
97.0832059999999899
20
-60.626776999999997
11
97.029012999999992
21
-60.5456709999999987
0
LINE
8
BLACK
6
CONTINUOUS
10
97.029012999999992
20
-60.5456709999999987
11
97.0099829999999912
21
-60.4499999999999957
0
LINE
8
BLACK
6
CONTINUOUS
10
97.0099829999999912
20
-60.4499999999999957
11
97.0099829999999912
21
-59.5499999999999972
0
LINE
8
BLACK
6
CONTINUOUS
10
97.0099829999999912
20
-59.5499999999999972
11
97.029012999999992
21
-59.4543289999999942
0
LINE
8
BLACK
6
CONTINUOUS
10
97.029012999999992
20
-59.4543289999999942
11
97.0832059999999899
21
-59.3732229999999959
0
LINE
8
BLACK
6
CONTINUOUS
10
97.0832059999999899
20
-59.3732229999999959
11
97.1643119999999954
21
-59.3190299999999979
0
LINE
8
BLACK
6
CONTINUOUS
10
97.1643119999999954
20
-59.3190299999999979
11
97.2599829999999912
21
-59.2999999999999972
0
LINE
8
BLACK
6
CONTINUOUS
10
97.2599829999999912
20
-59.2999999999999972
11
97.959982999999994
21
-59.2999999999999972
0
LINE
8
BLACK
6
CONTINUOUS
10
97.959982999999994
20
-59.2999999999999972
11
98.0556539999999899
21
-59.3190299999999979
0
LINE
8
BLACK
6
CONTINUOUS
10
112.0556539999999899
20
-59.3190299999999979
11
112.1367599999999953
21
-59.3732229999999959
0
LINE
8
BLACK
6
CONTINUOUS
10
112.1367599999999953
20
-59.3732229999999959
11
112.1909529999999933
21
-59.4543289999999942
0
LINE
8
BLACK
6
CONTINUOUS
10
112.1909529999999933
20
-59.4543289999999942
11
112.209982999999994
21
-59.5499999999999972
0
LINE
8
BLACK
6
CONTINUOUS
10
112.209982999999994
20
-59.5499999999999972
11
112.209982999999994
21
-60.4499999999999957
0
LINE
8
BLACK
6
CONTINUOUS
10
112.209982999999994
20
-60.4499999999999957
11
112.1909529999999933
21
-60.5456709999999987
0
LINE
8
BLACK
6
CONTINUOUS
10
112.1909529999999933
20
-60.5456709999999987
11
112.1367599999999953
21
-60.626776999999997
0
LINE
8
BLACK
6
CONTINUOUS
10
112.1367599999999953
20
-60.626776999999997
11
112.0556539999999899
21
-60.680969999999995
0
LINE
8
BLACK
6
CONTINUOUS
10
112.0556539999999899
20
-60.680969999999995
11
111.959982999999994
21
-60.6999999999999957
0
LINE
8
BLACK
6
CONTINUOUS
10
111.959982999999994
20
-60.6999999999999957
11
111.2599829999999912
21
-60.6999999999999957
0
LINE
8
BLACK
6
CONTINUOUS
10
111.2599829999999912
20
-60.6999999999999957
11
111.1643119999999954
21
-60.680969999999995
0
LINE
8
BLACK
6
CONTINUOUS
10
111.1643119999999954
20
-60.680969999999995
11
111.0832059999999899
21
-60.626776999999997
0
LINE
8
BLACK
6
CONTINUOUS
10
111.0832059999999899
20
-60.626776999999997
11
111.029012999999992
21
-60.5456709999999987
0
LINE
8
BLACK
6
CONTINUOUS
10
111.029012999999992
20
-60.5456709999999987
11
111.0099829999999912
21
-60.4499999999999957
0
LINE
8
BLACK
6
CONTINUOUS
10
111.0099829999999912
20
-60.4499999999999957
11
111.0099829999999912
21
-59.5499999999999972
0
LINE
8
BLACK
6
CONTINUOUS
10
111.0099829999999912
20
-59.5499999999999972
11
111.029012999999992
21
-59.4543289999999942
0
LINE
8
BLACK
6
CONTINUOUS
10
111.029012999999992
20
-59.4543289999999942
11
111.0832059999999899
21
-59.3732229999999959
0
LINE
8
BLACK
6
CONTINUOUS
10
111.0832059999999899
20
-59.3732229999999959
11
111.1643119999999954
21
-59.3190299999999979
0
LINE
8
BLACK
6
CONTINUOUS
10
111.1643119999999954
20
-59.3190299999999979
11
111.2599829999999912
21
-59.2999999999999972
0
LINE
8
BLACK
6
CONTINUOUS
10
111.2599829999999912
20
-59.2999999999999972
11
111.959982999999994
21
-59.2999999999999972
0
LINE
8
BLACK
6
CONTINUOUS
10
111.959982999999994
20
-59.2999999999999972
11
112.0556539999999899
21
-59.3190299999999979
0
LINE
8
BLACK
6
CONTINUOUS
10
114.0556539999999899
20
-59.3190299999999979
11
114.1367599999999953
21
-59.3732229999999959
0
LINE
8
BLACK
6
CONTINUOUS
10
114.1367599999999953
20
-59.3732229999999959
11
114.1909529999999933
21
-59.4543289999999942
0
LINE
8
BLACK
6
CONTINUOUS
10
114.1909529999999933
20
-59.4543289999999942
11
114.209982999999994
21
-59.5499999999999972
0
LINE
8
BLACK
6
CONTINUOUS
10
114.209982999999994
20
-59.5499999999999972
11
114.209982999999994
21
-60.4499999999999957
0
LINE
8
BLACK
6
CONTINUOUS
10
114.209982999999994
20
-60.4499999999999957
11
114.1909529999999933
21
-60.5456709999999987
0
LINE
8
BLACK
6
CONTINUOUS
10
114.1909529999999933
20
-60.5456709999999987
11
114.1367599999999953
21
-60.626776999999997
0
LINE
8
BLACK
6
CONTINUOUS
10
114.1367599999999953
20
-60.626776999999997
11
114.0556539999999899
21
-60.680969999999995
0
LINE
8
BLACK
6
CONTINUOUS
10
114.0556539999999899
20
-60.680969999999995
11
113.959982999999994
21
-60.6999999999999957
0
LINE
8
BLACK
6
CONTINUOUS
10
113.959982999999994
20
-60.6999999999999957
11
113.2599829999999912
21
-60.6999999999999957
0
LINE
8
BLACK
6
CONTINUOUS
10
113.2599829999999912
20
-60.6999999999999957
11
113.1643119999999954
21
-60.680969999999995
0
LINE
8
BLACK
6
CONTINUOUS
10
113.1643119999999954
20
-60.680969999999995
11
113.0832059999999899
21
-60.626776999999997
0
LINE
8
BLACK
6
CONTINUOUS
10
113.0832059999999899
20
-60.626776999999997
11
113.029012999999992
21
-60.5456709999999987
0
LINE
8
BLACK
6
CONTINUOUS
10
113.029012999999992
20
-60.5456709999999987
11
113.0099829999999912
21
-60.4499999999999957
0
LINE
8
BLACK
6
CONTINUOUS
10
113.0099829999999912
20
-60.4499999999999957
11
113.0099829999999912
21
-59.5499999999999972
0
LINE
8
BLACK
6
CONTINUOUS
10
113.0099829999999912
20
-59.5499999999999972
11
113.029012999999992
21
-59.4543289999999942
0
LINE
8
BLACK
6
CONTINUOUS
10
113.029012999999992
20
-59.4543289999999942
11
113.0832059999999899
21
-59.3732229999999959
0
LINE
8
BLACK
6
CONTINUOUS
10
113.0832059999999899
20
-59.3732229999999959
11
113.1643119999999954
21
-59.3190299999999979
0
LINE
8
BLACK
6
CONTINUOUS
10
113.1643119999999954
20
-59.3190299999999979
11
113.2599829999999912
21
-59.2999999999999972
0
LINE
8
BLACK
6
CONTINUOUS
10
113.2599829999999912
20
-59.2999999999999972
11
113.959982999999994
21
-59.2999999999999972
0
LINE
8
BLACK
6
CONTINUOUS
10
113.959982999999994
20
-59.2999999999999972
11
114.0556539999999899
21
-59.3190299999999979
0
LINE
8
BLACK
6
CONTINUOUS
10
128.0556540000000041
20
-59.3190299999999979
11
128.1367599999999811
21
-59.3732229999999959
0
LINE
8
BLACK
6
CONTINUOUS
10
128.1367599999999811
20
-59.3732229999999959
11
128.1909530000000075
21
-59.4543289999999942
0
LINE
8
BLACK
6
CONTINUOUS
10
128.1909530000000075
20
-59.4543289999999942
11
128.209982999999994
21
-59.5499999999999972
0
LINE
8
BLACK
6
CONTINUOUS
10
128.209982999999994
20
-59.5499999999999972
11
128.209982999999994
21
-60.4499999999999957
0
LINE
8
BLACK
6
CONTINUOUS
10
128.209982999999994
20
-60.4499999999999957
11
128.1909530000000075
21
-60.5456709999999987
0
LINE
8
BLACK
6
CONTINUOUS
10
128.1909530000000075
20
-60.5456709999999987
11
128.1367599999999811
21
-60.626776999999997
0
LINE
8
BLACK
6
CONTINUOUS
10
128.1367599999999811
20
-60.626776999999997
11
128.0556540000000041
21
-60.680969999999995
0
LINE
8
BLACK
6
CONTINUOUS
10
128.0556540000000041
20
-60.680969999999995
11
127.959982999999994
21
-60.6999999999999957
0
LINE
8
BLACK
6
CONTINUOUS
10
127.959982999999994
20
-60.6999999999999957
11
127.2599829999999912
21
-60.6999999999999957
0
LINE
8
BLACK
6
CONTINUOUS
10
127.2599829999999912
20
-60.6999999999999957
11
127.1643119999999954
21
-60.680969999999995
0
LINE
8
BLACK
6
CONTINUOUS
10
127.1643119999999954
20
-60.680969999999995
11
127.0832059999999899
21
-60.626776999999997
0
LINE
8
BLACK
6
CONTINUOUS
10
127.0832059999999899
20
-60.626776999999997
11
127.029012999999992
21
-60.5456709999999987
0
LINE
8
BLACK
6
CONTINUOUS
10
127.029012999999992
20
-60.5456709999999987
11
127.0099829999999912
21
-60.4499999999999957
0
LINE
8
BLACK
6
CONTINUOUS
10
127.0099829999999912
20
-60.4499999999999957
11
127.0099829999999912
21
-59.5499999999999972
0
LINE
8
BLACK
6
CONTINUOUS
10
127.0099829999999912
20
-59.5499999999999972
11
127.029012999999992
21
-59.4543289999999942
0
LINE
8
BLACK
6
CONTINUOUS
10
127.029012999999992
20
-59.4543289999999942
11
127.0832059999999899
21
-59.3732229999999959
0
LINE
8
BLACK
6
CONTINUOUS
10
127.0832059999999899
20
-59.3732229999999959
11
127.1643119999999954
21
-59.3190299999999979
0
LINE
8
BLACK
6
CONTINUOUS
10
127.1643119999999954
20
-59.3190299999999979
11
127.2599829999999912
21
-59.2999999999999972
0
LINE
8
BLACK
6
CONTINUOUS
10
127.2599829999999912
20
-59.2999999999999972
11
127.959982999999994
21
-59.2999999999999972
0
LINE
8
BLACK
6
CONTINUOUS
10
127.959982999999994
20
-59.2999999999999972
11
128.0556540000000041
21
-59.3190299999999979
0
LINE
8
BLACK
6
CONTINUOUS
10
130.0556540000000041
20
-59.3190299999999979
11
130.1367599999999811
21
-59.3732229999999959
0
LINE
8
BLACK
6
CONTINUOUS
10
130.1367599999999811
20
-59.3732229999999959
11
130.1909530000000075
21
-59.4543289999999942
0
LINE
8
BLACK
6
CONTINUOUS
10
130.1909530000000075
20
-59.4543289999999942
11
130.209982999999994
21
-59.5499999999999972
0
LINE
8
BLACK
6
CONTINUOUS
10
130.209982999999994
20
-59.5499999999999972
11
130.209982999999994
21
-60.4499999999999957
0
LINE
8
BLACK
6
CONTINUOUS
10
130.209982999999994
20
-60.4499999999999957
11
130.1909530000000075
21
-60.5456709999999987
0
LINE
8
BLACK
6
CONTINUOUS
10
130.1909530000000075
20
-60.5456709999999987
11
130.1367599999999811
21
-60.626776999999997
0
LINE
8
BLACK
6
CONTINUOUS
10
130.1367599999999811
20
-60.626776999999997
11
130.0556540000000041
21
-60.680969999999995
0
LINE
8
BLACK
6
CONTINUOUS
10
130.0556540000000041
20
-60.680969999999995
11
129.959982999999994
21
-60.6999999999999957
0
LINE
8
BLACK
6
CONTINUOUS
10
129.959982999999994
20
-60.6999999999999957
11
129.2599830000000054
21
-60.6999999999999957
0
LINE
8
BLACK
6
CONTINUOUS
10
129.2599830000000054
20
-60.6999999999999957
11
129.1643119999999954
21
-60.680969999999995
0
LINE
8
BLACK
6
CONTINUOUS
10
129.1643119999999954
20
-60.680969999999995
11
129.0832059999999899
21
-60.626776999999997
0
LINE
8
BLACK
6
CONTINUOUS
10
129.0832059999999899
20
-60.626776999999997
11
129.029012999999992
21
-60.5456709999999987
0
LINE
8
BLACK
6
CONTINUOUS
10
129.029012999999992
20
-60.5456709999999987
11
129.0099830000000054
21
-60.4499999999999957
0
LINE
8
BLACK
6
CONTINUOUS
10
129.0099830000000054
20
-60.4499999999999957
11
129.0099830000000054
21
-59.5499999999999972
0
LINE
8
BLACK
6
CONTINUOUS
10
129.0099830000000054
20
-59.5499999999999972
11
129.029012999999992
21
-59.4543289999999942
0
LINE
8
BLACK
6
CONTINUOUS
10
129.029012999999992
20
-59.4543289999999942
11
129.0832059999999899
21
-59.3732229999999959
0
LINE
8
BLACK
6
CONTINUOUS
10
129.0832059999999899
20
-59.3732229999999959
11
129.1643119999999954
21
-59.3190299999999979
0
LINE
8
BLACK
6
CONTINUOUS
10
129.1643119999999954
20
-59.3190299999999979
11
129.2599830000000054
21
-59.2999999999999972
0
LINE
8
BLACK
6
CONTINUOUS
10
129.2599830000000054
20
-59.2999999999999972
11
129.959982999999994
21
-59.2999999999999972
0
LINE
8
BLACK
6
CONTINUOUS
10
129.959982999999994
20
-59.2999999999999972
11
130.0556540000000041
21
-59.3190299999999979
0
LINE
8
BLACK
6
CONTINUOUS
10
132.4456710000000044
20
-59.3190299999999979
11
132.5267769999999814
21
-59.3732229999999959
0
LINE
8
BLACK
6
CONTINUOUS
10
132.5267769999999814
20
-59.3732229999999959
11
132.5809700000000078
21
-59.4543289999999942
0
LINE
8
BLACK
6
CONTINUOUS
10
132.5809700000000078
20
-59.4543289999999942
11
132.5999999999999943
21
-59.5499999999999972
0
LINE
8
BLACK
6
CONTINUOUS
10
132.5999999999999943
20
-59.5499999999999972
11
132.5999999999999943
21
-60.4499999999999957
0
LINE
8
BLACK
6
CONTINUOUS
10
132.5999999999999943
20
-60.4499999999999957
11
132.5809700000000078
21
-60.5456709999999987
0
LINE
8
BLACK
6
CONTINUOUS
10
132.5809700000000078
20
-60.5456709999999987
11
132.5267769999999814
21
-60.626776999999997
0
LINE
8
BLACK
6
CONTINUOUS
10
132.5267769999999814
20
-60.626776999999997
11
132.4456710000000044
21
-60.680969999999995
0
LINE
8
BLACK
6
CONTINUOUS
10
132.4456710000000044
20
-60.680969999999995
11
132.3499999999999943
21
-60.6999999999999957
0
LINE
8
BLACK
6
CONTINUOUS
10
132.3499999999999943
20
-60.6999999999999957
11
131.6500000000000057
21
-60.6999999999999957
0
LINE
8
BLACK
6
CONTINUOUS
10
131.6500000000000057
20
-60.6999999999999957
11
131.5543289999999956
21
-60.680969999999995
0
LINE
8
BLACK
6
CONTINUOUS
10
131.5543289999999956
20
-60.680969999999995
11
131.4732229999999902
21
-60.626776999999997
0
LINE
8
BLACK
6
CONTINUOUS
10
131.4732229999999902
20
-60.626776999999997
11
131.4190299999999922
21
-60.5456709999999987
0
LINE
8
BLACK
6
CONTINUOUS
10
131.4190299999999922
20
-60.5456709999999987
11
131.4000000000000057
21
-60.4499999999999957
0
LINE
8
BLACK
6
CONTINUOUS
10
131.4000000000000057
20
-60.4499999999999957
11
131.4000000000000057
21
-59.5499999999999972
0
LINE
8
BLACK
6
CONTINUOUS
10
131.4000000000000057
20
-59.5499999999999972
11
131.4190299999999922
21
-59.4543289999999942
0
LINE
8
BLACK
6
CONTINUOUS
10
131.4190299999999922
20
-59.4543289999999942
11
131.4732229999999902
21
-59.3732229999999959
0
LINE
8
BLACK
6
CONTINUOUS
10
131.4732229999999902
20
-59.3732229999999959
11
131.5543289999999956
21
-59.3190299999999979
0
LINE
8
BLACK
6
CONTINUOUS
10
131.5543289999999956
20
-59.3190299999999979
11
131.6500000000000057
21
-59.2999999999999972
0
LINE
8
BLACK
6
CONTINUOUS
10
131.6500000000000057
20
-59.2999999999999972
11
132.3499999999999943
21
-59.2999999999999972
0
LINE
8
BLACK
6
CONTINUOUS
10
132.3499999999999943
20
-59.2999999999999972
11
132.4456710000000044
21
-59.3190299999999979
0
LINE
8
BLACK
6
CONTINUOUS
10
134.4456710000000044
20
-59.3190299999999979
11
134.5267769999999814
21
-59.3732229999999959
0
LINE
8
BLACK
6
CONTINUOUS
10
134.5267769999999814
20
-59.3732229999999959
11
134.5809700000000078
21
-59.4543289999999942
0
LINE
8
BLACK
6
CONTINUOUS
10
134.5809700000000078
20
-59.4543289999999942
11
134.5999999999999943
21
-59.5499999999999972
0
LINE
8
BLACK
6
CONTINUOUS
10
134.5999999999999943
20
-59.5499999999999972
11
134.5999999999999943
21
-60.4499999999999957
0
LINE
8
BLACK
6
CONTINUOUS
10
134.5999999999999943
20
-60.4499999999999957
11
134.5809700000000078
21
-60.5456709999999987
0
LINE
8
BLACK
6
CONTINUOUS
10
134.5809700000000078
20
-60.5456709999999987
11
134.5267769999999814
21
-60.626776999999997
0
LINE
8
BLACK
6
CONTINUOUS
10
134.5267769999999814
20
-60.626776999999997
11
134.4456710000000044
21
-60.680969999999995
0
LINE
8
BLACK
6
CONTINUOUS
10
134.4456710000000044
20
-60.680969999999995
11
134.3499999999999943
21
-60.6999999999999957
0
LINE
8
BLACK
6
CONTINUOUS
10
134.3499999999999943
20
-60.6999999999999957
11
133.6500000000000057
21
-60.6999999999999957
0
LINE
8
BLACK
6
CONTINUOUS
10
133.6500000000000057
20
-60.6999999999999957
11
133.5543289999999956
21
-60.680969999999995
0
LINE
8
BLACK
6
CONTINUOUS
10
133.5543289999999956
20
-60.680969999999995
11
133.4732229999999902
21
-60.626776999999997
0
LINE
8
BLACK
6
CONTINUOUS
10
133.4732229999999902
20
-60.626776999999997
11
133.4190299999999922
21
-60.5456709999999987
0
LINE
8
BLACK
6
CONTINUOUS
10
133.4190299999999922
20
-60.5456709999999987
11
133.4000000000000057
21
-60.4499999999999957
0
LINE
8
BLACK
6
CONTINUOUS
10
133.4000000000000057
20
-60.4499999999999957
11
133.4000000000000057
21
-59.5499999999999972
0
LINE
8
BLACK
6
CONTINUOUS
10
133.4000000000000057
20
-59.5499999999999972
11
133.4190299999999922
21
-59.4543289999999942
0
LINE
8
BLACK
6
CONTINUOUS
10
133.4190299999999922
20
-59.4543289999999942
11
133.4732229999999902
21
-59.3732229999999959
0
LINE
8
BLACK
6
CONTINUOUS
10
133.4732229999999902
20
-59.3732229999999959
11
133.5543289999999956
21
-59.3190299999999979
0
LINE
8
BLACK
6
CONTINUOUS
10
133.5543289999999956
20
-59.3190299999999979
11
133.6500000000000057
21
-59.2999999999999972
0
LINE
8
BLACK
6
CONTINUOUS
10
133.6500000000000057
20
-59.2999999999999972
11
134.3499999999999943
21
-59.2999999999999972
0
LINE
8
BLACK
6
CONTINUOUS
10
134.3499999999999943
20
-59.2999999999999972
11
134.4456710000000044
21
-59.3190299999999979
  0
ENDSEC
  0
EOF
