  0
SECTION
  2
HEADER
  9
$ANGBASE
  50
0.0
  9
$ANGDIR
  70
1
  9
$MEASUREMENT
  70
1
  0
ENDSEC
  0
SECTION
  2
TABLES
  0
TABLE
  2
LTYPE
  70
4
  0
LTYPE
  5
40F
  2
CONTINUOUS
  70
0
  3
Solid line
  72
65
  73
0
  40
0.0
  0
LTYPE
  5
410
  2
DASHDOT
 70
0
  3
Dash Dot ____ _ ____ _
 72
65
 73
4
 40
2.0
 49
1.25
 49
-0.25
 49
0.25
 49
-0.25
  0
LTYPE
  5
411
  2
DASHED
 70
0
  3
Dashed __ __ __ __ __
 72
65
 73
2
 40
0.75
 49
0.5
 49
-0.25
  0
LTYPE
  5
43B
  2
DOTTED
 70
0
  3
Dotted .  .  .  .
 72
65
 73
2
 40
0.2
 49
0.0
 49
-0.2
  0
ENDTAB
  0
TABLE
  2
STYLE
  70
4
  0
STYLE
  2
KICAD
  70
0
  40
0
  41
1
  42
1
  50
0
  71
0
  3
isocp.shx
  0
STYLE
  2
KICADB
  70
0
  40
0
  41
1
  42
1
  50
0
  71
0
  3
isocp.shx
  0
STYLE
  2
KICADI
  70
0
  40
0
  41
1
  42
1
  50
15
  71
0
  3
isocp.shx
  0
STYLE
  2
KICADBI
  70
0
  40
0
  41
1
  42
1
  50
15
  71
0
  3
isocp.shx
  0
ENDTAB
  0
TABLE
  2
LAYER
  70
1
  0
LAYER
  2
BLACK
  70
0
  62
7
  6
CONTINUOUS
  0
ENDTAB
  0
ENDSEC
  0
SECTION
  2
ENTITIES
0
LINE
8
BLACK
6
CONTINUOUS
10
57.6806529999999995
20
-68.3440300000000036
11
57.7617589999999979
21
-68.398223999999999
0
LINE
8
BLACK
6
CONTINUOUS
10
57.7617589999999979
20
-68.398223999999999
11
57.8159530000000004
21
-68.4793299999999903
0
LINE
8
BLACK
6
CONTINUOUS
10
57.8159530000000004
20
-68.4793299999999903
11
57.8349819999999966
21
-68.5750019999999978
0
LINE
8
BLACK
6
CONTINUOUS
10
57.8349819999999966
20
-68.5750019999999978
11
57.834982999999994
21
-69.8249989999999912
0
LINE
8
BLACK
6
CONTINUOUS
10
57.834982999999994
20
-69.8249989999999912
11
57.8159530000000004
21
-69.9206700000000012
0
LINE
8
BLACK
6
CONTINUOUS
10
57.8159530000000004
20
-69.9206700000000012
11
57.7617589999999979
21
-70.0017759999999925
0
LINE
8
BLACK
6
CONTINUOUS
10
57.7617589999999979
20
-70.0017759999999925
11
57.6806529999999995
21
-70.0559700000000021
0
LINE
8
BLACK
6
CONTINUOUS
10
57.6806529999999995
20
-70.0559700000000021
11
57.5849809999999991
21
-70.0749989999999912
0
LINE
8
BLACK
6
CONTINUOUS
10
57.5849809999999991
20
-70.0749989999999912
11
56.6599839999999944
21
-70.0750000000000028
0
LINE
8
BLACK
6
CONTINUOUS
10
56.6599839999999944
20
-70.0750000000000028
11
56.5643129999999985
21
-70.0559700000000021
0
LINE
8
BLACK
6
CONTINUOUS
10
56.5643129999999985
20
-70.0559700000000021
11
56.4832070000000002
21
-70.0017759999999925
0
LINE
8
BLACK
6
CONTINUOUS
10
56.4832070000000002
20
-70.0017759999999925
11
56.4290129999999976
21
-69.9206700000000012
0
LINE
8
BLACK
6
CONTINUOUS
10
56.4290129999999976
20
-69.9206700000000012
11
56.4099839999999944
21
-69.8249979999999937
0
LINE
8
BLACK
6
CONTINUOUS
10
56.4099839999999944
20
-69.8249979999999937
11
56.4099829999999969
21
-68.5750010000000003
0
LINE
8
BLACK
6
CONTINUOUS
10
56.4099829999999969
20
-68.5750010000000003
11
56.4290129999999976
21
-68.4793299999999903
0
LINE
8
BLACK
6
CONTINUOUS
10
56.4290129999999976
20
-68.4793299999999903
11
56.4832070000000002
21
-68.398223999999999
0
LINE
8
BLACK
6
CONTINUOUS
10
56.4832070000000002
20
-68.398223999999999
11
56.5643129999999985
21
-68.3440300000000036
0
LINE
8
BLACK
6
CONTINUOUS
10
56.5643129999999985
20
-68.3440300000000036
11
56.6599849999999989
21
-68.3250010000000003
0
LINE
8
BLACK
6
CONTINUOUS
10
56.6599849999999989
20
-68.3250010000000003
11
57.5849819999999966
21
-68.3250000000000028
0
LINE
8
BLACK
6
CONTINUOUS
10
57.5849819999999966
20
-68.3250000000000028
11
57.6806529999999995
21
-68.3440300000000036
0
LINE
8
BLACK
6
CONTINUOUS
10
60.6556529999999938
20
-68.3440300000000036
11
60.7367589999999993
21
-68.398223999999999
0
LINE
8
BLACK
6
CONTINUOUS
10
60.7367589999999993
20
-68.398223999999999
11
60.7909529999999947
21
-68.4793299999999903
0
LINE
8
BLACK
6
CONTINUOUS
10
60.7909529999999947
20
-68.4793299999999903
11
60.809981999999998
21
-68.5750019999999978
0
LINE
8
BLACK
6
CONTINUOUS
10
60.809981999999998
20
-68.5750019999999978
11
60.8099829999999955
21
-69.8249989999999912
0
LINE
8
BLACK
6
CONTINUOUS
10
60.8099829999999955
20
-69.8249989999999912
11
60.7909529999999947
21
-69.9206700000000012
0
LINE
8
BLACK
6
CONTINUOUS
10
60.7909529999999947
20
-69.9206700000000012
11
60.7367589999999993
21
-70.0017759999999925
0
LINE
8
BLACK
6
CONTINUOUS
10
60.7367589999999993
20
-70.0017759999999925
11
60.6556529999999938
21
-70.0559700000000021
0
LINE
8
BLACK
6
CONTINUOUS
10
60.6556529999999938
20
-70.0559700000000021
11
60.5599810000000005
21
-70.0749989999999912
0
LINE
8
BLACK
6
CONTINUOUS
10
60.5599810000000005
20
-70.0749989999999912
11
59.6349839999999958
21
-70.0750000000000028
0
LINE
8
BLACK
6
CONTINUOUS
10
59.6349839999999958
20
-70.0750000000000028
11
59.5393129999999999
21
-70.0559700000000021
0
LINE
8
BLACK
6
CONTINUOUS
10
59.5393129999999999
20
-70.0559700000000021
11
59.4582069999999945
21
-70.0017759999999925
0
LINE
8
BLACK
6
CONTINUOUS
10
59.4582069999999945
20
-70.0017759999999925
11
59.4040129999999991
21
-69.9206700000000012
0
LINE
8
BLACK
6
CONTINUOUS
10
59.4040129999999991
20
-69.9206700000000012
11
59.3849839999999958
21
-69.8249979999999937
0
LINE
8
BLACK
6
CONTINUOUS
10
59.3849839999999958
20
-69.8249979999999937
11
59.3849829999999983
21
-68.5750010000000003
0
LINE
8
BLACK
6
CONTINUOUS
10
59.3849829999999983
20
-68.5750010000000003
11
59.4040129999999991
21
-68.4793299999999903
0
LINE
8
BLACK
6
CONTINUOUS
10
59.4040129999999991
20
-68.4793299999999903
11
59.4582069999999945
21
-68.398223999999999
0
LINE
8
BLACK
6
CONTINUOUS
10
59.4582069999999945
20
-68.398223999999999
11
59.5393129999999999
21
-68.3440300000000036
0
LINE
8
BLACK
6
CONTINUOUS
10
59.5393129999999999
20
-68.3440300000000036
11
59.6349850000000004
21
-68.3250010000000003
0
LINE
8
BLACK
6
CONTINUOUS
10
59.6349850000000004
20
-68.3250010000000003
11
60.559981999999998
21
-68.3250000000000028
0
LINE
8
BLACK
6
CONTINUOUS
10
60.559981999999998
20
-68.3250000000000028
11
60.6556529999999938
21
-68.3440300000000036
0
LINE
8
BLACK
6
CONTINUOUS
10
73.6806529999999924
20
-68.3440300000000036
11
73.7617589999999979
21
-68.398223999999999
0
LINE
8
BLACK
6
CONTINUOUS
10
73.7617589999999979
20
-68.398223999999999
11
73.8159529999999933
21
-68.4793299999999903
0
LINE
8
BLACK
6
CONTINUOUS
10
73.8159529999999933
20
-68.4793299999999903
11
73.8349819999999966
21
-68.5750019999999978
0
LINE
8
BLACK
6
CONTINUOUS
10
73.8349819999999966
20
-68.5750019999999978
11
73.834982999999994
21
-69.8249989999999912
0
LINE
8
BLACK
6
CONTINUOUS
10
73.834982999999994
20
-69.8249989999999912
11
73.8159529999999933
21
-69.9206700000000012
0
LINE
8
BLACK
6
CONTINUOUS
10
73.8159529999999933
20
-69.9206700000000012
11
73.7617589999999979
21
-70.0017759999999925
0
LINE
8
BLACK
6
CONTINUOUS
10
73.7617589999999979
20
-70.0017759999999925
11
73.6806529999999924
21
-70.0559700000000021
0
LINE
8
BLACK
6
CONTINUOUS
10
73.6806529999999924
20
-70.0559700000000021
11
73.5849809999999991
21
-70.0749989999999912
0
LINE
8
BLACK
6
CONTINUOUS
10
73.5849809999999991
20
-70.0749989999999912
11
72.6599839999999944
21
-70.0750000000000028
0
LINE
8
BLACK
6
CONTINUOUS
10
72.6599839999999944
20
-70.0750000000000028
11
72.5643129999999985
21
-70.0559700000000021
0
LINE
8
BLACK
6
CONTINUOUS
10
72.5643129999999985
20
-70.0559700000000021
11
72.4832069999999931
21
-70.0017759999999925
0
LINE
8
BLACK
6
CONTINUOUS
10
72.4832069999999931
20
-70.0017759999999925
11
72.4290129999999976
21
-69.9206700000000012
0
LINE
8
BLACK
6
CONTINUOUS
10
72.4290129999999976
20
-69.9206700000000012
11
72.4099839999999944
21
-69.8249979999999937
0
LINE
8
BLACK
6
CONTINUOUS
10
72.4099839999999944
20
-69.8249979999999937
11
72.4099829999999969
21
-68.5750010000000003
0
LINE
8
BLACK
6
CONTINUOUS
10
72.4099829999999969
20
-68.5750010000000003
11
72.4290129999999976
21
-68.4793299999999903
0
LINE
8
BLACK
6
CONTINUOUS
10
72.4290129999999976
20
-68.4793299999999903
11
72.4832069999999931
21
-68.398223999999999
0
LINE
8
BLACK
6
CONTINUOUS
10
72.4832069999999931
20
-68.398223999999999
11
72.5643129999999985
21
-68.3440300000000036
0
LINE
8
BLACK
6
CONTINUOUS
10
72.5643129999999985
20
-68.3440300000000036
11
72.6599849999999918
21
-68.3250010000000003
0
LINE
8
BLACK
6
CONTINUOUS
10
72.6599849999999918
20
-68.3250010000000003
11
73.5849819999999966
21
-68.3250000000000028
0
LINE
8
BLACK
6
CONTINUOUS
10
73.5849819999999966
20
-68.3250000000000028
11
73.6806529999999924
21
-68.3440300000000036
0
LINE
8
BLACK
6
CONTINUOUS
10
76.6556530000000009
20
-68.3440300000000036
11
76.7367589999999922
21
-68.398223999999999
0
LINE
8
BLACK
6
CONTINUOUS
10
76.7367589999999922
20
-68.398223999999999
11
76.7909530000000018
21
-68.4793299999999903
0
LINE
8
BLACK
6
CONTINUOUS
10
76.7909530000000018
20
-68.4793299999999903
11
76.8099819999999909
21
-68.5750019999999978
0
LINE
8
BLACK
6
CONTINUOUS
10
76.8099819999999909
20
-68.5750019999999978
11
76.8099830000000026
21
-69.8249989999999912
0
LINE
8
BLACK
6
CONTINUOUS
10
76.8099830000000026
20
-69.8249989999999912
11
76.7909530000000018
21
-69.9206700000000012
0
LINE
8
BLACK
6
CONTINUOUS
10
76.7909530000000018
20
-69.9206700000000012
11
76.7367589999999922
21
-70.0017759999999925
0
LINE
8
BLACK
6
CONTINUOUS
10
76.7367589999999922
20
-70.0017759999999925
11
76.6556530000000009
21
-70.0559700000000021
0
LINE
8
BLACK
6
CONTINUOUS
10
76.6556530000000009
20
-70.0559700000000021
11
76.5599809999999934
21
-70.0749989999999912
0
LINE
8
BLACK
6
CONTINUOUS
10
76.5599809999999934
20
-70.0749989999999912
11
75.6349840000000029
21
-70.0750000000000028
0
LINE
8
BLACK
6
CONTINUOUS
10
75.6349840000000029
20
-70.0750000000000028
11
75.5393129999999928
21
-70.0559700000000021
0
LINE
8
BLACK
6
CONTINUOUS
10
75.5393129999999928
20
-70.0559700000000021
11
75.4582070000000016
21
-70.0017759999999925
0
LINE
8
BLACK
6
CONTINUOUS
10
75.4582070000000016
20
-70.0017759999999925
11
75.404012999999992
21
-69.9206700000000012
0
LINE
8
BLACK
6
CONTINUOUS
10
75.404012999999992
20
-69.9206700000000012
11
75.3849840000000029
21
-69.8249979999999937
0
LINE
8
BLACK
6
CONTINUOUS
10
75.3849840000000029
20
-69.8249979999999937
11
75.3849829999999912
21
-68.5750010000000003
0
LINE
8
BLACK
6
CONTINUOUS
10
75.3849829999999912
20
-68.5750010000000003
11
75.404012999999992
21
-68.4793299999999903
0
LINE
8
BLACK
6
CONTINUOUS
10
75.404012999999992
20
-68.4793299999999903
11
75.4582070000000016
21
-68.398223999999999
0
LINE
8
BLACK
6
CONTINUOUS
10
75.4582070000000016
20
-68.398223999999999
11
75.5393129999999928
21
-68.3440300000000036
0
LINE
8
BLACK
6
CONTINUOUS
10
75.5393129999999928
20
-68.3440300000000036
11
75.6349850000000004
21
-68.3250010000000003
0
LINE
8
BLACK
6
CONTINUOUS
10
75.6349850000000004
20
-68.3250010000000003
11
76.5599819999999909
21
-68.3250000000000028
0
LINE
8
BLACK
6
CONTINUOUS
10
76.5599819999999909
20
-68.3250000000000028
11
76.6556530000000009
21
-68.3440300000000036
0
LINE
8
BLACK
6
CONTINUOUS
10
89.6806529999999924
20
-68.3440300000000036
11
89.7617589999999979
21
-68.398223999999999
0
LINE
8
BLACK
6
CONTINUOUS
10
89.7617589999999979
20
-68.398223999999999
11
89.8159529999999933
21
-68.4793299999999903
0
LINE
8
BLACK
6
CONTINUOUS
10
89.8159529999999933
20
-68.4793299999999903
11
89.8349819999999966
21
-68.5750019999999978
0
LINE
8
BLACK
6
CONTINUOUS
10
89.8349819999999966
20
-68.5750019999999978
11
89.834982999999994
21
-69.8249989999999912
0
LINE
8
BLACK
6
CONTINUOUS
10
89.834982999999994
20
-69.8249989999999912
11
89.8159529999999933
21
-69.9206700000000012
0
LINE
8
BLACK
6
CONTINUOUS
10
89.8159529999999933
20
-69.9206700000000012
11
89.7617589999999979
21
-70.0017759999999925
0
LINE
8
BLACK
6
CONTINUOUS
10
89.7617589999999979
20
-70.0017759999999925
11
89.6806529999999924
21
-70.0559700000000021
0
LINE
8
BLACK
6
CONTINUOUS
10
89.6806529999999924
20
-70.0559700000000021
11
89.5849809999999991
21
-70.0749989999999912
0
LINE
8
BLACK
6
CONTINUOUS
10
89.5849809999999991
20
-70.0749989999999912
11
88.6599839999999944
21
-70.0750000000000028
0
LINE
8
BLACK
6
CONTINUOUS
10
88.6599839999999944
20
-70.0750000000000028
11
88.5643129999999985
21
-70.0559700000000021
0
LINE
8
BLACK
6
CONTINUOUS
10
88.5643129999999985
20
-70.0559700000000021
11
88.4832069999999931
21
-70.0017759999999925
0
LINE
8
BLACK
6
CONTINUOUS
10
88.4832069999999931
20
-70.0017759999999925
11
88.4290129999999976
21
-69.9206700000000012
0
LINE
8
BLACK
6
CONTINUOUS
10
88.4290129999999976
20
-69.9206700000000012
11
88.4099839999999944
21
-69.8249979999999937
0
LINE
8
BLACK
6
CONTINUOUS
10
88.4099839999999944
20
-69.8249979999999937
11
88.4099829999999969
21
-68.5750010000000003
0
LINE
8
BLACK
6
CONTINUOUS
10
88.4099829999999969
20
-68.5750010000000003
11
88.4290129999999976
21
-68.4793299999999903
0
LINE
8
BLACK
6
CONTINUOUS
10
88.4290129999999976
20
-68.4793299999999903
11
88.4832069999999931
21
-68.398223999999999
0
LINE
8
BLACK
6
CONTINUOUS
10
88.4832069999999931
20
-68.398223999999999
11
88.5643129999999985
21
-68.3440300000000036
0
LINE
8
BLACK
6
CONTINUOUS
10
88.5643129999999985
20
-68.3440300000000036
11
88.6599849999999918
21
-68.3250010000000003
0
LINE
8
BLACK
6
CONTINUOUS
10
88.6599849999999918
20
-68.3250010000000003
11
89.5849819999999966
21
-68.3250000000000028
0
LINE
8
BLACK
6
CONTINUOUS
10
89.5849819999999966
20
-68.3250000000000028
11
89.6806529999999924
21
-68.3440300000000036
0
LINE
8
BLACK
6
CONTINUOUS
10
92.6556530000000009
20
-68.3440300000000036
11
92.7367589999999922
21
-68.398223999999999
0
LINE
8
BLACK
6
CONTINUOUS
10
92.7367589999999922
20
-68.398223999999999
11
92.7909530000000018
21
-68.4793299999999903
0
LINE
8
BLACK
6
CONTINUOUS
10
92.7909530000000018
20
-68.4793299999999903
11
92.8099819999999909
21
-68.5750019999999978
0
LINE
8
BLACK
6
CONTINUOUS
10
92.8099819999999909
20
-68.5750019999999978
11
92.8099830000000026
21
-69.8249989999999912
0
LINE
8
BLACK
6
CONTINUOUS
10
92.8099830000000026
20
-69.8249989999999912
11
92.7909530000000018
21
-69.9206700000000012
0
LINE
8
BLACK
6
CONTINUOUS
10
92.7909530000000018
20
-69.9206700000000012
11
92.7367589999999922
21
-70.0017759999999925
0
LINE
8
BLACK
6
CONTINUOUS
10
92.7367589999999922
20
-70.0017759999999925
11
92.6556530000000009
21
-70.0559700000000021
0
LINE
8
BLACK
6
CONTINUOUS
10
92.6556530000000009
20
-70.0559700000000021
11
92.5599809999999934
21
-70.0749989999999912
0
LINE
8
BLACK
6
CONTINUOUS
10
92.5599809999999934
20
-70.0749989999999912
11
91.6349840000000029
21
-70.0750000000000028
0
LINE
8
BLACK
6
CONTINUOUS
10
91.6349840000000029
20
-70.0750000000000028
11
91.5393129999999928
21
-70.0559700000000021
0
LINE
8
BLACK
6
CONTINUOUS
10
91.5393129999999928
20
-70.0559700000000021
11
91.4582070000000016
21
-70.0017759999999925
0
LINE
8
BLACK
6
CONTINUOUS
10
91.4582070000000016
20
-70.0017759999999925
11
91.404012999999992
21
-69.9206700000000012
0
LINE
8
BLACK
6
CONTINUOUS
10
91.404012999999992
20
-69.9206700000000012
11
91.3849840000000029
21
-69.8249979999999937
0
LINE
8
BLACK
6
CONTINUOUS
10
91.3849840000000029
20
-69.8249979999999937
11
91.3849829999999912
21
-68.5750010000000003
0
LINE
8
BLACK
6
CONTINUOUS
10
91.3849829999999912
20
-68.5750010000000003
11
91.404012999999992
21
-68.4793299999999903
0
LINE
8
BLACK
6
CONTINUOUS
10
91.404012999999992
20
-68.4793299999999903
11
91.4582070000000016
21
-68.398223999999999
0
LINE
8
BLACK
6
CONTINUOUS
10
91.4582070000000016
20
-68.398223999999999
11
91.5393129999999928
21
-68.3440300000000036
0
LINE
8
BLACK
6
CONTINUOUS
10
91.5393129999999928
20
-68.3440300000000036
11
91.6349850000000004
21
-68.3250010000000003
0
LINE
8
BLACK
6
CONTINUOUS
10
91.6349850000000004
20
-68.3250010000000003
11
92.5599819999999909
21
-68.3250000000000028
0
LINE
8
BLACK
6
CONTINUOUS
10
92.5599819999999909
20
-68.3250000000000028
11
92.6556530000000009
21
-68.3440300000000036
0
LINE
8
BLACK
6
CONTINUOUS
10
105.6806529999999924
20
-68.3440300000000036
11
105.7617589999999979
21
-68.398223999999999
0
LINE
8
BLACK
6
CONTINUOUS
10
105.7617589999999979
20
-68.398223999999999
11
105.8159529999999933
21
-68.4793299999999903
0
LINE
8
BLACK
6
CONTINUOUS
10
105.8159529999999933
20
-68.4793299999999903
11
105.8349819999999966
21
-68.5750019999999978
0
LINE
8
BLACK
6
CONTINUOUS
10
105.8349819999999966
20
-68.5750019999999978
11
105.834982999999994
21
-69.8249989999999912
0
LINE
8
BLACK
6
CONTINUOUS
10
105.834982999999994
20
-69.8249989999999912
11
105.8159529999999933
21
-69.9206700000000012
0
LINE
8
BLACK
6
CONTINUOUS
10
105.8159529999999933
20
-69.9206700000000012
11
105.7617589999999979
21
-70.0017759999999925
0
LINE
8
BLACK
6
CONTINUOUS
10
105.7617589999999979
20
-70.0017759999999925
11
105.6806529999999924
21
-70.0559700000000021
0
LINE
8
BLACK
6
CONTINUOUS
10
105.6806529999999924
20
-70.0559700000000021
11
105.5849809999999991
21
-70.0749989999999912
0
LINE
8
BLACK
6
CONTINUOUS
10
105.5849809999999991
20
-70.0749989999999912
11
104.6599839999999944
21
-70.0750000000000028
0
LINE
8
BLACK
6
CONTINUOUS
10
104.6599839999999944
20
-70.0750000000000028
11
104.5643129999999985
21
-70.0559700000000021
0
LINE
8
BLACK
6
CONTINUOUS
10
104.5643129999999985
20
-70.0559700000000021
11
104.4832069999999931
21
-70.0017759999999925
0
LINE
8
BLACK
6
CONTINUOUS
10
104.4832069999999931
20
-70.0017759999999925
11
104.4290129999999976
21
-69.9206700000000012
0
LINE
8
BLACK
6
CONTINUOUS
10
104.4290129999999976
20
-69.9206700000000012
11
104.4099839999999944
21
-69.8249979999999937
0
LINE
8
BLACK
6
CONTINUOUS
10
104.4099839999999944
20
-69.8249979999999937
11
104.4099829999999969
21
-68.5750010000000003
0
LINE
8
BLACK
6
CONTINUOUS
10
104.4099829999999969
20
-68.5750010000000003
11
104.4290129999999976
21
-68.4793299999999903
0
LINE
8
BLACK
6
CONTINUOUS
10
104.4290129999999976
20
-68.4793299999999903
11
104.4832069999999931
21
-68.398223999999999
0
LINE
8
BLACK
6
CONTINUOUS
10
104.4832069999999931
20
-68.398223999999999
11
104.5643129999999985
21
-68.3440300000000036
0
LINE
8
BLACK
6
CONTINUOUS
10
104.5643129999999985
20
-68.3440300000000036
11
104.6599849999999918
21
-68.3250010000000003
0
LINE
8
BLACK
6
CONTINUOUS
10
104.6599849999999918
20
-68.3250010000000003
11
105.5849819999999966
21
-68.3250000000000028
0
LINE
8
BLACK
6
CONTINUOUS
10
105.5849819999999966
20
-68.3250000000000028
11
105.6806529999999924
21
-68.3440300000000036
0
LINE
8
BLACK
6
CONTINUOUS
10
108.6556530000000009
20
-68.3440300000000036
11
108.7367589999999922
21
-68.398223999999999
0
LINE
8
BLACK
6
CONTINUOUS
10
108.7367589999999922
20
-68.398223999999999
11
108.7909530000000018
21
-68.4793299999999903
0
LINE
8
BLACK
6
CONTINUOUS
10
108.7909530000000018
20
-68.4793299999999903
11
108.8099819999999909
21
-68.5750019999999978
0
LINE
8
BLACK
6
CONTINUOUS
10
108.8099819999999909
20
-68.5750019999999978
11
108.8099829999999884
21
-69.8249989999999912
0
LINE
8
BLACK
6
CONTINUOUS
10
108.8099829999999884
20
-69.8249989999999912
11
108.7909530000000018
21
-69.9206700000000012
0
LINE
8
BLACK
6
CONTINUOUS
10
108.7909530000000018
20
-69.9206700000000012
11
108.7367589999999922
21
-70.0017759999999925
0
LINE
8
BLACK
6
CONTINUOUS
10
108.7367589999999922
20
-70.0017759999999925
11
108.6556530000000009
21
-70.0559700000000021
0
LINE
8
BLACK
6
CONTINUOUS
10
108.6556530000000009
20
-70.0559700000000021
11
108.5599809999999934
21
-70.0749989999999912
0
LINE
8
BLACK
6
CONTINUOUS
10
108.5599809999999934
20
-70.0749989999999912
11
107.6349839999999887
21
-70.0750000000000028
0
LINE
8
BLACK
6
CONTINUOUS
10
107.6349839999999887
20
-70.0750000000000028
11
107.5393129999999928
21
-70.0559700000000021
0
LINE
8
BLACK
6
CONTINUOUS
10
107.5393129999999928
20
-70.0559700000000021
11
107.4582070000000016
21
-70.0017759999999925
0
LINE
8
BLACK
6
CONTINUOUS
10
107.4582070000000016
20
-70.0017759999999925
11
107.404012999999992
21
-69.9206700000000012
0
LINE
8
BLACK
6
CONTINUOUS
10
107.404012999999992
20
-69.9206700000000012
11
107.3849839999999887
21
-69.8249979999999937
0
LINE
8
BLACK
6
CONTINUOUS
10
107.3849839999999887
20
-69.8249979999999937
11
107.3849829999999912
21
-68.5750010000000003
0
LINE
8
BLACK
6
CONTINUOUS
10
107.3849829999999912
20
-68.5750010000000003
11
107.404012999999992
21
-68.4793299999999903
0
LINE
8
BLACK
6
CONTINUOUS
10
107.404012999999992
20
-68.4793299999999903
11
107.4582070000000016
21
-68.398223999999999
0
LINE
8
BLACK
6
CONTINUOUS
10
107.4582070000000016
20
-68.398223999999999
11
107.5393129999999928
21
-68.3440300000000036
0
LINE
8
BLACK
6
CONTINUOUS
10
107.5393129999999928
20
-68.3440300000000036
11
107.6349850000000004
21
-68.3250010000000003
0
LINE
8
BLACK
6
CONTINUOUS
10
107.6349850000000004
20
-68.3250010000000003
11
108.5599819999999909
21
-68.3250000000000028
0
LINE
8
BLACK
6
CONTINUOUS
10
108.5599819999999909
20
-68.3250000000000028
11
108.6556530000000009
21
-68.3440300000000036
0
LINE
8
BLACK
6
CONTINUOUS
10
121.6806529999999924
20
-68.3440300000000036
11
121.7617589999999979
21
-68.398223999999999
0
LINE
8
BLACK
6
CONTINUOUS
10
121.7617589999999979
20
-68.398223999999999
11
121.8159529999999933
21
-68.4793299999999903
0
LINE
8
BLACK
6
CONTINUOUS
10
121.8159529999999933
20
-68.4793299999999903
11
121.8349819999999966
21
-68.5750019999999978
0
LINE
8
BLACK
6
CONTINUOUS
10
121.8349819999999966
20
-68.5750019999999978
11
121.834982999999994
21
-69.8249989999999912
0
LINE
8
BLACK
6
CONTINUOUS
10
121.834982999999994
20
-69.8249989999999912
11
121.8159529999999933
21
-69.9206700000000012
0
LINE
8
BLACK
6
CONTINUOUS
10
121.8159529999999933
20
-69.9206700000000012
11
121.7617589999999979
21
-70.0017759999999925
0
LINE
8
BLACK
6
CONTINUOUS
10
121.7617589999999979
20
-70.0017759999999925
11
121.6806529999999924
21
-70.0559700000000021
0
LINE
8
BLACK
6
CONTINUOUS
10
121.6806529999999924
20
-70.0559700000000021
11
121.5849809999999991
21
-70.0749989999999912
0
LINE
8
BLACK
6
CONTINUOUS
10
121.5849809999999991
20
-70.0749989999999912
11
120.6599839999999944
21
-70.0750000000000028
0
LINE
8
BLACK
6
CONTINUOUS
10
120.6599839999999944
20
-70.0750000000000028
11
120.5643129999999985
21
-70.0559700000000021
0
LINE
8
BLACK
6
CONTINUOUS
10
120.5643129999999985
20
-70.0559700000000021
11
120.4832069999999931
21
-70.0017759999999925
0
LINE
8
BLACK
6
CONTINUOUS
10
120.4832069999999931
20
-70.0017759999999925
11
120.4290129999999976
21
-69.9206700000000012
0
LINE
8
BLACK
6
CONTINUOUS
10
120.4290129999999976
20
-69.9206700000000012
11
120.4099839999999944
21
-69.8249979999999937
0
LINE
8
BLACK
6
CONTINUOUS
10
120.4099839999999944
20
-69.8249979999999937
11
120.4099829999999969
21
-68.5750010000000003
0
LINE
8
BLACK
6
CONTINUOUS
10
120.4099829999999969
20
-68.5750010000000003
11
120.4290129999999976
21
-68.4793299999999903
0
LINE
8
BLACK
6
CONTINUOUS
10
120.4290129999999976
20
-68.4793299999999903
11
120.4832069999999931
21
-68.398223999999999
0
LINE
8
BLACK
6
CONTINUOUS
10
120.4832069999999931
20
-68.398223999999999
11
120.5643129999999985
21
-68.3440300000000036
0
LINE
8
BLACK
6
CONTINUOUS
10
120.5643129999999985
20
-68.3440300000000036
11
120.6599849999999918
21
-68.3250010000000003
0
LINE
8
BLACK
6
CONTINUOUS
10
120.6599849999999918
20
-68.3250010000000003
11
121.5849819999999966
21
-68.3250000000000028
0
LINE
8
BLACK
6
CONTINUOUS
10
121.5849819999999966
20
-68.3250000000000028
11
121.6806529999999924
21
-68.3440300000000036
0
LINE
8
BLACK
6
CONTINUOUS
10
124.6556530000000009
20
-68.3440300000000036
11
124.7367589999999922
21
-68.398223999999999
0
LINE
8
BLACK
6
CONTINUOUS
10
124.7367589999999922
20
-68.398223999999999
11
124.7909529999999876
21
-68.4793299999999903
0
LINE
8
BLACK
6
CONTINUOUS
10
124.7909529999999876
20
-68.4793299999999903
11
124.8099819999999909
21
-68.5750019999999978
0
LINE
8
BLACK
6
CONTINUOUS
10
124.8099819999999909
20
-68.5750019999999978
11
124.8099829999999884
21
-69.8249989999999912
0
LINE
8
BLACK
6
CONTINUOUS
10
124.8099829999999884
20
-69.8249989999999912
11
124.7909529999999876
21
-69.9206700000000012
0
LINE
8
BLACK
6
CONTINUOUS
10
124.7909529999999876
20
-69.9206700000000012
11
124.7367589999999922
21
-70.0017759999999925
0
LINE
8
BLACK
6
CONTINUOUS
10
124.7367589999999922
20
-70.0017759999999925
11
124.6556530000000009
21
-70.0559700000000021
0
LINE
8
BLACK
6
CONTINUOUS
10
124.6556530000000009
20
-70.0559700000000021
11
124.5599809999999934
21
-70.0749989999999912
0
LINE
8
BLACK
6
CONTINUOUS
10
124.5599809999999934
20
-70.0749989999999912
11
123.6349839999999887
21
-70.0750000000000028
0
LINE
8
BLACK
6
CONTINUOUS
10
123.6349839999999887
20
-70.0750000000000028
11
123.5393129999999928
21
-70.0559700000000021
0
LINE
8
BLACK
6
CONTINUOUS
10
123.5393129999999928
20
-70.0559700000000021
11
123.4582069999999874
21
-70.0017759999999925
0
LINE
8
BLACK
6
CONTINUOUS
10
123.4582069999999874
20
-70.0017759999999925
11
123.404012999999992
21
-69.9206700000000012
0
LINE
8
BLACK
6
CONTINUOUS
10
123.404012999999992
20
-69.9206700000000012
11
123.3849839999999887
21
-69.8249979999999937
0
LINE
8
BLACK
6
CONTINUOUS
10
123.3849839999999887
20
-69.8249979999999937
11
123.3849829999999912
21
-68.5750010000000003
0
LINE
8
BLACK
6
CONTINUOUS
10
123.3849829999999912
20
-68.5750010000000003
11
123.404012999999992
21
-68.4793299999999903
0
LINE
8
BLACK
6
CONTINUOUS
10
123.404012999999992
20
-68.4793299999999903
11
123.4582069999999874
21
-68.398223999999999
0
LINE
8
BLACK
6
CONTINUOUS
10
123.4582069999999874
20
-68.398223999999999
11
123.5393129999999928
21
-68.3440300000000036
0
LINE
8
BLACK
6
CONTINUOUS
10
123.5393129999999928
20
-68.3440300000000036
11
123.6349850000000004
21
-68.3250010000000003
0
LINE
8
BLACK
6
CONTINUOUS
10
123.6349850000000004
20
-68.3250010000000003
11
124.5599819999999909
21
-68.3250000000000028
0
LINE
8
BLACK
6
CONTINUOUS
10
124.5599819999999909
20
-68.3250000000000028
11
124.6556530000000009
21
-68.3440300000000036
0
LINE
8
BLACK
6
CONTINUOUS
10
137.6806530000000066
20
-68.3440300000000036
11
137.7617589999999836
21
-68.398223999999999
0
LINE
8
BLACK
6
CONTINUOUS
10
137.7617589999999836
20
-68.398223999999999
11
137.8159530000000075
21
-68.4793299999999903
0
LINE
8
BLACK
6
CONTINUOUS
10
137.8159530000000075
20
-68.4793299999999903
11
137.8349819999999966
21
-68.5750019999999978
0
LINE
8
BLACK
6
CONTINUOUS
10
137.8349819999999966
20
-68.5750019999999978
11
137.834982999999994
21
-69.8249989999999912
0
LINE
8
BLACK
6
CONTINUOUS
10
137.834982999999994
20
-69.8249989999999912
11
137.8159530000000075
21
-69.9206700000000012
0
LINE
8
BLACK
6
CONTINUOUS
10
137.8159530000000075
20
-69.9206700000000012
11
137.7617589999999836
21
-70.0017759999999925
0
LINE
8
BLACK
6
CONTINUOUS
10
137.7617589999999836
20
-70.0017759999999925
11
137.6806530000000066
21
-70.0559700000000021
0
LINE
8
BLACK
6
CONTINUOUS
10
137.6806530000000066
20
-70.0559700000000021
11
137.5849809999999991
21
-70.0749989999999912
0
LINE
8
BLACK
6
CONTINUOUS
10
137.5849809999999991
20
-70.0749989999999912
11
136.6599839999999801
21
-70.0750000000000028
0
LINE
8
BLACK
6
CONTINUOUS
10
136.6599839999999801
20
-70.0750000000000028
11
136.5643129999999985
21
-70.0559700000000021
0
LINE
8
BLACK
6
CONTINUOUS
10
136.5643129999999985
20
-70.0559700000000021
11
136.4832069999999931
21
-70.0017759999999925
0
LINE
8
BLACK
6
CONTINUOUS
10
136.4832069999999931
20
-70.0017759999999925
11
136.4290129999999976
21
-69.9206700000000012
0
LINE
8
BLACK
6
CONTINUOUS
10
136.4290129999999976
20
-69.9206700000000012
11
136.4099839999999801
21
-69.8249979999999937
0
LINE
8
BLACK
6
CONTINUOUS
10
136.4099839999999801
20
-69.8249979999999937
11
136.4099829999999827
21
-68.5750010000000003
0
LINE
8
BLACK
6
CONTINUOUS
10
136.4099829999999827
20
-68.5750010000000003
11
136.4290129999999976
21
-68.4793299999999903
0
LINE
8
BLACK
6
CONTINUOUS
10
136.4290129999999976
20
-68.4793299999999903
11
136.4832069999999931
21
-68.398223999999999
0
LINE
8
BLACK
6
CONTINUOUS
10
136.4832069999999931
20
-68.398223999999999
11
136.5643129999999985
21
-68.3440300000000036
0
LINE
8
BLACK
6
CONTINUOUS
10
136.5643129999999985
20
-68.3440300000000036
11
136.659985000000006
21
-68.3250010000000003
0
LINE
8
BLACK
6
CONTINUOUS
10
136.659985000000006
20
-68.3250010000000003
11
137.5849819999999966
21
-68.3250000000000028
0
LINE
8
BLACK
6
CONTINUOUS
10
137.5849819999999966
20
-68.3250000000000028
11
137.6806530000000066
21
-68.3440300000000036
0
LINE
8
BLACK
6
CONTINUOUS
10
140.6556530000000009
20
-68.3440300000000036
11
140.7367590000000064
21
-68.398223999999999
0
LINE
8
BLACK
6
CONTINUOUS
10
140.7367590000000064
20
-68.398223999999999
11
140.7909530000000018
21
-68.4793299999999903
0
LINE
8
BLACK
6
CONTINUOUS
10
140.7909530000000018
20
-68.4793299999999903
11
140.8099819999999909
21
-68.5750019999999978
0
LINE
8
BLACK
6
CONTINUOUS
10
140.8099819999999909
20
-68.5750019999999978
11
140.8099829999999884
21
-69.8249989999999912
0
LINE
8
BLACK
6
CONTINUOUS
10
140.8099829999999884
20
-69.8249989999999912
11
140.7909530000000018
21
-69.9206700000000012
0
LINE
8
BLACK
6
CONTINUOUS
10
140.7909530000000018
20
-69.9206700000000012
11
140.7367590000000064
21
-70.0017759999999925
0
LINE
8
BLACK
6
CONTINUOUS
10
140.7367590000000064
20
-70.0017759999999925
11
140.6556530000000009
21
-70.0559700000000021
0
LINE
8
BLACK
6
CONTINUOUS
10
140.6556530000000009
20
-70.0559700000000021
11
140.5599809999999934
21
-70.0749989999999912
0
LINE
8
BLACK
6
CONTINUOUS
10
140.5599809999999934
20
-70.0749989999999912
11
139.6349840000000029
21
-70.0750000000000028
0
LINE
8
BLACK
6
CONTINUOUS
10
139.6349840000000029
20
-70.0750000000000028
11
139.5393129999999928
21
-70.0559700000000021
0
LINE
8
BLACK
6
CONTINUOUS
10
139.5393129999999928
20
-70.0559700000000021
11
139.4582069999999874
21
-70.0017759999999925
0
LINE
8
BLACK
6
CONTINUOUS
10
139.4582069999999874
20
-70.0017759999999925
11
139.404012999999992
21
-69.9206700000000012
0
LINE
8
BLACK
6
CONTINUOUS
10
139.404012999999992
20
-69.9206700000000012
11
139.3849840000000029
21
-69.8249979999999937
0
LINE
8
BLACK
6
CONTINUOUS
10
139.3849840000000029
20
-69.8249979999999937
11
139.3849830000000054
21
-68.5750010000000003
0
LINE
8
BLACK
6
CONTINUOUS
10
139.3849830000000054
20
-68.5750010000000003
11
139.404012999999992
21
-68.4793299999999903
0
LINE
8
BLACK
6
CONTINUOUS
10
139.404012999999992
20
-68.4793299999999903
11
139.4582069999999874
21
-68.398223999999999
0
LINE
8
BLACK
6
CONTINUOUS
10
139.4582069999999874
20
-68.398223999999999
11
139.5393129999999928
21
-68.3440300000000036
0
LINE
8
BLACK
6
CONTINUOUS
10
139.5393129999999928
20
-68.3440300000000036
11
139.6349850000000004
21
-68.3250010000000003
0
LINE
8
BLACK
6
CONTINUOUS
10
139.6349850000000004
20
-68.3250010000000003
11
140.5599819999999909
21
-68.3250000000000028
0
LINE
8
BLACK
6
CONTINUOUS
10
140.5599819999999909
20
-68.3250000000000028
11
140.6556530000000009
21
-68.3440300000000036
0
LINE
8
BLACK
6
CONTINUOUS
10
65.5456709999999987
20
-67.4190299999999922
11
65.6267769999999899
21
-67.4732229999999902
0
LINE
8
BLACK
6
CONTINUOUS
10
65.6267769999999899
20
-67.4732229999999902
11
65.6809700000000021
21
-67.5543289999999956
0
LINE
8
BLACK
6
CONTINUOUS
10
65.6809700000000021
20
-67.5543289999999956
11
65.7000000000000028
21
-67.6499999999999915
0
LINE
8
BLACK
6
CONTINUOUS
10
65.7000000000000028
20
-67.6499999999999915
11
65.7000000000000028
21
-68.3499999999999943
0
LINE
8
BLACK
6
CONTINUOUS
10
65.7000000000000028
20
-68.3499999999999943
11
65.6809700000000021
21
-68.4456709999999902
0
LINE
8
BLACK
6
CONTINUOUS
10
65.6809700000000021
20
-68.4456709999999902
11
65.6267769999999899
21
-68.5267769999999956
0
LINE
8
BLACK
6
CONTINUOUS
10
65.6267769999999899
20
-68.5267769999999956
11
65.5456709999999987
21
-68.5809699999999935
0
LINE
8
BLACK
6
CONTINUOUS
10
65.5456709999999987
20
-68.5809699999999935
11
65.4500000000000028
21
-68.5999999999999943
0
LINE
8
BLACK
6
CONTINUOUS
10
65.4500000000000028
20
-68.5999999999999943
11
64.5499999999999972
21
-68.5999999999999943
0
LINE
8
BLACK
6
CONTINUOUS
10
64.5499999999999972
20
-68.5999999999999943
11
64.4543290000000013
21
-68.5809699999999935
0
LINE
8
BLACK
6
CONTINUOUS
10
64.4543290000000013
20
-68.5809699999999935
11
64.3732229999999959
21
-68.5267769999999956
0
LINE
8
BLACK
6
CONTINUOUS
10
64.3732229999999959
20
-68.5267769999999956
11
64.3190299999999979
21
-68.4456709999999902
0
LINE
8
BLACK
6
CONTINUOUS
10
64.3190299999999979
20
-68.4456709999999902
11
64.2999999999999972
21
-68.3499999999999943
0
LINE
8
BLACK
6
CONTINUOUS
10
64.2999999999999972
20
-68.3499999999999943
11
64.2999999999999972
21
-67.6499999999999915
0
LINE
8
BLACK
6
CONTINUOUS
10
64.2999999999999972
20
-67.6499999999999915
11
64.3190299999999979
21
-67.5543289999999956
0
LINE
8
BLACK
6
CONTINUOUS
10
64.3190299999999979
20
-67.5543289999999956
11
64.3732229999999959
21
-67.4732229999999902
0
LINE
8
BLACK
6
CONTINUOUS
10
64.3732229999999959
20
-67.4732229999999902
11
64.4543290000000013
21
-67.4190299999999922
0
LINE
8
BLACK
6
CONTINUOUS
10
64.4543290000000013
20
-67.4190299999999922
11
64.5499999999999972
21
-67.3999999999999915
0
LINE
8
BLACK
6
CONTINUOUS
10
64.5499999999999972
20
-67.3999999999999915
11
65.4500000000000028
21
-67.3999999999999915
0
LINE
8
BLACK
6
CONTINUOUS
10
65.4500000000000028
20
-67.3999999999999915
11
65.5456709999999987
21
-67.4190299999999922
0
LINE
8
BLACK
6
CONTINUOUS
10
81.5456709999999987
20
-67.4190299999999922
11
81.6267769999999899
21
-67.4732229999999902
0
LINE
8
BLACK
6
CONTINUOUS
10
81.6267769999999899
20
-67.4732229999999902
11
81.6809700000000021
21
-67.5543289999999956
0
LINE
8
BLACK
6
CONTINUOUS
10
81.6809700000000021
20
-67.5543289999999956
11
81.7000000000000028
21
-67.6499999999999915
0
LINE
8
BLACK
6
CONTINUOUS
10
81.7000000000000028
20
-67.6499999999999915
11
81.7000000000000028
21
-68.3499999999999943
0
LINE
8
BLACK
6
CONTINUOUS
10
81.7000000000000028
20
-68.3499999999999943
11
81.6809700000000021
21
-68.4456709999999902
0
LINE
8
BLACK
6
CONTINUOUS
10
81.6809700000000021
20
-68.4456709999999902
11
81.6267769999999899
21
-68.5267769999999956
0
LINE
8
BLACK
6
CONTINUOUS
10
81.6267769999999899
20
-68.5267769999999956
11
81.5456709999999987
21
-68.5809699999999935
0
LINE
8
BLACK
6
CONTINUOUS
10
81.5456709999999987
20
-68.5809699999999935
11
81.4500000000000028
21
-68.5999999999999943
0
LINE
8
BLACK
6
CONTINUOUS
10
81.4500000000000028
20
-68.5999999999999943
11
80.5499999999999972
21
-68.5999999999999943
0
LINE
8
BLACK
6
CONTINUOUS
10
80.5499999999999972
20
-68.5999999999999943
11
80.4543290000000013
21
-68.5809699999999935
0
LINE
8
BLACK
6
CONTINUOUS
10
80.4543290000000013
20
-68.5809699999999935
11
80.3732229999999959
21
-68.5267769999999956
0
LINE
8
BLACK
6
CONTINUOUS
10
80.3732229999999959
20
-68.5267769999999956
11
80.3190299999999979
21
-68.4456709999999902
0
LINE
8
BLACK
6
CONTINUOUS
10
80.3190299999999979
20
-68.4456709999999902
11
80.2999999999999972
21
-68.3499999999999943
0
LINE
8
BLACK
6
CONTINUOUS
10
80.2999999999999972
20
-68.3499999999999943
11
80.2999999999999972
21
-67.6499999999999915
0
LINE
8
BLACK
6
CONTINUOUS
10
80.2999999999999972
20
-67.6499999999999915
11
80.3190299999999979
21
-67.5543289999999956
0
LINE
8
BLACK
6
CONTINUOUS
10
80.3190299999999979
20
-67.5543289999999956
11
80.3732229999999959
21
-67.4732229999999902
0
LINE
8
BLACK
6
CONTINUOUS
10
80.3732229999999959
20
-67.4732229999999902
11
80.4543290000000013
21
-67.4190299999999922
0
LINE
8
BLACK
6
CONTINUOUS
10
80.4543290000000013
20
-67.4190299999999922
11
80.5499999999999972
21
-67.3999999999999915
0
LINE
8
BLACK
6
CONTINUOUS
10
80.5499999999999972
20
-67.3999999999999915
11
81.4500000000000028
21
-67.3999999999999915
0
LINE
8
BLACK
6
CONTINUOUS
10
81.4500000000000028
20
-67.3999999999999915
11
81.5456709999999987
21
-67.4190299999999922
0
LINE
8
BLACK
6
CONTINUOUS
10
97.0456709999999987
20
-67.4190299999999922
11
97.1267769999999899
21
-67.4732229999999902
0
LINE
8
BLACK
6
CONTINUOUS
10
97.1267769999999899
20
-67.4732229999999902
11
97.1809700000000021
21
-67.5543289999999956
0
LINE
8
BLACK
6
CONTINUOUS
10
97.1809700000000021
20
-67.5543289999999956
11
97.1999999999999886
21
-67.6499999999999915
0
LINE
8
BLACK
6
CONTINUOUS
10
97.1999999999999886
20
-67.6499999999999915
11
97.1999999999999886
21
-68.3499999999999943
0
LINE
8
BLACK
6
CONTINUOUS
10
97.1999999999999886
20
-68.3499999999999943
11
97.1809700000000021
21
-68.4456709999999902
0
LINE
8
BLACK
6
CONTINUOUS
10
97.1809700000000021
20
-68.4456709999999902
11
97.1267769999999899
21
-68.5267769999999956
0
LINE
8
BLACK
6
CONTINUOUS
10
97.1267769999999899
20
-68.5267769999999956
11
97.0456709999999987
21
-68.5809699999999935
0
LINE
8
BLACK
6
CONTINUOUS
10
97.0456709999999987
20
-68.5809699999999935
11
96.9499999999999886
21
-68.5999999999999943
0
LINE
8
BLACK
6
CONTINUOUS
10
96.9499999999999886
20
-68.5999999999999943
11
96.0499999999999972
21
-68.5999999999999943
0
LINE
8
BLACK
6
CONTINUOUS
10
96.0499999999999972
20
-68.5999999999999943
11
95.9543290000000013
21
-68.5809699999999935
0
LINE
8
BLACK
6
CONTINUOUS
10
95.9543290000000013
20
-68.5809699999999935
11
95.8732229999999959
21
-68.5267769999999956
0
LINE
8
BLACK
6
CONTINUOUS
10
95.8732229999999959
20
-68.5267769999999956
11
95.8190299999999979
21
-68.4456709999999902
0
LINE
8
BLACK
6
CONTINUOUS
10
95.8190299999999979
20
-68.4456709999999902
11
95.7999999999999972
21
-68.3499999999999943
0
LINE
8
BLACK
6
CONTINUOUS
10
95.7999999999999972
20
-68.3499999999999943
11
95.7999999999999972
21
-67.6499999999999915
0
LINE
8
BLACK
6
CONTINUOUS
10
95.7999999999999972
20
-67.6499999999999915
11
95.8190299999999979
21
-67.5543289999999956
0
LINE
8
BLACK
6
CONTINUOUS
10
95.8190299999999979
20
-67.5543289999999956
11
95.8732229999999959
21
-67.4732229999999902
0
LINE
8
BLACK
6
CONTINUOUS
10
95.8732229999999959
20
-67.4732229999999902
11
95.9543290000000013
21
-67.4190299999999922
0
LINE
8
BLACK
6
CONTINUOUS
10
95.9543290000000013
20
-67.4190299999999922
11
96.0499999999999972
21
-67.3999999999999915
0
LINE
8
BLACK
6
CONTINUOUS
10
96.0499999999999972
20
-67.3999999999999915
11
96.9499999999999886
21
-67.3999999999999915
0
LINE
8
BLACK
6
CONTINUOUS
10
96.9499999999999886
20
-67.3999999999999915
11
97.0456709999999987
21
-67.4190299999999922
0
LINE
8
BLACK
6
CONTINUOUS
10
113.0456709999999987
20
-67.4190299999999922
11
113.1267769999999899
21
-67.4732229999999902
0
LINE
8
BLACK
6
CONTINUOUS
10
113.1267769999999899
20
-67.4732229999999902
11
113.1809699999999879
21
-67.5543289999999956
0
LINE
8
BLACK
6
CONTINUOUS
10
113.1809699999999879
20
-67.5543289999999956
11
113.1999999999999886
21
-67.6499999999999915
0
LINE
8
BLACK
6
CONTINUOUS
10
113.1999999999999886
20
-67.6499999999999915
11
113.1999999999999886
21
-68.3499999999999943
0
LINE
8
BLACK
6
CONTINUOUS
10
113.1999999999999886
20
-68.3499999999999943
11
113.1809699999999879
21
-68.4456709999999902
0
LINE
8
BLACK
6
CONTINUOUS
10
113.1809699999999879
20
-68.4456709999999902
11
113.1267769999999899
21
-68.5267769999999956
0
LINE
8
BLACK
6
CONTINUOUS
10
113.1267769999999899
20
-68.5267769999999956
11
113.0456709999999987
21
-68.5809699999999935
0
LINE
8
BLACK
6
CONTINUOUS
10
113.0456709999999987
20
-68.5809699999999935
11
112.9499999999999886
21
-68.5999999999999943
0
LINE
8
BLACK
6
CONTINUOUS
10
112.9499999999999886
20
-68.5999999999999943
11
112.0499999999999972
21
-68.5999999999999943
0
LINE
8
BLACK
6
CONTINUOUS
10
112.0499999999999972
20
-68.5999999999999943
11
111.9543290000000013
21
-68.5809699999999935
0
LINE
8
BLACK
6
CONTINUOUS
10
111.9543290000000013
20
-68.5809699999999935
11
111.8732229999999959
21
-68.5267769999999956
0
LINE
8
BLACK
6
CONTINUOUS
10
111.8732229999999959
20
-68.5267769999999956
11
111.8190299999999979
21
-68.4456709999999902
0
LINE
8
BLACK
6
CONTINUOUS
10
111.8190299999999979
20
-68.4456709999999902
11
111.7999999999999972
21
-68.3499999999999943
0
LINE
8
BLACK
6
CONTINUOUS
10
111.7999999999999972
20
-68.3499999999999943
11
111.7999999999999972
21
-67.6499999999999915
0
LINE
8
BLACK
6
CONTINUOUS
10
111.7999999999999972
20
-67.6499999999999915
11
111.8190299999999979
21
-67.5543289999999956
0
LINE
8
BLACK
6
CONTINUOUS
10
111.8190299999999979
20
-67.5543289999999956
11
111.8732229999999959
21
-67.4732229999999902
0
LINE
8
BLACK
6
CONTINUOUS
10
111.8732229999999959
20
-67.4732229999999902
11
111.9543290000000013
21
-67.4190299999999922
0
LINE
8
BLACK
6
CONTINUOUS
10
111.9543290000000013
20
-67.4190299999999922
11
112.0499999999999972
21
-67.3999999999999915
0
LINE
8
BLACK
6
CONTINUOUS
10
112.0499999999999972
20
-67.3999999999999915
11
112.9499999999999886
21
-67.3999999999999915
0
LINE
8
BLACK
6
CONTINUOUS
10
112.9499999999999886
20
-67.3999999999999915
11
113.0456709999999987
21
-67.4190299999999922
0
LINE
8
BLACK
6
CONTINUOUS
10
129.0456709999999987
20
-67.4190299999999922
11
129.1267770000000041
21
-67.4732229999999902
0
LINE
8
BLACK
6
CONTINUOUS
10
129.1267770000000041
20
-67.4732229999999902
11
129.1809700000000021
21
-67.5543289999999956
0
LINE
8
BLACK
6
CONTINUOUS
10
129.1809700000000021
20
-67.5543289999999956
11
129.1999999999999886
21
-67.6499999999999915
0
LINE
8
BLACK
6
CONTINUOUS
10
129.1999999999999886
20
-67.6499999999999915
11
129.1999999999999886
21
-68.3499999999999943
0
LINE
8
BLACK
6
CONTINUOUS
10
129.1999999999999886
20
-68.3499999999999943
11
129.1809700000000021
21
-68.4456709999999902
0
LINE
8
BLACK
6
CONTINUOUS
10
129.1809700000000021
20
-68.4456709999999902
11
129.1267770000000041
21
-68.5267769999999956
0
LINE
8
BLACK
6
CONTINUOUS
10
129.1267770000000041
20
-68.5267769999999956
11
129.0456709999999987
21
-68.5809699999999935
0
LINE
8
BLACK
6
CONTINUOUS
10
129.0456709999999987
20
-68.5809699999999935
11
128.9499999999999886
21
-68.5999999999999943
0
LINE
8
BLACK
6
CONTINUOUS
10
128.9499999999999886
20
-68.5999999999999943
11
128.0499999999999829
21
-68.5999999999999943
0
LINE
8
BLACK
6
CONTINUOUS
10
128.0499999999999829
20
-68.5999999999999943
11
127.9543290000000013
21
-68.5809699999999935
0
LINE
8
BLACK
6
CONTINUOUS
10
127.9543290000000013
20
-68.5809699999999935
11
127.8732229999999959
21
-68.5267769999999956
0
LINE
8
BLACK
6
CONTINUOUS
10
127.8732229999999959
20
-68.5267769999999956
11
127.8190299999999979
21
-68.4456709999999902
0
LINE
8
BLACK
6
CONTINUOUS
10
127.8190299999999979
20
-68.4456709999999902
11
127.7999999999999972
21
-68.3499999999999943
0
LINE
8
BLACK
6
CONTINUOUS
10
127.7999999999999972
20
-68.3499999999999943
11
127.7999999999999972
21
-67.6499999999999915
0
LINE
8
BLACK
6
CONTINUOUS
10
127.7999999999999972
20
-67.6499999999999915
11
127.8190299999999979
21
-67.5543289999999956
0
LINE
8
BLACK
6
CONTINUOUS
10
127.8190299999999979
20
-67.5543289999999956
11
127.8732229999999959
21
-67.4732229999999902
0
LINE
8
BLACK
6
CONTINUOUS
10
127.8732229999999959
20
-67.4732229999999902
11
127.9543290000000013
21
-67.4190299999999922
0
LINE
8
BLACK
6
CONTINUOUS
10
127.9543290000000013
20
-67.4190299999999922
11
128.0499999999999829
21
-67.3999999999999915
0
LINE
8
BLACK
6
CONTINUOUS
10
128.0499999999999829
20
-67.3999999999999915
11
128.9499999999999886
21
-67.3999999999999915
0
LINE
8
BLACK
6
CONTINUOUS
10
128.9499999999999886
20
-67.3999999999999915
11
129.0456709999999987
21
-67.4190299999999922
0
LINE
8
BLACK
6
CONTINUOUS
10
134.0456709999999987
20
-67.4190299999999922
11
134.1267770000000041
21
-67.4732229999999902
0
LINE
8
BLACK
6
CONTINUOUS
10
134.1267770000000041
20
-67.4732229999999902
11
134.1809700000000021
21
-67.5543289999999956
0
LINE
8
BLACK
6
CONTINUOUS
10
134.1809700000000021
20
-67.5543289999999956
11
134.1999999999999886
21
-67.6499999999999915
0
LINE
8
BLACK
6
CONTINUOUS
10
134.1999999999999886
20
-67.6499999999999915
11
134.1999999999999886
21
-68.3499999999999943
0
LINE
8
BLACK
6
CONTINUOUS
10
134.1999999999999886
20
-68.3499999999999943
11
134.1809700000000021
21
-68.4456709999999902
0
LINE
8
BLACK
6
CONTINUOUS
10
134.1809700000000021
20
-68.4456709999999902
11
134.1267770000000041
21
-68.5267769999999956
0
LINE
8
BLACK
6
CONTINUOUS
10
134.1267770000000041
20
-68.5267769999999956
11
134.0456709999999987
21
-68.5809699999999935
0
LINE
8
BLACK
6
CONTINUOUS
10
134.0456709999999987
20
-68.5809699999999935
11
133.9499999999999886
21
-68.5999999999999943
0
LINE
8
BLACK
6
CONTINUOUS
10
133.9499999999999886
20
-68.5999999999999943
11
133.0499999999999829
21
-68.5999999999999943
0
LINE
8
BLACK
6
CONTINUOUS
10
133.0499999999999829
20
-68.5999999999999943
11
132.9543290000000013
21
-68.5809699999999935
0
LINE
8
BLACK
6
CONTINUOUS
10
132.9543290000000013
20
-68.5809699999999935
11
132.8732229999999959
21
-68.5267769999999956
0
LINE
8
BLACK
6
CONTINUOUS
10
132.8732229999999959
20
-68.5267769999999956
11
132.8190299999999979
21
-68.4456709999999902
0
LINE
8
BLACK
6
CONTINUOUS
10
132.8190299999999979
20
-68.4456709999999902
11
132.7999999999999829
21
-68.3499999999999943
0
LINE
8
BLACK
6
CONTINUOUS
10
132.7999999999999829
20
-68.3499999999999943
11
132.7999999999999829
21
-67.6499999999999915
0
LINE
8
BLACK
6
CONTINUOUS
10
132.7999999999999829
20
-67.6499999999999915
11
132.8190299999999979
21
-67.5543289999999956
0
LINE
8
BLACK
6
CONTINUOUS
10
132.8190299999999979
20
-67.5543289999999956
11
132.8732229999999959
21
-67.4732229999999902
0
LINE
8
BLACK
6
CONTINUOUS
10
132.8732229999999959
20
-67.4732229999999902
11
132.9543290000000013
21
-67.4190299999999922
0
LINE
8
BLACK
6
CONTINUOUS
10
132.9543290000000013
20
-67.4190299999999922
11
133.0499999999999829
21
-67.3999999999999915
0
LINE
8
BLACK
6
CONTINUOUS
10
133.0499999999999829
20
-67.3999999999999915
11
133.9499999999999886
21
-67.3999999999999915
0
LINE
8
BLACK
6
CONTINUOUS
10
133.9499999999999886
20
-67.3999999999999915
11
134.0456709999999987
21
-67.4190299999999922
0
LINE
8
BLACK
6
CONTINUOUS
10
65.5456709999999987
20
-65.4190299999999922
11
65.6267769999999899
21
-65.4732229999999902
0
LINE
8
BLACK
6
CONTINUOUS
10
65.6267769999999899
20
-65.4732229999999902
11
65.6809700000000021
21
-65.5543289999999956
0
LINE
8
BLACK
6
CONTINUOUS
10
65.6809700000000021
20
-65.5543289999999956
11
65.7000000000000028
21
-65.6499999999999915
0
LINE
8
BLACK
6
CONTINUOUS
10
65.7000000000000028
20
-65.6499999999999915
11
65.7000000000000028
21
-66.3499999999999943
0
LINE
8
BLACK
6
CONTINUOUS
10
65.7000000000000028
20
-66.3499999999999943
11
65.6809700000000021
21
-66.4456709999999902
0
LINE
8
BLACK
6
CONTINUOUS
10
65.6809700000000021
20
-66.4456709999999902
11
65.6267769999999899
21
-66.5267769999999956
0
LINE
8
BLACK
6
CONTINUOUS
10
65.6267769999999899
20
-66.5267769999999956
11
65.5456709999999987
21
-66.5809699999999935
0
LINE
8
BLACK
6
CONTINUOUS
10
65.5456709999999987
20
-66.5809699999999935
11
65.4500000000000028
21
-66.5999999999999943
0
LINE
8
BLACK
6
CONTINUOUS
10
65.4500000000000028
20
-66.5999999999999943
11
64.5499999999999972
21
-66.5999999999999943
0
LINE
8
BLACK
6
CONTINUOUS
10
64.5499999999999972
20
-66.5999999999999943
11
64.4543290000000013
21
-66.5809699999999935
0
LINE
8
BLACK
6
CONTINUOUS
10
64.4543290000000013
20
-66.5809699999999935
11
64.3732229999999959
21
-66.5267769999999956
0
LINE
8
BLACK
6
CONTINUOUS
10
64.3732229999999959
20
-66.5267769999999956
11
64.3190299999999979
21
-66.4456709999999902
0
LINE
8
BLACK
6
CONTINUOUS
10
64.3190299999999979
20
-66.4456709999999902
11
64.2999999999999972
21
-66.3499999999999943
0
LINE
8
BLACK
6
CONTINUOUS
10
64.2999999999999972
20
-66.3499999999999943
11
64.2999999999999972
21
-65.6499999999999915
0
LINE
8
BLACK
6
CONTINUOUS
10
64.2999999999999972
20
-65.6499999999999915
11
64.3190299999999979
21
-65.5543289999999956
0
LINE
8
BLACK
6
CONTINUOUS
10
64.3190299999999979
20
-65.5543289999999956
11
64.3732229999999959
21
-65.4732229999999902
0
LINE
8
BLACK
6
CONTINUOUS
10
64.3732229999999959
20
-65.4732229999999902
11
64.4543290000000013
21
-65.4190299999999922
0
LINE
8
BLACK
6
CONTINUOUS
10
64.4543290000000013
20
-65.4190299999999922
11
64.5499999999999972
21
-65.3999999999999915
0
LINE
8
BLACK
6
CONTINUOUS
10
64.5499999999999972
20
-65.3999999999999915
11
65.4500000000000028
21
-65.3999999999999915
0
LINE
8
BLACK
6
CONTINUOUS
10
65.4500000000000028
20
-65.3999999999999915
11
65.5456709999999987
21
-65.4190299999999922
0
LINE
8
BLACK
6
CONTINUOUS
10
81.5456709999999987
20
-65.4190299999999922
11
81.6267769999999899
21
-65.4732229999999902
0
LINE
8
BLACK
6
CONTINUOUS
10
81.6267769999999899
20
-65.4732229999999902
11
81.6809700000000021
21
-65.5543289999999956
0
LINE
8
BLACK
6
CONTINUOUS
10
81.6809700000000021
20
-65.5543289999999956
11
81.7000000000000028
21
-65.6499999999999915
0
LINE
8
BLACK
6
CONTINUOUS
10
81.7000000000000028
20
-65.6499999999999915
11
81.7000000000000028
21
-66.3499999999999943
0
LINE
8
BLACK
6
CONTINUOUS
10
81.7000000000000028
20
-66.3499999999999943
11
81.6809700000000021
21
-66.4456709999999902
0
LINE
8
BLACK
6
CONTINUOUS
10
81.6809700000000021
20
-66.4456709999999902
11
81.6267769999999899
21
-66.5267769999999956
0
LINE
8
BLACK
6
CONTINUOUS
10
81.6267769999999899
20
-66.5267769999999956
11
81.5456709999999987
21
-66.5809699999999935
0
LINE
8
BLACK
6
CONTINUOUS
10
81.5456709999999987
20
-66.5809699999999935
11
81.4500000000000028
21
-66.5999999999999943
0
LINE
8
BLACK
6
CONTINUOUS
10
81.4500000000000028
20
-66.5999999999999943
11
80.5499999999999972
21
-66.5999999999999943
0
LINE
8
BLACK
6
CONTINUOUS
10
80.5499999999999972
20
-66.5999999999999943
11
80.4543290000000013
21
-66.5809699999999935
0
LINE
8
BLACK
6
CONTINUOUS
10
80.4543290000000013
20
-66.5809699999999935
11
80.3732229999999959
21
-66.5267769999999956
0
LINE
8
BLACK
6
CONTINUOUS
10
80.3732229999999959
20
-66.5267769999999956
11
80.3190299999999979
21
-66.4456709999999902
0
LINE
8
BLACK
6
CONTINUOUS
10
80.3190299999999979
20
-66.4456709999999902
11
80.2999999999999972
21
-66.3499999999999943
0
LINE
8
BLACK
6
CONTINUOUS
10
80.2999999999999972
20
-66.3499999999999943
11
80.2999999999999972
21
-65.6499999999999915
0
LINE
8
BLACK
6
CONTINUOUS
10
80.2999999999999972
20
-65.6499999999999915
11
80.3190299999999979
21
-65.5543289999999956
0
LINE
8
BLACK
6
CONTINUOUS
10
80.3190299999999979
20
-65.5543289999999956
11
80.3732229999999959
21
-65.4732229999999902
0
LINE
8
BLACK
6
CONTINUOUS
10
80.3732229999999959
20
-65.4732229999999902
11
80.4543290000000013
21
-65.4190299999999922
0
LINE
8
BLACK
6
CONTINUOUS
10
80.4543290000000013
20
-65.4190299999999922
11
80.5499999999999972
21
-65.3999999999999915
0
LINE
8
BLACK
6
CONTINUOUS
10
80.5499999999999972
20
-65.3999999999999915
11
81.4500000000000028
21
-65.3999999999999915
0
LINE
8
BLACK
6
CONTINUOUS
10
81.4500000000000028
20
-65.3999999999999915
11
81.5456709999999987
21
-65.4190299999999922
0
LINE
8
BLACK
6
CONTINUOUS
10
97.0456709999999987
20
-65.4190299999999922
11
97.1267769999999899
21
-65.4732229999999902
0
LINE
8
BLACK
6
CONTINUOUS
10
97.1267769999999899
20
-65.4732229999999902
11
97.1809700000000021
21
-65.5543289999999956
0
LINE
8
BLACK
6
CONTINUOUS
10
97.1809700000000021
20
-65.5543289999999956
11
97.1999999999999886
21
-65.6499999999999915
0
LINE
8
BLACK
6
CONTINUOUS
10
97.1999999999999886
20
-65.6499999999999915
11
97.1999999999999886
21
-66.3499999999999943
0
LINE
8
BLACK
6
CONTINUOUS
10
97.1999999999999886
20
-66.3499999999999943
11
97.1809700000000021
21
-66.4456709999999902
0
LINE
8
BLACK
6
CONTINUOUS
10
97.1809700000000021
20
-66.4456709999999902
11
97.1267769999999899
21
-66.5267769999999956
0
LINE
8
BLACK
6
CONTINUOUS
10
97.1267769999999899
20
-66.5267769999999956
11
97.0456709999999987
21
-66.5809699999999935
0
LINE
8
BLACK
6
CONTINUOUS
10
97.0456709999999987
20
-66.5809699999999935
11
96.9499999999999886
21
-66.5999999999999943
0
LINE
8
BLACK
6
CONTINUOUS
10
96.9499999999999886
20
-66.5999999999999943
11
96.0499999999999972
21
-66.5999999999999943
0
LINE
8
BLACK
6
CONTINUOUS
10
96.0499999999999972
20
-66.5999999999999943
11
95.9543290000000013
21
-66.5809699999999935
0
LINE
8
BLACK
6
CONTINUOUS
10
95.9543290000000013
20
-66.5809699999999935
11
95.8732229999999959
21
-66.5267769999999956
0
LINE
8
BLACK
6
CONTINUOUS
10
95.8732229999999959
20
-66.5267769999999956
11
95.8190299999999979
21
-66.4456709999999902
0
LINE
8
BLACK
6
CONTINUOUS
10
95.8190299999999979
20
-66.4456709999999902
11
95.7999999999999972
21
-66.3499999999999943
0
LINE
8
BLACK
6
CONTINUOUS
10
95.7999999999999972
20
-66.3499999999999943
11
95.7999999999999972
21
-65.6499999999999915
0
LINE
8
BLACK
6
CONTINUOUS
10
95.7999999999999972
20
-65.6499999999999915
11
95.8190299999999979
21
-65.5543289999999956
0
LINE
8
BLACK
6
CONTINUOUS
10
95.8190299999999979
20
-65.5543289999999956
11
95.8732229999999959
21
-65.4732229999999902
0
LINE
8
BLACK
6
CONTINUOUS
10
95.8732229999999959
20
-65.4732229999999902
11
95.9543290000000013
21
-65.4190299999999922
0
LINE
8
BLACK
6
CONTINUOUS
10
95.9543290000000013
20
-65.4190299999999922
11
96.0499999999999972
21
-65.3999999999999915
0
LINE
8
BLACK
6
CONTINUOUS
10
96.0499999999999972
20
-65.3999999999999915
11
96.9499999999999886
21
-65.3999999999999915
0
LINE
8
BLACK
6
CONTINUOUS
10
96.9499999999999886
20
-65.3999999999999915
11
97.0456709999999987
21
-65.4190299999999922
0
LINE
8
BLACK
6
CONTINUOUS
10
113.0456709999999987
20
-65.4190299999999922
11
113.1267769999999899
21
-65.4732229999999902
0
LINE
8
BLACK
6
CONTINUOUS
10
113.1267769999999899
20
-65.4732229999999902
11
113.1809699999999879
21
-65.5543289999999956
0
LINE
8
BLACK
6
CONTINUOUS
10
113.1809699999999879
20
-65.5543289999999956
11
113.1999999999999886
21
-65.6499999999999915
0
LINE
8
BLACK
6
CONTINUOUS
10
113.1999999999999886
20
-65.6499999999999915
11
113.1999999999999886
21
-66.3499999999999943
0
LINE
8
BLACK
6
CONTINUOUS
10
113.1999999999999886
20
-66.3499999999999943
11
113.1809699999999879
21
-66.4456709999999902
0
LINE
8
BLACK
6
CONTINUOUS
10
113.1809699999999879
20
-66.4456709999999902
11
113.1267769999999899
21
-66.5267769999999956
0
LINE
8
BLACK
6
CONTINUOUS
10
113.1267769999999899
20
-66.5267769999999956
11
113.0456709999999987
21
-66.5809699999999935
0
LINE
8
BLACK
6
CONTINUOUS
10
113.0456709999999987
20
-66.5809699999999935
11
112.9499999999999886
21
-66.5999999999999943
0
LINE
8
BLACK
6
CONTINUOUS
10
112.9499999999999886
20
-66.5999999999999943
11
112.0499999999999972
21
-66.5999999999999943
0
LINE
8
BLACK
6
CONTINUOUS
10
112.0499999999999972
20
-66.5999999999999943
11
111.9543290000000013
21
-66.5809699999999935
0
LINE
8
BLACK
6
CONTINUOUS
10
111.9543290000000013
20
-66.5809699999999935
11
111.8732229999999959
21
-66.5267769999999956
0
LINE
8
BLACK
6
CONTINUOUS
10
111.8732229999999959
20
-66.5267769999999956
11
111.8190299999999979
21
-66.4456709999999902
0
LINE
8
BLACK
6
CONTINUOUS
10
111.8190299999999979
20
-66.4456709999999902
11
111.7999999999999972
21
-66.3499999999999943
0
LINE
8
BLACK
6
CONTINUOUS
10
111.7999999999999972
20
-66.3499999999999943
11
111.7999999999999972
21
-65.6499999999999915
0
LINE
8
BLACK
6
CONTINUOUS
10
111.7999999999999972
20
-65.6499999999999915
11
111.8190299999999979
21
-65.5543289999999956
0
LINE
8
BLACK
6
CONTINUOUS
10
111.8190299999999979
20
-65.5543289999999956
11
111.8732229999999959
21
-65.4732229999999902
0
LINE
8
BLACK
6
CONTINUOUS
10
111.8732229999999959
20
-65.4732229999999902
11
111.9543290000000013
21
-65.4190299999999922
0
LINE
8
BLACK
6
CONTINUOUS
10
111.9543290000000013
20
-65.4190299999999922
11
112.0499999999999972
21
-65.3999999999999915
0
LINE
8
BLACK
6
CONTINUOUS
10
112.0499999999999972
20
-65.3999999999999915
11
112.9499999999999886
21
-65.3999999999999915
0
LINE
8
BLACK
6
CONTINUOUS
10
112.9499999999999886
20
-65.3999999999999915
11
113.0456709999999987
21
-65.4190299999999922
0
LINE
8
BLACK
6
CONTINUOUS
10
129.0456709999999987
20
-65.4190299999999922
11
129.1267770000000041
21
-65.4732229999999902
0
LINE
8
BLACK
6
CONTINUOUS
10
129.1267770000000041
20
-65.4732229999999902
11
129.1809700000000021
21
-65.5543289999999956
0
LINE
8
BLACK
6
CONTINUOUS
10
129.1809700000000021
20
-65.5543289999999956
11
129.1999999999999886
21
-65.6499999999999915
0
LINE
8
BLACK
6
CONTINUOUS
10
129.1999999999999886
20
-65.6499999999999915
11
129.1999999999999886
21
-66.3499999999999943
0
LINE
8
BLACK
6
CONTINUOUS
10
129.1999999999999886
20
-66.3499999999999943
11
129.1809700000000021
21
-66.4456709999999902
0
LINE
8
BLACK
6
CONTINUOUS
10
129.1809700000000021
20
-66.4456709999999902
11
129.1267770000000041
21
-66.5267769999999956
0
LINE
8
BLACK
6
CONTINUOUS
10
129.1267770000000041
20
-66.5267769999999956
11
129.0456709999999987
21
-66.5809699999999935
0
LINE
8
BLACK
6
CONTINUOUS
10
129.0456709999999987
20
-66.5809699999999935
11
128.9499999999999886
21
-66.5999999999999943
0
LINE
8
BLACK
6
CONTINUOUS
10
128.9499999999999886
20
-66.5999999999999943
11
128.0499999999999829
21
-66.5999999999999943
0
LINE
8
BLACK
6
CONTINUOUS
10
128.0499999999999829
20
-66.5999999999999943
11
127.9543290000000013
21
-66.5809699999999935
0
LINE
8
BLACK
6
CONTINUOUS
10
127.9543290000000013
20
-66.5809699999999935
11
127.8732229999999959
21
-66.5267769999999956
0
LINE
8
BLACK
6
CONTINUOUS
10
127.8732229999999959
20
-66.5267769999999956
11
127.8190299999999979
21
-66.4456709999999902
0
LINE
8
BLACK
6
CONTINUOUS
10
127.8190299999999979
20
-66.4456709999999902
11
127.7999999999999972
21
-66.3499999999999943
0
LINE
8
BLACK
6
CONTINUOUS
10
127.7999999999999972
20
-66.3499999999999943
11
127.7999999999999972
21
-65.6499999999999915
0
LINE
8
BLACK
6
CONTINUOUS
10
127.7999999999999972
20
-65.6499999999999915
11
127.8190299999999979
21
-65.5543289999999956
0
LINE
8
BLACK
6
CONTINUOUS
10
127.8190299999999979
20
-65.5543289999999956
11
127.8732229999999959
21
-65.4732229999999902
0
LINE
8
BLACK
6
CONTINUOUS
10
127.8732229999999959
20
-65.4732229999999902
11
127.9543290000000013
21
-65.4190299999999922
0
LINE
8
BLACK
6
CONTINUOUS
10
127.9543290000000013
20
-65.4190299999999922
11
128.0499999999999829
21
-65.3999999999999915
0
LINE
8
BLACK
6
CONTINUOUS
10
128.0499999999999829
20
-65.3999999999999915
11
128.9499999999999886
21
-65.3999999999999915
0
LINE
8
BLACK
6
CONTINUOUS
10
128.9499999999999886
20
-65.3999999999999915
11
129.0456709999999987
21
-65.4190299999999922
0
LINE
8
BLACK
6
CONTINUOUS
10
134.0456709999999987
20
-65.4190299999999922
11
134.1267770000000041
21
-65.4732229999999902
0
LINE
8
BLACK
6
CONTINUOUS
10
134.1267770000000041
20
-65.4732229999999902
11
134.1809700000000021
21
-65.5543289999999956
0
LINE
8
BLACK
6
CONTINUOUS
10
134.1809700000000021
20
-65.5543289999999956
11
134.1999999999999886
21
-65.6499999999999915
0
LINE
8
BLACK
6
CONTINUOUS
10
134.1999999999999886
20
-65.6499999999999915
11
134.1999999999999886
21
-66.3499999999999943
0
LINE
8
BLACK
6
CONTINUOUS
10
134.1999999999999886
20
-66.3499999999999943
11
134.1809700000000021
21
-66.4456709999999902
0
LINE
8
BLACK
6
CONTINUOUS
10
134.1809700000000021
20
-66.4456709999999902
11
134.1267770000000041
21
-66.5267769999999956
0
LINE
8
BLACK
6
CONTINUOUS
10
134.1267770000000041
20
-66.5267769999999956
11
134.0456709999999987
21
-66.5809699999999935
0
LINE
8
BLACK
6
CONTINUOUS
10
134.0456709999999987
20
-66.5809699999999935
11
133.9499999999999886
21
-66.5999999999999943
0
LINE
8
BLACK
6
CONTINUOUS
10
133.9499999999999886
20
-66.5999999999999943
11
133.0499999999999829
21
-66.5999999999999943
0
LINE
8
BLACK
6
CONTINUOUS
10
133.0499999999999829
20
-66.5999999999999943
11
132.9543290000000013
21
-66.5809699999999935
0
LINE
8
BLACK
6
CONTINUOUS
10
132.9543290000000013
20
-66.5809699999999935
11
132.8732229999999959
21
-66.5267769999999956
0
LINE
8
BLACK
6
CONTINUOUS
10
132.8732229999999959
20
-66.5267769999999956
11
132.8190299999999979
21
-66.4456709999999902
0
LINE
8
BLACK
6
CONTINUOUS
10
132.8190299999999979
20
-66.4456709999999902
11
132.7999999999999829
21
-66.3499999999999943
0
LINE
8
BLACK
6
CONTINUOUS
10
132.7999999999999829
20
-66.3499999999999943
11
132.7999999999999829
21
-65.6499999999999915
0
LINE
8
BLACK
6
CONTINUOUS
10
132.7999999999999829
20
-65.6499999999999915
11
132.8190299999999979
21
-65.5543289999999956
0
LINE
8
BLACK
6
CONTINUOUS
10
132.8190299999999979
20
-65.5543289999999956
11
132.8732229999999959
21
-65.4732229999999902
0
LINE
8
BLACK
6
CONTINUOUS
10
132.8732229999999959
20
-65.4732229999999902
11
132.9543290000000013
21
-65.4190299999999922
0
LINE
8
BLACK
6
CONTINUOUS
10
132.9543290000000013
20
-65.4190299999999922
11
133.0499999999999829
21
-65.3999999999999915
0
LINE
8
BLACK
6
CONTINUOUS
10
133.0499999999999829
20
-65.3999999999999915
11
133.9499999999999886
21
-65.3999999999999915
0
LINE
8
BLACK
6
CONTINUOUS
10
133.9499999999999886
20
-65.3999999999999915
11
134.0456709999999987
21
-65.4190299999999922
  0
ENDSEC
  0
EOF
