%TF.GenerationSoftware,KiCad,Pcbnew,9.0.1+1*%
%TF.CreationDate,2025-05-09T02:34:31+00:00*%
%TF.ProjectId,modulo_seguidor,6d6f6475-6c6f-45f7-9365-677569646f72,rev?*%
%TF.SameCoordinates,Original*%
%TF.FileFunction,Drillmap*%
%TF.FilePolarity,Positive*%
%FSLAX45Y45*%
G04 Gerber Fmt 4.5, Leading zero omitted, Abs format (unit mm)*
G04 Created by KiCad (PCBNEW 9.0.1+1) date 2025-05-09 02:34:31*
%MOMM*%
%LPD*%
G01*
G04 APERTURE LIST*
%ADD10C,0.050000*%
%ADD11C,0.200000*%
%ADD12C,0.100000*%
%ADD13C,0.101600*%
%ADD14C,0.110000*%
%ADD15C,0.119000*%
%ADD16C,0.120000*%
G04 APERTURE END LIST*
D10*
X5000000Y-5000000D02*
X15000000Y-5000000D01*
X15000000Y-10000000D01*
X5000000Y-10000000D01*
X5000000Y-5000000D01*
D11*
D12*
X9104000Y-8604000D02*
X9184000Y-8684000D01*
X9184000Y-8604000D02*
X9104000Y-8684000D01*
X9104000Y-9104000D02*
X9184000Y-9184000D01*
X9184000Y-9104000D02*
X9104000Y-9184000D01*
X11136000Y-8596000D02*
X11216000Y-8676000D01*
X11216000Y-8596000D02*
X11136000Y-8676000D01*
X11136000Y-9096000D02*
X11216000Y-9176000D01*
X11216000Y-9096000D02*
X11136000Y-9176000D01*
X12237000Y-8382000D02*
G75*
G02*
X12147000Y-8382000I-45000J0D01*
G01*
X12147000Y-8382000D02*
G75*
G02*
X12237000Y-8382000I45000J0D01*
G01*
X12237000Y-8636000D02*
G75*
G02*
X12147000Y-8636000I-45000J0D01*
G01*
X12147000Y-8636000D02*
G75*
G02*
X12237000Y-8636000I45000J0D01*
G01*
X8128000Y-6808000D02*
X8128000Y-6908000D01*
X8078000Y-6858000D02*
X8178000Y-6858000D01*
X8128000Y-7316000D02*
X8128000Y-7416000D01*
X8078000Y-7366000D02*
X8178000Y-7366000D01*
X8382000Y-6808000D02*
X8382000Y-6908000D01*
X8332000Y-6858000D02*
X8432000Y-6858000D01*
X8382000Y-7316000D02*
X8382000Y-7416000D01*
X8332000Y-7366000D02*
X8432000Y-7366000D01*
X8636000Y-6808000D02*
X8636000Y-6908000D01*
X8586000Y-6858000D02*
X8686000Y-6858000D01*
X8636000Y-7316000D02*
X8636000Y-7416000D01*
X8586000Y-7366000D02*
X8686000Y-7366000D01*
X14224000Y-6554000D02*
X14224000Y-6654000D01*
X14174000Y-6604000D02*
X14274000Y-6604000D01*
X14224000Y-6808000D02*
X14224000Y-6908000D01*
X14174000Y-6858000D02*
X14274000Y-6858000D01*
X14224000Y-7062000D02*
X14224000Y-7162000D01*
X14174000Y-7112000D02*
X14274000Y-7112000D01*
X14224000Y-7316000D02*
X14224000Y-7416000D01*
X14174000Y-7366000D02*
X14274000Y-7366000D01*
X14224000Y-7570000D02*
X14224000Y-7670000D01*
X14174000Y-7620000D02*
X14274000Y-7620000D01*
X14224000Y-7824000D02*
X14224000Y-7924000D01*
X14174000Y-7874000D02*
X14274000Y-7874000D01*
X14224000Y-8078000D02*
X14224000Y-8178000D01*
X14174000Y-8128000D02*
X14274000Y-8128000D01*
X14224000Y-8332000D02*
X14224000Y-8432000D01*
X14174000Y-8382000D02*
X14274000Y-8382000D01*
D13*
X9687921Y-6385921D02*
X9687921Y-6314079D01*
X9616079Y-6314079D01*
X9616079Y-6385921D01*
X9687921Y-6385921D01*
X9687921Y-7909921D02*
X9687921Y-7838079D01*
X9616079Y-7838079D01*
X9616079Y-7909921D01*
X9687921Y-7909921D01*
X9941921Y-6385921D02*
X9941921Y-6314079D01*
X9870079Y-6314079D01*
X9870079Y-6385921D01*
X9941921Y-6385921D01*
X9941921Y-7909921D02*
X9941921Y-7838079D01*
X9870079Y-7838079D01*
X9870079Y-7909921D01*
X9941921Y-7909921D01*
X10195921Y-6385921D02*
X10195921Y-6314079D01*
X10124079Y-6314079D01*
X10124079Y-6385921D01*
X10195921Y-6385921D01*
X10195921Y-7909921D02*
X10195921Y-7838079D01*
X10124079Y-7838079D01*
X10124079Y-7909921D01*
X10195921Y-7909921D01*
X10449921Y-6385921D02*
X10449921Y-6314079D01*
X10378079Y-6314079D01*
X10378079Y-6385921D01*
X10449921Y-6385921D01*
X10449921Y-7909921D02*
X10449921Y-7838079D01*
X10378079Y-7838079D01*
X10378079Y-7909921D01*
X10449921Y-7909921D01*
X10703921Y-6385921D02*
X10703921Y-6314079D01*
X10632079Y-6314079D01*
X10632079Y-6385921D01*
X10703921Y-6385921D01*
X10703921Y-7909921D02*
X10703921Y-7838079D01*
X10632079Y-7838079D01*
X10632079Y-7909921D01*
X10703921Y-7909921D01*
X10957921Y-6385921D02*
X10957921Y-6314079D01*
X10886079Y-6314079D01*
X10886079Y-6385921D01*
X10957921Y-6385921D01*
X10957921Y-7909921D02*
X10957921Y-7838079D01*
X10886079Y-7838079D01*
X10886079Y-7909921D01*
X10957921Y-7909921D01*
X11211921Y-6385921D02*
X11211921Y-6314079D01*
X11140079Y-6314079D01*
X11140079Y-6385921D01*
X11211921Y-6385921D01*
X11211921Y-7909921D02*
X11211921Y-7838079D01*
X11140079Y-7838079D01*
X11140079Y-7909921D01*
X11211921Y-7909921D01*
X11465921Y-6385921D02*
X11465921Y-6314079D01*
X11394079Y-6314079D01*
X11394079Y-6385921D01*
X11465921Y-6385921D01*
X11465921Y-7909921D02*
X11465921Y-7838079D01*
X11394079Y-7838079D01*
X11394079Y-7909921D01*
X11465921Y-7909921D01*
X11719921Y-6385921D02*
X11719921Y-6314079D01*
X11648079Y-6314079D01*
X11648079Y-6385921D01*
X11719921Y-6385921D01*
X11719921Y-7909921D02*
X11719921Y-7838079D01*
X11648079Y-7838079D01*
X11648079Y-7909921D01*
X11719921Y-7909921D01*
X11973921Y-6385921D02*
X11973921Y-6314079D01*
X11902079Y-6314079D01*
X11902079Y-6385921D01*
X11973921Y-6385921D01*
X11973921Y-7909921D02*
X11973921Y-7838079D01*
X11902079Y-7838079D01*
X11902079Y-7909921D01*
X11973921Y-7909921D01*
X12227921Y-6385921D02*
X12227921Y-6314079D01*
X12156079Y-6314079D01*
X12156079Y-6385921D01*
X12227921Y-6385921D01*
X12227921Y-7909921D02*
X12227921Y-7838079D01*
X12156079Y-7838079D01*
X12156079Y-7909921D01*
X12227921Y-7909921D01*
X12481921Y-6385921D02*
X12481921Y-6314079D01*
X12410079Y-6314079D01*
X12410079Y-6385921D01*
X12481921Y-6385921D01*
X12481921Y-7909921D02*
X12481921Y-7838079D01*
X12410079Y-7838079D01*
X12410079Y-7909921D01*
X12481921Y-7909921D01*
X12735921Y-6385921D02*
X12735921Y-6314079D01*
X12664079Y-6314079D01*
X12664079Y-6385921D01*
X12735921Y-6385921D01*
X12735921Y-7909921D02*
X12735921Y-7838079D01*
X12664079Y-7838079D01*
X12664079Y-7909921D01*
X12735921Y-7909921D01*
X12989921Y-6385921D02*
X12989921Y-6314079D01*
X12918079Y-6314079D01*
X12918079Y-6385921D01*
X12989921Y-6385921D01*
X12989921Y-7909921D02*
X12989921Y-7838079D01*
X12918079Y-7838079D01*
X12918079Y-7909921D01*
X12989921Y-7909921D01*
X13243921Y-6385921D02*
X13243921Y-6314079D01*
X13172079Y-6314079D01*
X13172079Y-6385921D01*
X13243921Y-6385921D01*
X13243921Y-7909921D02*
X13243921Y-7838079D01*
X13172079Y-7838079D01*
X13172079Y-7909921D01*
X13243921Y-7909921D01*
D14*
X8187389Y-5924526D02*
X8242389Y-5869526D01*
X8187389Y-5814526D01*
X8132389Y-5869526D01*
X8187389Y-5924526D01*
X8187389Y-6374526D02*
X8242389Y-6319526D01*
X8187389Y-6264526D01*
X8132389Y-6319526D01*
X8187389Y-6374526D01*
X8837389Y-5924526D02*
X8892389Y-5869526D01*
X8837389Y-5814526D01*
X8782389Y-5869526D01*
X8837389Y-5924526D01*
X8837389Y-6374526D02*
X8892389Y-6319526D01*
X8837389Y-6264526D01*
X8782389Y-6319526D01*
X8837389Y-6374526D01*
X10414000Y-8437000D02*
X10469000Y-8382000D01*
X10414000Y-8327000D01*
X10359000Y-8382000D01*
X10414000Y-8437000D01*
X10414000Y-8691000D02*
X10469000Y-8636000D01*
X10414000Y-8581000D01*
X10359000Y-8636000D01*
X10414000Y-8691000D01*
X10414000Y-8945000D02*
X10469000Y-8890000D01*
X10414000Y-8835000D01*
X10359000Y-8890000D01*
X10414000Y-8945000D01*
D15*
X8068500Y-8576500D02*
X8187500Y-8695500D01*
X8187500Y-8576500D02*
X8068500Y-8695500D01*
X8187500Y-8636000D02*
G75*
G02*
X8068500Y-8636000I-59500J0D01*
G01*
X8068500Y-8636000D02*
G75*
G02*
X8187500Y-8636000I59500J0D01*
G01*
X8068500Y-8830500D02*
X8187500Y-8949500D01*
X8187500Y-8830500D02*
X8068500Y-8949500D01*
X8187500Y-8890000D02*
G75*
G02*
X8068500Y-8890000I-59500J0D01*
G01*
X8068500Y-8890000D02*
G75*
G02*
X8187500Y-8890000I59500J0D01*
G01*
D16*
X10596929Y-5766287D02*
X10716929Y-5886287D01*
X10716929Y-5766287D02*
X10596929Y-5886287D01*
X10656929Y-5766287D02*
X10656929Y-5886287D01*
X10596929Y-5826287D02*
X10716929Y-5826287D01*
X11866929Y-5766287D02*
X11986929Y-5886287D01*
X11986929Y-5766287D02*
X11866929Y-5886287D01*
X11926929Y-5766287D02*
X11926929Y-5886287D01*
X11866929Y-5826287D02*
X11986929Y-5826287D01*
X12894000Y-8830251D02*
X13014000Y-8950251D01*
X13014000Y-8830251D02*
X12894000Y-8950251D01*
X12954000Y-8830251D02*
X12954000Y-8950251D01*
X12894000Y-8890251D02*
X13014000Y-8890251D01*
X14164000Y-8830251D02*
X14284000Y-8950251D01*
X14284000Y-8830251D02*
X14164000Y-8950251D01*
X14224000Y-8830251D02*
X14224000Y-8950251D01*
X14164000Y-8890251D02*
X14284000Y-8890251D01*
D11*
X5258277Y-10313984D02*
X5258277Y-10113984D01*
X5258277Y-10113984D02*
X5305896Y-10113984D01*
X5305896Y-10113984D02*
X5334467Y-10123508D01*
X5334467Y-10123508D02*
X5353515Y-10142555D01*
X5353515Y-10142555D02*
X5363039Y-10161603D01*
X5363039Y-10161603D02*
X5372563Y-10199698D01*
X5372563Y-10199698D02*
X5372563Y-10228270D01*
X5372563Y-10228270D02*
X5363039Y-10266365D01*
X5363039Y-10266365D02*
X5353515Y-10285412D01*
X5353515Y-10285412D02*
X5334467Y-10304460D01*
X5334467Y-10304460D02*
X5305896Y-10313984D01*
X5305896Y-10313984D02*
X5258277Y-10313984D01*
X5458277Y-10313984D02*
X5458277Y-10180650D01*
X5458277Y-10218746D02*
X5467801Y-10199698D01*
X5467801Y-10199698D02*
X5477324Y-10190174D01*
X5477324Y-10190174D02*
X5496372Y-10180650D01*
X5496372Y-10180650D02*
X5515420Y-10180650D01*
X5582086Y-10313984D02*
X5582086Y-10180650D01*
X5582086Y-10113984D02*
X5572563Y-10123508D01*
X5572563Y-10123508D02*
X5582086Y-10133031D01*
X5582086Y-10133031D02*
X5591610Y-10123508D01*
X5591610Y-10123508D02*
X5582086Y-10113984D01*
X5582086Y-10113984D02*
X5582086Y-10133031D01*
X5705896Y-10313984D02*
X5686848Y-10304460D01*
X5686848Y-10304460D02*
X5677324Y-10285412D01*
X5677324Y-10285412D02*
X5677324Y-10113984D01*
X5810658Y-10313984D02*
X5791610Y-10304460D01*
X5791610Y-10304460D02*
X5782086Y-10285412D01*
X5782086Y-10285412D02*
X5782086Y-10113984D01*
X6039229Y-10313984D02*
X6039229Y-10113984D01*
X6039229Y-10113984D02*
X6105896Y-10256841D01*
X6105896Y-10256841D02*
X6172562Y-10113984D01*
X6172562Y-10113984D02*
X6172562Y-10313984D01*
X6353515Y-10313984D02*
X6353515Y-10209222D01*
X6353515Y-10209222D02*
X6343991Y-10190174D01*
X6343991Y-10190174D02*
X6324943Y-10180650D01*
X6324943Y-10180650D02*
X6286848Y-10180650D01*
X6286848Y-10180650D02*
X6267801Y-10190174D01*
X6353515Y-10304460D02*
X6334467Y-10313984D01*
X6334467Y-10313984D02*
X6286848Y-10313984D01*
X6286848Y-10313984D02*
X6267801Y-10304460D01*
X6267801Y-10304460D02*
X6258277Y-10285412D01*
X6258277Y-10285412D02*
X6258277Y-10266365D01*
X6258277Y-10266365D02*
X6267801Y-10247317D01*
X6267801Y-10247317D02*
X6286848Y-10237793D01*
X6286848Y-10237793D02*
X6334467Y-10237793D01*
X6334467Y-10237793D02*
X6353515Y-10228270D01*
X6448753Y-10180650D02*
X6448753Y-10380650D01*
X6448753Y-10190174D02*
X6467801Y-10180650D01*
X6467801Y-10180650D02*
X6505896Y-10180650D01*
X6505896Y-10180650D02*
X6524943Y-10190174D01*
X6524943Y-10190174D02*
X6534467Y-10199698D01*
X6534467Y-10199698D02*
X6543991Y-10218746D01*
X6543991Y-10218746D02*
X6543991Y-10275889D01*
X6543991Y-10275889D02*
X6534467Y-10294936D01*
X6534467Y-10294936D02*
X6524943Y-10304460D01*
X6524943Y-10304460D02*
X6505896Y-10313984D01*
X6505896Y-10313984D02*
X6467801Y-10313984D01*
X6467801Y-10313984D02*
X6448753Y-10304460D01*
X6629705Y-10294936D02*
X6639229Y-10304460D01*
X6639229Y-10304460D02*
X6629705Y-10313984D01*
X6629705Y-10313984D02*
X6620182Y-10304460D01*
X6620182Y-10304460D02*
X6629705Y-10294936D01*
X6629705Y-10294936D02*
X6629705Y-10313984D01*
X6629705Y-10190174D02*
X6639229Y-10199698D01*
X6639229Y-10199698D02*
X6629705Y-10209222D01*
X6629705Y-10209222D02*
X6620182Y-10199698D01*
X6620182Y-10199698D02*
X6629705Y-10190174D01*
X6629705Y-10190174D02*
X6629705Y-10209222D01*
D12*
X4917500Y-10602500D02*
X4997500Y-10682500D01*
X4997500Y-10602500D02*
X4917500Y-10682500D01*
D11*
X5296372Y-10533984D02*
X5315420Y-10533984D01*
X5315420Y-10533984D02*
X5334467Y-10543508D01*
X5334467Y-10543508D02*
X5343991Y-10553031D01*
X5343991Y-10553031D02*
X5353515Y-10572079D01*
X5353515Y-10572079D02*
X5363039Y-10610174D01*
X5363039Y-10610174D02*
X5363039Y-10657793D01*
X5363039Y-10657793D02*
X5353515Y-10695889D01*
X5353515Y-10695889D02*
X5343991Y-10714936D01*
X5343991Y-10714936D02*
X5334467Y-10724460D01*
X5334467Y-10724460D02*
X5315420Y-10733984D01*
X5315420Y-10733984D02*
X5296372Y-10733984D01*
X5296372Y-10733984D02*
X5277324Y-10724460D01*
X5277324Y-10724460D02*
X5267801Y-10714936D01*
X5267801Y-10714936D02*
X5258277Y-10695889D01*
X5258277Y-10695889D02*
X5248753Y-10657793D01*
X5248753Y-10657793D02*
X5248753Y-10610174D01*
X5248753Y-10610174D02*
X5258277Y-10572079D01*
X5258277Y-10572079D02*
X5267801Y-10553031D01*
X5267801Y-10553031D02*
X5277324Y-10543508D01*
X5277324Y-10543508D02*
X5296372Y-10533984D01*
X5448753Y-10714936D02*
X5458277Y-10724460D01*
X5458277Y-10724460D02*
X5448753Y-10733984D01*
X5448753Y-10733984D02*
X5439229Y-10724460D01*
X5439229Y-10724460D02*
X5448753Y-10714936D01*
X5448753Y-10714936D02*
X5448753Y-10733984D01*
X5572563Y-10619698D02*
X5553515Y-10610174D01*
X5553515Y-10610174D02*
X5543991Y-10600650D01*
X5543991Y-10600650D02*
X5534467Y-10581603D01*
X5534467Y-10581603D02*
X5534467Y-10572079D01*
X5534467Y-10572079D02*
X5543991Y-10553031D01*
X5543991Y-10553031D02*
X5553515Y-10543508D01*
X5553515Y-10543508D02*
X5572563Y-10533984D01*
X5572563Y-10533984D02*
X5610658Y-10533984D01*
X5610658Y-10533984D02*
X5629705Y-10543508D01*
X5629705Y-10543508D02*
X5639229Y-10553031D01*
X5639229Y-10553031D02*
X5648753Y-10572079D01*
X5648753Y-10572079D02*
X5648753Y-10581603D01*
X5648753Y-10581603D02*
X5639229Y-10600650D01*
X5639229Y-10600650D02*
X5629705Y-10610174D01*
X5629705Y-10610174D02*
X5610658Y-10619698D01*
X5610658Y-10619698D02*
X5572563Y-10619698D01*
X5572563Y-10619698D02*
X5553515Y-10629222D01*
X5553515Y-10629222D02*
X5543991Y-10638746D01*
X5543991Y-10638746D02*
X5534467Y-10657793D01*
X5534467Y-10657793D02*
X5534467Y-10695889D01*
X5534467Y-10695889D02*
X5543991Y-10714936D01*
X5543991Y-10714936D02*
X5553515Y-10724460D01*
X5553515Y-10724460D02*
X5572563Y-10733984D01*
X5572563Y-10733984D02*
X5610658Y-10733984D01*
X5610658Y-10733984D02*
X5629705Y-10724460D01*
X5629705Y-10724460D02*
X5639229Y-10714936D01*
X5639229Y-10714936D02*
X5648753Y-10695889D01*
X5648753Y-10695889D02*
X5648753Y-10657793D01*
X5648753Y-10657793D02*
X5639229Y-10638746D01*
X5639229Y-10638746D02*
X5629705Y-10629222D01*
X5629705Y-10629222D02*
X5610658Y-10619698D01*
X5772562Y-10533984D02*
X5791610Y-10533984D01*
X5791610Y-10533984D02*
X5810658Y-10543508D01*
X5810658Y-10543508D02*
X5820182Y-10553031D01*
X5820182Y-10553031D02*
X5829705Y-10572079D01*
X5829705Y-10572079D02*
X5839229Y-10610174D01*
X5839229Y-10610174D02*
X5839229Y-10657793D01*
X5839229Y-10657793D02*
X5829705Y-10695889D01*
X5829705Y-10695889D02*
X5820182Y-10714936D01*
X5820182Y-10714936D02*
X5810658Y-10724460D01*
X5810658Y-10724460D02*
X5791610Y-10733984D01*
X5791610Y-10733984D02*
X5772562Y-10733984D01*
X5772562Y-10733984D02*
X5753515Y-10724460D01*
X5753515Y-10724460D02*
X5743991Y-10714936D01*
X5743991Y-10714936D02*
X5734467Y-10695889D01*
X5734467Y-10695889D02*
X5724943Y-10657793D01*
X5724943Y-10657793D02*
X5724943Y-10610174D01*
X5724943Y-10610174D02*
X5734467Y-10572079D01*
X5734467Y-10572079D02*
X5743991Y-10553031D01*
X5743991Y-10553031D02*
X5753515Y-10543508D01*
X5753515Y-10543508D02*
X5772562Y-10533984D01*
X5963039Y-10533984D02*
X5982086Y-10533984D01*
X5982086Y-10533984D02*
X6001134Y-10543508D01*
X6001134Y-10543508D02*
X6010658Y-10553031D01*
X6010658Y-10553031D02*
X6020182Y-10572079D01*
X6020182Y-10572079D02*
X6029705Y-10610174D01*
X6029705Y-10610174D02*
X6029705Y-10657793D01*
X6029705Y-10657793D02*
X6020182Y-10695889D01*
X6020182Y-10695889D02*
X6010658Y-10714936D01*
X6010658Y-10714936D02*
X6001134Y-10724460D01*
X6001134Y-10724460D02*
X5982086Y-10733984D01*
X5982086Y-10733984D02*
X5963039Y-10733984D01*
X5963039Y-10733984D02*
X5943991Y-10724460D01*
X5943991Y-10724460D02*
X5934467Y-10714936D01*
X5934467Y-10714936D02*
X5924943Y-10695889D01*
X5924943Y-10695889D02*
X5915420Y-10657793D01*
X5915420Y-10657793D02*
X5915420Y-10610174D01*
X5915420Y-10610174D02*
X5924943Y-10572079D01*
X5924943Y-10572079D02*
X5934467Y-10553031D01*
X5934467Y-10553031D02*
X5943991Y-10543508D01*
X5943991Y-10543508D02*
X5963039Y-10533984D01*
X6115420Y-10733984D02*
X6115420Y-10600650D01*
X6115420Y-10619698D02*
X6124943Y-10610174D01*
X6124943Y-10610174D02*
X6143991Y-10600650D01*
X6143991Y-10600650D02*
X6172563Y-10600650D01*
X6172563Y-10600650D02*
X6191610Y-10610174D01*
X6191610Y-10610174D02*
X6201134Y-10629222D01*
X6201134Y-10629222D02*
X6201134Y-10733984D01*
X6201134Y-10629222D02*
X6210658Y-10610174D01*
X6210658Y-10610174D02*
X6229705Y-10600650D01*
X6229705Y-10600650D02*
X6258277Y-10600650D01*
X6258277Y-10600650D02*
X6277324Y-10610174D01*
X6277324Y-10610174D02*
X6286848Y-10629222D01*
X6286848Y-10629222D02*
X6286848Y-10733984D01*
X6382086Y-10733984D02*
X6382086Y-10600650D01*
X6382086Y-10619698D02*
X6391610Y-10610174D01*
X6391610Y-10610174D02*
X6410658Y-10600650D01*
X6410658Y-10600650D02*
X6439229Y-10600650D01*
X6439229Y-10600650D02*
X6458277Y-10610174D01*
X6458277Y-10610174D02*
X6467801Y-10629222D01*
X6467801Y-10629222D02*
X6467801Y-10733984D01*
X6467801Y-10629222D02*
X6477324Y-10610174D01*
X6477324Y-10610174D02*
X6496372Y-10600650D01*
X6496372Y-10600650D02*
X6524943Y-10600650D01*
X6524943Y-10600650D02*
X6543991Y-10610174D01*
X6543991Y-10610174D02*
X6553515Y-10629222D01*
X6553515Y-10629222D02*
X6553515Y-10733984D01*
X6943991Y-10524460D02*
X6772563Y-10781603D01*
X7201134Y-10533984D02*
X7220182Y-10533984D01*
X7220182Y-10533984D02*
X7239229Y-10543508D01*
X7239229Y-10543508D02*
X7248753Y-10553031D01*
X7248753Y-10553031D02*
X7258277Y-10572079D01*
X7258277Y-10572079D02*
X7267801Y-10610174D01*
X7267801Y-10610174D02*
X7267801Y-10657793D01*
X7267801Y-10657793D02*
X7258277Y-10695889D01*
X7258277Y-10695889D02*
X7248753Y-10714936D01*
X7248753Y-10714936D02*
X7239229Y-10724460D01*
X7239229Y-10724460D02*
X7220182Y-10733984D01*
X7220182Y-10733984D02*
X7201134Y-10733984D01*
X7201134Y-10733984D02*
X7182086Y-10724460D01*
X7182086Y-10724460D02*
X7172563Y-10714936D01*
X7172563Y-10714936D02*
X7163039Y-10695889D01*
X7163039Y-10695889D02*
X7153515Y-10657793D01*
X7153515Y-10657793D02*
X7153515Y-10610174D01*
X7153515Y-10610174D02*
X7163039Y-10572079D01*
X7163039Y-10572079D02*
X7172563Y-10553031D01*
X7172563Y-10553031D02*
X7182086Y-10543508D01*
X7182086Y-10543508D02*
X7201134Y-10533984D01*
X7353515Y-10714936D02*
X7363039Y-10724460D01*
X7363039Y-10724460D02*
X7353515Y-10733984D01*
X7353515Y-10733984D02*
X7343991Y-10724460D01*
X7343991Y-10724460D02*
X7353515Y-10714936D01*
X7353515Y-10714936D02*
X7353515Y-10733984D01*
X7486848Y-10533984D02*
X7505896Y-10533984D01*
X7505896Y-10533984D02*
X7524944Y-10543508D01*
X7524944Y-10543508D02*
X7534467Y-10553031D01*
X7534467Y-10553031D02*
X7543991Y-10572079D01*
X7543991Y-10572079D02*
X7553515Y-10610174D01*
X7553515Y-10610174D02*
X7553515Y-10657793D01*
X7553515Y-10657793D02*
X7543991Y-10695889D01*
X7543991Y-10695889D02*
X7534467Y-10714936D01*
X7534467Y-10714936D02*
X7524944Y-10724460D01*
X7524944Y-10724460D02*
X7505896Y-10733984D01*
X7505896Y-10733984D02*
X7486848Y-10733984D01*
X7486848Y-10733984D02*
X7467801Y-10724460D01*
X7467801Y-10724460D02*
X7458277Y-10714936D01*
X7458277Y-10714936D02*
X7448753Y-10695889D01*
X7448753Y-10695889D02*
X7439229Y-10657793D01*
X7439229Y-10657793D02*
X7439229Y-10610174D01*
X7439229Y-10610174D02*
X7448753Y-10572079D01*
X7448753Y-10572079D02*
X7458277Y-10553031D01*
X7458277Y-10553031D02*
X7467801Y-10543508D01*
X7467801Y-10543508D02*
X7486848Y-10533984D01*
X7620182Y-10533984D02*
X7743991Y-10533984D01*
X7743991Y-10533984D02*
X7677325Y-10610174D01*
X7677325Y-10610174D02*
X7705896Y-10610174D01*
X7705896Y-10610174D02*
X7724944Y-10619698D01*
X7724944Y-10619698D02*
X7734467Y-10629222D01*
X7734467Y-10629222D02*
X7743991Y-10648270D01*
X7743991Y-10648270D02*
X7743991Y-10695889D01*
X7743991Y-10695889D02*
X7734467Y-10714936D01*
X7734467Y-10714936D02*
X7724944Y-10724460D01*
X7724944Y-10724460D02*
X7705896Y-10733984D01*
X7705896Y-10733984D02*
X7648753Y-10733984D01*
X7648753Y-10733984D02*
X7629706Y-10724460D01*
X7629706Y-10724460D02*
X7620182Y-10714936D01*
X7934467Y-10733984D02*
X7820182Y-10733984D01*
X7877325Y-10733984D02*
X7877325Y-10533984D01*
X7877325Y-10533984D02*
X7858277Y-10562555D01*
X7858277Y-10562555D02*
X7839229Y-10581603D01*
X7839229Y-10581603D02*
X7820182Y-10591127D01*
X8115420Y-10533984D02*
X8020182Y-10533984D01*
X8020182Y-10533984D02*
X8010658Y-10629222D01*
X8010658Y-10629222D02*
X8020182Y-10619698D01*
X8020182Y-10619698D02*
X8039229Y-10610174D01*
X8039229Y-10610174D02*
X8086848Y-10610174D01*
X8086848Y-10610174D02*
X8105896Y-10619698D01*
X8105896Y-10619698D02*
X8115420Y-10629222D01*
X8115420Y-10629222D02*
X8124944Y-10648270D01*
X8124944Y-10648270D02*
X8124944Y-10695889D01*
X8124944Y-10695889D02*
X8115420Y-10714936D01*
X8115420Y-10714936D02*
X8105896Y-10724460D01*
X8105896Y-10724460D02*
X8086848Y-10733984D01*
X8086848Y-10733984D02*
X8039229Y-10733984D01*
X8039229Y-10733984D02*
X8020182Y-10724460D01*
X8020182Y-10724460D02*
X8010658Y-10714936D01*
X8201134Y-10533984D02*
X8201134Y-10572079D01*
X8277325Y-10533984D02*
X8277325Y-10572079D01*
X8572563Y-10810174D02*
X8563039Y-10800650D01*
X8563039Y-10800650D02*
X8543991Y-10772079D01*
X8543991Y-10772079D02*
X8534468Y-10753031D01*
X8534468Y-10753031D02*
X8524944Y-10724460D01*
X8524944Y-10724460D02*
X8515420Y-10676841D01*
X8515420Y-10676841D02*
X8515420Y-10638746D01*
X8515420Y-10638746D02*
X8524944Y-10591127D01*
X8524944Y-10591127D02*
X8534468Y-10562555D01*
X8534468Y-10562555D02*
X8543991Y-10543508D01*
X8543991Y-10543508D02*
X8563039Y-10514936D01*
X8563039Y-10514936D02*
X8572563Y-10505412D01*
X8734468Y-10600650D02*
X8734468Y-10733984D01*
X8686849Y-10524460D02*
X8639230Y-10667317D01*
X8639230Y-10667317D02*
X8763039Y-10667317D01*
X8991611Y-10733984D02*
X8991611Y-10533984D01*
X9077325Y-10733984D02*
X9077325Y-10629222D01*
X9077325Y-10629222D02*
X9067801Y-10610174D01*
X9067801Y-10610174D02*
X9048753Y-10600650D01*
X9048753Y-10600650D02*
X9020182Y-10600650D01*
X9020182Y-10600650D02*
X9001134Y-10610174D01*
X9001134Y-10610174D02*
X8991611Y-10619698D01*
X9201134Y-10733984D02*
X9182087Y-10724460D01*
X9182087Y-10724460D02*
X9172563Y-10714936D01*
X9172563Y-10714936D02*
X9163039Y-10695889D01*
X9163039Y-10695889D02*
X9163039Y-10638746D01*
X9163039Y-10638746D02*
X9172563Y-10619698D01*
X9172563Y-10619698D02*
X9182087Y-10610174D01*
X9182087Y-10610174D02*
X9201134Y-10600650D01*
X9201134Y-10600650D02*
X9229706Y-10600650D01*
X9229706Y-10600650D02*
X9248753Y-10610174D01*
X9248753Y-10610174D02*
X9258277Y-10619698D01*
X9258277Y-10619698D02*
X9267801Y-10638746D01*
X9267801Y-10638746D02*
X9267801Y-10695889D01*
X9267801Y-10695889D02*
X9258277Y-10714936D01*
X9258277Y-10714936D02*
X9248753Y-10724460D01*
X9248753Y-10724460D02*
X9229706Y-10733984D01*
X9229706Y-10733984D02*
X9201134Y-10733984D01*
X9382087Y-10733984D02*
X9363039Y-10724460D01*
X9363039Y-10724460D02*
X9353515Y-10705412D01*
X9353515Y-10705412D02*
X9353515Y-10533984D01*
X9534468Y-10724460D02*
X9515420Y-10733984D01*
X9515420Y-10733984D02*
X9477325Y-10733984D01*
X9477325Y-10733984D02*
X9458277Y-10724460D01*
X9458277Y-10724460D02*
X9448753Y-10705412D01*
X9448753Y-10705412D02*
X9448753Y-10629222D01*
X9448753Y-10629222D02*
X9458277Y-10610174D01*
X9458277Y-10610174D02*
X9477325Y-10600650D01*
X9477325Y-10600650D02*
X9515420Y-10600650D01*
X9515420Y-10600650D02*
X9534468Y-10610174D01*
X9534468Y-10610174D02*
X9543992Y-10629222D01*
X9543992Y-10629222D02*
X9543992Y-10648270D01*
X9543992Y-10648270D02*
X9448753Y-10667317D01*
X9620182Y-10724460D02*
X9639230Y-10733984D01*
X9639230Y-10733984D02*
X9677325Y-10733984D01*
X9677325Y-10733984D02*
X9696373Y-10724460D01*
X9696373Y-10724460D02*
X9705896Y-10705412D01*
X9705896Y-10705412D02*
X9705896Y-10695889D01*
X9705896Y-10695889D02*
X9696373Y-10676841D01*
X9696373Y-10676841D02*
X9677325Y-10667317D01*
X9677325Y-10667317D02*
X9648753Y-10667317D01*
X9648753Y-10667317D02*
X9629706Y-10657793D01*
X9629706Y-10657793D02*
X9620182Y-10638746D01*
X9620182Y-10638746D02*
X9620182Y-10629222D01*
X9620182Y-10629222D02*
X9629706Y-10610174D01*
X9629706Y-10610174D02*
X9648753Y-10600650D01*
X9648753Y-10600650D02*
X9677325Y-10600650D01*
X9677325Y-10600650D02*
X9696373Y-10610174D01*
X9772563Y-10810174D02*
X9782087Y-10800650D01*
X9782087Y-10800650D02*
X9801134Y-10772079D01*
X9801134Y-10772079D02*
X9810658Y-10753031D01*
X9810658Y-10753031D02*
X9820182Y-10724460D01*
X9820182Y-10724460D02*
X9829706Y-10676841D01*
X9829706Y-10676841D02*
X9829706Y-10638746D01*
X9829706Y-10638746D02*
X9820182Y-10591127D01*
X9820182Y-10591127D02*
X9810658Y-10562555D01*
X9810658Y-10562555D02*
X9801134Y-10543508D01*
X9801134Y-10543508D02*
X9782087Y-10514936D01*
X9782087Y-10514936D02*
X9772563Y-10505412D01*
D12*
X4997500Y-10906500D02*
G75*
G02*
X4907500Y-10906500I-45000J0D01*
G01*
X4907500Y-10906500D02*
G75*
G02*
X4997500Y-10906500I45000J0D01*
G01*
D11*
X5296372Y-10797984D02*
X5315420Y-10797984D01*
X5315420Y-10797984D02*
X5334467Y-10807508D01*
X5334467Y-10807508D02*
X5343991Y-10817031D01*
X5343991Y-10817031D02*
X5353515Y-10836079D01*
X5353515Y-10836079D02*
X5363039Y-10874174D01*
X5363039Y-10874174D02*
X5363039Y-10921793D01*
X5363039Y-10921793D02*
X5353515Y-10959889D01*
X5353515Y-10959889D02*
X5343991Y-10978936D01*
X5343991Y-10978936D02*
X5334467Y-10988460D01*
X5334467Y-10988460D02*
X5315420Y-10997984D01*
X5315420Y-10997984D02*
X5296372Y-10997984D01*
X5296372Y-10997984D02*
X5277324Y-10988460D01*
X5277324Y-10988460D02*
X5267801Y-10978936D01*
X5267801Y-10978936D02*
X5258277Y-10959889D01*
X5258277Y-10959889D02*
X5248753Y-10921793D01*
X5248753Y-10921793D02*
X5248753Y-10874174D01*
X5248753Y-10874174D02*
X5258277Y-10836079D01*
X5258277Y-10836079D02*
X5267801Y-10817031D01*
X5267801Y-10817031D02*
X5277324Y-10807508D01*
X5277324Y-10807508D02*
X5296372Y-10797984D01*
X5448753Y-10978936D02*
X5458277Y-10988460D01*
X5458277Y-10988460D02*
X5448753Y-10997984D01*
X5448753Y-10997984D02*
X5439229Y-10988460D01*
X5439229Y-10988460D02*
X5448753Y-10978936D01*
X5448753Y-10978936D02*
X5448753Y-10997984D01*
X5553515Y-10997984D02*
X5591610Y-10997984D01*
X5591610Y-10997984D02*
X5610658Y-10988460D01*
X5610658Y-10988460D02*
X5620182Y-10978936D01*
X5620182Y-10978936D02*
X5639229Y-10950365D01*
X5639229Y-10950365D02*
X5648753Y-10912270D01*
X5648753Y-10912270D02*
X5648753Y-10836079D01*
X5648753Y-10836079D02*
X5639229Y-10817031D01*
X5639229Y-10817031D02*
X5629705Y-10807508D01*
X5629705Y-10807508D02*
X5610658Y-10797984D01*
X5610658Y-10797984D02*
X5572563Y-10797984D01*
X5572563Y-10797984D02*
X5553515Y-10807508D01*
X5553515Y-10807508D02*
X5543991Y-10817031D01*
X5543991Y-10817031D02*
X5534467Y-10836079D01*
X5534467Y-10836079D02*
X5534467Y-10883698D01*
X5534467Y-10883698D02*
X5543991Y-10902746D01*
X5543991Y-10902746D02*
X5553515Y-10912270D01*
X5553515Y-10912270D02*
X5572563Y-10921793D01*
X5572563Y-10921793D02*
X5610658Y-10921793D01*
X5610658Y-10921793D02*
X5629705Y-10912270D01*
X5629705Y-10912270D02*
X5639229Y-10902746D01*
X5639229Y-10902746D02*
X5648753Y-10883698D01*
X5772562Y-10797984D02*
X5791610Y-10797984D01*
X5791610Y-10797984D02*
X5810658Y-10807508D01*
X5810658Y-10807508D02*
X5820182Y-10817031D01*
X5820182Y-10817031D02*
X5829705Y-10836079D01*
X5829705Y-10836079D02*
X5839229Y-10874174D01*
X5839229Y-10874174D02*
X5839229Y-10921793D01*
X5839229Y-10921793D02*
X5829705Y-10959889D01*
X5829705Y-10959889D02*
X5820182Y-10978936D01*
X5820182Y-10978936D02*
X5810658Y-10988460D01*
X5810658Y-10988460D02*
X5791610Y-10997984D01*
X5791610Y-10997984D02*
X5772562Y-10997984D01*
X5772562Y-10997984D02*
X5753515Y-10988460D01*
X5753515Y-10988460D02*
X5743991Y-10978936D01*
X5743991Y-10978936D02*
X5734467Y-10959889D01*
X5734467Y-10959889D02*
X5724943Y-10921793D01*
X5724943Y-10921793D02*
X5724943Y-10874174D01*
X5724943Y-10874174D02*
X5734467Y-10836079D01*
X5734467Y-10836079D02*
X5743991Y-10817031D01*
X5743991Y-10817031D02*
X5753515Y-10807508D01*
X5753515Y-10807508D02*
X5772562Y-10797984D01*
X5963039Y-10797984D02*
X5982086Y-10797984D01*
X5982086Y-10797984D02*
X6001134Y-10807508D01*
X6001134Y-10807508D02*
X6010658Y-10817031D01*
X6010658Y-10817031D02*
X6020182Y-10836079D01*
X6020182Y-10836079D02*
X6029705Y-10874174D01*
X6029705Y-10874174D02*
X6029705Y-10921793D01*
X6029705Y-10921793D02*
X6020182Y-10959889D01*
X6020182Y-10959889D02*
X6010658Y-10978936D01*
X6010658Y-10978936D02*
X6001134Y-10988460D01*
X6001134Y-10988460D02*
X5982086Y-10997984D01*
X5982086Y-10997984D02*
X5963039Y-10997984D01*
X5963039Y-10997984D02*
X5943991Y-10988460D01*
X5943991Y-10988460D02*
X5934467Y-10978936D01*
X5934467Y-10978936D02*
X5924943Y-10959889D01*
X5924943Y-10959889D02*
X5915420Y-10921793D01*
X5915420Y-10921793D02*
X5915420Y-10874174D01*
X5915420Y-10874174D02*
X5924943Y-10836079D01*
X5924943Y-10836079D02*
X5934467Y-10817031D01*
X5934467Y-10817031D02*
X5943991Y-10807508D01*
X5943991Y-10807508D02*
X5963039Y-10797984D01*
X6115420Y-10997984D02*
X6115420Y-10864650D01*
X6115420Y-10883698D02*
X6124943Y-10874174D01*
X6124943Y-10874174D02*
X6143991Y-10864650D01*
X6143991Y-10864650D02*
X6172563Y-10864650D01*
X6172563Y-10864650D02*
X6191610Y-10874174D01*
X6191610Y-10874174D02*
X6201134Y-10893222D01*
X6201134Y-10893222D02*
X6201134Y-10997984D01*
X6201134Y-10893222D02*
X6210658Y-10874174D01*
X6210658Y-10874174D02*
X6229705Y-10864650D01*
X6229705Y-10864650D02*
X6258277Y-10864650D01*
X6258277Y-10864650D02*
X6277324Y-10874174D01*
X6277324Y-10874174D02*
X6286848Y-10893222D01*
X6286848Y-10893222D02*
X6286848Y-10997984D01*
X6382086Y-10997984D02*
X6382086Y-10864650D01*
X6382086Y-10883698D02*
X6391610Y-10874174D01*
X6391610Y-10874174D02*
X6410658Y-10864650D01*
X6410658Y-10864650D02*
X6439229Y-10864650D01*
X6439229Y-10864650D02*
X6458277Y-10874174D01*
X6458277Y-10874174D02*
X6467801Y-10893222D01*
X6467801Y-10893222D02*
X6467801Y-10997984D01*
X6467801Y-10893222D02*
X6477324Y-10874174D01*
X6477324Y-10874174D02*
X6496372Y-10864650D01*
X6496372Y-10864650D02*
X6524943Y-10864650D01*
X6524943Y-10864650D02*
X6543991Y-10874174D01*
X6543991Y-10874174D02*
X6553515Y-10893222D01*
X6553515Y-10893222D02*
X6553515Y-10997984D01*
X6943991Y-10788460D02*
X6772563Y-11045603D01*
X7201134Y-10797984D02*
X7220182Y-10797984D01*
X7220182Y-10797984D02*
X7239229Y-10807508D01*
X7239229Y-10807508D02*
X7248753Y-10817031D01*
X7248753Y-10817031D02*
X7258277Y-10836079D01*
X7258277Y-10836079D02*
X7267801Y-10874174D01*
X7267801Y-10874174D02*
X7267801Y-10921793D01*
X7267801Y-10921793D02*
X7258277Y-10959889D01*
X7258277Y-10959889D02*
X7248753Y-10978936D01*
X7248753Y-10978936D02*
X7239229Y-10988460D01*
X7239229Y-10988460D02*
X7220182Y-10997984D01*
X7220182Y-10997984D02*
X7201134Y-10997984D01*
X7201134Y-10997984D02*
X7182086Y-10988460D01*
X7182086Y-10988460D02*
X7172563Y-10978936D01*
X7172563Y-10978936D02*
X7163039Y-10959889D01*
X7163039Y-10959889D02*
X7153515Y-10921793D01*
X7153515Y-10921793D02*
X7153515Y-10874174D01*
X7153515Y-10874174D02*
X7163039Y-10836079D01*
X7163039Y-10836079D02*
X7172563Y-10817031D01*
X7172563Y-10817031D02*
X7182086Y-10807508D01*
X7182086Y-10807508D02*
X7201134Y-10797984D01*
X7353515Y-10978936D02*
X7363039Y-10988460D01*
X7363039Y-10988460D02*
X7353515Y-10997984D01*
X7353515Y-10997984D02*
X7343991Y-10988460D01*
X7343991Y-10988460D02*
X7353515Y-10978936D01*
X7353515Y-10978936D02*
X7353515Y-10997984D01*
X7486848Y-10797984D02*
X7505896Y-10797984D01*
X7505896Y-10797984D02*
X7524944Y-10807508D01*
X7524944Y-10807508D02*
X7534467Y-10817031D01*
X7534467Y-10817031D02*
X7543991Y-10836079D01*
X7543991Y-10836079D02*
X7553515Y-10874174D01*
X7553515Y-10874174D02*
X7553515Y-10921793D01*
X7553515Y-10921793D02*
X7543991Y-10959889D01*
X7543991Y-10959889D02*
X7534467Y-10978936D01*
X7534467Y-10978936D02*
X7524944Y-10988460D01*
X7524944Y-10988460D02*
X7505896Y-10997984D01*
X7505896Y-10997984D02*
X7486848Y-10997984D01*
X7486848Y-10997984D02*
X7467801Y-10988460D01*
X7467801Y-10988460D02*
X7458277Y-10978936D01*
X7458277Y-10978936D02*
X7448753Y-10959889D01*
X7448753Y-10959889D02*
X7439229Y-10921793D01*
X7439229Y-10921793D02*
X7439229Y-10874174D01*
X7439229Y-10874174D02*
X7448753Y-10836079D01*
X7448753Y-10836079D02*
X7458277Y-10817031D01*
X7458277Y-10817031D02*
X7467801Y-10807508D01*
X7467801Y-10807508D02*
X7486848Y-10797984D01*
X7620182Y-10797984D02*
X7743991Y-10797984D01*
X7743991Y-10797984D02*
X7677325Y-10874174D01*
X7677325Y-10874174D02*
X7705896Y-10874174D01*
X7705896Y-10874174D02*
X7724944Y-10883698D01*
X7724944Y-10883698D02*
X7734467Y-10893222D01*
X7734467Y-10893222D02*
X7743991Y-10912270D01*
X7743991Y-10912270D02*
X7743991Y-10959889D01*
X7743991Y-10959889D02*
X7734467Y-10978936D01*
X7734467Y-10978936D02*
X7724944Y-10988460D01*
X7724944Y-10988460D02*
X7705896Y-10997984D01*
X7705896Y-10997984D02*
X7648753Y-10997984D01*
X7648753Y-10997984D02*
X7629706Y-10988460D01*
X7629706Y-10988460D02*
X7620182Y-10978936D01*
X7924944Y-10797984D02*
X7829706Y-10797984D01*
X7829706Y-10797984D02*
X7820182Y-10893222D01*
X7820182Y-10893222D02*
X7829706Y-10883698D01*
X7829706Y-10883698D02*
X7848753Y-10874174D01*
X7848753Y-10874174D02*
X7896372Y-10874174D01*
X7896372Y-10874174D02*
X7915420Y-10883698D01*
X7915420Y-10883698D02*
X7924944Y-10893222D01*
X7924944Y-10893222D02*
X7934467Y-10912270D01*
X7934467Y-10912270D02*
X7934467Y-10959889D01*
X7934467Y-10959889D02*
X7924944Y-10978936D01*
X7924944Y-10978936D02*
X7915420Y-10988460D01*
X7915420Y-10988460D02*
X7896372Y-10997984D01*
X7896372Y-10997984D02*
X7848753Y-10997984D01*
X7848753Y-10997984D02*
X7829706Y-10988460D01*
X7829706Y-10988460D02*
X7820182Y-10978936D01*
X8105896Y-10864650D02*
X8105896Y-10997984D01*
X8058277Y-10788460D02*
X8010658Y-10931317D01*
X8010658Y-10931317D02*
X8134467Y-10931317D01*
X8201134Y-10797984D02*
X8201134Y-10836079D01*
X8277325Y-10797984D02*
X8277325Y-10836079D01*
X8572563Y-11074174D02*
X8563039Y-11064650D01*
X8563039Y-11064650D02*
X8543991Y-11036079D01*
X8543991Y-11036079D02*
X8534468Y-11017031D01*
X8534468Y-11017031D02*
X8524944Y-10988460D01*
X8524944Y-10988460D02*
X8515420Y-10940841D01*
X8515420Y-10940841D02*
X8515420Y-10902746D01*
X8515420Y-10902746D02*
X8524944Y-10855127D01*
X8524944Y-10855127D02*
X8534468Y-10826555D01*
X8534468Y-10826555D02*
X8543991Y-10807508D01*
X8543991Y-10807508D02*
X8563039Y-10778936D01*
X8563039Y-10778936D02*
X8572563Y-10769412D01*
X8639230Y-10817031D02*
X8648753Y-10807508D01*
X8648753Y-10807508D02*
X8667801Y-10797984D01*
X8667801Y-10797984D02*
X8715420Y-10797984D01*
X8715420Y-10797984D02*
X8734468Y-10807508D01*
X8734468Y-10807508D02*
X8743991Y-10817031D01*
X8743991Y-10817031D02*
X8753515Y-10836079D01*
X8753515Y-10836079D02*
X8753515Y-10855127D01*
X8753515Y-10855127D02*
X8743991Y-10883698D01*
X8743991Y-10883698D02*
X8629706Y-10997984D01*
X8629706Y-10997984D02*
X8753515Y-10997984D01*
X8991611Y-10997984D02*
X8991611Y-10797984D01*
X9077325Y-10997984D02*
X9077325Y-10893222D01*
X9077325Y-10893222D02*
X9067801Y-10874174D01*
X9067801Y-10874174D02*
X9048753Y-10864650D01*
X9048753Y-10864650D02*
X9020182Y-10864650D01*
X9020182Y-10864650D02*
X9001134Y-10874174D01*
X9001134Y-10874174D02*
X8991611Y-10883698D01*
X9201134Y-10997984D02*
X9182087Y-10988460D01*
X9182087Y-10988460D02*
X9172563Y-10978936D01*
X9172563Y-10978936D02*
X9163039Y-10959889D01*
X9163039Y-10959889D02*
X9163039Y-10902746D01*
X9163039Y-10902746D02*
X9172563Y-10883698D01*
X9172563Y-10883698D02*
X9182087Y-10874174D01*
X9182087Y-10874174D02*
X9201134Y-10864650D01*
X9201134Y-10864650D02*
X9229706Y-10864650D01*
X9229706Y-10864650D02*
X9248753Y-10874174D01*
X9248753Y-10874174D02*
X9258277Y-10883698D01*
X9258277Y-10883698D02*
X9267801Y-10902746D01*
X9267801Y-10902746D02*
X9267801Y-10959889D01*
X9267801Y-10959889D02*
X9258277Y-10978936D01*
X9258277Y-10978936D02*
X9248753Y-10988460D01*
X9248753Y-10988460D02*
X9229706Y-10997984D01*
X9229706Y-10997984D02*
X9201134Y-10997984D01*
X9382087Y-10997984D02*
X9363039Y-10988460D01*
X9363039Y-10988460D02*
X9353515Y-10969412D01*
X9353515Y-10969412D02*
X9353515Y-10797984D01*
X9534468Y-10988460D02*
X9515420Y-10997984D01*
X9515420Y-10997984D02*
X9477325Y-10997984D01*
X9477325Y-10997984D02*
X9458277Y-10988460D01*
X9458277Y-10988460D02*
X9448753Y-10969412D01*
X9448753Y-10969412D02*
X9448753Y-10893222D01*
X9448753Y-10893222D02*
X9458277Y-10874174D01*
X9458277Y-10874174D02*
X9477325Y-10864650D01*
X9477325Y-10864650D02*
X9515420Y-10864650D01*
X9515420Y-10864650D02*
X9534468Y-10874174D01*
X9534468Y-10874174D02*
X9543992Y-10893222D01*
X9543992Y-10893222D02*
X9543992Y-10912270D01*
X9543992Y-10912270D02*
X9448753Y-10931317D01*
X9620182Y-10988460D02*
X9639230Y-10997984D01*
X9639230Y-10997984D02*
X9677325Y-10997984D01*
X9677325Y-10997984D02*
X9696373Y-10988460D01*
X9696373Y-10988460D02*
X9705896Y-10969412D01*
X9705896Y-10969412D02*
X9705896Y-10959889D01*
X9705896Y-10959889D02*
X9696373Y-10940841D01*
X9696373Y-10940841D02*
X9677325Y-10931317D01*
X9677325Y-10931317D02*
X9648753Y-10931317D01*
X9648753Y-10931317D02*
X9629706Y-10921793D01*
X9629706Y-10921793D02*
X9620182Y-10902746D01*
X9620182Y-10902746D02*
X9620182Y-10893222D01*
X9620182Y-10893222D02*
X9629706Y-10874174D01*
X9629706Y-10874174D02*
X9648753Y-10864650D01*
X9648753Y-10864650D02*
X9677325Y-10864650D01*
X9677325Y-10864650D02*
X9696373Y-10874174D01*
X9772563Y-11074174D02*
X9782087Y-11064650D01*
X9782087Y-11064650D02*
X9801134Y-11036079D01*
X9801134Y-11036079D02*
X9810658Y-11017031D01*
X9810658Y-11017031D02*
X9820182Y-10988460D01*
X9820182Y-10988460D02*
X9829706Y-10940841D01*
X9829706Y-10940841D02*
X9829706Y-10902746D01*
X9829706Y-10902746D02*
X9820182Y-10855127D01*
X9820182Y-10855127D02*
X9810658Y-10826555D01*
X9810658Y-10826555D02*
X9801134Y-10807508D01*
X9801134Y-10807508D02*
X9782087Y-10778936D01*
X9782087Y-10778936D02*
X9772563Y-10769412D01*
D12*
X4947500Y-11120500D02*
X4947500Y-11220500D01*
X4897500Y-11170500D02*
X4997500Y-11170500D01*
D11*
X5363039Y-11261984D02*
X5248753Y-11261984D01*
X5305896Y-11261984D02*
X5305896Y-11061984D01*
X5305896Y-11061984D02*
X5286848Y-11090555D01*
X5286848Y-11090555D02*
X5267801Y-11109603D01*
X5267801Y-11109603D02*
X5248753Y-11119127D01*
X5448753Y-11242936D02*
X5458277Y-11252460D01*
X5458277Y-11252460D02*
X5448753Y-11261984D01*
X5448753Y-11261984D02*
X5439229Y-11252460D01*
X5439229Y-11252460D02*
X5448753Y-11242936D01*
X5448753Y-11242936D02*
X5448753Y-11261984D01*
X5582086Y-11061984D02*
X5601134Y-11061984D01*
X5601134Y-11061984D02*
X5620182Y-11071508D01*
X5620182Y-11071508D02*
X5629705Y-11081031D01*
X5629705Y-11081031D02*
X5639229Y-11100079D01*
X5639229Y-11100079D02*
X5648753Y-11138174D01*
X5648753Y-11138174D02*
X5648753Y-11185793D01*
X5648753Y-11185793D02*
X5639229Y-11223888D01*
X5639229Y-11223888D02*
X5629705Y-11242936D01*
X5629705Y-11242936D02*
X5620182Y-11252460D01*
X5620182Y-11252460D02*
X5601134Y-11261984D01*
X5601134Y-11261984D02*
X5582086Y-11261984D01*
X5582086Y-11261984D02*
X5563039Y-11252460D01*
X5563039Y-11252460D02*
X5553515Y-11242936D01*
X5553515Y-11242936D02*
X5543991Y-11223888D01*
X5543991Y-11223888D02*
X5534467Y-11185793D01*
X5534467Y-11185793D02*
X5534467Y-11138174D01*
X5534467Y-11138174D02*
X5543991Y-11100079D01*
X5543991Y-11100079D02*
X5553515Y-11081031D01*
X5553515Y-11081031D02*
X5563039Y-11071508D01*
X5563039Y-11071508D02*
X5582086Y-11061984D01*
X5772562Y-11061984D02*
X5791610Y-11061984D01*
X5791610Y-11061984D02*
X5810658Y-11071508D01*
X5810658Y-11071508D02*
X5820182Y-11081031D01*
X5820182Y-11081031D02*
X5829705Y-11100079D01*
X5829705Y-11100079D02*
X5839229Y-11138174D01*
X5839229Y-11138174D02*
X5839229Y-11185793D01*
X5839229Y-11185793D02*
X5829705Y-11223888D01*
X5829705Y-11223888D02*
X5820182Y-11242936D01*
X5820182Y-11242936D02*
X5810658Y-11252460D01*
X5810658Y-11252460D02*
X5791610Y-11261984D01*
X5791610Y-11261984D02*
X5772562Y-11261984D01*
X5772562Y-11261984D02*
X5753515Y-11252460D01*
X5753515Y-11252460D02*
X5743991Y-11242936D01*
X5743991Y-11242936D02*
X5734467Y-11223888D01*
X5734467Y-11223888D02*
X5724943Y-11185793D01*
X5724943Y-11185793D02*
X5724943Y-11138174D01*
X5724943Y-11138174D02*
X5734467Y-11100079D01*
X5734467Y-11100079D02*
X5743991Y-11081031D01*
X5743991Y-11081031D02*
X5753515Y-11071508D01*
X5753515Y-11071508D02*
X5772562Y-11061984D01*
X5963039Y-11061984D02*
X5982086Y-11061984D01*
X5982086Y-11061984D02*
X6001134Y-11071508D01*
X6001134Y-11071508D02*
X6010658Y-11081031D01*
X6010658Y-11081031D02*
X6020182Y-11100079D01*
X6020182Y-11100079D02*
X6029705Y-11138174D01*
X6029705Y-11138174D02*
X6029705Y-11185793D01*
X6029705Y-11185793D02*
X6020182Y-11223888D01*
X6020182Y-11223888D02*
X6010658Y-11242936D01*
X6010658Y-11242936D02*
X6001134Y-11252460D01*
X6001134Y-11252460D02*
X5982086Y-11261984D01*
X5982086Y-11261984D02*
X5963039Y-11261984D01*
X5963039Y-11261984D02*
X5943991Y-11252460D01*
X5943991Y-11252460D02*
X5934467Y-11242936D01*
X5934467Y-11242936D02*
X5924943Y-11223888D01*
X5924943Y-11223888D02*
X5915420Y-11185793D01*
X5915420Y-11185793D02*
X5915420Y-11138174D01*
X5915420Y-11138174D02*
X5924943Y-11100079D01*
X5924943Y-11100079D02*
X5934467Y-11081031D01*
X5934467Y-11081031D02*
X5943991Y-11071508D01*
X5943991Y-11071508D02*
X5963039Y-11061984D01*
X6115420Y-11261984D02*
X6115420Y-11128650D01*
X6115420Y-11147698D02*
X6124943Y-11138174D01*
X6124943Y-11138174D02*
X6143991Y-11128650D01*
X6143991Y-11128650D02*
X6172563Y-11128650D01*
X6172563Y-11128650D02*
X6191610Y-11138174D01*
X6191610Y-11138174D02*
X6201134Y-11157222D01*
X6201134Y-11157222D02*
X6201134Y-11261984D01*
X6201134Y-11157222D02*
X6210658Y-11138174D01*
X6210658Y-11138174D02*
X6229705Y-11128650D01*
X6229705Y-11128650D02*
X6258277Y-11128650D01*
X6258277Y-11128650D02*
X6277324Y-11138174D01*
X6277324Y-11138174D02*
X6286848Y-11157222D01*
X6286848Y-11157222D02*
X6286848Y-11261984D01*
X6382086Y-11261984D02*
X6382086Y-11128650D01*
X6382086Y-11147698D02*
X6391610Y-11138174D01*
X6391610Y-11138174D02*
X6410658Y-11128650D01*
X6410658Y-11128650D02*
X6439229Y-11128650D01*
X6439229Y-11128650D02*
X6458277Y-11138174D01*
X6458277Y-11138174D02*
X6467801Y-11157222D01*
X6467801Y-11157222D02*
X6467801Y-11261984D01*
X6467801Y-11157222D02*
X6477324Y-11138174D01*
X6477324Y-11138174D02*
X6496372Y-11128650D01*
X6496372Y-11128650D02*
X6524943Y-11128650D01*
X6524943Y-11128650D02*
X6543991Y-11138174D01*
X6543991Y-11138174D02*
X6553515Y-11157222D01*
X6553515Y-11157222D02*
X6553515Y-11261984D01*
X6943991Y-11052460D02*
X6772563Y-11309603D01*
X7201134Y-11061984D02*
X7220182Y-11061984D01*
X7220182Y-11061984D02*
X7239229Y-11071508D01*
X7239229Y-11071508D02*
X7248753Y-11081031D01*
X7248753Y-11081031D02*
X7258277Y-11100079D01*
X7258277Y-11100079D02*
X7267801Y-11138174D01*
X7267801Y-11138174D02*
X7267801Y-11185793D01*
X7267801Y-11185793D02*
X7258277Y-11223888D01*
X7258277Y-11223888D02*
X7248753Y-11242936D01*
X7248753Y-11242936D02*
X7239229Y-11252460D01*
X7239229Y-11252460D02*
X7220182Y-11261984D01*
X7220182Y-11261984D02*
X7201134Y-11261984D01*
X7201134Y-11261984D02*
X7182086Y-11252460D01*
X7182086Y-11252460D02*
X7172563Y-11242936D01*
X7172563Y-11242936D02*
X7163039Y-11223888D01*
X7163039Y-11223888D02*
X7153515Y-11185793D01*
X7153515Y-11185793D02*
X7153515Y-11138174D01*
X7153515Y-11138174D02*
X7163039Y-11100079D01*
X7163039Y-11100079D02*
X7172563Y-11081031D01*
X7172563Y-11081031D02*
X7182086Y-11071508D01*
X7182086Y-11071508D02*
X7201134Y-11061984D01*
X7353515Y-11242936D02*
X7363039Y-11252460D01*
X7363039Y-11252460D02*
X7353515Y-11261984D01*
X7353515Y-11261984D02*
X7343991Y-11252460D01*
X7343991Y-11252460D02*
X7353515Y-11242936D01*
X7353515Y-11242936D02*
X7353515Y-11261984D01*
X7486848Y-11061984D02*
X7505896Y-11061984D01*
X7505896Y-11061984D02*
X7524944Y-11071508D01*
X7524944Y-11071508D02*
X7534467Y-11081031D01*
X7534467Y-11081031D02*
X7543991Y-11100079D01*
X7543991Y-11100079D02*
X7553515Y-11138174D01*
X7553515Y-11138174D02*
X7553515Y-11185793D01*
X7553515Y-11185793D02*
X7543991Y-11223888D01*
X7543991Y-11223888D02*
X7534467Y-11242936D01*
X7534467Y-11242936D02*
X7524944Y-11252460D01*
X7524944Y-11252460D02*
X7505896Y-11261984D01*
X7505896Y-11261984D02*
X7486848Y-11261984D01*
X7486848Y-11261984D02*
X7467801Y-11252460D01*
X7467801Y-11252460D02*
X7458277Y-11242936D01*
X7458277Y-11242936D02*
X7448753Y-11223888D01*
X7448753Y-11223888D02*
X7439229Y-11185793D01*
X7439229Y-11185793D02*
X7439229Y-11138174D01*
X7439229Y-11138174D02*
X7448753Y-11100079D01*
X7448753Y-11100079D02*
X7458277Y-11081031D01*
X7458277Y-11081031D02*
X7467801Y-11071508D01*
X7467801Y-11071508D02*
X7486848Y-11061984D01*
X7620182Y-11061984D02*
X7743991Y-11061984D01*
X7743991Y-11061984D02*
X7677325Y-11138174D01*
X7677325Y-11138174D02*
X7705896Y-11138174D01*
X7705896Y-11138174D02*
X7724944Y-11147698D01*
X7724944Y-11147698D02*
X7734467Y-11157222D01*
X7734467Y-11157222D02*
X7743991Y-11176270D01*
X7743991Y-11176270D02*
X7743991Y-11223888D01*
X7743991Y-11223888D02*
X7734467Y-11242936D01*
X7734467Y-11242936D02*
X7724944Y-11252460D01*
X7724944Y-11252460D02*
X7705896Y-11261984D01*
X7705896Y-11261984D02*
X7648753Y-11261984D01*
X7648753Y-11261984D02*
X7629706Y-11252460D01*
X7629706Y-11252460D02*
X7620182Y-11242936D01*
X7839229Y-11261984D02*
X7877325Y-11261984D01*
X7877325Y-11261984D02*
X7896372Y-11252460D01*
X7896372Y-11252460D02*
X7905896Y-11242936D01*
X7905896Y-11242936D02*
X7924944Y-11214365D01*
X7924944Y-11214365D02*
X7934467Y-11176270D01*
X7934467Y-11176270D02*
X7934467Y-11100079D01*
X7934467Y-11100079D02*
X7924944Y-11081031D01*
X7924944Y-11081031D02*
X7915420Y-11071508D01*
X7915420Y-11071508D02*
X7896372Y-11061984D01*
X7896372Y-11061984D02*
X7858277Y-11061984D01*
X7858277Y-11061984D02*
X7839229Y-11071508D01*
X7839229Y-11071508D02*
X7829706Y-11081031D01*
X7829706Y-11081031D02*
X7820182Y-11100079D01*
X7820182Y-11100079D02*
X7820182Y-11147698D01*
X7820182Y-11147698D02*
X7829706Y-11166746D01*
X7829706Y-11166746D02*
X7839229Y-11176270D01*
X7839229Y-11176270D02*
X7858277Y-11185793D01*
X7858277Y-11185793D02*
X7896372Y-11185793D01*
X7896372Y-11185793D02*
X7915420Y-11176270D01*
X7915420Y-11176270D02*
X7924944Y-11166746D01*
X7924944Y-11166746D02*
X7934467Y-11147698D01*
X8105896Y-11128650D02*
X8105896Y-11261984D01*
X8058277Y-11052460D02*
X8010658Y-11195317D01*
X8010658Y-11195317D02*
X8134467Y-11195317D01*
X8201134Y-11061984D02*
X8201134Y-11100079D01*
X8277325Y-11061984D02*
X8277325Y-11100079D01*
X8572563Y-11338174D02*
X8563039Y-11328650D01*
X8563039Y-11328650D02*
X8543991Y-11300079D01*
X8543991Y-11300079D02*
X8534468Y-11281031D01*
X8534468Y-11281031D02*
X8524944Y-11252460D01*
X8524944Y-11252460D02*
X8515420Y-11204841D01*
X8515420Y-11204841D02*
X8515420Y-11166746D01*
X8515420Y-11166746D02*
X8524944Y-11119127D01*
X8524944Y-11119127D02*
X8534468Y-11090555D01*
X8534468Y-11090555D02*
X8543991Y-11071508D01*
X8543991Y-11071508D02*
X8563039Y-11042936D01*
X8563039Y-11042936D02*
X8572563Y-11033412D01*
X8753515Y-11261984D02*
X8639230Y-11261984D01*
X8696372Y-11261984D02*
X8696372Y-11061984D01*
X8696372Y-11061984D02*
X8677325Y-11090555D01*
X8677325Y-11090555D02*
X8658277Y-11109603D01*
X8658277Y-11109603D02*
X8639230Y-11119127D01*
X8924944Y-11128650D02*
X8924944Y-11261984D01*
X8877325Y-11052460D02*
X8829706Y-11195317D01*
X8829706Y-11195317D02*
X8953515Y-11195317D01*
X9182087Y-11261984D02*
X9182087Y-11061984D01*
X9267801Y-11261984D02*
X9267801Y-11157222D01*
X9267801Y-11157222D02*
X9258277Y-11138174D01*
X9258277Y-11138174D02*
X9239230Y-11128650D01*
X9239230Y-11128650D02*
X9210658Y-11128650D01*
X9210658Y-11128650D02*
X9191611Y-11138174D01*
X9191611Y-11138174D02*
X9182087Y-11147698D01*
X9391611Y-11261984D02*
X9372563Y-11252460D01*
X9372563Y-11252460D02*
X9363039Y-11242936D01*
X9363039Y-11242936D02*
X9353515Y-11223888D01*
X9353515Y-11223888D02*
X9353515Y-11166746D01*
X9353515Y-11166746D02*
X9363039Y-11147698D01*
X9363039Y-11147698D02*
X9372563Y-11138174D01*
X9372563Y-11138174D02*
X9391611Y-11128650D01*
X9391611Y-11128650D02*
X9420182Y-11128650D01*
X9420182Y-11128650D02*
X9439230Y-11138174D01*
X9439230Y-11138174D02*
X9448753Y-11147698D01*
X9448753Y-11147698D02*
X9458277Y-11166746D01*
X9458277Y-11166746D02*
X9458277Y-11223888D01*
X9458277Y-11223888D02*
X9448753Y-11242936D01*
X9448753Y-11242936D02*
X9439230Y-11252460D01*
X9439230Y-11252460D02*
X9420182Y-11261984D01*
X9420182Y-11261984D02*
X9391611Y-11261984D01*
X9572563Y-11261984D02*
X9553515Y-11252460D01*
X9553515Y-11252460D02*
X9543992Y-11233412D01*
X9543992Y-11233412D02*
X9543992Y-11061984D01*
X9724944Y-11252460D02*
X9705896Y-11261984D01*
X9705896Y-11261984D02*
X9667801Y-11261984D01*
X9667801Y-11261984D02*
X9648753Y-11252460D01*
X9648753Y-11252460D02*
X9639230Y-11233412D01*
X9639230Y-11233412D02*
X9639230Y-11157222D01*
X9639230Y-11157222D02*
X9648753Y-11138174D01*
X9648753Y-11138174D02*
X9667801Y-11128650D01*
X9667801Y-11128650D02*
X9705896Y-11128650D01*
X9705896Y-11128650D02*
X9724944Y-11138174D01*
X9724944Y-11138174D02*
X9734468Y-11157222D01*
X9734468Y-11157222D02*
X9734468Y-11176270D01*
X9734468Y-11176270D02*
X9639230Y-11195317D01*
X9810658Y-11252460D02*
X9829706Y-11261984D01*
X9829706Y-11261984D02*
X9867801Y-11261984D01*
X9867801Y-11261984D02*
X9886849Y-11252460D01*
X9886849Y-11252460D02*
X9896373Y-11233412D01*
X9896373Y-11233412D02*
X9896373Y-11223888D01*
X9896373Y-11223888D02*
X9886849Y-11204841D01*
X9886849Y-11204841D02*
X9867801Y-11195317D01*
X9867801Y-11195317D02*
X9839230Y-11195317D01*
X9839230Y-11195317D02*
X9820182Y-11185793D01*
X9820182Y-11185793D02*
X9810658Y-11166746D01*
X9810658Y-11166746D02*
X9810658Y-11157222D01*
X9810658Y-11157222D02*
X9820182Y-11138174D01*
X9820182Y-11138174D02*
X9839230Y-11128650D01*
X9839230Y-11128650D02*
X9867801Y-11128650D01*
X9867801Y-11128650D02*
X9886849Y-11138174D01*
X9963039Y-11338174D02*
X9972563Y-11328650D01*
X9972563Y-11328650D02*
X9991611Y-11300079D01*
X9991611Y-11300079D02*
X10001134Y-11281031D01*
X10001134Y-11281031D02*
X10010658Y-11252460D01*
X10010658Y-11252460D02*
X10020182Y-11204841D01*
X10020182Y-11204841D02*
X10020182Y-11166746D01*
X10020182Y-11166746D02*
X10010658Y-11119127D01*
X10010658Y-11119127D02*
X10001134Y-11090555D01*
X10001134Y-11090555D02*
X9991611Y-11071508D01*
X9991611Y-11071508D02*
X9972563Y-11042936D01*
X9972563Y-11042936D02*
X9963039Y-11033412D01*
D13*
X4982621Y-11470421D02*
X4982621Y-11398579D01*
X4910779Y-11398579D01*
X4910779Y-11470421D01*
X4982621Y-11470421D01*
D11*
X5363039Y-11525984D02*
X5248753Y-11525984D01*
X5305896Y-11525984D02*
X5305896Y-11325984D01*
X5305896Y-11325984D02*
X5286848Y-11354555D01*
X5286848Y-11354555D02*
X5267801Y-11373603D01*
X5267801Y-11373603D02*
X5248753Y-11383127D01*
X5448753Y-11506936D02*
X5458277Y-11516460D01*
X5458277Y-11516460D02*
X5448753Y-11525984D01*
X5448753Y-11525984D02*
X5439229Y-11516460D01*
X5439229Y-11516460D02*
X5448753Y-11506936D01*
X5448753Y-11506936D02*
X5448753Y-11525984D01*
X5582086Y-11325984D02*
X5601134Y-11325984D01*
X5601134Y-11325984D02*
X5620182Y-11335508D01*
X5620182Y-11335508D02*
X5629705Y-11345031D01*
X5629705Y-11345031D02*
X5639229Y-11364079D01*
X5639229Y-11364079D02*
X5648753Y-11402174D01*
X5648753Y-11402174D02*
X5648753Y-11449793D01*
X5648753Y-11449793D02*
X5639229Y-11487888D01*
X5639229Y-11487888D02*
X5629705Y-11506936D01*
X5629705Y-11506936D02*
X5620182Y-11516460D01*
X5620182Y-11516460D02*
X5601134Y-11525984D01*
X5601134Y-11525984D02*
X5582086Y-11525984D01*
X5582086Y-11525984D02*
X5563039Y-11516460D01*
X5563039Y-11516460D02*
X5553515Y-11506936D01*
X5553515Y-11506936D02*
X5543991Y-11487888D01*
X5543991Y-11487888D02*
X5534467Y-11449793D01*
X5534467Y-11449793D02*
X5534467Y-11402174D01*
X5534467Y-11402174D02*
X5543991Y-11364079D01*
X5543991Y-11364079D02*
X5553515Y-11345031D01*
X5553515Y-11345031D02*
X5563039Y-11335508D01*
X5563039Y-11335508D02*
X5582086Y-11325984D01*
X5839229Y-11525984D02*
X5724943Y-11525984D01*
X5782086Y-11525984D02*
X5782086Y-11325984D01*
X5782086Y-11325984D02*
X5763039Y-11354555D01*
X5763039Y-11354555D02*
X5743991Y-11373603D01*
X5743991Y-11373603D02*
X5724943Y-11383127D01*
X6010658Y-11325984D02*
X5972562Y-11325984D01*
X5972562Y-11325984D02*
X5953515Y-11335508D01*
X5953515Y-11335508D02*
X5943991Y-11345031D01*
X5943991Y-11345031D02*
X5924943Y-11373603D01*
X5924943Y-11373603D02*
X5915420Y-11411698D01*
X5915420Y-11411698D02*
X5915420Y-11487888D01*
X5915420Y-11487888D02*
X5924943Y-11506936D01*
X5924943Y-11506936D02*
X5934467Y-11516460D01*
X5934467Y-11516460D02*
X5953515Y-11525984D01*
X5953515Y-11525984D02*
X5991610Y-11525984D01*
X5991610Y-11525984D02*
X6010658Y-11516460D01*
X6010658Y-11516460D02*
X6020182Y-11506936D01*
X6020182Y-11506936D02*
X6029705Y-11487888D01*
X6029705Y-11487888D02*
X6029705Y-11440269D01*
X6029705Y-11440269D02*
X6020182Y-11421222D01*
X6020182Y-11421222D02*
X6010658Y-11411698D01*
X6010658Y-11411698D02*
X5991610Y-11402174D01*
X5991610Y-11402174D02*
X5953515Y-11402174D01*
X5953515Y-11402174D02*
X5934467Y-11411698D01*
X5934467Y-11411698D02*
X5924943Y-11421222D01*
X5924943Y-11421222D02*
X5915420Y-11440269D01*
X6115420Y-11525984D02*
X6115420Y-11392650D01*
X6115420Y-11411698D02*
X6124943Y-11402174D01*
X6124943Y-11402174D02*
X6143991Y-11392650D01*
X6143991Y-11392650D02*
X6172563Y-11392650D01*
X6172563Y-11392650D02*
X6191610Y-11402174D01*
X6191610Y-11402174D02*
X6201134Y-11421222D01*
X6201134Y-11421222D02*
X6201134Y-11525984D01*
X6201134Y-11421222D02*
X6210658Y-11402174D01*
X6210658Y-11402174D02*
X6229705Y-11392650D01*
X6229705Y-11392650D02*
X6258277Y-11392650D01*
X6258277Y-11392650D02*
X6277324Y-11402174D01*
X6277324Y-11402174D02*
X6286848Y-11421222D01*
X6286848Y-11421222D02*
X6286848Y-11525984D01*
X6382086Y-11525984D02*
X6382086Y-11392650D01*
X6382086Y-11411698D02*
X6391610Y-11402174D01*
X6391610Y-11402174D02*
X6410658Y-11392650D01*
X6410658Y-11392650D02*
X6439229Y-11392650D01*
X6439229Y-11392650D02*
X6458277Y-11402174D01*
X6458277Y-11402174D02*
X6467801Y-11421222D01*
X6467801Y-11421222D02*
X6467801Y-11525984D01*
X6467801Y-11421222D02*
X6477324Y-11402174D01*
X6477324Y-11402174D02*
X6496372Y-11392650D01*
X6496372Y-11392650D02*
X6524943Y-11392650D01*
X6524943Y-11392650D02*
X6543991Y-11402174D01*
X6543991Y-11402174D02*
X6553515Y-11421222D01*
X6553515Y-11421222D02*
X6553515Y-11525984D01*
X6943991Y-11316460D02*
X6772563Y-11573603D01*
X7201134Y-11325984D02*
X7220182Y-11325984D01*
X7220182Y-11325984D02*
X7239229Y-11335508D01*
X7239229Y-11335508D02*
X7248753Y-11345031D01*
X7248753Y-11345031D02*
X7258277Y-11364079D01*
X7258277Y-11364079D02*
X7267801Y-11402174D01*
X7267801Y-11402174D02*
X7267801Y-11449793D01*
X7267801Y-11449793D02*
X7258277Y-11487888D01*
X7258277Y-11487888D02*
X7248753Y-11506936D01*
X7248753Y-11506936D02*
X7239229Y-11516460D01*
X7239229Y-11516460D02*
X7220182Y-11525984D01*
X7220182Y-11525984D02*
X7201134Y-11525984D01*
X7201134Y-11525984D02*
X7182086Y-11516460D01*
X7182086Y-11516460D02*
X7172563Y-11506936D01*
X7172563Y-11506936D02*
X7163039Y-11487888D01*
X7163039Y-11487888D02*
X7153515Y-11449793D01*
X7153515Y-11449793D02*
X7153515Y-11402174D01*
X7153515Y-11402174D02*
X7163039Y-11364079D01*
X7163039Y-11364079D02*
X7172563Y-11345031D01*
X7172563Y-11345031D02*
X7182086Y-11335508D01*
X7182086Y-11335508D02*
X7201134Y-11325984D01*
X7353515Y-11506936D02*
X7363039Y-11516460D01*
X7363039Y-11516460D02*
X7353515Y-11525984D01*
X7353515Y-11525984D02*
X7343991Y-11516460D01*
X7343991Y-11516460D02*
X7353515Y-11506936D01*
X7353515Y-11506936D02*
X7353515Y-11525984D01*
X7486848Y-11325984D02*
X7505896Y-11325984D01*
X7505896Y-11325984D02*
X7524944Y-11335508D01*
X7524944Y-11335508D02*
X7534467Y-11345031D01*
X7534467Y-11345031D02*
X7543991Y-11364079D01*
X7543991Y-11364079D02*
X7553515Y-11402174D01*
X7553515Y-11402174D02*
X7553515Y-11449793D01*
X7553515Y-11449793D02*
X7543991Y-11487888D01*
X7543991Y-11487888D02*
X7534467Y-11506936D01*
X7534467Y-11506936D02*
X7524944Y-11516460D01*
X7524944Y-11516460D02*
X7505896Y-11525984D01*
X7505896Y-11525984D02*
X7486848Y-11525984D01*
X7486848Y-11525984D02*
X7467801Y-11516460D01*
X7467801Y-11516460D02*
X7458277Y-11506936D01*
X7458277Y-11506936D02*
X7448753Y-11487888D01*
X7448753Y-11487888D02*
X7439229Y-11449793D01*
X7439229Y-11449793D02*
X7439229Y-11402174D01*
X7439229Y-11402174D02*
X7448753Y-11364079D01*
X7448753Y-11364079D02*
X7458277Y-11345031D01*
X7458277Y-11345031D02*
X7467801Y-11335508D01*
X7467801Y-11335508D02*
X7486848Y-11325984D01*
X7724944Y-11392650D02*
X7724944Y-11525984D01*
X7677325Y-11316460D02*
X7629706Y-11459317D01*
X7629706Y-11459317D02*
X7753515Y-11459317D01*
X7867801Y-11325984D02*
X7886848Y-11325984D01*
X7886848Y-11325984D02*
X7905896Y-11335508D01*
X7905896Y-11335508D02*
X7915420Y-11345031D01*
X7915420Y-11345031D02*
X7924944Y-11364079D01*
X7924944Y-11364079D02*
X7934467Y-11402174D01*
X7934467Y-11402174D02*
X7934467Y-11449793D01*
X7934467Y-11449793D02*
X7924944Y-11487888D01*
X7924944Y-11487888D02*
X7915420Y-11506936D01*
X7915420Y-11506936D02*
X7905896Y-11516460D01*
X7905896Y-11516460D02*
X7886848Y-11525984D01*
X7886848Y-11525984D02*
X7867801Y-11525984D01*
X7867801Y-11525984D02*
X7848753Y-11516460D01*
X7848753Y-11516460D02*
X7839229Y-11506936D01*
X7839229Y-11506936D02*
X7829706Y-11487888D01*
X7829706Y-11487888D02*
X7820182Y-11449793D01*
X7820182Y-11449793D02*
X7820182Y-11402174D01*
X7820182Y-11402174D02*
X7829706Y-11364079D01*
X7829706Y-11364079D02*
X7839229Y-11345031D01*
X7839229Y-11345031D02*
X7848753Y-11335508D01*
X7848753Y-11335508D02*
X7867801Y-11325984D01*
X8058277Y-11325984D02*
X8077325Y-11325984D01*
X8077325Y-11325984D02*
X8096372Y-11335508D01*
X8096372Y-11335508D02*
X8105896Y-11345031D01*
X8105896Y-11345031D02*
X8115420Y-11364079D01*
X8115420Y-11364079D02*
X8124944Y-11402174D01*
X8124944Y-11402174D02*
X8124944Y-11449793D01*
X8124944Y-11449793D02*
X8115420Y-11487888D01*
X8115420Y-11487888D02*
X8105896Y-11506936D01*
X8105896Y-11506936D02*
X8096372Y-11516460D01*
X8096372Y-11516460D02*
X8077325Y-11525984D01*
X8077325Y-11525984D02*
X8058277Y-11525984D01*
X8058277Y-11525984D02*
X8039229Y-11516460D01*
X8039229Y-11516460D02*
X8029706Y-11506936D01*
X8029706Y-11506936D02*
X8020182Y-11487888D01*
X8020182Y-11487888D02*
X8010658Y-11449793D01*
X8010658Y-11449793D02*
X8010658Y-11402174D01*
X8010658Y-11402174D02*
X8020182Y-11364079D01*
X8020182Y-11364079D02*
X8029706Y-11345031D01*
X8029706Y-11345031D02*
X8039229Y-11335508D01*
X8039229Y-11335508D02*
X8058277Y-11325984D01*
X8201134Y-11325984D02*
X8201134Y-11364079D01*
X8277325Y-11325984D02*
X8277325Y-11364079D01*
X8572563Y-11602174D02*
X8563039Y-11592650D01*
X8563039Y-11592650D02*
X8543991Y-11564079D01*
X8543991Y-11564079D02*
X8534468Y-11545031D01*
X8534468Y-11545031D02*
X8524944Y-11516460D01*
X8524944Y-11516460D02*
X8515420Y-11468841D01*
X8515420Y-11468841D02*
X8515420Y-11430746D01*
X8515420Y-11430746D02*
X8524944Y-11383127D01*
X8524944Y-11383127D02*
X8534468Y-11354555D01*
X8534468Y-11354555D02*
X8543991Y-11335508D01*
X8543991Y-11335508D02*
X8563039Y-11306936D01*
X8563039Y-11306936D02*
X8572563Y-11297412D01*
X8629706Y-11325984D02*
X8753515Y-11325984D01*
X8753515Y-11325984D02*
X8686849Y-11402174D01*
X8686849Y-11402174D02*
X8715420Y-11402174D01*
X8715420Y-11402174D02*
X8734468Y-11411698D01*
X8734468Y-11411698D02*
X8743991Y-11421222D01*
X8743991Y-11421222D02*
X8753515Y-11440269D01*
X8753515Y-11440269D02*
X8753515Y-11487888D01*
X8753515Y-11487888D02*
X8743991Y-11506936D01*
X8743991Y-11506936D02*
X8734468Y-11516460D01*
X8734468Y-11516460D02*
X8715420Y-11525984D01*
X8715420Y-11525984D02*
X8658277Y-11525984D01*
X8658277Y-11525984D02*
X8639230Y-11516460D01*
X8639230Y-11516460D02*
X8629706Y-11506936D01*
X8877325Y-11325984D02*
X8896372Y-11325984D01*
X8896372Y-11325984D02*
X8915420Y-11335508D01*
X8915420Y-11335508D02*
X8924944Y-11345031D01*
X8924944Y-11345031D02*
X8934468Y-11364079D01*
X8934468Y-11364079D02*
X8943991Y-11402174D01*
X8943991Y-11402174D02*
X8943991Y-11449793D01*
X8943991Y-11449793D02*
X8934468Y-11487888D01*
X8934468Y-11487888D02*
X8924944Y-11506936D01*
X8924944Y-11506936D02*
X8915420Y-11516460D01*
X8915420Y-11516460D02*
X8896372Y-11525984D01*
X8896372Y-11525984D02*
X8877325Y-11525984D01*
X8877325Y-11525984D02*
X8858277Y-11516460D01*
X8858277Y-11516460D02*
X8848753Y-11506936D01*
X8848753Y-11506936D02*
X8839230Y-11487888D01*
X8839230Y-11487888D02*
X8829706Y-11449793D01*
X8829706Y-11449793D02*
X8829706Y-11402174D01*
X8829706Y-11402174D02*
X8839230Y-11364079D01*
X8839230Y-11364079D02*
X8848753Y-11345031D01*
X8848753Y-11345031D02*
X8858277Y-11335508D01*
X8858277Y-11335508D02*
X8877325Y-11325984D01*
X9182087Y-11525984D02*
X9182087Y-11325984D01*
X9267801Y-11525984D02*
X9267801Y-11421222D01*
X9267801Y-11421222D02*
X9258277Y-11402174D01*
X9258277Y-11402174D02*
X9239230Y-11392650D01*
X9239230Y-11392650D02*
X9210658Y-11392650D01*
X9210658Y-11392650D02*
X9191611Y-11402174D01*
X9191611Y-11402174D02*
X9182087Y-11411698D01*
X9391611Y-11525984D02*
X9372563Y-11516460D01*
X9372563Y-11516460D02*
X9363039Y-11506936D01*
X9363039Y-11506936D02*
X9353515Y-11487888D01*
X9353515Y-11487888D02*
X9353515Y-11430746D01*
X9353515Y-11430746D02*
X9363039Y-11411698D01*
X9363039Y-11411698D02*
X9372563Y-11402174D01*
X9372563Y-11402174D02*
X9391611Y-11392650D01*
X9391611Y-11392650D02*
X9420182Y-11392650D01*
X9420182Y-11392650D02*
X9439230Y-11402174D01*
X9439230Y-11402174D02*
X9448753Y-11411698D01*
X9448753Y-11411698D02*
X9458277Y-11430746D01*
X9458277Y-11430746D02*
X9458277Y-11487888D01*
X9458277Y-11487888D02*
X9448753Y-11506936D01*
X9448753Y-11506936D02*
X9439230Y-11516460D01*
X9439230Y-11516460D02*
X9420182Y-11525984D01*
X9420182Y-11525984D02*
X9391611Y-11525984D01*
X9572563Y-11525984D02*
X9553515Y-11516460D01*
X9553515Y-11516460D02*
X9543992Y-11497412D01*
X9543992Y-11497412D02*
X9543992Y-11325984D01*
X9724944Y-11516460D02*
X9705896Y-11525984D01*
X9705896Y-11525984D02*
X9667801Y-11525984D01*
X9667801Y-11525984D02*
X9648753Y-11516460D01*
X9648753Y-11516460D02*
X9639230Y-11497412D01*
X9639230Y-11497412D02*
X9639230Y-11421222D01*
X9639230Y-11421222D02*
X9648753Y-11402174D01*
X9648753Y-11402174D02*
X9667801Y-11392650D01*
X9667801Y-11392650D02*
X9705896Y-11392650D01*
X9705896Y-11392650D02*
X9724944Y-11402174D01*
X9724944Y-11402174D02*
X9734468Y-11421222D01*
X9734468Y-11421222D02*
X9734468Y-11440269D01*
X9734468Y-11440269D02*
X9639230Y-11459317D01*
X9810658Y-11516460D02*
X9829706Y-11525984D01*
X9829706Y-11525984D02*
X9867801Y-11525984D01*
X9867801Y-11525984D02*
X9886849Y-11516460D01*
X9886849Y-11516460D02*
X9896373Y-11497412D01*
X9896373Y-11497412D02*
X9896373Y-11487888D01*
X9896373Y-11487888D02*
X9886849Y-11468841D01*
X9886849Y-11468841D02*
X9867801Y-11459317D01*
X9867801Y-11459317D02*
X9839230Y-11459317D01*
X9839230Y-11459317D02*
X9820182Y-11449793D01*
X9820182Y-11449793D02*
X9810658Y-11430746D01*
X9810658Y-11430746D02*
X9810658Y-11421222D01*
X9810658Y-11421222D02*
X9820182Y-11402174D01*
X9820182Y-11402174D02*
X9839230Y-11392650D01*
X9839230Y-11392650D02*
X9867801Y-11392650D01*
X9867801Y-11392650D02*
X9886849Y-11402174D01*
X9963039Y-11602174D02*
X9972563Y-11592650D01*
X9972563Y-11592650D02*
X9991611Y-11564079D01*
X9991611Y-11564079D02*
X10001134Y-11545031D01*
X10001134Y-11545031D02*
X10010658Y-11516460D01*
X10010658Y-11516460D02*
X10020182Y-11468841D01*
X10020182Y-11468841D02*
X10020182Y-11430746D01*
X10020182Y-11430746D02*
X10010658Y-11383127D01*
X10010658Y-11383127D02*
X10001134Y-11354555D01*
X10001134Y-11354555D02*
X9991611Y-11335508D01*
X9991611Y-11335508D02*
X9972563Y-11306936D01*
X9972563Y-11306936D02*
X9963039Y-11297412D01*
D14*
X4942500Y-11753500D02*
X4997500Y-11698500D01*
X4942500Y-11643500D01*
X4887500Y-11698500D01*
X4942500Y-11753500D01*
D11*
X5363039Y-11789984D02*
X5248753Y-11789984D01*
X5305896Y-11789984D02*
X5305896Y-11589984D01*
X5305896Y-11589984D02*
X5286848Y-11618555D01*
X5286848Y-11618555D02*
X5267801Y-11637603D01*
X5267801Y-11637603D02*
X5248753Y-11647127D01*
X5448753Y-11770936D02*
X5458277Y-11780460D01*
X5458277Y-11780460D02*
X5448753Y-11789984D01*
X5448753Y-11789984D02*
X5439229Y-11780460D01*
X5439229Y-11780460D02*
X5448753Y-11770936D01*
X5448753Y-11770936D02*
X5448753Y-11789984D01*
X5648753Y-11789984D02*
X5534467Y-11789984D01*
X5591610Y-11789984D02*
X5591610Y-11589984D01*
X5591610Y-11589984D02*
X5572563Y-11618555D01*
X5572563Y-11618555D02*
X5553515Y-11637603D01*
X5553515Y-11637603D02*
X5534467Y-11647127D01*
X5772562Y-11589984D02*
X5791610Y-11589984D01*
X5791610Y-11589984D02*
X5810658Y-11599508D01*
X5810658Y-11599508D02*
X5820182Y-11609031D01*
X5820182Y-11609031D02*
X5829705Y-11628079D01*
X5829705Y-11628079D02*
X5839229Y-11666174D01*
X5839229Y-11666174D02*
X5839229Y-11713793D01*
X5839229Y-11713793D02*
X5829705Y-11751888D01*
X5829705Y-11751888D02*
X5820182Y-11770936D01*
X5820182Y-11770936D02*
X5810658Y-11780460D01*
X5810658Y-11780460D02*
X5791610Y-11789984D01*
X5791610Y-11789984D02*
X5772562Y-11789984D01*
X5772562Y-11789984D02*
X5753515Y-11780460D01*
X5753515Y-11780460D02*
X5743991Y-11770936D01*
X5743991Y-11770936D02*
X5734467Y-11751888D01*
X5734467Y-11751888D02*
X5724943Y-11713793D01*
X5724943Y-11713793D02*
X5724943Y-11666174D01*
X5724943Y-11666174D02*
X5734467Y-11628079D01*
X5734467Y-11628079D02*
X5743991Y-11609031D01*
X5743991Y-11609031D02*
X5753515Y-11599508D01*
X5753515Y-11599508D02*
X5772562Y-11589984D01*
X5963039Y-11589984D02*
X5982086Y-11589984D01*
X5982086Y-11589984D02*
X6001134Y-11599508D01*
X6001134Y-11599508D02*
X6010658Y-11609031D01*
X6010658Y-11609031D02*
X6020182Y-11628079D01*
X6020182Y-11628079D02*
X6029705Y-11666174D01*
X6029705Y-11666174D02*
X6029705Y-11713793D01*
X6029705Y-11713793D02*
X6020182Y-11751888D01*
X6020182Y-11751888D02*
X6010658Y-11770936D01*
X6010658Y-11770936D02*
X6001134Y-11780460D01*
X6001134Y-11780460D02*
X5982086Y-11789984D01*
X5982086Y-11789984D02*
X5963039Y-11789984D01*
X5963039Y-11789984D02*
X5943991Y-11780460D01*
X5943991Y-11780460D02*
X5934467Y-11770936D01*
X5934467Y-11770936D02*
X5924943Y-11751888D01*
X5924943Y-11751888D02*
X5915420Y-11713793D01*
X5915420Y-11713793D02*
X5915420Y-11666174D01*
X5915420Y-11666174D02*
X5924943Y-11628079D01*
X5924943Y-11628079D02*
X5934467Y-11609031D01*
X5934467Y-11609031D02*
X5943991Y-11599508D01*
X5943991Y-11599508D02*
X5963039Y-11589984D01*
X6115420Y-11789984D02*
X6115420Y-11656650D01*
X6115420Y-11675698D02*
X6124943Y-11666174D01*
X6124943Y-11666174D02*
X6143991Y-11656650D01*
X6143991Y-11656650D02*
X6172563Y-11656650D01*
X6172563Y-11656650D02*
X6191610Y-11666174D01*
X6191610Y-11666174D02*
X6201134Y-11685222D01*
X6201134Y-11685222D02*
X6201134Y-11789984D01*
X6201134Y-11685222D02*
X6210658Y-11666174D01*
X6210658Y-11666174D02*
X6229705Y-11656650D01*
X6229705Y-11656650D02*
X6258277Y-11656650D01*
X6258277Y-11656650D02*
X6277324Y-11666174D01*
X6277324Y-11666174D02*
X6286848Y-11685222D01*
X6286848Y-11685222D02*
X6286848Y-11789984D01*
X6382086Y-11789984D02*
X6382086Y-11656650D01*
X6382086Y-11675698D02*
X6391610Y-11666174D01*
X6391610Y-11666174D02*
X6410658Y-11656650D01*
X6410658Y-11656650D02*
X6439229Y-11656650D01*
X6439229Y-11656650D02*
X6458277Y-11666174D01*
X6458277Y-11666174D02*
X6467801Y-11685222D01*
X6467801Y-11685222D02*
X6467801Y-11789984D01*
X6467801Y-11685222D02*
X6477324Y-11666174D01*
X6477324Y-11666174D02*
X6496372Y-11656650D01*
X6496372Y-11656650D02*
X6524943Y-11656650D01*
X6524943Y-11656650D02*
X6543991Y-11666174D01*
X6543991Y-11666174D02*
X6553515Y-11685222D01*
X6553515Y-11685222D02*
X6553515Y-11789984D01*
X6943991Y-11580460D02*
X6772563Y-11837603D01*
X7201134Y-11589984D02*
X7220182Y-11589984D01*
X7220182Y-11589984D02*
X7239229Y-11599508D01*
X7239229Y-11599508D02*
X7248753Y-11609031D01*
X7248753Y-11609031D02*
X7258277Y-11628079D01*
X7258277Y-11628079D02*
X7267801Y-11666174D01*
X7267801Y-11666174D02*
X7267801Y-11713793D01*
X7267801Y-11713793D02*
X7258277Y-11751888D01*
X7258277Y-11751888D02*
X7248753Y-11770936D01*
X7248753Y-11770936D02*
X7239229Y-11780460D01*
X7239229Y-11780460D02*
X7220182Y-11789984D01*
X7220182Y-11789984D02*
X7201134Y-11789984D01*
X7201134Y-11789984D02*
X7182086Y-11780460D01*
X7182086Y-11780460D02*
X7172563Y-11770936D01*
X7172563Y-11770936D02*
X7163039Y-11751888D01*
X7163039Y-11751888D02*
X7153515Y-11713793D01*
X7153515Y-11713793D02*
X7153515Y-11666174D01*
X7153515Y-11666174D02*
X7163039Y-11628079D01*
X7163039Y-11628079D02*
X7172563Y-11609031D01*
X7172563Y-11609031D02*
X7182086Y-11599508D01*
X7182086Y-11599508D02*
X7201134Y-11589984D01*
X7353515Y-11770936D02*
X7363039Y-11780460D01*
X7363039Y-11780460D02*
X7353515Y-11789984D01*
X7353515Y-11789984D02*
X7343991Y-11780460D01*
X7343991Y-11780460D02*
X7353515Y-11770936D01*
X7353515Y-11770936D02*
X7353515Y-11789984D01*
X7486848Y-11589984D02*
X7505896Y-11589984D01*
X7505896Y-11589984D02*
X7524944Y-11599508D01*
X7524944Y-11599508D02*
X7534467Y-11609031D01*
X7534467Y-11609031D02*
X7543991Y-11628079D01*
X7543991Y-11628079D02*
X7553515Y-11666174D01*
X7553515Y-11666174D02*
X7553515Y-11713793D01*
X7553515Y-11713793D02*
X7543991Y-11751888D01*
X7543991Y-11751888D02*
X7534467Y-11770936D01*
X7534467Y-11770936D02*
X7524944Y-11780460D01*
X7524944Y-11780460D02*
X7505896Y-11789984D01*
X7505896Y-11789984D02*
X7486848Y-11789984D01*
X7486848Y-11789984D02*
X7467801Y-11780460D01*
X7467801Y-11780460D02*
X7458277Y-11770936D01*
X7458277Y-11770936D02*
X7448753Y-11751888D01*
X7448753Y-11751888D02*
X7439229Y-11713793D01*
X7439229Y-11713793D02*
X7439229Y-11666174D01*
X7439229Y-11666174D02*
X7448753Y-11628079D01*
X7448753Y-11628079D02*
X7458277Y-11609031D01*
X7458277Y-11609031D02*
X7467801Y-11599508D01*
X7467801Y-11599508D02*
X7486848Y-11589984D01*
X7724944Y-11656650D02*
X7724944Y-11789984D01*
X7677325Y-11580460D02*
X7629706Y-11723317D01*
X7629706Y-11723317D02*
X7753515Y-11723317D01*
X7810658Y-11589984D02*
X7934467Y-11589984D01*
X7934467Y-11589984D02*
X7867801Y-11666174D01*
X7867801Y-11666174D02*
X7896372Y-11666174D01*
X7896372Y-11666174D02*
X7915420Y-11675698D01*
X7915420Y-11675698D02*
X7924944Y-11685222D01*
X7924944Y-11685222D02*
X7934467Y-11704269D01*
X7934467Y-11704269D02*
X7934467Y-11751888D01*
X7934467Y-11751888D02*
X7924944Y-11770936D01*
X7924944Y-11770936D02*
X7915420Y-11780460D01*
X7915420Y-11780460D02*
X7896372Y-11789984D01*
X7896372Y-11789984D02*
X7839229Y-11789984D01*
X7839229Y-11789984D02*
X7820182Y-11780460D01*
X7820182Y-11780460D02*
X7810658Y-11770936D01*
X8001134Y-11589984D02*
X8124944Y-11589984D01*
X8124944Y-11589984D02*
X8058277Y-11666174D01*
X8058277Y-11666174D02*
X8086848Y-11666174D01*
X8086848Y-11666174D02*
X8105896Y-11675698D01*
X8105896Y-11675698D02*
X8115420Y-11685222D01*
X8115420Y-11685222D02*
X8124944Y-11704269D01*
X8124944Y-11704269D02*
X8124944Y-11751888D01*
X8124944Y-11751888D02*
X8115420Y-11770936D01*
X8115420Y-11770936D02*
X8105896Y-11780460D01*
X8105896Y-11780460D02*
X8086848Y-11789984D01*
X8086848Y-11789984D02*
X8029706Y-11789984D01*
X8029706Y-11789984D02*
X8010658Y-11780460D01*
X8010658Y-11780460D02*
X8001134Y-11770936D01*
X8201134Y-11589984D02*
X8201134Y-11628079D01*
X8277325Y-11589984D02*
X8277325Y-11628079D01*
X8572563Y-11866174D02*
X8563039Y-11856650D01*
X8563039Y-11856650D02*
X8543991Y-11828079D01*
X8543991Y-11828079D02*
X8534468Y-11809031D01*
X8534468Y-11809031D02*
X8524944Y-11780460D01*
X8524944Y-11780460D02*
X8515420Y-11732841D01*
X8515420Y-11732841D02*
X8515420Y-11694746D01*
X8515420Y-11694746D02*
X8524944Y-11647127D01*
X8524944Y-11647127D02*
X8534468Y-11618555D01*
X8534468Y-11618555D02*
X8543991Y-11599508D01*
X8543991Y-11599508D02*
X8563039Y-11570936D01*
X8563039Y-11570936D02*
X8572563Y-11561412D01*
X8629706Y-11589984D02*
X8763039Y-11589984D01*
X8763039Y-11589984D02*
X8677325Y-11789984D01*
X8991611Y-11789984D02*
X8991611Y-11589984D01*
X9077325Y-11789984D02*
X9077325Y-11685222D01*
X9077325Y-11685222D02*
X9067801Y-11666174D01*
X9067801Y-11666174D02*
X9048753Y-11656650D01*
X9048753Y-11656650D02*
X9020182Y-11656650D01*
X9020182Y-11656650D02*
X9001134Y-11666174D01*
X9001134Y-11666174D02*
X8991611Y-11675698D01*
X9201134Y-11789984D02*
X9182087Y-11780460D01*
X9182087Y-11780460D02*
X9172563Y-11770936D01*
X9172563Y-11770936D02*
X9163039Y-11751888D01*
X9163039Y-11751888D02*
X9163039Y-11694746D01*
X9163039Y-11694746D02*
X9172563Y-11675698D01*
X9172563Y-11675698D02*
X9182087Y-11666174D01*
X9182087Y-11666174D02*
X9201134Y-11656650D01*
X9201134Y-11656650D02*
X9229706Y-11656650D01*
X9229706Y-11656650D02*
X9248753Y-11666174D01*
X9248753Y-11666174D02*
X9258277Y-11675698D01*
X9258277Y-11675698D02*
X9267801Y-11694746D01*
X9267801Y-11694746D02*
X9267801Y-11751888D01*
X9267801Y-11751888D02*
X9258277Y-11770936D01*
X9258277Y-11770936D02*
X9248753Y-11780460D01*
X9248753Y-11780460D02*
X9229706Y-11789984D01*
X9229706Y-11789984D02*
X9201134Y-11789984D01*
X9382087Y-11789984D02*
X9363039Y-11780460D01*
X9363039Y-11780460D02*
X9353515Y-11761412D01*
X9353515Y-11761412D02*
X9353515Y-11589984D01*
X9534468Y-11780460D02*
X9515420Y-11789984D01*
X9515420Y-11789984D02*
X9477325Y-11789984D01*
X9477325Y-11789984D02*
X9458277Y-11780460D01*
X9458277Y-11780460D02*
X9448753Y-11761412D01*
X9448753Y-11761412D02*
X9448753Y-11685222D01*
X9448753Y-11685222D02*
X9458277Y-11666174D01*
X9458277Y-11666174D02*
X9477325Y-11656650D01*
X9477325Y-11656650D02*
X9515420Y-11656650D01*
X9515420Y-11656650D02*
X9534468Y-11666174D01*
X9534468Y-11666174D02*
X9543992Y-11685222D01*
X9543992Y-11685222D02*
X9543992Y-11704269D01*
X9543992Y-11704269D02*
X9448753Y-11723317D01*
X9620182Y-11780460D02*
X9639230Y-11789984D01*
X9639230Y-11789984D02*
X9677325Y-11789984D01*
X9677325Y-11789984D02*
X9696373Y-11780460D01*
X9696373Y-11780460D02*
X9705896Y-11761412D01*
X9705896Y-11761412D02*
X9705896Y-11751888D01*
X9705896Y-11751888D02*
X9696373Y-11732841D01*
X9696373Y-11732841D02*
X9677325Y-11723317D01*
X9677325Y-11723317D02*
X9648753Y-11723317D01*
X9648753Y-11723317D02*
X9629706Y-11713793D01*
X9629706Y-11713793D02*
X9620182Y-11694746D01*
X9620182Y-11694746D02*
X9620182Y-11685222D01*
X9620182Y-11685222D02*
X9629706Y-11666174D01*
X9629706Y-11666174D02*
X9648753Y-11656650D01*
X9648753Y-11656650D02*
X9677325Y-11656650D01*
X9677325Y-11656650D02*
X9696373Y-11666174D01*
X9772563Y-11866174D02*
X9782087Y-11856650D01*
X9782087Y-11856650D02*
X9801134Y-11828079D01*
X9801134Y-11828079D02*
X9810658Y-11809031D01*
X9810658Y-11809031D02*
X9820182Y-11780460D01*
X9820182Y-11780460D02*
X9829706Y-11732841D01*
X9829706Y-11732841D02*
X9829706Y-11694746D01*
X9829706Y-11694746D02*
X9820182Y-11647127D01*
X9820182Y-11647127D02*
X9810658Y-11618555D01*
X9810658Y-11618555D02*
X9801134Y-11599508D01*
X9801134Y-11599508D02*
X9782087Y-11570936D01*
X9782087Y-11570936D02*
X9772563Y-11561412D01*
D15*
X4878500Y-11903000D02*
X4997500Y-12022000D01*
X4997500Y-11903000D02*
X4878500Y-12022000D01*
X4997500Y-11962500D02*
G75*
G02*
X4878500Y-11962500I-59500J0D01*
G01*
X4878500Y-11962500D02*
G75*
G02*
X4997500Y-11962500I59500J0D01*
G01*
D11*
X5363039Y-12053984D02*
X5248753Y-12053984D01*
X5305896Y-12053984D02*
X5305896Y-11853984D01*
X5305896Y-11853984D02*
X5286848Y-11882555D01*
X5286848Y-11882555D02*
X5267801Y-11901603D01*
X5267801Y-11901603D02*
X5248753Y-11911127D01*
X5448753Y-12034936D02*
X5458277Y-12044460D01*
X5458277Y-12044460D02*
X5448753Y-12053984D01*
X5448753Y-12053984D02*
X5439229Y-12044460D01*
X5439229Y-12044460D02*
X5448753Y-12034936D01*
X5448753Y-12034936D02*
X5448753Y-12053984D01*
X5648753Y-12053984D02*
X5534467Y-12053984D01*
X5591610Y-12053984D02*
X5591610Y-11853984D01*
X5591610Y-11853984D02*
X5572563Y-11882555D01*
X5572563Y-11882555D02*
X5553515Y-11901603D01*
X5553515Y-11901603D02*
X5534467Y-11911127D01*
X5743991Y-12053984D02*
X5782086Y-12053984D01*
X5782086Y-12053984D02*
X5801134Y-12044460D01*
X5801134Y-12044460D02*
X5810658Y-12034936D01*
X5810658Y-12034936D02*
X5829705Y-12006365D01*
X5829705Y-12006365D02*
X5839229Y-11968269D01*
X5839229Y-11968269D02*
X5839229Y-11892079D01*
X5839229Y-11892079D02*
X5829705Y-11873031D01*
X5829705Y-11873031D02*
X5820182Y-11863508D01*
X5820182Y-11863508D02*
X5801134Y-11853984D01*
X5801134Y-11853984D02*
X5763039Y-11853984D01*
X5763039Y-11853984D02*
X5743991Y-11863508D01*
X5743991Y-11863508D02*
X5734467Y-11873031D01*
X5734467Y-11873031D02*
X5724943Y-11892079D01*
X5724943Y-11892079D02*
X5724943Y-11939698D01*
X5724943Y-11939698D02*
X5734467Y-11958746D01*
X5734467Y-11958746D02*
X5743991Y-11968269D01*
X5743991Y-11968269D02*
X5763039Y-11977793D01*
X5763039Y-11977793D02*
X5801134Y-11977793D01*
X5801134Y-11977793D02*
X5820182Y-11968269D01*
X5820182Y-11968269D02*
X5829705Y-11958746D01*
X5829705Y-11958746D02*
X5839229Y-11939698D01*
X5963039Y-11853984D02*
X5982086Y-11853984D01*
X5982086Y-11853984D02*
X6001134Y-11863508D01*
X6001134Y-11863508D02*
X6010658Y-11873031D01*
X6010658Y-11873031D02*
X6020182Y-11892079D01*
X6020182Y-11892079D02*
X6029705Y-11930174D01*
X6029705Y-11930174D02*
X6029705Y-11977793D01*
X6029705Y-11977793D02*
X6020182Y-12015888D01*
X6020182Y-12015888D02*
X6010658Y-12034936D01*
X6010658Y-12034936D02*
X6001134Y-12044460D01*
X6001134Y-12044460D02*
X5982086Y-12053984D01*
X5982086Y-12053984D02*
X5963039Y-12053984D01*
X5963039Y-12053984D02*
X5943991Y-12044460D01*
X5943991Y-12044460D02*
X5934467Y-12034936D01*
X5934467Y-12034936D02*
X5924943Y-12015888D01*
X5924943Y-12015888D02*
X5915420Y-11977793D01*
X5915420Y-11977793D02*
X5915420Y-11930174D01*
X5915420Y-11930174D02*
X5924943Y-11892079D01*
X5924943Y-11892079D02*
X5934467Y-11873031D01*
X5934467Y-11873031D02*
X5943991Y-11863508D01*
X5943991Y-11863508D02*
X5963039Y-11853984D01*
X6115420Y-12053984D02*
X6115420Y-11920650D01*
X6115420Y-11939698D02*
X6124943Y-11930174D01*
X6124943Y-11930174D02*
X6143991Y-11920650D01*
X6143991Y-11920650D02*
X6172563Y-11920650D01*
X6172563Y-11920650D02*
X6191610Y-11930174D01*
X6191610Y-11930174D02*
X6201134Y-11949222D01*
X6201134Y-11949222D02*
X6201134Y-12053984D01*
X6201134Y-11949222D02*
X6210658Y-11930174D01*
X6210658Y-11930174D02*
X6229705Y-11920650D01*
X6229705Y-11920650D02*
X6258277Y-11920650D01*
X6258277Y-11920650D02*
X6277324Y-11930174D01*
X6277324Y-11930174D02*
X6286848Y-11949222D01*
X6286848Y-11949222D02*
X6286848Y-12053984D01*
X6382086Y-12053984D02*
X6382086Y-11920650D01*
X6382086Y-11939698D02*
X6391610Y-11930174D01*
X6391610Y-11930174D02*
X6410658Y-11920650D01*
X6410658Y-11920650D02*
X6439229Y-11920650D01*
X6439229Y-11920650D02*
X6458277Y-11930174D01*
X6458277Y-11930174D02*
X6467801Y-11949222D01*
X6467801Y-11949222D02*
X6467801Y-12053984D01*
X6467801Y-11949222D02*
X6477324Y-11930174D01*
X6477324Y-11930174D02*
X6496372Y-11920650D01*
X6496372Y-11920650D02*
X6524943Y-11920650D01*
X6524943Y-11920650D02*
X6543991Y-11930174D01*
X6543991Y-11930174D02*
X6553515Y-11949222D01*
X6553515Y-11949222D02*
X6553515Y-12053984D01*
X6943991Y-11844460D02*
X6772563Y-12101603D01*
X7201134Y-11853984D02*
X7220182Y-11853984D01*
X7220182Y-11853984D02*
X7239229Y-11863508D01*
X7239229Y-11863508D02*
X7248753Y-11873031D01*
X7248753Y-11873031D02*
X7258277Y-11892079D01*
X7258277Y-11892079D02*
X7267801Y-11930174D01*
X7267801Y-11930174D02*
X7267801Y-11977793D01*
X7267801Y-11977793D02*
X7258277Y-12015888D01*
X7258277Y-12015888D02*
X7248753Y-12034936D01*
X7248753Y-12034936D02*
X7239229Y-12044460D01*
X7239229Y-12044460D02*
X7220182Y-12053984D01*
X7220182Y-12053984D02*
X7201134Y-12053984D01*
X7201134Y-12053984D02*
X7182086Y-12044460D01*
X7182086Y-12044460D02*
X7172563Y-12034936D01*
X7172563Y-12034936D02*
X7163039Y-12015888D01*
X7163039Y-12015888D02*
X7153515Y-11977793D01*
X7153515Y-11977793D02*
X7153515Y-11930174D01*
X7153515Y-11930174D02*
X7163039Y-11892079D01*
X7163039Y-11892079D02*
X7172563Y-11873031D01*
X7172563Y-11873031D02*
X7182086Y-11863508D01*
X7182086Y-11863508D02*
X7201134Y-11853984D01*
X7353515Y-12034936D02*
X7363039Y-12044460D01*
X7363039Y-12044460D02*
X7353515Y-12053984D01*
X7353515Y-12053984D02*
X7343991Y-12044460D01*
X7343991Y-12044460D02*
X7353515Y-12034936D01*
X7353515Y-12034936D02*
X7353515Y-12053984D01*
X7486848Y-11853984D02*
X7505896Y-11853984D01*
X7505896Y-11853984D02*
X7524944Y-11863508D01*
X7524944Y-11863508D02*
X7534467Y-11873031D01*
X7534467Y-11873031D02*
X7543991Y-11892079D01*
X7543991Y-11892079D02*
X7553515Y-11930174D01*
X7553515Y-11930174D02*
X7553515Y-11977793D01*
X7553515Y-11977793D02*
X7543991Y-12015888D01*
X7543991Y-12015888D02*
X7534467Y-12034936D01*
X7534467Y-12034936D02*
X7524944Y-12044460D01*
X7524944Y-12044460D02*
X7505896Y-12053984D01*
X7505896Y-12053984D02*
X7486848Y-12053984D01*
X7486848Y-12053984D02*
X7467801Y-12044460D01*
X7467801Y-12044460D02*
X7458277Y-12034936D01*
X7458277Y-12034936D02*
X7448753Y-12015888D01*
X7448753Y-12015888D02*
X7439229Y-11977793D01*
X7439229Y-11977793D02*
X7439229Y-11930174D01*
X7439229Y-11930174D02*
X7448753Y-11892079D01*
X7448753Y-11892079D02*
X7458277Y-11873031D01*
X7458277Y-11873031D02*
X7467801Y-11863508D01*
X7467801Y-11863508D02*
X7486848Y-11853984D01*
X7724944Y-11920650D02*
X7724944Y-12053984D01*
X7677325Y-11844460D02*
X7629706Y-11987317D01*
X7629706Y-11987317D02*
X7753515Y-11987317D01*
X7915420Y-11853984D02*
X7877325Y-11853984D01*
X7877325Y-11853984D02*
X7858277Y-11863508D01*
X7858277Y-11863508D02*
X7848753Y-11873031D01*
X7848753Y-11873031D02*
X7829706Y-11901603D01*
X7829706Y-11901603D02*
X7820182Y-11939698D01*
X7820182Y-11939698D02*
X7820182Y-12015888D01*
X7820182Y-12015888D02*
X7829706Y-12034936D01*
X7829706Y-12034936D02*
X7839229Y-12044460D01*
X7839229Y-12044460D02*
X7858277Y-12053984D01*
X7858277Y-12053984D02*
X7896372Y-12053984D01*
X7896372Y-12053984D02*
X7915420Y-12044460D01*
X7915420Y-12044460D02*
X7924944Y-12034936D01*
X7924944Y-12034936D02*
X7934467Y-12015888D01*
X7934467Y-12015888D02*
X7934467Y-11968269D01*
X7934467Y-11968269D02*
X7924944Y-11949222D01*
X7924944Y-11949222D02*
X7915420Y-11939698D01*
X7915420Y-11939698D02*
X7896372Y-11930174D01*
X7896372Y-11930174D02*
X7858277Y-11930174D01*
X7858277Y-11930174D02*
X7839229Y-11939698D01*
X7839229Y-11939698D02*
X7829706Y-11949222D01*
X7829706Y-11949222D02*
X7820182Y-11968269D01*
X8029706Y-12053984D02*
X8067801Y-12053984D01*
X8067801Y-12053984D02*
X8086848Y-12044460D01*
X8086848Y-12044460D02*
X8096372Y-12034936D01*
X8096372Y-12034936D02*
X8115420Y-12006365D01*
X8115420Y-12006365D02*
X8124944Y-11968269D01*
X8124944Y-11968269D02*
X8124944Y-11892079D01*
X8124944Y-11892079D02*
X8115420Y-11873031D01*
X8115420Y-11873031D02*
X8105896Y-11863508D01*
X8105896Y-11863508D02*
X8086848Y-11853984D01*
X8086848Y-11853984D02*
X8048753Y-11853984D01*
X8048753Y-11853984D02*
X8029706Y-11863508D01*
X8029706Y-11863508D02*
X8020182Y-11873031D01*
X8020182Y-11873031D02*
X8010658Y-11892079D01*
X8010658Y-11892079D02*
X8010658Y-11939698D01*
X8010658Y-11939698D02*
X8020182Y-11958746D01*
X8020182Y-11958746D02*
X8029706Y-11968269D01*
X8029706Y-11968269D02*
X8048753Y-11977793D01*
X8048753Y-11977793D02*
X8086848Y-11977793D01*
X8086848Y-11977793D02*
X8105896Y-11968269D01*
X8105896Y-11968269D02*
X8115420Y-11958746D01*
X8115420Y-11958746D02*
X8124944Y-11939698D01*
X8201134Y-11853984D02*
X8201134Y-11892079D01*
X8277325Y-11853984D02*
X8277325Y-11892079D01*
X8572563Y-12130174D02*
X8563039Y-12120650D01*
X8563039Y-12120650D02*
X8543991Y-12092079D01*
X8543991Y-12092079D02*
X8534468Y-12073031D01*
X8534468Y-12073031D02*
X8524944Y-12044460D01*
X8524944Y-12044460D02*
X8515420Y-11996841D01*
X8515420Y-11996841D02*
X8515420Y-11958746D01*
X8515420Y-11958746D02*
X8524944Y-11911127D01*
X8524944Y-11911127D02*
X8534468Y-11882555D01*
X8534468Y-11882555D02*
X8543991Y-11863508D01*
X8543991Y-11863508D02*
X8563039Y-11834936D01*
X8563039Y-11834936D02*
X8572563Y-11825412D01*
X8639230Y-11873031D02*
X8648753Y-11863508D01*
X8648753Y-11863508D02*
X8667801Y-11853984D01*
X8667801Y-11853984D02*
X8715420Y-11853984D01*
X8715420Y-11853984D02*
X8734468Y-11863508D01*
X8734468Y-11863508D02*
X8743991Y-11873031D01*
X8743991Y-11873031D02*
X8753515Y-11892079D01*
X8753515Y-11892079D02*
X8753515Y-11911127D01*
X8753515Y-11911127D02*
X8743991Y-11939698D01*
X8743991Y-11939698D02*
X8629706Y-12053984D01*
X8629706Y-12053984D02*
X8753515Y-12053984D01*
X8991611Y-12053984D02*
X8991611Y-11853984D01*
X9077325Y-12053984D02*
X9077325Y-11949222D01*
X9077325Y-11949222D02*
X9067801Y-11930174D01*
X9067801Y-11930174D02*
X9048753Y-11920650D01*
X9048753Y-11920650D02*
X9020182Y-11920650D01*
X9020182Y-11920650D02*
X9001134Y-11930174D01*
X9001134Y-11930174D02*
X8991611Y-11939698D01*
X9201134Y-12053984D02*
X9182087Y-12044460D01*
X9182087Y-12044460D02*
X9172563Y-12034936D01*
X9172563Y-12034936D02*
X9163039Y-12015888D01*
X9163039Y-12015888D02*
X9163039Y-11958746D01*
X9163039Y-11958746D02*
X9172563Y-11939698D01*
X9172563Y-11939698D02*
X9182087Y-11930174D01*
X9182087Y-11930174D02*
X9201134Y-11920650D01*
X9201134Y-11920650D02*
X9229706Y-11920650D01*
X9229706Y-11920650D02*
X9248753Y-11930174D01*
X9248753Y-11930174D02*
X9258277Y-11939698D01*
X9258277Y-11939698D02*
X9267801Y-11958746D01*
X9267801Y-11958746D02*
X9267801Y-12015888D01*
X9267801Y-12015888D02*
X9258277Y-12034936D01*
X9258277Y-12034936D02*
X9248753Y-12044460D01*
X9248753Y-12044460D02*
X9229706Y-12053984D01*
X9229706Y-12053984D02*
X9201134Y-12053984D01*
X9382087Y-12053984D02*
X9363039Y-12044460D01*
X9363039Y-12044460D02*
X9353515Y-12025412D01*
X9353515Y-12025412D02*
X9353515Y-11853984D01*
X9534468Y-12044460D02*
X9515420Y-12053984D01*
X9515420Y-12053984D02*
X9477325Y-12053984D01*
X9477325Y-12053984D02*
X9458277Y-12044460D01*
X9458277Y-12044460D02*
X9448753Y-12025412D01*
X9448753Y-12025412D02*
X9448753Y-11949222D01*
X9448753Y-11949222D02*
X9458277Y-11930174D01*
X9458277Y-11930174D02*
X9477325Y-11920650D01*
X9477325Y-11920650D02*
X9515420Y-11920650D01*
X9515420Y-11920650D02*
X9534468Y-11930174D01*
X9534468Y-11930174D02*
X9543992Y-11949222D01*
X9543992Y-11949222D02*
X9543992Y-11968269D01*
X9543992Y-11968269D02*
X9448753Y-11987317D01*
X9620182Y-12044460D02*
X9639230Y-12053984D01*
X9639230Y-12053984D02*
X9677325Y-12053984D01*
X9677325Y-12053984D02*
X9696373Y-12044460D01*
X9696373Y-12044460D02*
X9705896Y-12025412D01*
X9705896Y-12025412D02*
X9705896Y-12015888D01*
X9705896Y-12015888D02*
X9696373Y-11996841D01*
X9696373Y-11996841D02*
X9677325Y-11987317D01*
X9677325Y-11987317D02*
X9648753Y-11987317D01*
X9648753Y-11987317D02*
X9629706Y-11977793D01*
X9629706Y-11977793D02*
X9620182Y-11958746D01*
X9620182Y-11958746D02*
X9620182Y-11949222D01*
X9620182Y-11949222D02*
X9629706Y-11930174D01*
X9629706Y-11930174D02*
X9648753Y-11920650D01*
X9648753Y-11920650D02*
X9677325Y-11920650D01*
X9677325Y-11920650D02*
X9696373Y-11930174D01*
X9772563Y-12130174D02*
X9782087Y-12120650D01*
X9782087Y-12120650D02*
X9801134Y-12092079D01*
X9801134Y-12092079D02*
X9810658Y-12073031D01*
X9810658Y-12073031D02*
X9820182Y-12044460D01*
X9820182Y-12044460D02*
X9829706Y-11996841D01*
X9829706Y-11996841D02*
X9829706Y-11958746D01*
X9829706Y-11958746D02*
X9820182Y-11911127D01*
X9820182Y-11911127D02*
X9810658Y-11882555D01*
X9810658Y-11882555D02*
X9801134Y-11863508D01*
X9801134Y-11863508D02*
X9782087Y-11834936D01*
X9782087Y-11834936D02*
X9772563Y-11825412D01*
D16*
X4877500Y-12166500D02*
X4997500Y-12286500D01*
X4997500Y-12166500D02*
X4877500Y-12286500D01*
X4937500Y-12166500D02*
X4937500Y-12286500D01*
X4877500Y-12226500D02*
X4997500Y-12226500D01*
D11*
X5363039Y-12317984D02*
X5248753Y-12317984D01*
X5305896Y-12317984D02*
X5305896Y-12117984D01*
X5305896Y-12117984D02*
X5286848Y-12146555D01*
X5286848Y-12146555D02*
X5267801Y-12165603D01*
X5267801Y-12165603D02*
X5248753Y-12175127D01*
X5448753Y-12298936D02*
X5458277Y-12308460D01*
X5458277Y-12308460D02*
X5448753Y-12317984D01*
X5448753Y-12317984D02*
X5439229Y-12308460D01*
X5439229Y-12308460D02*
X5448753Y-12298936D01*
X5448753Y-12298936D02*
X5448753Y-12317984D01*
X5534467Y-12137031D02*
X5543991Y-12127508D01*
X5543991Y-12127508D02*
X5563039Y-12117984D01*
X5563039Y-12117984D02*
X5610658Y-12117984D01*
X5610658Y-12117984D02*
X5629705Y-12127508D01*
X5629705Y-12127508D02*
X5639229Y-12137031D01*
X5639229Y-12137031D02*
X5648753Y-12156079D01*
X5648753Y-12156079D02*
X5648753Y-12175127D01*
X5648753Y-12175127D02*
X5639229Y-12203698D01*
X5639229Y-12203698D02*
X5524944Y-12317984D01*
X5524944Y-12317984D02*
X5648753Y-12317984D01*
X5772562Y-12117984D02*
X5791610Y-12117984D01*
X5791610Y-12117984D02*
X5810658Y-12127508D01*
X5810658Y-12127508D02*
X5820182Y-12137031D01*
X5820182Y-12137031D02*
X5829705Y-12156079D01*
X5829705Y-12156079D02*
X5839229Y-12194174D01*
X5839229Y-12194174D02*
X5839229Y-12241793D01*
X5839229Y-12241793D02*
X5829705Y-12279888D01*
X5829705Y-12279888D02*
X5820182Y-12298936D01*
X5820182Y-12298936D02*
X5810658Y-12308460D01*
X5810658Y-12308460D02*
X5791610Y-12317984D01*
X5791610Y-12317984D02*
X5772562Y-12317984D01*
X5772562Y-12317984D02*
X5753515Y-12308460D01*
X5753515Y-12308460D02*
X5743991Y-12298936D01*
X5743991Y-12298936D02*
X5734467Y-12279888D01*
X5734467Y-12279888D02*
X5724943Y-12241793D01*
X5724943Y-12241793D02*
X5724943Y-12194174D01*
X5724943Y-12194174D02*
X5734467Y-12156079D01*
X5734467Y-12156079D02*
X5743991Y-12137031D01*
X5743991Y-12137031D02*
X5753515Y-12127508D01*
X5753515Y-12127508D02*
X5772562Y-12117984D01*
X5963039Y-12117984D02*
X5982086Y-12117984D01*
X5982086Y-12117984D02*
X6001134Y-12127508D01*
X6001134Y-12127508D02*
X6010658Y-12137031D01*
X6010658Y-12137031D02*
X6020182Y-12156079D01*
X6020182Y-12156079D02*
X6029705Y-12194174D01*
X6029705Y-12194174D02*
X6029705Y-12241793D01*
X6029705Y-12241793D02*
X6020182Y-12279888D01*
X6020182Y-12279888D02*
X6010658Y-12298936D01*
X6010658Y-12298936D02*
X6001134Y-12308460D01*
X6001134Y-12308460D02*
X5982086Y-12317984D01*
X5982086Y-12317984D02*
X5963039Y-12317984D01*
X5963039Y-12317984D02*
X5943991Y-12308460D01*
X5943991Y-12308460D02*
X5934467Y-12298936D01*
X5934467Y-12298936D02*
X5924943Y-12279888D01*
X5924943Y-12279888D02*
X5915420Y-12241793D01*
X5915420Y-12241793D02*
X5915420Y-12194174D01*
X5915420Y-12194174D02*
X5924943Y-12156079D01*
X5924943Y-12156079D02*
X5934467Y-12137031D01*
X5934467Y-12137031D02*
X5943991Y-12127508D01*
X5943991Y-12127508D02*
X5963039Y-12117984D01*
X6115420Y-12317984D02*
X6115420Y-12184650D01*
X6115420Y-12203698D02*
X6124943Y-12194174D01*
X6124943Y-12194174D02*
X6143991Y-12184650D01*
X6143991Y-12184650D02*
X6172563Y-12184650D01*
X6172563Y-12184650D02*
X6191610Y-12194174D01*
X6191610Y-12194174D02*
X6201134Y-12213222D01*
X6201134Y-12213222D02*
X6201134Y-12317984D01*
X6201134Y-12213222D02*
X6210658Y-12194174D01*
X6210658Y-12194174D02*
X6229705Y-12184650D01*
X6229705Y-12184650D02*
X6258277Y-12184650D01*
X6258277Y-12184650D02*
X6277324Y-12194174D01*
X6277324Y-12194174D02*
X6286848Y-12213222D01*
X6286848Y-12213222D02*
X6286848Y-12317984D01*
X6382086Y-12317984D02*
X6382086Y-12184650D01*
X6382086Y-12203698D02*
X6391610Y-12194174D01*
X6391610Y-12194174D02*
X6410658Y-12184650D01*
X6410658Y-12184650D02*
X6439229Y-12184650D01*
X6439229Y-12184650D02*
X6458277Y-12194174D01*
X6458277Y-12194174D02*
X6467801Y-12213222D01*
X6467801Y-12213222D02*
X6467801Y-12317984D01*
X6467801Y-12213222D02*
X6477324Y-12194174D01*
X6477324Y-12194174D02*
X6496372Y-12184650D01*
X6496372Y-12184650D02*
X6524943Y-12184650D01*
X6524943Y-12184650D02*
X6543991Y-12194174D01*
X6543991Y-12194174D02*
X6553515Y-12213222D01*
X6553515Y-12213222D02*
X6553515Y-12317984D01*
X6943991Y-12108460D02*
X6772563Y-12365603D01*
X7201134Y-12117984D02*
X7220182Y-12117984D01*
X7220182Y-12117984D02*
X7239229Y-12127508D01*
X7239229Y-12127508D02*
X7248753Y-12137031D01*
X7248753Y-12137031D02*
X7258277Y-12156079D01*
X7258277Y-12156079D02*
X7267801Y-12194174D01*
X7267801Y-12194174D02*
X7267801Y-12241793D01*
X7267801Y-12241793D02*
X7258277Y-12279888D01*
X7258277Y-12279888D02*
X7248753Y-12298936D01*
X7248753Y-12298936D02*
X7239229Y-12308460D01*
X7239229Y-12308460D02*
X7220182Y-12317984D01*
X7220182Y-12317984D02*
X7201134Y-12317984D01*
X7201134Y-12317984D02*
X7182086Y-12308460D01*
X7182086Y-12308460D02*
X7172563Y-12298936D01*
X7172563Y-12298936D02*
X7163039Y-12279888D01*
X7163039Y-12279888D02*
X7153515Y-12241793D01*
X7153515Y-12241793D02*
X7153515Y-12194174D01*
X7153515Y-12194174D02*
X7163039Y-12156079D01*
X7163039Y-12156079D02*
X7172563Y-12137031D01*
X7172563Y-12137031D02*
X7182086Y-12127508D01*
X7182086Y-12127508D02*
X7201134Y-12117984D01*
X7353515Y-12298936D02*
X7363039Y-12308460D01*
X7363039Y-12308460D02*
X7353515Y-12317984D01*
X7353515Y-12317984D02*
X7343991Y-12308460D01*
X7343991Y-12308460D02*
X7353515Y-12298936D01*
X7353515Y-12298936D02*
X7353515Y-12317984D01*
X7486848Y-12117984D02*
X7505896Y-12117984D01*
X7505896Y-12117984D02*
X7524944Y-12127508D01*
X7524944Y-12127508D02*
X7534467Y-12137031D01*
X7534467Y-12137031D02*
X7543991Y-12156079D01*
X7543991Y-12156079D02*
X7553515Y-12194174D01*
X7553515Y-12194174D02*
X7553515Y-12241793D01*
X7553515Y-12241793D02*
X7543991Y-12279888D01*
X7543991Y-12279888D02*
X7534467Y-12298936D01*
X7534467Y-12298936D02*
X7524944Y-12308460D01*
X7524944Y-12308460D02*
X7505896Y-12317984D01*
X7505896Y-12317984D02*
X7486848Y-12317984D01*
X7486848Y-12317984D02*
X7467801Y-12308460D01*
X7467801Y-12308460D02*
X7458277Y-12298936D01*
X7458277Y-12298936D02*
X7448753Y-12279888D01*
X7448753Y-12279888D02*
X7439229Y-12241793D01*
X7439229Y-12241793D02*
X7439229Y-12194174D01*
X7439229Y-12194174D02*
X7448753Y-12156079D01*
X7448753Y-12156079D02*
X7458277Y-12137031D01*
X7458277Y-12137031D02*
X7467801Y-12127508D01*
X7467801Y-12127508D02*
X7486848Y-12117984D01*
X7724944Y-12184650D02*
X7724944Y-12317984D01*
X7677325Y-12108460D02*
X7629706Y-12251317D01*
X7629706Y-12251317D02*
X7753515Y-12251317D01*
X7810658Y-12117984D02*
X7943991Y-12117984D01*
X7943991Y-12117984D02*
X7858277Y-12317984D01*
X8010658Y-12137031D02*
X8020182Y-12127508D01*
X8020182Y-12127508D02*
X8039229Y-12117984D01*
X8039229Y-12117984D02*
X8086848Y-12117984D01*
X8086848Y-12117984D02*
X8105896Y-12127508D01*
X8105896Y-12127508D02*
X8115420Y-12137031D01*
X8115420Y-12137031D02*
X8124944Y-12156079D01*
X8124944Y-12156079D02*
X8124944Y-12175127D01*
X8124944Y-12175127D02*
X8115420Y-12203698D01*
X8115420Y-12203698D02*
X8001134Y-12317984D01*
X8001134Y-12317984D02*
X8124944Y-12317984D01*
X8201134Y-12117984D02*
X8201134Y-12156079D01*
X8277325Y-12117984D02*
X8277325Y-12156079D01*
X8572563Y-12394174D02*
X8563039Y-12384650D01*
X8563039Y-12384650D02*
X8543991Y-12356079D01*
X8543991Y-12356079D02*
X8534468Y-12337031D01*
X8534468Y-12337031D02*
X8524944Y-12308460D01*
X8524944Y-12308460D02*
X8515420Y-12260841D01*
X8515420Y-12260841D02*
X8515420Y-12222746D01*
X8515420Y-12222746D02*
X8524944Y-12175127D01*
X8524944Y-12175127D02*
X8534468Y-12146555D01*
X8534468Y-12146555D02*
X8543991Y-12127508D01*
X8543991Y-12127508D02*
X8563039Y-12098936D01*
X8563039Y-12098936D02*
X8572563Y-12089412D01*
X8734468Y-12184650D02*
X8734468Y-12317984D01*
X8686849Y-12108460D02*
X8639230Y-12251317D01*
X8639230Y-12251317D02*
X8763039Y-12251317D01*
X8991611Y-12317984D02*
X8991611Y-12117984D01*
X9077325Y-12317984D02*
X9077325Y-12213222D01*
X9077325Y-12213222D02*
X9067801Y-12194174D01*
X9067801Y-12194174D02*
X9048753Y-12184650D01*
X9048753Y-12184650D02*
X9020182Y-12184650D01*
X9020182Y-12184650D02*
X9001134Y-12194174D01*
X9001134Y-12194174D02*
X8991611Y-12203698D01*
X9201134Y-12317984D02*
X9182087Y-12308460D01*
X9182087Y-12308460D02*
X9172563Y-12298936D01*
X9172563Y-12298936D02*
X9163039Y-12279888D01*
X9163039Y-12279888D02*
X9163039Y-12222746D01*
X9163039Y-12222746D02*
X9172563Y-12203698D01*
X9172563Y-12203698D02*
X9182087Y-12194174D01*
X9182087Y-12194174D02*
X9201134Y-12184650D01*
X9201134Y-12184650D02*
X9229706Y-12184650D01*
X9229706Y-12184650D02*
X9248753Y-12194174D01*
X9248753Y-12194174D02*
X9258277Y-12203698D01*
X9258277Y-12203698D02*
X9267801Y-12222746D01*
X9267801Y-12222746D02*
X9267801Y-12279888D01*
X9267801Y-12279888D02*
X9258277Y-12298936D01*
X9258277Y-12298936D02*
X9248753Y-12308460D01*
X9248753Y-12308460D02*
X9229706Y-12317984D01*
X9229706Y-12317984D02*
X9201134Y-12317984D01*
X9382087Y-12317984D02*
X9363039Y-12308460D01*
X9363039Y-12308460D02*
X9353515Y-12289412D01*
X9353515Y-12289412D02*
X9353515Y-12117984D01*
X9534468Y-12308460D02*
X9515420Y-12317984D01*
X9515420Y-12317984D02*
X9477325Y-12317984D01*
X9477325Y-12317984D02*
X9458277Y-12308460D01*
X9458277Y-12308460D02*
X9448753Y-12289412D01*
X9448753Y-12289412D02*
X9448753Y-12213222D01*
X9448753Y-12213222D02*
X9458277Y-12194174D01*
X9458277Y-12194174D02*
X9477325Y-12184650D01*
X9477325Y-12184650D02*
X9515420Y-12184650D01*
X9515420Y-12184650D02*
X9534468Y-12194174D01*
X9534468Y-12194174D02*
X9543992Y-12213222D01*
X9543992Y-12213222D02*
X9543992Y-12232269D01*
X9543992Y-12232269D02*
X9448753Y-12251317D01*
X9620182Y-12308460D02*
X9639230Y-12317984D01*
X9639230Y-12317984D02*
X9677325Y-12317984D01*
X9677325Y-12317984D02*
X9696373Y-12308460D01*
X9696373Y-12308460D02*
X9705896Y-12289412D01*
X9705896Y-12289412D02*
X9705896Y-12279888D01*
X9705896Y-12279888D02*
X9696373Y-12260841D01*
X9696373Y-12260841D02*
X9677325Y-12251317D01*
X9677325Y-12251317D02*
X9648753Y-12251317D01*
X9648753Y-12251317D02*
X9629706Y-12241793D01*
X9629706Y-12241793D02*
X9620182Y-12222746D01*
X9620182Y-12222746D02*
X9620182Y-12213222D01*
X9620182Y-12213222D02*
X9629706Y-12194174D01*
X9629706Y-12194174D02*
X9648753Y-12184650D01*
X9648753Y-12184650D02*
X9677325Y-12184650D01*
X9677325Y-12184650D02*
X9696373Y-12194174D01*
X9772563Y-12394174D02*
X9782087Y-12384650D01*
X9782087Y-12384650D02*
X9801134Y-12356079D01*
X9801134Y-12356079D02*
X9810658Y-12337031D01*
X9810658Y-12337031D02*
X9820182Y-12308460D01*
X9820182Y-12308460D02*
X9829706Y-12260841D01*
X9829706Y-12260841D02*
X9829706Y-12222746D01*
X9829706Y-12222746D02*
X9820182Y-12175127D01*
X9820182Y-12175127D02*
X9810658Y-12146555D01*
X9810658Y-12146555D02*
X9801134Y-12127508D01*
X9801134Y-12127508D02*
X9782087Y-12098936D01*
X9782087Y-12098936D02*
X9772563Y-12089412D01*
M02*
