M48
; DRILL file {KiCad 9.0.1+1} date 2025-05-09T02:34:25+0000
; FORMAT={-:-/ absolute / metric / decimal}
; #@! TF.CreationDate,2025-05-09T02:34:25+00:00
; #@! TF.GenerationSoftware,Kicad,Pcbnew,9.0.1+1
; #@! TF.FileFunction,MixedPlating,1,12
FMAT,2
METRIC
; #@! TA.AperFunction,Plated,PTH,ComponentDrill
T1C0.800
; #@! TA.AperFunction,Plated,PTH,ComponentDrill
T2C0.900
; #@! TA.AperFunction,Plated,PTH,ComponentDrill
T3C1.000
; #@! TA.AperFunction,Plated,PTH,ComponentDrill
T4C1.016
; #@! TA.AperFunction,Plated,PTH,ComponentDrill
T5C1.100
; #@! TA.AperFunction,Plated,PTH,ComponentDrill
T6C1.190
; #@! TA.AperFunction,Plated,PTH,ComponentDrill
T7C1.200
; #@! TA.AperFunction,NonPlated,NPTH,ComponentDrill
T8C1.800
%
G90
G05
T1
X91.44Y-86.44
X91.44Y-91.44
X111.76Y-86.36
X111.76Y-91.36
T2
X121.92Y-83.82
X121.92Y-86.36
T3
X81.28Y-68.58
X81.28Y-73.66
X83.82Y-68.58
X83.82Y-73.66
X86.36Y-68.58
X86.36Y-73.66
X142.24Y-66.04
X142.24Y-68.58
X142.24Y-71.12
X142.24Y-73.66
X142.24Y-76.2
X142.24Y-78.74
X142.24Y-81.28
X142.24Y-83.82
T4
X96.52Y-63.5
X96.52Y-78.74
X99.06Y-63.5
X99.06Y-78.74
X101.6Y-63.5
X101.6Y-78.74
X104.14Y-63.5
X104.14Y-78.74
X106.68Y-63.5
X106.68Y-78.74
X109.22Y-63.5
X109.22Y-78.74
X111.76Y-63.5
X111.76Y-78.74
X114.3Y-63.5
X114.3Y-78.74
X116.84Y-63.5
X116.84Y-78.74
X119.38Y-63.5
X119.38Y-78.74
X121.92Y-63.5
X121.92Y-78.74
X124.46Y-63.5
X124.46Y-78.74
X127.0Y-63.5
X127.0Y-78.74
X129.54Y-63.5
X129.54Y-78.74
X132.08Y-63.5
X132.08Y-78.74
T5
X81.874Y-58.695
X81.874Y-63.195
X88.374Y-58.695
X88.374Y-63.195
X104.14Y-83.82
X104.14Y-86.36
X104.14Y-88.9
T6
X81.28Y-86.36
X81.28Y-88.9
T7
X106.569Y-58.263
X119.269Y-58.263
X129.54Y-88.903
X142.24Y-88.903
T8
X93.98Y-63.5
X93.98Y-78.74
X134.62Y-63.5
X134.62Y-78.74
M30
